M48
; DRILL file {KiCad 9.0.1} date 2025-06-21T16:03:46-0500
; FORMAT={-:-/ absolute / inch / decimal}
; #@! TF.CreationDate,2025-06-21T16:03:46-05:00
; #@! TF.GenerationSoftware,Kicad,Pcbnew,9.0.1
; #@! TF.FileFunction,Plated,1,2,PTH
FMAT,2
INCH
; #@! TA.AperFunction,Plated,PTH,ViaDrill
T1C0.0236
; #@! TA.AperFunction,Plated,PTH,ComponentDrill
T2C0.0276
; #@! TA.AperFunction,Plated,PTH,ComponentDrill
T3C0.0299
; #@! TA.AperFunction,Plated,PTH,ComponentDrill
T4C0.0315
; #@! TA.AperFunction,Plated,PTH,ComponentDrill
T5C0.0394
%
G90
G05
T1
X4.2571Y-2.7799
X4.2841Y-2.6963
X4.3632Y-2.7402
X5.2264Y-3.1122
T2
X4.0585Y-3.0138
X4.1047Y-2.126
X4.1102Y-2.2362
X4.2585Y-3.0138
X4.3047Y-2.126
X4.3102Y-2.2362
X4.3602Y-3.1791
X4.3602Y-3.3791
X4.4685Y-3.1776
X4.4685Y-3.3776
X5.3685Y-2.8201
X5.3685Y-2.9138
X5.3697Y-2.5319
X5.3697Y-2.6181
X5.3709Y-2.7079
X5.3728Y-3.0138
X5.5685Y-2.8201
X5.5685Y-2.9138
X5.5697Y-2.5319
X5.5697Y-2.6181
X5.5709Y-2.7079
X5.5728Y-3.0138
X5.8858Y-2.5409
X5.8858Y-2.7409
T3
X5.0755Y-3.3642
X5.1255Y-3.2642
X5.1755Y-3.3642
X5.2255Y-3.2642
X5.2755Y-3.3642
X5.3255Y-3.2642
X5.3755Y-3.3642
X5.4255Y-3.2642
X5.752Y-3.2642
X5.802Y-3.3642
X5.852Y-3.2642
X5.902Y-3.3642
X5.952Y-3.2642
X6.002Y-3.3642
T4
X4.3602Y-2.9232
X4.4488Y-2.372
X4.4488Y-2.6181
X4.4547Y-2.126
X4.4587Y-2.9232
X4.5472Y-2.372
X4.5531Y-2.126
X4.5866Y-2.6181
X4.7972Y-3.1781
X4.7972Y-3.2766
X5.1781Y-2.6732
X5.1781Y-2.7717
X6.0724Y-2.3276
X6.1709Y-2.3276
T5
X4.0591Y-3.4866
X4.1591Y-3.4866
X4.2665Y-1.8201
X4.2665Y-1.9201
X4.3646Y-3.5276
X4.3665Y-1.8201
X4.3665Y-1.9201
X4.4646Y-3.5276
X4.4665Y-1.8201
X4.4665Y-1.9201
X4.5646Y-3.5276
X4.5665Y-1.8201
X4.5665Y-1.9201
X4.6646Y-3.5276
X4.6665Y-1.8201
X4.6665Y-1.9201
X4.7665Y-1.8201
X4.7665Y-1.9201
X4.8665Y-1.8201
X4.8665Y-1.9201
X4.9665Y-1.8201
X4.9665Y-1.9201
X5.0665Y-1.8201
X5.0665Y-1.9201
X5.1665Y-1.8201
X5.1665Y-1.9201
X5.2665Y-1.8201
X5.2665Y-1.9201
X5.3665Y-1.8201
X5.3665Y-1.9201
X5.4665Y-1.8201
X5.4665Y-1.9201
X5.5665Y-1.8201
X5.5665Y-1.9201
X5.6665Y-1.8201
X5.6665Y-1.9201
X5.7665Y-1.8201
X5.7665Y-1.9201
X5.8665Y-1.8201
X5.8665Y-1.9201
X5.9665Y-1.8201
X5.9665Y-1.9201
X6.0665Y-1.8201
X6.0665Y-1.9201
X6.1665Y-1.8201
X6.1665Y-1.9201
M30
