G04 #@! TF.GenerationSoftware,KiCad,Pcbnew,9.0.1*
G04 #@! TF.CreationDate,2025-06-21T16:03:48-05:00*
G04 #@! TF.ProjectId,rpi 1,72706920-312e-46b6-9963-61645f706362,rev?*
G04 #@! TF.SameCoordinates,Original*
G04 #@! TF.FileFunction,Legend,Top*
G04 #@! TF.FilePolarity,Positive*
%FSLAX46Y46*%
G04 Gerber Fmt 4.6, Leading zero omitted, Abs format (unit mm)*
G04 Created by KiCad (PCBNEW 9.0.1) date 2025-06-21 16:03:48*
%MOMM*%
%LPD*%
G01*
G04 APERTURE LIST*
%ADD10C,0.150000*%
%ADD11C,0.120000*%
%ADD12C,0.000000*%
%ADD13C,0.127000*%
G04 APERTURE END LIST*
D10*
X161019819Y-67246077D02*
X162019819Y-66912744D01*
X162019819Y-66912744D02*
X161019819Y-66579411D01*
X162019819Y-65722268D02*
X162019819Y-66293696D01*
X162019819Y-66007982D02*
X161019819Y-66007982D01*
X161019819Y-66007982D02*
X161162676Y-66103220D01*
X161162676Y-66103220D02*
X161257914Y-66198458D01*
X161257914Y-66198458D02*
X161305533Y-66293696D01*
X161924580Y-65293696D02*
X161972200Y-65246077D01*
X161972200Y-65246077D02*
X162019819Y-65293696D01*
X162019819Y-65293696D02*
X161972200Y-65341315D01*
X161972200Y-65341315D02*
X161924580Y-65293696D01*
X161924580Y-65293696D02*
X162019819Y-65293696D01*
X161353152Y-64388935D02*
X162019819Y-64388935D01*
X160972200Y-64627030D02*
X161686485Y-64865125D01*
X161686485Y-64865125D02*
X161686485Y-64246078D01*
X161115057Y-62388934D02*
X161067438Y-62341315D01*
X161067438Y-62341315D02*
X161019819Y-62246077D01*
X161019819Y-62246077D02*
X161019819Y-62007982D01*
X161019819Y-62007982D02*
X161067438Y-61912744D01*
X161067438Y-61912744D02*
X161115057Y-61865125D01*
X161115057Y-61865125D02*
X161210295Y-61817506D01*
X161210295Y-61817506D02*
X161305533Y-61817506D01*
X161305533Y-61817506D02*
X161448390Y-61865125D01*
X161448390Y-61865125D02*
X162019819Y-62436553D01*
X162019819Y-62436553D02*
X162019819Y-61817506D01*
X162019819Y-60865125D02*
X162019819Y-61436553D01*
X162019819Y-61150839D02*
X161019819Y-61150839D01*
X161019819Y-61150839D02*
X161162676Y-61246077D01*
X161162676Y-61246077D02*
X161257914Y-61341315D01*
X161257914Y-61341315D02*
X161305533Y-61436553D01*
X161638866Y-60436553D02*
X161638866Y-59674649D01*
X161019819Y-58912744D02*
X161734104Y-58912744D01*
X161734104Y-58912744D02*
X161876961Y-58960363D01*
X161876961Y-58960363D02*
X161972200Y-59055601D01*
X161972200Y-59055601D02*
X162019819Y-59198458D01*
X162019819Y-59198458D02*
X162019819Y-59293696D01*
X161019819Y-58436553D02*
X161829342Y-58436553D01*
X161829342Y-58436553D02*
X161924580Y-58388934D01*
X161924580Y-58388934D02*
X161972200Y-58341315D01*
X161972200Y-58341315D02*
X162019819Y-58246077D01*
X162019819Y-58246077D02*
X162019819Y-58055601D01*
X162019819Y-58055601D02*
X161972200Y-57960363D01*
X161972200Y-57960363D02*
X161924580Y-57912744D01*
X161924580Y-57912744D02*
X161829342Y-57865125D01*
X161829342Y-57865125D02*
X161019819Y-57865125D01*
X162019819Y-57388934D02*
X161019819Y-57388934D01*
X161019819Y-57388934D02*
X162019819Y-56817506D01*
X162019819Y-56817506D02*
X161019819Y-56817506D01*
X161638866Y-56341315D02*
X161638866Y-55579411D01*
X161115057Y-55150839D02*
X161067438Y-55103220D01*
X161067438Y-55103220D02*
X161019819Y-55007982D01*
X161019819Y-55007982D02*
X161019819Y-54769887D01*
X161019819Y-54769887D02*
X161067438Y-54674649D01*
X161067438Y-54674649D02*
X161115057Y-54627030D01*
X161115057Y-54627030D02*
X161210295Y-54579411D01*
X161210295Y-54579411D02*
X161305533Y-54579411D01*
X161305533Y-54579411D02*
X161448390Y-54627030D01*
X161448390Y-54627030D02*
X162019819Y-55198458D01*
X162019819Y-55198458D02*
X162019819Y-54579411D01*
X161019819Y-53960363D02*
X161019819Y-53865125D01*
X161019819Y-53865125D02*
X161067438Y-53769887D01*
X161067438Y-53769887D02*
X161115057Y-53722268D01*
X161115057Y-53722268D02*
X161210295Y-53674649D01*
X161210295Y-53674649D02*
X161400771Y-53627030D01*
X161400771Y-53627030D02*
X161638866Y-53627030D01*
X161638866Y-53627030D02*
X161829342Y-53674649D01*
X161829342Y-53674649D02*
X161924580Y-53722268D01*
X161924580Y-53722268D02*
X161972200Y-53769887D01*
X161972200Y-53769887D02*
X162019819Y-53865125D01*
X162019819Y-53865125D02*
X162019819Y-53960363D01*
X162019819Y-53960363D02*
X161972200Y-54055601D01*
X161972200Y-54055601D02*
X161924580Y-54103220D01*
X161924580Y-54103220D02*
X161829342Y-54150839D01*
X161829342Y-54150839D02*
X161638866Y-54198458D01*
X161638866Y-54198458D02*
X161400771Y-54198458D01*
X161400771Y-54198458D02*
X161210295Y-54150839D01*
X161210295Y-54150839D02*
X161115057Y-54103220D01*
X161115057Y-54103220D02*
X161067438Y-54055601D01*
X161067438Y-54055601D02*
X161019819Y-53960363D01*
X161115057Y-53246077D02*
X161067438Y-53198458D01*
X161067438Y-53198458D02*
X161019819Y-53103220D01*
X161019819Y-53103220D02*
X161019819Y-52865125D01*
X161019819Y-52865125D02*
X161067438Y-52769887D01*
X161067438Y-52769887D02*
X161115057Y-52722268D01*
X161115057Y-52722268D02*
X161210295Y-52674649D01*
X161210295Y-52674649D02*
X161305533Y-52674649D01*
X161305533Y-52674649D02*
X161448390Y-52722268D01*
X161448390Y-52722268D02*
X162019819Y-53293696D01*
X162019819Y-53293696D02*
X162019819Y-52674649D01*
X161019819Y-51769887D02*
X161019819Y-52246077D01*
X161019819Y-52246077D02*
X161496009Y-52293696D01*
X161496009Y-52293696D02*
X161448390Y-52246077D01*
X161448390Y-52246077D02*
X161400771Y-52150839D01*
X161400771Y-52150839D02*
X161400771Y-51912744D01*
X161400771Y-51912744D02*
X161448390Y-51817506D01*
X161448390Y-51817506D02*
X161496009Y-51769887D01*
X161496009Y-51769887D02*
X161591247Y-51722268D01*
X161591247Y-51722268D02*
X161829342Y-51722268D01*
X161829342Y-51722268D02*
X161924580Y-51769887D01*
X161924580Y-51769887D02*
X161972200Y-51817506D01*
X161972200Y-51817506D02*
X162019819Y-51912744D01*
X162019819Y-51912744D02*
X162019819Y-52150839D01*
X162019819Y-52150839D02*
X161972200Y-52246077D01*
X161972200Y-52246077D02*
X161924580Y-52293696D01*
X145801541Y-53023152D02*
X146039636Y-53689819D01*
X146039636Y-53689819D02*
X146277731Y-53023152D01*
X146658684Y-53689819D02*
X146658684Y-53023152D01*
X146658684Y-52689819D02*
X146611065Y-52737438D01*
X146611065Y-52737438D02*
X146658684Y-52785057D01*
X146658684Y-52785057D02*
X146706303Y-52737438D01*
X146706303Y-52737438D02*
X146658684Y-52689819D01*
X146658684Y-52689819D02*
X146658684Y-52785057D01*
X147134874Y-53023152D02*
X147134874Y-53689819D01*
X147134874Y-53118390D02*
X147182493Y-53070771D01*
X147182493Y-53070771D02*
X147277731Y-53023152D01*
X147277731Y-53023152D02*
X147420588Y-53023152D01*
X147420588Y-53023152D02*
X147515826Y-53070771D01*
X147515826Y-53070771D02*
X147563445Y-53166009D01*
X147563445Y-53166009D02*
X147563445Y-53689819D01*
X147896779Y-53023152D02*
X148277731Y-53023152D01*
X148039636Y-52689819D02*
X148039636Y-53546961D01*
X148039636Y-53546961D02*
X148087255Y-53642200D01*
X148087255Y-53642200D02*
X148182493Y-53689819D01*
X148182493Y-53689819D02*
X148277731Y-53689819D01*
X148611065Y-53689819D02*
X148611065Y-52689819D01*
X149039636Y-53689819D02*
X149039636Y-53166009D01*
X149039636Y-53166009D02*
X148992017Y-53070771D01*
X148992017Y-53070771D02*
X148896779Y-53023152D01*
X148896779Y-53023152D02*
X148753922Y-53023152D01*
X148753922Y-53023152D02*
X148658684Y-53070771D01*
X148658684Y-53070771D02*
X148611065Y-53118390D01*
X149896779Y-53642200D02*
X149801541Y-53689819D01*
X149801541Y-53689819D02*
X149611065Y-53689819D01*
X149611065Y-53689819D02*
X149515827Y-53642200D01*
X149515827Y-53642200D02*
X149468208Y-53546961D01*
X149468208Y-53546961D02*
X149468208Y-53166009D01*
X149468208Y-53166009D02*
X149515827Y-53070771D01*
X149515827Y-53070771D02*
X149611065Y-53023152D01*
X149611065Y-53023152D02*
X149801541Y-53023152D01*
X149801541Y-53023152D02*
X149896779Y-53070771D01*
X149896779Y-53070771D02*
X149944398Y-53166009D01*
X149944398Y-53166009D02*
X149944398Y-53261247D01*
X149944398Y-53261247D02*
X149468208Y-53356485D01*
X150277732Y-53023152D02*
X150468208Y-53689819D01*
X150468208Y-53689819D02*
X150658684Y-53213628D01*
X150658684Y-53213628D02*
X150849160Y-53689819D01*
X150849160Y-53689819D02*
X151039636Y-53023152D01*
X151420589Y-53689819D02*
X151420589Y-53023152D01*
X151420589Y-53213628D02*
X151468208Y-53118390D01*
X151468208Y-53118390D02*
X151515827Y-53070771D01*
X151515827Y-53070771D02*
X151611065Y-53023152D01*
X151611065Y-53023152D02*
X151706303Y-53023152D01*
X152420589Y-53642200D02*
X152325351Y-53689819D01*
X152325351Y-53689819D02*
X152134875Y-53689819D01*
X152134875Y-53689819D02*
X152039637Y-53642200D01*
X152039637Y-53642200D02*
X151992018Y-53546961D01*
X151992018Y-53546961D02*
X151992018Y-53166009D01*
X151992018Y-53166009D02*
X152039637Y-53070771D01*
X152039637Y-53070771D02*
X152134875Y-53023152D01*
X152134875Y-53023152D02*
X152325351Y-53023152D01*
X152325351Y-53023152D02*
X152420589Y-53070771D01*
X152420589Y-53070771D02*
X152468208Y-53166009D01*
X152468208Y-53166009D02*
X152468208Y-53261247D01*
X152468208Y-53261247D02*
X151992018Y-53356485D01*
X152896780Y-53023152D02*
X152896780Y-53689819D01*
X152896780Y-53118390D02*
X152944399Y-53070771D01*
X152944399Y-53070771D02*
X153039637Y-53023152D01*
X153039637Y-53023152D02*
X153182494Y-53023152D01*
X153182494Y-53023152D02*
X153277732Y-53070771D01*
X153277732Y-53070771D02*
X153325351Y-53166009D01*
X153325351Y-53166009D02*
X153325351Y-53689819D01*
X154230113Y-53642200D02*
X154134875Y-53689819D01*
X154134875Y-53689819D02*
X153944399Y-53689819D01*
X153944399Y-53689819D02*
X153849161Y-53642200D01*
X153849161Y-53642200D02*
X153801542Y-53594580D01*
X153801542Y-53594580D02*
X153753923Y-53499342D01*
X153753923Y-53499342D02*
X153753923Y-53213628D01*
X153753923Y-53213628D02*
X153801542Y-53118390D01*
X153801542Y-53118390D02*
X153849161Y-53070771D01*
X153849161Y-53070771D02*
X153944399Y-53023152D01*
X153944399Y-53023152D02*
X154134875Y-53023152D01*
X154134875Y-53023152D02*
X154230113Y-53070771D01*
X154658685Y-53689819D02*
X154658685Y-52689819D01*
X155087256Y-53689819D02*
X155087256Y-53166009D01*
X155087256Y-53166009D02*
X155039637Y-53070771D01*
X155039637Y-53070771D02*
X154944399Y-53023152D01*
X154944399Y-53023152D02*
X154801542Y-53023152D01*
X154801542Y-53023152D02*
X154706304Y-53070771D01*
X154706304Y-53070771D02*
X154658685Y-53118390D01*
X155563447Y-53594580D02*
X155611066Y-53642200D01*
X155611066Y-53642200D02*
X155563447Y-53689819D01*
X155563447Y-53689819D02*
X155515828Y-53642200D01*
X155515828Y-53642200D02*
X155563447Y-53594580D01*
X155563447Y-53594580D02*
X155563447Y-53689819D01*
X156468208Y-53642200D02*
X156372970Y-53689819D01*
X156372970Y-53689819D02*
X156182494Y-53689819D01*
X156182494Y-53689819D02*
X156087256Y-53642200D01*
X156087256Y-53642200D02*
X156039637Y-53594580D01*
X156039637Y-53594580D02*
X155992018Y-53499342D01*
X155992018Y-53499342D02*
X155992018Y-53213628D01*
X155992018Y-53213628D02*
X156039637Y-53118390D01*
X156039637Y-53118390D02*
X156087256Y-53070771D01*
X156087256Y-53070771D02*
X156182494Y-53023152D01*
X156182494Y-53023152D02*
X156372970Y-53023152D01*
X156372970Y-53023152D02*
X156468208Y-53070771D01*
X157039637Y-53689819D02*
X156944399Y-53642200D01*
X156944399Y-53642200D02*
X156896780Y-53594580D01*
X156896780Y-53594580D02*
X156849161Y-53499342D01*
X156849161Y-53499342D02*
X156849161Y-53213628D01*
X156849161Y-53213628D02*
X156896780Y-53118390D01*
X156896780Y-53118390D02*
X156944399Y-53070771D01*
X156944399Y-53070771D02*
X157039637Y-53023152D01*
X157039637Y-53023152D02*
X157182494Y-53023152D01*
X157182494Y-53023152D02*
X157277732Y-53070771D01*
X157277732Y-53070771D02*
X157325351Y-53118390D01*
X157325351Y-53118390D02*
X157372970Y-53213628D01*
X157372970Y-53213628D02*
X157372970Y-53499342D01*
X157372970Y-53499342D02*
X157325351Y-53594580D01*
X157325351Y-53594580D02*
X157277732Y-53642200D01*
X157277732Y-53642200D02*
X157182494Y-53689819D01*
X157182494Y-53689819D02*
X157039637Y-53689819D01*
X157801542Y-53689819D02*
X157801542Y-53023152D01*
X157801542Y-53118390D02*
X157849161Y-53070771D01*
X157849161Y-53070771D02*
X157944399Y-53023152D01*
X157944399Y-53023152D02*
X158087256Y-53023152D01*
X158087256Y-53023152D02*
X158182494Y-53070771D01*
X158182494Y-53070771D02*
X158230113Y-53166009D01*
X158230113Y-53166009D02*
X158230113Y-53689819D01*
X158230113Y-53166009D02*
X158277732Y-53070771D01*
X158277732Y-53070771D02*
X158372970Y-53023152D01*
X158372970Y-53023152D02*
X158515827Y-53023152D01*
X158515827Y-53023152D02*
X158611066Y-53070771D01*
X158611066Y-53070771D02*
X158658685Y-53166009D01*
X158658685Y-53166009D02*
X158658685Y-53689819D01*
X111080112Y-87874580D02*
X111032493Y-87922200D01*
X111032493Y-87922200D02*
X110889636Y-87969819D01*
X110889636Y-87969819D02*
X110794398Y-87969819D01*
X110794398Y-87969819D02*
X110651541Y-87922200D01*
X110651541Y-87922200D02*
X110556303Y-87826961D01*
X110556303Y-87826961D02*
X110508684Y-87731723D01*
X110508684Y-87731723D02*
X110461065Y-87541247D01*
X110461065Y-87541247D02*
X110461065Y-87398390D01*
X110461065Y-87398390D02*
X110508684Y-87207914D01*
X110508684Y-87207914D02*
X110556303Y-87112676D01*
X110556303Y-87112676D02*
X110651541Y-87017438D01*
X110651541Y-87017438D02*
X110794398Y-86969819D01*
X110794398Y-86969819D02*
X110889636Y-86969819D01*
X110889636Y-86969819D02*
X111032493Y-87017438D01*
X111032493Y-87017438D02*
X111080112Y-87065057D01*
X113032494Y-87969819D02*
X113032494Y-86969819D01*
X113032494Y-86969819D02*
X113270589Y-86969819D01*
X113270589Y-86969819D02*
X113413446Y-87017438D01*
X113413446Y-87017438D02*
X113508684Y-87112676D01*
X113508684Y-87112676D02*
X113556303Y-87207914D01*
X113556303Y-87207914D02*
X113603922Y-87398390D01*
X113603922Y-87398390D02*
X113603922Y-87541247D01*
X113603922Y-87541247D02*
X113556303Y-87731723D01*
X113556303Y-87731723D02*
X113508684Y-87826961D01*
X113508684Y-87826961D02*
X113413446Y-87922200D01*
X113413446Y-87922200D02*
X113270589Y-87969819D01*
X113270589Y-87969819D02*
X113032494Y-87969819D01*
X116032494Y-86969819D02*
X115556304Y-86969819D01*
X115556304Y-86969819D02*
X115508685Y-87446009D01*
X115508685Y-87446009D02*
X115556304Y-87398390D01*
X115556304Y-87398390D02*
X115651542Y-87350771D01*
X115651542Y-87350771D02*
X115889637Y-87350771D01*
X115889637Y-87350771D02*
X115984875Y-87398390D01*
X115984875Y-87398390D02*
X116032494Y-87446009D01*
X116032494Y-87446009D02*
X116080113Y-87541247D01*
X116080113Y-87541247D02*
X116080113Y-87779342D01*
X116080113Y-87779342D02*
X116032494Y-87874580D01*
X116032494Y-87874580D02*
X115984875Y-87922200D01*
X115984875Y-87922200D02*
X115889637Y-87969819D01*
X115889637Y-87969819D02*
X115651542Y-87969819D01*
X115651542Y-87969819D02*
X115556304Y-87922200D01*
X115556304Y-87922200D02*
X115508685Y-87874580D01*
X118556304Y-87017438D02*
X118461066Y-86969819D01*
X118461066Y-86969819D02*
X118318209Y-86969819D01*
X118318209Y-86969819D02*
X118175352Y-87017438D01*
X118175352Y-87017438D02*
X118080114Y-87112676D01*
X118080114Y-87112676D02*
X118032495Y-87207914D01*
X118032495Y-87207914D02*
X117984876Y-87398390D01*
X117984876Y-87398390D02*
X117984876Y-87541247D01*
X117984876Y-87541247D02*
X118032495Y-87731723D01*
X118032495Y-87731723D02*
X118080114Y-87826961D01*
X118080114Y-87826961D02*
X118175352Y-87922200D01*
X118175352Y-87922200D02*
X118318209Y-87969819D01*
X118318209Y-87969819D02*
X118413447Y-87969819D01*
X118413447Y-87969819D02*
X118556304Y-87922200D01*
X118556304Y-87922200D02*
X118603923Y-87874580D01*
X118603923Y-87874580D02*
X118603923Y-87541247D01*
X118603923Y-87541247D02*
X118413447Y-87541247D01*
X161894819Y-92038220D02*
X160894819Y-92038220D01*
X160894819Y-92038220D02*
X160894819Y-91657268D01*
X160894819Y-91657268D02*
X160942438Y-91562030D01*
X160942438Y-91562030D02*
X160990057Y-91514411D01*
X160990057Y-91514411D02*
X161085295Y-91466792D01*
X161085295Y-91466792D02*
X161228152Y-91466792D01*
X161228152Y-91466792D02*
X161323390Y-91514411D01*
X161323390Y-91514411D02*
X161371009Y-91562030D01*
X161371009Y-91562030D02*
X161418628Y-91657268D01*
X161418628Y-91657268D02*
X161418628Y-92038220D01*
X161894819Y-91038220D02*
X161228152Y-91038220D01*
X160894819Y-91038220D02*
X160942438Y-91085839D01*
X160942438Y-91085839D02*
X160990057Y-91038220D01*
X160990057Y-91038220D02*
X160942438Y-90990601D01*
X160942438Y-90990601D02*
X160894819Y-91038220D01*
X160894819Y-91038220D02*
X160990057Y-91038220D01*
X161894819Y-90419173D02*
X161847200Y-90514411D01*
X161847200Y-90514411D02*
X161799580Y-90562030D01*
X161799580Y-90562030D02*
X161704342Y-90609649D01*
X161704342Y-90609649D02*
X161418628Y-90609649D01*
X161418628Y-90609649D02*
X161323390Y-90562030D01*
X161323390Y-90562030D02*
X161275771Y-90514411D01*
X161275771Y-90514411D02*
X161228152Y-90419173D01*
X161228152Y-90419173D02*
X161228152Y-90276316D01*
X161228152Y-90276316D02*
X161275771Y-90181078D01*
X161275771Y-90181078D02*
X161323390Y-90133459D01*
X161323390Y-90133459D02*
X161418628Y-90085840D01*
X161418628Y-90085840D02*
X161704342Y-90085840D01*
X161704342Y-90085840D02*
X161799580Y-90133459D01*
X161799580Y-90133459D02*
X161847200Y-90181078D01*
X161847200Y-90181078D02*
X161894819Y-90276316D01*
X161894819Y-90276316D02*
X161894819Y-90419173D01*
X160894819Y-89800125D02*
X160894819Y-89228697D01*
X161894819Y-89514411D02*
X160894819Y-89514411D01*
X161847200Y-88942982D02*
X161894819Y-88800125D01*
X161894819Y-88800125D02*
X161894819Y-88562030D01*
X161894819Y-88562030D02*
X161847200Y-88466792D01*
X161847200Y-88466792D02*
X161799580Y-88419173D01*
X161799580Y-88419173D02*
X161704342Y-88371554D01*
X161704342Y-88371554D02*
X161609104Y-88371554D01*
X161609104Y-88371554D02*
X161513866Y-88419173D01*
X161513866Y-88419173D02*
X161466247Y-88466792D01*
X161466247Y-88466792D02*
X161418628Y-88562030D01*
X161418628Y-88562030D02*
X161371009Y-88752506D01*
X161371009Y-88752506D02*
X161323390Y-88847744D01*
X161323390Y-88847744D02*
X161275771Y-88895363D01*
X161275771Y-88895363D02*
X161180533Y-88942982D01*
X161180533Y-88942982D02*
X161085295Y-88942982D01*
X161085295Y-88942982D02*
X160990057Y-88895363D01*
X160990057Y-88895363D02*
X160942438Y-88847744D01*
X160942438Y-88847744D02*
X160894819Y-88752506D01*
X160894819Y-88752506D02*
X160894819Y-88514411D01*
X160894819Y-88514411D02*
X160942438Y-88371554D01*
X161847200Y-87562030D02*
X161894819Y-87657268D01*
X161894819Y-87657268D02*
X161894819Y-87847744D01*
X161894819Y-87847744D02*
X161847200Y-87942982D01*
X161847200Y-87942982D02*
X161751961Y-87990601D01*
X161751961Y-87990601D02*
X161371009Y-87990601D01*
X161371009Y-87990601D02*
X161275771Y-87942982D01*
X161275771Y-87942982D02*
X161228152Y-87847744D01*
X161228152Y-87847744D02*
X161228152Y-87657268D01*
X161228152Y-87657268D02*
X161275771Y-87562030D01*
X161275771Y-87562030D02*
X161371009Y-87514411D01*
X161371009Y-87514411D02*
X161466247Y-87514411D01*
X161466247Y-87514411D02*
X161561485Y-87990601D01*
X161894819Y-87085839D02*
X161228152Y-87085839D01*
X161418628Y-87085839D02*
X161323390Y-87038220D01*
X161323390Y-87038220D02*
X161275771Y-86990601D01*
X161275771Y-86990601D02*
X161228152Y-86895363D01*
X161228152Y-86895363D02*
X161228152Y-86800125D01*
X161228152Y-86562029D02*
X161894819Y-86323934D01*
X161894819Y-86323934D02*
X161228152Y-86085839D01*
X161847200Y-85323934D02*
X161894819Y-85419172D01*
X161894819Y-85419172D02*
X161894819Y-85609648D01*
X161894819Y-85609648D02*
X161847200Y-85704886D01*
X161847200Y-85704886D02*
X161751961Y-85752505D01*
X161751961Y-85752505D02*
X161371009Y-85752505D01*
X161371009Y-85752505D02*
X161275771Y-85704886D01*
X161275771Y-85704886D02*
X161228152Y-85609648D01*
X161228152Y-85609648D02*
X161228152Y-85419172D01*
X161228152Y-85419172D02*
X161275771Y-85323934D01*
X161275771Y-85323934D02*
X161371009Y-85276315D01*
X161371009Y-85276315D02*
X161466247Y-85276315D01*
X161466247Y-85276315D02*
X161561485Y-85752505D01*
X161894819Y-84847743D02*
X161228152Y-84847743D01*
X161418628Y-84847743D02*
X161323390Y-84800124D01*
X161323390Y-84800124D02*
X161275771Y-84752505D01*
X161275771Y-84752505D02*
X161228152Y-84657267D01*
X161228152Y-84657267D02*
X161228152Y-84562029D01*
X161847200Y-83514409D02*
X161894819Y-83371552D01*
X161894819Y-83371552D02*
X161894819Y-83133457D01*
X161894819Y-83133457D02*
X161847200Y-83038219D01*
X161847200Y-83038219D02*
X161799580Y-82990600D01*
X161799580Y-82990600D02*
X161704342Y-82942981D01*
X161704342Y-82942981D02*
X161609104Y-82942981D01*
X161609104Y-82942981D02*
X161513866Y-82990600D01*
X161513866Y-82990600D02*
X161466247Y-83038219D01*
X161466247Y-83038219D02*
X161418628Y-83133457D01*
X161418628Y-83133457D02*
X161371009Y-83323933D01*
X161371009Y-83323933D02*
X161323390Y-83419171D01*
X161323390Y-83419171D02*
X161275771Y-83466790D01*
X161275771Y-83466790D02*
X161180533Y-83514409D01*
X161180533Y-83514409D02*
X161085295Y-83514409D01*
X161085295Y-83514409D02*
X160990057Y-83466790D01*
X160990057Y-83466790D02*
X160942438Y-83419171D01*
X160942438Y-83419171D02*
X160894819Y-83323933D01*
X160894819Y-83323933D02*
X160894819Y-83085838D01*
X160894819Y-83085838D02*
X160942438Y-82942981D01*
X161847200Y-82133457D02*
X161894819Y-82228695D01*
X161894819Y-82228695D02*
X161894819Y-82419171D01*
X161894819Y-82419171D02*
X161847200Y-82514409D01*
X161847200Y-82514409D02*
X161751961Y-82562028D01*
X161751961Y-82562028D02*
X161371009Y-82562028D01*
X161371009Y-82562028D02*
X161275771Y-82514409D01*
X161275771Y-82514409D02*
X161228152Y-82419171D01*
X161228152Y-82419171D02*
X161228152Y-82228695D01*
X161228152Y-82228695D02*
X161275771Y-82133457D01*
X161275771Y-82133457D02*
X161371009Y-82085838D01*
X161371009Y-82085838D02*
X161466247Y-82085838D01*
X161466247Y-82085838D02*
X161561485Y-82562028D01*
X161228152Y-81657266D02*
X161894819Y-81657266D01*
X161323390Y-81657266D02*
X161275771Y-81609647D01*
X161275771Y-81609647D02*
X161228152Y-81514409D01*
X161228152Y-81514409D02*
X161228152Y-81371552D01*
X161228152Y-81371552D02*
X161275771Y-81276314D01*
X161275771Y-81276314D02*
X161371009Y-81228695D01*
X161371009Y-81228695D02*
X161894819Y-81228695D01*
X161847200Y-80800123D02*
X161894819Y-80704885D01*
X161894819Y-80704885D02*
X161894819Y-80514409D01*
X161894819Y-80514409D02*
X161847200Y-80419171D01*
X161847200Y-80419171D02*
X161751961Y-80371552D01*
X161751961Y-80371552D02*
X161704342Y-80371552D01*
X161704342Y-80371552D02*
X161609104Y-80419171D01*
X161609104Y-80419171D02*
X161561485Y-80514409D01*
X161561485Y-80514409D02*
X161561485Y-80657266D01*
X161561485Y-80657266D02*
X161513866Y-80752504D01*
X161513866Y-80752504D02*
X161418628Y-80800123D01*
X161418628Y-80800123D02*
X161371009Y-80800123D01*
X161371009Y-80800123D02*
X161275771Y-80752504D01*
X161275771Y-80752504D02*
X161228152Y-80657266D01*
X161228152Y-80657266D02*
X161228152Y-80514409D01*
X161228152Y-80514409D02*
X161275771Y-80419171D01*
X161894819Y-79800123D02*
X161847200Y-79895361D01*
X161847200Y-79895361D02*
X161799580Y-79942980D01*
X161799580Y-79942980D02*
X161704342Y-79990599D01*
X161704342Y-79990599D02*
X161418628Y-79990599D01*
X161418628Y-79990599D02*
X161323390Y-79942980D01*
X161323390Y-79942980D02*
X161275771Y-79895361D01*
X161275771Y-79895361D02*
X161228152Y-79800123D01*
X161228152Y-79800123D02*
X161228152Y-79657266D01*
X161228152Y-79657266D02*
X161275771Y-79562028D01*
X161275771Y-79562028D02*
X161323390Y-79514409D01*
X161323390Y-79514409D02*
X161418628Y-79466790D01*
X161418628Y-79466790D02*
X161704342Y-79466790D01*
X161704342Y-79466790D02*
X161799580Y-79514409D01*
X161799580Y-79514409D02*
X161847200Y-79562028D01*
X161847200Y-79562028D02*
X161894819Y-79657266D01*
X161894819Y-79657266D02*
X161894819Y-79800123D01*
X161894819Y-79038218D02*
X161228152Y-79038218D01*
X161418628Y-79038218D02*
X161323390Y-78990599D01*
X161323390Y-78990599D02*
X161275771Y-78942980D01*
X161275771Y-78942980D02*
X161228152Y-78847742D01*
X161228152Y-78847742D02*
X161228152Y-78752504D01*
X161371009Y-77323932D02*
X161418628Y-77181075D01*
X161418628Y-77181075D02*
X161466247Y-77133456D01*
X161466247Y-77133456D02*
X161561485Y-77085837D01*
X161561485Y-77085837D02*
X161704342Y-77085837D01*
X161704342Y-77085837D02*
X161799580Y-77133456D01*
X161799580Y-77133456D02*
X161847200Y-77181075D01*
X161847200Y-77181075D02*
X161894819Y-77276313D01*
X161894819Y-77276313D02*
X161894819Y-77657265D01*
X161894819Y-77657265D02*
X160894819Y-77657265D01*
X160894819Y-77657265D02*
X160894819Y-77323932D01*
X160894819Y-77323932D02*
X160942438Y-77228694D01*
X160942438Y-77228694D02*
X160990057Y-77181075D01*
X160990057Y-77181075D02*
X161085295Y-77133456D01*
X161085295Y-77133456D02*
X161180533Y-77133456D01*
X161180533Y-77133456D02*
X161275771Y-77181075D01*
X161275771Y-77181075D02*
X161323390Y-77228694D01*
X161323390Y-77228694D02*
X161371009Y-77323932D01*
X161371009Y-77323932D02*
X161371009Y-77657265D01*
X161894819Y-76514408D02*
X161847200Y-76609646D01*
X161847200Y-76609646D02*
X161799580Y-76657265D01*
X161799580Y-76657265D02*
X161704342Y-76704884D01*
X161704342Y-76704884D02*
X161418628Y-76704884D01*
X161418628Y-76704884D02*
X161323390Y-76657265D01*
X161323390Y-76657265D02*
X161275771Y-76609646D01*
X161275771Y-76609646D02*
X161228152Y-76514408D01*
X161228152Y-76514408D02*
X161228152Y-76371551D01*
X161228152Y-76371551D02*
X161275771Y-76276313D01*
X161275771Y-76276313D02*
X161323390Y-76228694D01*
X161323390Y-76228694D02*
X161418628Y-76181075D01*
X161418628Y-76181075D02*
X161704342Y-76181075D01*
X161704342Y-76181075D02*
X161799580Y-76228694D01*
X161799580Y-76228694D02*
X161847200Y-76276313D01*
X161847200Y-76276313D02*
X161894819Y-76371551D01*
X161894819Y-76371551D02*
X161894819Y-76514408D01*
X161894819Y-75323932D02*
X161371009Y-75323932D01*
X161371009Y-75323932D02*
X161275771Y-75371551D01*
X161275771Y-75371551D02*
X161228152Y-75466789D01*
X161228152Y-75466789D02*
X161228152Y-75657265D01*
X161228152Y-75657265D02*
X161275771Y-75752503D01*
X161847200Y-75323932D02*
X161894819Y-75419170D01*
X161894819Y-75419170D02*
X161894819Y-75657265D01*
X161894819Y-75657265D02*
X161847200Y-75752503D01*
X161847200Y-75752503D02*
X161751961Y-75800122D01*
X161751961Y-75800122D02*
X161656723Y-75800122D01*
X161656723Y-75800122D02*
X161561485Y-75752503D01*
X161561485Y-75752503D02*
X161513866Y-75657265D01*
X161513866Y-75657265D02*
X161513866Y-75419170D01*
X161513866Y-75419170D02*
X161466247Y-75323932D01*
X161894819Y-74847741D02*
X161228152Y-74847741D01*
X161418628Y-74847741D02*
X161323390Y-74800122D01*
X161323390Y-74800122D02*
X161275771Y-74752503D01*
X161275771Y-74752503D02*
X161228152Y-74657265D01*
X161228152Y-74657265D02*
X161228152Y-74562027D01*
X161894819Y-73800122D02*
X160894819Y-73800122D01*
X161847200Y-73800122D02*
X161894819Y-73895360D01*
X161894819Y-73895360D02*
X161894819Y-74085836D01*
X161894819Y-74085836D02*
X161847200Y-74181074D01*
X161847200Y-74181074D02*
X161799580Y-74228693D01*
X161799580Y-74228693D02*
X161704342Y-74276312D01*
X161704342Y-74276312D02*
X161418628Y-74276312D01*
X161418628Y-74276312D02*
X161323390Y-74228693D01*
X161323390Y-74228693D02*
X161275771Y-74181074D01*
X161275771Y-74181074D02*
X161228152Y-74085836D01*
X161228152Y-74085836D02*
X161228152Y-73895360D01*
X161228152Y-73895360D02*
X161275771Y-73800122D01*
X147894819Y-67722857D02*
X147418628Y-68056190D01*
X147894819Y-68294285D02*
X146894819Y-68294285D01*
X146894819Y-68294285D02*
X146894819Y-67913333D01*
X146894819Y-67913333D02*
X146942438Y-67818095D01*
X146942438Y-67818095D02*
X146990057Y-67770476D01*
X146990057Y-67770476D02*
X147085295Y-67722857D01*
X147085295Y-67722857D02*
X147228152Y-67722857D01*
X147228152Y-67722857D02*
X147323390Y-67770476D01*
X147323390Y-67770476D02*
X147371009Y-67818095D01*
X147371009Y-67818095D02*
X147418628Y-67913333D01*
X147418628Y-67913333D02*
X147418628Y-68294285D01*
X147894819Y-66770476D02*
X147894819Y-67341904D01*
X147894819Y-67056190D02*
X146894819Y-67056190D01*
X146894819Y-67056190D02*
X147037676Y-67151428D01*
X147037676Y-67151428D02*
X147132914Y-67246666D01*
X147132914Y-67246666D02*
X147180533Y-67341904D01*
X146894819Y-66437142D02*
X146894819Y-65770476D01*
X146894819Y-65770476D02*
X147894819Y-66199047D01*
X124709580Y-82141666D02*
X124757200Y-82189285D01*
X124757200Y-82189285D02*
X124804819Y-82332142D01*
X124804819Y-82332142D02*
X124804819Y-82427380D01*
X124804819Y-82427380D02*
X124757200Y-82570237D01*
X124757200Y-82570237D02*
X124661961Y-82665475D01*
X124661961Y-82665475D02*
X124566723Y-82713094D01*
X124566723Y-82713094D02*
X124376247Y-82760713D01*
X124376247Y-82760713D02*
X124233390Y-82760713D01*
X124233390Y-82760713D02*
X124042914Y-82713094D01*
X124042914Y-82713094D02*
X123947676Y-82665475D01*
X123947676Y-82665475D02*
X123852438Y-82570237D01*
X123852438Y-82570237D02*
X123804819Y-82427380D01*
X123804819Y-82427380D02*
X123804819Y-82332142D01*
X123804819Y-82332142D02*
X123852438Y-82189285D01*
X123852438Y-82189285D02*
X123900057Y-82141666D01*
X123804819Y-81284523D02*
X123804819Y-81474999D01*
X123804819Y-81474999D02*
X123852438Y-81570237D01*
X123852438Y-81570237D02*
X123900057Y-81617856D01*
X123900057Y-81617856D02*
X124042914Y-81713094D01*
X124042914Y-81713094D02*
X124233390Y-81760713D01*
X124233390Y-81760713D02*
X124614342Y-81760713D01*
X124614342Y-81760713D02*
X124709580Y-81713094D01*
X124709580Y-81713094D02*
X124757200Y-81665475D01*
X124757200Y-81665475D02*
X124804819Y-81570237D01*
X124804819Y-81570237D02*
X124804819Y-81379761D01*
X124804819Y-81379761D02*
X124757200Y-81284523D01*
X124757200Y-81284523D02*
X124709580Y-81236904D01*
X124709580Y-81236904D02*
X124614342Y-81189285D01*
X124614342Y-81189285D02*
X124376247Y-81189285D01*
X124376247Y-81189285D02*
X124281009Y-81236904D01*
X124281009Y-81236904D02*
X124233390Y-81284523D01*
X124233390Y-81284523D02*
X124185771Y-81379761D01*
X124185771Y-81379761D02*
X124185771Y-81570237D01*
X124185771Y-81570237D02*
X124233390Y-81665475D01*
X124233390Y-81665475D02*
X124281009Y-81713094D01*
X124281009Y-81713094D02*
X124376247Y-81760713D01*
X155323333Y-56979580D02*
X155275714Y-57027200D01*
X155275714Y-57027200D02*
X155132857Y-57074819D01*
X155132857Y-57074819D02*
X155037619Y-57074819D01*
X155037619Y-57074819D02*
X154894762Y-57027200D01*
X154894762Y-57027200D02*
X154799524Y-56931961D01*
X154799524Y-56931961D02*
X154751905Y-56836723D01*
X154751905Y-56836723D02*
X154704286Y-56646247D01*
X154704286Y-56646247D02*
X154704286Y-56503390D01*
X154704286Y-56503390D02*
X154751905Y-56312914D01*
X154751905Y-56312914D02*
X154799524Y-56217676D01*
X154799524Y-56217676D02*
X154894762Y-56122438D01*
X154894762Y-56122438D02*
X155037619Y-56074819D01*
X155037619Y-56074819D02*
X155132857Y-56074819D01*
X155132857Y-56074819D02*
X155275714Y-56122438D01*
X155275714Y-56122438D02*
X155323333Y-56170057D01*
X155656667Y-56074819D02*
X156323333Y-56074819D01*
X156323333Y-56074819D02*
X155894762Y-57074819D01*
X124535714Y-52459819D02*
X124535714Y-51459819D01*
X124535714Y-51459819D02*
X124916666Y-51459819D01*
X124916666Y-51459819D02*
X125011904Y-51507438D01*
X125011904Y-51507438D02*
X125059523Y-51555057D01*
X125059523Y-51555057D02*
X125107142Y-51650295D01*
X125107142Y-51650295D02*
X125107142Y-51793152D01*
X125107142Y-51793152D02*
X125059523Y-51888390D01*
X125059523Y-51888390D02*
X125011904Y-51936009D01*
X125011904Y-51936009D02*
X124916666Y-51983628D01*
X124916666Y-51983628D02*
X124535714Y-51983628D01*
X125488095Y-52412200D02*
X125630952Y-52459819D01*
X125630952Y-52459819D02*
X125869047Y-52459819D01*
X125869047Y-52459819D02*
X125964285Y-52412200D01*
X125964285Y-52412200D02*
X126011904Y-52364580D01*
X126011904Y-52364580D02*
X126059523Y-52269342D01*
X126059523Y-52269342D02*
X126059523Y-52174104D01*
X126059523Y-52174104D02*
X126011904Y-52078866D01*
X126011904Y-52078866D02*
X125964285Y-52031247D01*
X125964285Y-52031247D02*
X125869047Y-51983628D01*
X125869047Y-51983628D02*
X125678571Y-51936009D01*
X125678571Y-51936009D02*
X125583333Y-51888390D01*
X125583333Y-51888390D02*
X125535714Y-51840771D01*
X125535714Y-51840771D02*
X125488095Y-51745533D01*
X125488095Y-51745533D02*
X125488095Y-51650295D01*
X125488095Y-51650295D02*
X125535714Y-51555057D01*
X125535714Y-51555057D02*
X125583333Y-51507438D01*
X125583333Y-51507438D02*
X125678571Y-51459819D01*
X125678571Y-51459819D02*
X125916666Y-51459819D01*
X125916666Y-51459819D02*
X126059523Y-51507438D01*
X127011904Y-52459819D02*
X126440476Y-52459819D01*
X126726190Y-52459819D02*
X126726190Y-51459819D01*
X126726190Y-51459819D02*
X126630952Y-51602676D01*
X126630952Y-51602676D02*
X126535714Y-51697914D01*
X126535714Y-51697914D02*
X126440476Y-51745533D01*
X113924819Y-78752857D02*
X113448628Y-79086190D01*
X113924819Y-79324285D02*
X112924819Y-79324285D01*
X112924819Y-79324285D02*
X112924819Y-78943333D01*
X112924819Y-78943333D02*
X112972438Y-78848095D01*
X112972438Y-78848095D02*
X113020057Y-78800476D01*
X113020057Y-78800476D02*
X113115295Y-78752857D01*
X113115295Y-78752857D02*
X113258152Y-78752857D01*
X113258152Y-78752857D02*
X113353390Y-78800476D01*
X113353390Y-78800476D02*
X113401009Y-78848095D01*
X113401009Y-78848095D02*
X113448628Y-78943333D01*
X113448628Y-78943333D02*
X113448628Y-79324285D01*
X113924819Y-77800476D02*
X113924819Y-78371904D01*
X113924819Y-78086190D02*
X112924819Y-78086190D01*
X112924819Y-78086190D02*
X113067676Y-78181428D01*
X113067676Y-78181428D02*
X113162914Y-78276666D01*
X113162914Y-78276666D02*
X113210533Y-78371904D01*
X112924819Y-76895714D02*
X112924819Y-77371904D01*
X112924819Y-77371904D02*
X113401009Y-77419523D01*
X113401009Y-77419523D02*
X113353390Y-77371904D01*
X113353390Y-77371904D02*
X113305771Y-77276666D01*
X113305771Y-77276666D02*
X113305771Y-77038571D01*
X113305771Y-77038571D02*
X113353390Y-76943333D01*
X113353390Y-76943333D02*
X113401009Y-76895714D01*
X113401009Y-76895714D02*
X113496247Y-76848095D01*
X113496247Y-76848095D02*
X113734342Y-76848095D01*
X113734342Y-76848095D02*
X113829580Y-76895714D01*
X113829580Y-76895714D02*
X113877200Y-76943333D01*
X113877200Y-76943333D02*
X113924819Y-77038571D01*
X113924819Y-77038571D02*
X113924819Y-77276666D01*
X113924819Y-77276666D02*
X113877200Y-77371904D01*
X113877200Y-77371904D02*
X113829580Y-77419523D01*
X101357142Y-54604819D02*
X101023809Y-54128628D01*
X100785714Y-54604819D02*
X100785714Y-53604819D01*
X100785714Y-53604819D02*
X101166666Y-53604819D01*
X101166666Y-53604819D02*
X101261904Y-53652438D01*
X101261904Y-53652438D02*
X101309523Y-53700057D01*
X101309523Y-53700057D02*
X101357142Y-53795295D01*
X101357142Y-53795295D02*
X101357142Y-53938152D01*
X101357142Y-53938152D02*
X101309523Y-54033390D01*
X101309523Y-54033390D02*
X101261904Y-54081009D01*
X101261904Y-54081009D02*
X101166666Y-54128628D01*
X101166666Y-54128628D02*
X100785714Y-54128628D01*
X102309523Y-54604819D02*
X101738095Y-54604819D01*
X102023809Y-54604819D02*
X102023809Y-53604819D01*
X102023809Y-53604819D02*
X101928571Y-53747676D01*
X101928571Y-53747676D02*
X101833333Y-53842914D01*
X101833333Y-53842914D02*
X101738095Y-53890533D01*
X102690476Y-53700057D02*
X102738095Y-53652438D01*
X102738095Y-53652438D02*
X102833333Y-53604819D01*
X102833333Y-53604819D02*
X103071428Y-53604819D01*
X103071428Y-53604819D02*
X103166666Y-53652438D01*
X103166666Y-53652438D02*
X103214285Y-53700057D01*
X103214285Y-53700057D02*
X103261904Y-53795295D01*
X103261904Y-53795295D02*
X103261904Y-53890533D01*
X103261904Y-53890533D02*
X103214285Y-54033390D01*
X103214285Y-54033390D02*
X102642857Y-54604819D01*
X102642857Y-54604819D02*
X103261904Y-54604819D01*
X144106666Y-80204819D02*
X144106666Y-80919104D01*
X144106666Y-80919104D02*
X144059047Y-81061961D01*
X144059047Y-81061961D02*
X143963809Y-81157200D01*
X143963809Y-81157200D02*
X143820952Y-81204819D01*
X143820952Y-81204819D02*
X143725714Y-81204819D01*
X145059047Y-80204819D02*
X144582857Y-80204819D01*
X144582857Y-80204819D02*
X144535238Y-80681009D01*
X144535238Y-80681009D02*
X144582857Y-80633390D01*
X144582857Y-80633390D02*
X144678095Y-80585771D01*
X144678095Y-80585771D02*
X144916190Y-80585771D01*
X144916190Y-80585771D02*
X145011428Y-80633390D01*
X145011428Y-80633390D02*
X145059047Y-80681009D01*
X145059047Y-80681009D02*
X145106666Y-80776247D01*
X145106666Y-80776247D02*
X145106666Y-81014342D01*
X145106666Y-81014342D02*
X145059047Y-81109580D01*
X145059047Y-81109580D02*
X145011428Y-81157200D01*
X145011428Y-81157200D02*
X144916190Y-81204819D01*
X144916190Y-81204819D02*
X144678095Y-81204819D01*
X144678095Y-81204819D02*
X144582857Y-81157200D01*
X144582857Y-81157200D02*
X144535238Y-81109580D01*
X111833333Y-72109580D02*
X111785714Y-72157200D01*
X111785714Y-72157200D02*
X111642857Y-72204819D01*
X111642857Y-72204819D02*
X111547619Y-72204819D01*
X111547619Y-72204819D02*
X111404762Y-72157200D01*
X111404762Y-72157200D02*
X111309524Y-72061961D01*
X111309524Y-72061961D02*
X111261905Y-71966723D01*
X111261905Y-71966723D02*
X111214286Y-71776247D01*
X111214286Y-71776247D02*
X111214286Y-71633390D01*
X111214286Y-71633390D02*
X111261905Y-71442914D01*
X111261905Y-71442914D02*
X111309524Y-71347676D01*
X111309524Y-71347676D02*
X111404762Y-71252438D01*
X111404762Y-71252438D02*
X111547619Y-71204819D01*
X111547619Y-71204819D02*
X111642857Y-71204819D01*
X111642857Y-71204819D02*
X111785714Y-71252438D01*
X111785714Y-71252438D02*
X111833333Y-71300057D01*
X112404762Y-71633390D02*
X112309524Y-71585771D01*
X112309524Y-71585771D02*
X112261905Y-71538152D01*
X112261905Y-71538152D02*
X112214286Y-71442914D01*
X112214286Y-71442914D02*
X112214286Y-71395295D01*
X112214286Y-71395295D02*
X112261905Y-71300057D01*
X112261905Y-71300057D02*
X112309524Y-71252438D01*
X112309524Y-71252438D02*
X112404762Y-71204819D01*
X112404762Y-71204819D02*
X112595238Y-71204819D01*
X112595238Y-71204819D02*
X112690476Y-71252438D01*
X112690476Y-71252438D02*
X112738095Y-71300057D01*
X112738095Y-71300057D02*
X112785714Y-71395295D01*
X112785714Y-71395295D02*
X112785714Y-71442914D01*
X112785714Y-71442914D02*
X112738095Y-71538152D01*
X112738095Y-71538152D02*
X112690476Y-71585771D01*
X112690476Y-71585771D02*
X112595238Y-71633390D01*
X112595238Y-71633390D02*
X112404762Y-71633390D01*
X112404762Y-71633390D02*
X112309524Y-71681009D01*
X112309524Y-71681009D02*
X112261905Y-71728628D01*
X112261905Y-71728628D02*
X112214286Y-71823866D01*
X112214286Y-71823866D02*
X112214286Y-72014342D01*
X112214286Y-72014342D02*
X112261905Y-72109580D01*
X112261905Y-72109580D02*
X112309524Y-72157200D01*
X112309524Y-72157200D02*
X112404762Y-72204819D01*
X112404762Y-72204819D02*
X112595238Y-72204819D01*
X112595238Y-72204819D02*
X112690476Y-72157200D01*
X112690476Y-72157200D02*
X112738095Y-72109580D01*
X112738095Y-72109580D02*
X112785714Y-72014342D01*
X112785714Y-72014342D02*
X112785714Y-71823866D01*
X112785714Y-71823866D02*
X112738095Y-71728628D01*
X112738095Y-71728628D02*
X112690476Y-71681009D01*
X112690476Y-71681009D02*
X112595238Y-71633390D01*
X114083333Y-58109580D02*
X114035714Y-58157200D01*
X114035714Y-58157200D02*
X113892857Y-58204819D01*
X113892857Y-58204819D02*
X113797619Y-58204819D01*
X113797619Y-58204819D02*
X113654762Y-58157200D01*
X113654762Y-58157200D02*
X113559524Y-58061961D01*
X113559524Y-58061961D02*
X113511905Y-57966723D01*
X113511905Y-57966723D02*
X113464286Y-57776247D01*
X113464286Y-57776247D02*
X113464286Y-57633390D01*
X113464286Y-57633390D02*
X113511905Y-57442914D01*
X113511905Y-57442914D02*
X113559524Y-57347676D01*
X113559524Y-57347676D02*
X113654762Y-57252438D01*
X113654762Y-57252438D02*
X113797619Y-57204819D01*
X113797619Y-57204819D02*
X113892857Y-57204819D01*
X113892857Y-57204819D02*
X114035714Y-57252438D01*
X114035714Y-57252438D02*
X114083333Y-57300057D01*
X114988095Y-57204819D02*
X114511905Y-57204819D01*
X114511905Y-57204819D02*
X114464286Y-57681009D01*
X114464286Y-57681009D02*
X114511905Y-57633390D01*
X114511905Y-57633390D02*
X114607143Y-57585771D01*
X114607143Y-57585771D02*
X114845238Y-57585771D01*
X114845238Y-57585771D02*
X114940476Y-57633390D01*
X114940476Y-57633390D02*
X114988095Y-57681009D01*
X114988095Y-57681009D02*
X115035714Y-57776247D01*
X115035714Y-57776247D02*
X115035714Y-58014342D01*
X115035714Y-58014342D02*
X114988095Y-58109580D01*
X114988095Y-58109580D02*
X114940476Y-58157200D01*
X114940476Y-58157200D02*
X114845238Y-58204819D01*
X114845238Y-58204819D02*
X114607143Y-58204819D01*
X114607143Y-58204819D02*
X114511905Y-58157200D01*
X114511905Y-58157200D02*
X114464286Y-58109580D01*
X120204819Y-94318333D02*
X120919104Y-94318333D01*
X120919104Y-94318333D02*
X121061961Y-94365952D01*
X121061961Y-94365952D02*
X121157200Y-94461190D01*
X121157200Y-94461190D02*
X121204819Y-94604047D01*
X121204819Y-94604047D02*
X121204819Y-94699285D01*
X120300057Y-93889761D02*
X120252438Y-93842142D01*
X120252438Y-93842142D02*
X120204819Y-93746904D01*
X120204819Y-93746904D02*
X120204819Y-93508809D01*
X120204819Y-93508809D02*
X120252438Y-93413571D01*
X120252438Y-93413571D02*
X120300057Y-93365952D01*
X120300057Y-93365952D02*
X120395295Y-93318333D01*
X120395295Y-93318333D02*
X120490533Y-93318333D01*
X120490533Y-93318333D02*
X120633390Y-93365952D01*
X120633390Y-93365952D02*
X121204819Y-93937380D01*
X121204819Y-93937380D02*
X121204819Y-93318333D01*
X143097142Y-71784819D02*
X142763809Y-71308628D01*
X142525714Y-71784819D02*
X142525714Y-70784819D01*
X142525714Y-70784819D02*
X142906666Y-70784819D01*
X142906666Y-70784819D02*
X143001904Y-70832438D01*
X143001904Y-70832438D02*
X143049523Y-70880057D01*
X143049523Y-70880057D02*
X143097142Y-70975295D01*
X143097142Y-70975295D02*
X143097142Y-71118152D01*
X143097142Y-71118152D02*
X143049523Y-71213390D01*
X143049523Y-71213390D02*
X143001904Y-71261009D01*
X143001904Y-71261009D02*
X142906666Y-71308628D01*
X142906666Y-71308628D02*
X142525714Y-71308628D01*
X143478095Y-70880057D02*
X143525714Y-70832438D01*
X143525714Y-70832438D02*
X143620952Y-70784819D01*
X143620952Y-70784819D02*
X143859047Y-70784819D01*
X143859047Y-70784819D02*
X143954285Y-70832438D01*
X143954285Y-70832438D02*
X144001904Y-70880057D01*
X144001904Y-70880057D02*
X144049523Y-70975295D01*
X144049523Y-70975295D02*
X144049523Y-71070533D01*
X144049523Y-71070533D02*
X144001904Y-71213390D01*
X144001904Y-71213390D02*
X143430476Y-71784819D01*
X143430476Y-71784819D02*
X144049523Y-71784819D01*
X144430476Y-70880057D02*
X144478095Y-70832438D01*
X144478095Y-70832438D02*
X144573333Y-70784819D01*
X144573333Y-70784819D02*
X144811428Y-70784819D01*
X144811428Y-70784819D02*
X144906666Y-70832438D01*
X144906666Y-70832438D02*
X144954285Y-70880057D01*
X144954285Y-70880057D02*
X145001904Y-70975295D01*
X145001904Y-70975295D02*
X145001904Y-71070533D01*
X145001904Y-71070533D02*
X144954285Y-71213390D01*
X144954285Y-71213390D02*
X144382857Y-71784819D01*
X144382857Y-71784819D02*
X145001904Y-71784819D01*
X143187142Y-74084819D02*
X142853809Y-73608628D01*
X142615714Y-74084819D02*
X142615714Y-73084819D01*
X142615714Y-73084819D02*
X142996666Y-73084819D01*
X142996666Y-73084819D02*
X143091904Y-73132438D01*
X143091904Y-73132438D02*
X143139523Y-73180057D01*
X143139523Y-73180057D02*
X143187142Y-73275295D01*
X143187142Y-73275295D02*
X143187142Y-73418152D01*
X143187142Y-73418152D02*
X143139523Y-73513390D01*
X143139523Y-73513390D02*
X143091904Y-73561009D01*
X143091904Y-73561009D02*
X142996666Y-73608628D01*
X142996666Y-73608628D02*
X142615714Y-73608628D01*
X144139523Y-74084819D02*
X143568095Y-74084819D01*
X143853809Y-74084819D02*
X143853809Y-73084819D01*
X143853809Y-73084819D02*
X143758571Y-73227676D01*
X143758571Y-73227676D02*
X143663333Y-73322914D01*
X143663333Y-73322914D02*
X143568095Y-73370533D01*
X144996666Y-73418152D02*
X144996666Y-74084819D01*
X144758571Y-73037200D02*
X144520476Y-73751485D01*
X144520476Y-73751485D02*
X145139523Y-73751485D01*
X143357142Y-69154819D02*
X143023809Y-68678628D01*
X142785714Y-69154819D02*
X142785714Y-68154819D01*
X142785714Y-68154819D02*
X143166666Y-68154819D01*
X143166666Y-68154819D02*
X143261904Y-68202438D01*
X143261904Y-68202438D02*
X143309523Y-68250057D01*
X143309523Y-68250057D02*
X143357142Y-68345295D01*
X143357142Y-68345295D02*
X143357142Y-68488152D01*
X143357142Y-68488152D02*
X143309523Y-68583390D01*
X143309523Y-68583390D02*
X143261904Y-68631009D01*
X143261904Y-68631009D02*
X143166666Y-68678628D01*
X143166666Y-68678628D02*
X142785714Y-68678628D01*
X144309523Y-69154819D02*
X143738095Y-69154819D01*
X144023809Y-69154819D02*
X144023809Y-68154819D01*
X144023809Y-68154819D02*
X143928571Y-68297676D01*
X143928571Y-68297676D02*
X143833333Y-68392914D01*
X143833333Y-68392914D02*
X143738095Y-68440533D01*
X145261904Y-69154819D02*
X144690476Y-69154819D01*
X144976190Y-69154819D02*
X144976190Y-68154819D01*
X144976190Y-68154819D02*
X144880952Y-68297676D01*
X144880952Y-68297676D02*
X144785714Y-68392914D01*
X144785714Y-68392914D02*
X144690476Y-68440533D01*
X114233333Y-51859580D02*
X114185714Y-51907200D01*
X114185714Y-51907200D02*
X114042857Y-51954819D01*
X114042857Y-51954819D02*
X113947619Y-51954819D01*
X113947619Y-51954819D02*
X113804762Y-51907200D01*
X113804762Y-51907200D02*
X113709524Y-51811961D01*
X113709524Y-51811961D02*
X113661905Y-51716723D01*
X113661905Y-51716723D02*
X113614286Y-51526247D01*
X113614286Y-51526247D02*
X113614286Y-51383390D01*
X113614286Y-51383390D02*
X113661905Y-51192914D01*
X113661905Y-51192914D02*
X113709524Y-51097676D01*
X113709524Y-51097676D02*
X113804762Y-51002438D01*
X113804762Y-51002438D02*
X113947619Y-50954819D01*
X113947619Y-50954819D02*
X114042857Y-50954819D01*
X114042857Y-50954819D02*
X114185714Y-51002438D01*
X114185714Y-51002438D02*
X114233333Y-51050057D01*
X114614286Y-51050057D02*
X114661905Y-51002438D01*
X114661905Y-51002438D02*
X114757143Y-50954819D01*
X114757143Y-50954819D02*
X114995238Y-50954819D01*
X114995238Y-50954819D02*
X115090476Y-51002438D01*
X115090476Y-51002438D02*
X115138095Y-51050057D01*
X115138095Y-51050057D02*
X115185714Y-51145295D01*
X115185714Y-51145295D02*
X115185714Y-51240533D01*
X115185714Y-51240533D02*
X115138095Y-51383390D01*
X115138095Y-51383390D02*
X114566667Y-51954819D01*
X114566667Y-51954819D02*
X115185714Y-51954819D01*
X104982142Y-78924819D02*
X104648809Y-78448628D01*
X104410714Y-78924819D02*
X104410714Y-77924819D01*
X104410714Y-77924819D02*
X104791666Y-77924819D01*
X104791666Y-77924819D02*
X104886904Y-77972438D01*
X104886904Y-77972438D02*
X104934523Y-78020057D01*
X104934523Y-78020057D02*
X104982142Y-78115295D01*
X104982142Y-78115295D02*
X104982142Y-78258152D01*
X104982142Y-78258152D02*
X104934523Y-78353390D01*
X104934523Y-78353390D02*
X104886904Y-78401009D01*
X104886904Y-78401009D02*
X104791666Y-78448628D01*
X104791666Y-78448628D02*
X104410714Y-78448628D01*
X105934523Y-78924819D02*
X105363095Y-78924819D01*
X105648809Y-78924819D02*
X105648809Y-77924819D01*
X105648809Y-77924819D02*
X105553571Y-78067676D01*
X105553571Y-78067676D02*
X105458333Y-78162914D01*
X105458333Y-78162914D02*
X105363095Y-78210533D01*
X106505952Y-78353390D02*
X106410714Y-78305771D01*
X106410714Y-78305771D02*
X106363095Y-78258152D01*
X106363095Y-78258152D02*
X106315476Y-78162914D01*
X106315476Y-78162914D02*
X106315476Y-78115295D01*
X106315476Y-78115295D02*
X106363095Y-78020057D01*
X106363095Y-78020057D02*
X106410714Y-77972438D01*
X106410714Y-77972438D02*
X106505952Y-77924819D01*
X106505952Y-77924819D02*
X106696428Y-77924819D01*
X106696428Y-77924819D02*
X106791666Y-77972438D01*
X106791666Y-77972438D02*
X106839285Y-78020057D01*
X106839285Y-78020057D02*
X106886904Y-78115295D01*
X106886904Y-78115295D02*
X106886904Y-78162914D01*
X106886904Y-78162914D02*
X106839285Y-78258152D01*
X106839285Y-78258152D02*
X106791666Y-78305771D01*
X106791666Y-78305771D02*
X106696428Y-78353390D01*
X106696428Y-78353390D02*
X106505952Y-78353390D01*
X106505952Y-78353390D02*
X106410714Y-78401009D01*
X106410714Y-78401009D02*
X106363095Y-78448628D01*
X106363095Y-78448628D02*
X106315476Y-78543866D01*
X106315476Y-78543866D02*
X106315476Y-78734342D01*
X106315476Y-78734342D02*
X106363095Y-78829580D01*
X106363095Y-78829580D02*
X106410714Y-78877200D01*
X106410714Y-78877200D02*
X106505952Y-78924819D01*
X106505952Y-78924819D02*
X106696428Y-78924819D01*
X106696428Y-78924819D02*
X106791666Y-78877200D01*
X106791666Y-78877200D02*
X106839285Y-78829580D01*
X106839285Y-78829580D02*
X106886904Y-78734342D01*
X106886904Y-78734342D02*
X106886904Y-78543866D01*
X106886904Y-78543866D02*
X106839285Y-78448628D01*
X106839285Y-78448628D02*
X106791666Y-78401009D01*
X106791666Y-78401009D02*
X106696428Y-78353390D01*
X102079819Y-62911904D02*
X102889342Y-62911904D01*
X102889342Y-62911904D02*
X102984580Y-62864285D01*
X102984580Y-62864285D02*
X103032200Y-62816666D01*
X103032200Y-62816666D02*
X103079819Y-62721428D01*
X103079819Y-62721428D02*
X103079819Y-62530952D01*
X103079819Y-62530952D02*
X103032200Y-62435714D01*
X103032200Y-62435714D02*
X102984580Y-62388095D01*
X102984580Y-62388095D02*
X102889342Y-62340476D01*
X102889342Y-62340476D02*
X102079819Y-62340476D01*
X102175057Y-61911904D02*
X102127438Y-61864285D01*
X102127438Y-61864285D02*
X102079819Y-61769047D01*
X102079819Y-61769047D02*
X102079819Y-61530952D01*
X102079819Y-61530952D02*
X102127438Y-61435714D01*
X102127438Y-61435714D02*
X102175057Y-61388095D01*
X102175057Y-61388095D02*
X102270295Y-61340476D01*
X102270295Y-61340476D02*
X102365533Y-61340476D01*
X102365533Y-61340476D02*
X102508390Y-61388095D01*
X102508390Y-61388095D02*
X103079819Y-61959523D01*
X103079819Y-61959523D02*
X103079819Y-61340476D01*
X143247142Y-76694819D02*
X142913809Y-76218628D01*
X142675714Y-76694819D02*
X142675714Y-75694819D01*
X142675714Y-75694819D02*
X143056666Y-75694819D01*
X143056666Y-75694819D02*
X143151904Y-75742438D01*
X143151904Y-75742438D02*
X143199523Y-75790057D01*
X143199523Y-75790057D02*
X143247142Y-75885295D01*
X143247142Y-75885295D02*
X143247142Y-76028152D01*
X143247142Y-76028152D02*
X143199523Y-76123390D01*
X143199523Y-76123390D02*
X143151904Y-76171009D01*
X143151904Y-76171009D02*
X143056666Y-76218628D01*
X143056666Y-76218628D02*
X142675714Y-76218628D01*
X143628095Y-75790057D02*
X143675714Y-75742438D01*
X143675714Y-75742438D02*
X143770952Y-75694819D01*
X143770952Y-75694819D02*
X144009047Y-75694819D01*
X144009047Y-75694819D02*
X144104285Y-75742438D01*
X144104285Y-75742438D02*
X144151904Y-75790057D01*
X144151904Y-75790057D02*
X144199523Y-75885295D01*
X144199523Y-75885295D02*
X144199523Y-75980533D01*
X144199523Y-75980533D02*
X144151904Y-76123390D01*
X144151904Y-76123390D02*
X143580476Y-76694819D01*
X143580476Y-76694819D02*
X144199523Y-76694819D01*
X144818571Y-75694819D02*
X144913809Y-75694819D01*
X144913809Y-75694819D02*
X145009047Y-75742438D01*
X145009047Y-75742438D02*
X145056666Y-75790057D01*
X145056666Y-75790057D02*
X145104285Y-75885295D01*
X145104285Y-75885295D02*
X145151904Y-76075771D01*
X145151904Y-76075771D02*
X145151904Y-76313866D01*
X145151904Y-76313866D02*
X145104285Y-76504342D01*
X145104285Y-76504342D02*
X145056666Y-76599580D01*
X145056666Y-76599580D02*
X145009047Y-76647200D01*
X145009047Y-76647200D02*
X144913809Y-76694819D01*
X144913809Y-76694819D02*
X144818571Y-76694819D01*
X144818571Y-76694819D02*
X144723333Y-76647200D01*
X144723333Y-76647200D02*
X144675714Y-76599580D01*
X144675714Y-76599580D02*
X144628095Y-76504342D01*
X144628095Y-76504342D02*
X144580476Y-76313866D01*
X144580476Y-76313866D02*
X144580476Y-76075771D01*
X144580476Y-76075771D02*
X144628095Y-75885295D01*
X144628095Y-75885295D02*
X144675714Y-75790057D01*
X144675714Y-75790057D02*
X144723333Y-75742438D01*
X144723333Y-75742438D02*
X144818571Y-75694819D01*
X143207142Y-67064819D02*
X142873809Y-66588628D01*
X142635714Y-67064819D02*
X142635714Y-66064819D01*
X142635714Y-66064819D02*
X143016666Y-66064819D01*
X143016666Y-66064819D02*
X143111904Y-66112438D01*
X143111904Y-66112438D02*
X143159523Y-66160057D01*
X143159523Y-66160057D02*
X143207142Y-66255295D01*
X143207142Y-66255295D02*
X143207142Y-66398152D01*
X143207142Y-66398152D02*
X143159523Y-66493390D01*
X143159523Y-66493390D02*
X143111904Y-66541009D01*
X143111904Y-66541009D02*
X143016666Y-66588628D01*
X143016666Y-66588628D02*
X142635714Y-66588628D01*
X143588095Y-66160057D02*
X143635714Y-66112438D01*
X143635714Y-66112438D02*
X143730952Y-66064819D01*
X143730952Y-66064819D02*
X143969047Y-66064819D01*
X143969047Y-66064819D02*
X144064285Y-66112438D01*
X144064285Y-66112438D02*
X144111904Y-66160057D01*
X144111904Y-66160057D02*
X144159523Y-66255295D01*
X144159523Y-66255295D02*
X144159523Y-66350533D01*
X144159523Y-66350533D02*
X144111904Y-66493390D01*
X144111904Y-66493390D02*
X143540476Y-67064819D01*
X143540476Y-67064819D02*
X144159523Y-67064819D01*
X145111904Y-67064819D02*
X144540476Y-67064819D01*
X144826190Y-67064819D02*
X144826190Y-66064819D01*
X144826190Y-66064819D02*
X144730952Y-66207676D01*
X144730952Y-66207676D02*
X144635714Y-66302914D01*
X144635714Y-66302914D02*
X144540476Y-66350533D01*
X111184819Y-79022857D02*
X110708628Y-79356190D01*
X111184819Y-79594285D02*
X110184819Y-79594285D01*
X110184819Y-79594285D02*
X110184819Y-79213333D01*
X110184819Y-79213333D02*
X110232438Y-79118095D01*
X110232438Y-79118095D02*
X110280057Y-79070476D01*
X110280057Y-79070476D02*
X110375295Y-79022857D01*
X110375295Y-79022857D02*
X110518152Y-79022857D01*
X110518152Y-79022857D02*
X110613390Y-79070476D01*
X110613390Y-79070476D02*
X110661009Y-79118095D01*
X110661009Y-79118095D02*
X110708628Y-79213333D01*
X110708628Y-79213333D02*
X110708628Y-79594285D01*
X111184819Y-78070476D02*
X111184819Y-78641904D01*
X111184819Y-78356190D02*
X110184819Y-78356190D01*
X110184819Y-78356190D02*
X110327676Y-78451428D01*
X110327676Y-78451428D02*
X110422914Y-78546666D01*
X110422914Y-78546666D02*
X110470533Y-78641904D01*
X110184819Y-77213333D02*
X110184819Y-77403809D01*
X110184819Y-77403809D02*
X110232438Y-77499047D01*
X110232438Y-77499047D02*
X110280057Y-77546666D01*
X110280057Y-77546666D02*
X110422914Y-77641904D01*
X110422914Y-77641904D02*
X110613390Y-77689523D01*
X110613390Y-77689523D02*
X110994342Y-77689523D01*
X110994342Y-77689523D02*
X111089580Y-77641904D01*
X111089580Y-77641904D02*
X111137200Y-77594285D01*
X111137200Y-77594285D02*
X111184819Y-77499047D01*
X111184819Y-77499047D02*
X111184819Y-77308571D01*
X111184819Y-77308571D02*
X111137200Y-77213333D01*
X111137200Y-77213333D02*
X111089580Y-77165714D01*
X111089580Y-77165714D02*
X110994342Y-77118095D01*
X110994342Y-77118095D02*
X110756247Y-77118095D01*
X110756247Y-77118095D02*
X110661009Y-77165714D01*
X110661009Y-77165714D02*
X110613390Y-77213333D01*
X110613390Y-77213333D02*
X110565771Y-77308571D01*
X110565771Y-77308571D02*
X110565771Y-77499047D01*
X110565771Y-77499047D02*
X110613390Y-77594285D01*
X110613390Y-77594285D02*
X110661009Y-77641904D01*
X110661009Y-77641904D02*
X110756247Y-77689523D01*
X129384580Y-69316666D02*
X129432200Y-69364285D01*
X129432200Y-69364285D02*
X129479819Y-69507142D01*
X129479819Y-69507142D02*
X129479819Y-69602380D01*
X129479819Y-69602380D02*
X129432200Y-69745237D01*
X129432200Y-69745237D02*
X129336961Y-69840475D01*
X129336961Y-69840475D02*
X129241723Y-69888094D01*
X129241723Y-69888094D02*
X129051247Y-69935713D01*
X129051247Y-69935713D02*
X128908390Y-69935713D01*
X128908390Y-69935713D02*
X128717914Y-69888094D01*
X128717914Y-69888094D02*
X128622676Y-69840475D01*
X128622676Y-69840475D02*
X128527438Y-69745237D01*
X128527438Y-69745237D02*
X128479819Y-69602380D01*
X128479819Y-69602380D02*
X128479819Y-69507142D01*
X128479819Y-69507142D02*
X128527438Y-69364285D01*
X128527438Y-69364285D02*
X128575057Y-69316666D01*
X129479819Y-68840475D02*
X129479819Y-68649999D01*
X129479819Y-68649999D02*
X129432200Y-68554761D01*
X129432200Y-68554761D02*
X129384580Y-68507142D01*
X129384580Y-68507142D02*
X129241723Y-68411904D01*
X129241723Y-68411904D02*
X129051247Y-68364285D01*
X129051247Y-68364285D02*
X128670295Y-68364285D01*
X128670295Y-68364285D02*
X128575057Y-68411904D01*
X128575057Y-68411904D02*
X128527438Y-68459523D01*
X128527438Y-68459523D02*
X128479819Y-68554761D01*
X128479819Y-68554761D02*
X128479819Y-68745237D01*
X128479819Y-68745237D02*
X128527438Y-68840475D01*
X128527438Y-68840475D02*
X128575057Y-68888094D01*
X128575057Y-68888094D02*
X128670295Y-68935713D01*
X128670295Y-68935713D02*
X128908390Y-68935713D01*
X128908390Y-68935713D02*
X129003628Y-68888094D01*
X129003628Y-68888094D02*
X129051247Y-68840475D01*
X129051247Y-68840475D02*
X129098866Y-68745237D01*
X129098866Y-68745237D02*
X129098866Y-68554761D01*
X129098866Y-68554761D02*
X129051247Y-68459523D01*
X129051247Y-68459523D02*
X129003628Y-68411904D01*
X129003628Y-68411904D02*
X128908390Y-68364285D01*
X131904819Y-77011904D02*
X132714342Y-77011904D01*
X132714342Y-77011904D02*
X132809580Y-76964285D01*
X132809580Y-76964285D02*
X132857200Y-76916666D01*
X132857200Y-76916666D02*
X132904819Y-76821428D01*
X132904819Y-76821428D02*
X132904819Y-76630952D01*
X132904819Y-76630952D02*
X132857200Y-76535714D01*
X132857200Y-76535714D02*
X132809580Y-76488095D01*
X132809580Y-76488095D02*
X132714342Y-76440476D01*
X132714342Y-76440476D02*
X131904819Y-76440476D01*
X131904819Y-76059523D02*
X131904819Y-75440476D01*
X131904819Y-75440476D02*
X132285771Y-75773809D01*
X132285771Y-75773809D02*
X132285771Y-75630952D01*
X132285771Y-75630952D02*
X132333390Y-75535714D01*
X132333390Y-75535714D02*
X132381009Y-75488095D01*
X132381009Y-75488095D02*
X132476247Y-75440476D01*
X132476247Y-75440476D02*
X132714342Y-75440476D01*
X132714342Y-75440476D02*
X132809580Y-75488095D01*
X132809580Y-75488095D02*
X132857200Y-75535714D01*
X132857200Y-75535714D02*
X132904819Y-75630952D01*
X132904819Y-75630952D02*
X132904819Y-75916666D01*
X132904819Y-75916666D02*
X132857200Y-76011904D01*
X132857200Y-76011904D02*
X132809580Y-76059523D01*
X101507142Y-57554819D02*
X101173809Y-57078628D01*
X100935714Y-57554819D02*
X100935714Y-56554819D01*
X100935714Y-56554819D02*
X101316666Y-56554819D01*
X101316666Y-56554819D02*
X101411904Y-56602438D01*
X101411904Y-56602438D02*
X101459523Y-56650057D01*
X101459523Y-56650057D02*
X101507142Y-56745295D01*
X101507142Y-56745295D02*
X101507142Y-56888152D01*
X101507142Y-56888152D02*
X101459523Y-56983390D01*
X101459523Y-56983390D02*
X101411904Y-57031009D01*
X101411904Y-57031009D02*
X101316666Y-57078628D01*
X101316666Y-57078628D02*
X100935714Y-57078628D01*
X102459523Y-57554819D02*
X101888095Y-57554819D01*
X102173809Y-57554819D02*
X102173809Y-56554819D01*
X102173809Y-56554819D02*
X102078571Y-56697676D01*
X102078571Y-56697676D02*
X101983333Y-56792914D01*
X101983333Y-56792914D02*
X101888095Y-56840533D01*
X102792857Y-56554819D02*
X103411904Y-56554819D01*
X103411904Y-56554819D02*
X103078571Y-56935771D01*
X103078571Y-56935771D02*
X103221428Y-56935771D01*
X103221428Y-56935771D02*
X103316666Y-56983390D01*
X103316666Y-56983390D02*
X103364285Y-57031009D01*
X103364285Y-57031009D02*
X103411904Y-57126247D01*
X103411904Y-57126247D02*
X103411904Y-57364342D01*
X103411904Y-57364342D02*
X103364285Y-57459580D01*
X103364285Y-57459580D02*
X103316666Y-57507200D01*
X103316666Y-57507200D02*
X103221428Y-57554819D01*
X103221428Y-57554819D02*
X102935714Y-57554819D01*
X102935714Y-57554819D02*
X102840476Y-57507200D01*
X102840476Y-57507200D02*
X102792857Y-57459580D01*
X151884819Y-76776904D02*
X152694342Y-76776904D01*
X152694342Y-76776904D02*
X152789580Y-76729285D01*
X152789580Y-76729285D02*
X152837200Y-76681666D01*
X152837200Y-76681666D02*
X152884819Y-76586428D01*
X152884819Y-76586428D02*
X152884819Y-76395952D01*
X152884819Y-76395952D02*
X152837200Y-76300714D01*
X152837200Y-76300714D02*
X152789580Y-76253095D01*
X152789580Y-76253095D02*
X152694342Y-76205476D01*
X152694342Y-76205476D02*
X151884819Y-76205476D01*
X152218152Y-75300714D02*
X152884819Y-75300714D01*
X151837200Y-75538809D02*
X152551485Y-75776904D01*
X152551485Y-75776904D02*
X152551485Y-75157857D01*
X114583333Y-68909580D02*
X114535714Y-68957200D01*
X114535714Y-68957200D02*
X114392857Y-69004819D01*
X114392857Y-69004819D02*
X114297619Y-69004819D01*
X114297619Y-69004819D02*
X114154762Y-68957200D01*
X114154762Y-68957200D02*
X114059524Y-68861961D01*
X114059524Y-68861961D02*
X114011905Y-68766723D01*
X114011905Y-68766723D02*
X113964286Y-68576247D01*
X113964286Y-68576247D02*
X113964286Y-68433390D01*
X113964286Y-68433390D02*
X114011905Y-68242914D01*
X114011905Y-68242914D02*
X114059524Y-68147676D01*
X114059524Y-68147676D02*
X114154762Y-68052438D01*
X114154762Y-68052438D02*
X114297619Y-68004819D01*
X114297619Y-68004819D02*
X114392857Y-68004819D01*
X114392857Y-68004819D02*
X114535714Y-68052438D01*
X114535714Y-68052438D02*
X114583333Y-68100057D01*
X114916667Y-68004819D02*
X115535714Y-68004819D01*
X115535714Y-68004819D02*
X115202381Y-68385771D01*
X115202381Y-68385771D02*
X115345238Y-68385771D01*
X115345238Y-68385771D02*
X115440476Y-68433390D01*
X115440476Y-68433390D02*
X115488095Y-68481009D01*
X115488095Y-68481009D02*
X115535714Y-68576247D01*
X115535714Y-68576247D02*
X115535714Y-68814342D01*
X115535714Y-68814342D02*
X115488095Y-68909580D01*
X115488095Y-68909580D02*
X115440476Y-68957200D01*
X115440476Y-68957200D02*
X115345238Y-69004819D01*
X115345238Y-69004819D02*
X115059524Y-69004819D01*
X115059524Y-69004819D02*
X114964286Y-68957200D01*
X114964286Y-68957200D02*
X114916667Y-68909580D01*
X154763095Y-61189819D02*
X154763095Y-61999342D01*
X154763095Y-61999342D02*
X154810714Y-62094580D01*
X154810714Y-62094580D02*
X154858333Y-62142200D01*
X154858333Y-62142200D02*
X154953571Y-62189819D01*
X154953571Y-62189819D02*
X155144047Y-62189819D01*
X155144047Y-62189819D02*
X155239285Y-62142200D01*
X155239285Y-62142200D02*
X155286904Y-62094580D01*
X155286904Y-62094580D02*
X155334523Y-61999342D01*
X155334523Y-61999342D02*
X155334523Y-61189819D01*
X156334523Y-62189819D02*
X155763095Y-62189819D01*
X156048809Y-62189819D02*
X156048809Y-61189819D01*
X156048809Y-61189819D02*
X155953571Y-61332676D01*
X155953571Y-61332676D02*
X155858333Y-61427914D01*
X155858333Y-61427914D02*
X155763095Y-61475533D01*
X105272442Y-83438842D02*
X104967098Y-83438842D01*
X104967098Y-83438842D02*
X104967098Y-82797620D01*
X105486182Y-83102964D02*
X105699923Y-83102964D01*
X105791526Y-83438842D02*
X105486182Y-83438842D01*
X105486182Y-83438842D02*
X105486182Y-82797620D01*
X105486182Y-82797620D02*
X105791526Y-82797620D01*
X106066335Y-83438842D02*
X106066335Y-82797620D01*
X106066335Y-82797620D02*
X106219007Y-82797620D01*
X106219007Y-82797620D02*
X106310610Y-82828154D01*
X106310610Y-82828154D02*
X106371679Y-82889223D01*
X106371679Y-82889223D02*
X106402214Y-82950292D01*
X106402214Y-82950292D02*
X106432748Y-83072429D01*
X106432748Y-83072429D02*
X106432748Y-83164032D01*
X106432748Y-83164032D02*
X106402214Y-83286170D01*
X106402214Y-83286170D02*
X106371679Y-83347239D01*
X106371679Y-83347239D02*
X106310610Y-83408308D01*
X106310610Y-83408308D02*
X106219007Y-83438842D01*
X106219007Y-83438842D02*
X106066335Y-83438842D01*
X107043436Y-83438842D02*
X106677023Y-83438842D01*
X106860229Y-83438842D02*
X106860229Y-82797620D01*
X106860229Y-82797620D02*
X106799161Y-82889223D01*
X106799161Y-82889223D02*
X106738092Y-82950292D01*
X106738092Y-82950292D02*
X106677023Y-82980826D01*
X143107142Y-64934819D02*
X142773809Y-64458628D01*
X142535714Y-64934819D02*
X142535714Y-63934819D01*
X142535714Y-63934819D02*
X142916666Y-63934819D01*
X142916666Y-63934819D02*
X143011904Y-63982438D01*
X143011904Y-63982438D02*
X143059523Y-64030057D01*
X143059523Y-64030057D02*
X143107142Y-64125295D01*
X143107142Y-64125295D02*
X143107142Y-64268152D01*
X143107142Y-64268152D02*
X143059523Y-64363390D01*
X143059523Y-64363390D02*
X143011904Y-64411009D01*
X143011904Y-64411009D02*
X142916666Y-64458628D01*
X142916666Y-64458628D02*
X142535714Y-64458628D01*
X144059523Y-64934819D02*
X143488095Y-64934819D01*
X143773809Y-64934819D02*
X143773809Y-63934819D01*
X143773809Y-63934819D02*
X143678571Y-64077676D01*
X143678571Y-64077676D02*
X143583333Y-64172914D01*
X143583333Y-64172914D02*
X143488095Y-64220533D01*
X144535714Y-64934819D02*
X144726190Y-64934819D01*
X144726190Y-64934819D02*
X144821428Y-64887200D01*
X144821428Y-64887200D02*
X144869047Y-64839580D01*
X144869047Y-64839580D02*
X144964285Y-64696723D01*
X144964285Y-64696723D02*
X145011904Y-64506247D01*
X145011904Y-64506247D02*
X145011904Y-64125295D01*
X145011904Y-64125295D02*
X144964285Y-64030057D01*
X144964285Y-64030057D02*
X144916666Y-63982438D01*
X144916666Y-63982438D02*
X144821428Y-63934819D01*
X144821428Y-63934819D02*
X144630952Y-63934819D01*
X144630952Y-63934819D02*
X144535714Y-63982438D01*
X144535714Y-63982438D02*
X144488095Y-64030057D01*
X144488095Y-64030057D02*
X144440476Y-64125295D01*
X144440476Y-64125295D02*
X144440476Y-64363390D01*
X144440476Y-64363390D02*
X144488095Y-64458628D01*
X144488095Y-64458628D02*
X144535714Y-64506247D01*
X144535714Y-64506247D02*
X144630952Y-64553866D01*
X144630952Y-64553866D02*
X144821428Y-64553866D01*
X144821428Y-64553866D02*
X144916666Y-64506247D01*
X144916666Y-64506247D02*
X144964285Y-64458628D01*
X144964285Y-64458628D02*
X145011904Y-64363390D01*
X133029166Y-79904819D02*
X133029166Y-80619104D01*
X133029166Y-80619104D02*
X132981547Y-80761961D01*
X132981547Y-80761961D02*
X132886309Y-80857200D01*
X132886309Y-80857200D02*
X132743452Y-80904819D01*
X132743452Y-80904819D02*
X132648214Y-80904819D01*
X133933928Y-80238152D02*
X133933928Y-80904819D01*
X133695833Y-79857200D02*
X133457738Y-80571485D01*
X133457738Y-80571485D02*
X134076785Y-80571485D01*
D11*
X148580000Y-69000000D02*
X148580000Y-65160000D01*
X150420000Y-69000000D02*
X150420000Y-65160000D01*
X102160000Y-79540000D02*
X103560000Y-79540000D01*
X102160000Y-80940000D02*
X102160000Y-79540000D01*
X103560000Y-79540000D02*
X103560000Y-80940000D01*
X103560000Y-80940000D02*
X102160000Y-80940000D01*
X120480000Y-79355000D02*
X120480000Y-84595000D01*
X123220000Y-79355000D02*
X120480000Y-79355000D01*
X123220000Y-79355000D02*
X123220000Y-84595000D01*
X123220000Y-84595000D02*
X120480000Y-84595000D01*
X152870000Y-57750000D02*
X152870000Y-60490000D01*
X152870000Y-57750000D02*
X158110000Y-57750000D01*
X152870000Y-60490000D02*
X158110000Y-60490000D01*
X158110000Y-57750000D02*
X158110000Y-60490000D01*
X122250000Y-53550000D02*
X122250000Y-52790000D01*
X122280000Y-62310000D02*
X122280000Y-62830000D01*
X122280000Y-62830000D02*
X129220000Y-62830000D01*
X129220000Y-52790000D02*
X122250000Y-52790000D01*
X129220000Y-53550000D02*
X129220000Y-52790000D01*
X129220000Y-62830000D02*
X129220000Y-62310000D01*
X121625000Y-52835000D02*
X121385000Y-52505000D01*
X121865000Y-52505000D01*
X121625000Y-52835000D01*
G36*
X121625000Y-52835000D02*
G01*
X121385000Y-52505000D01*
X121865000Y-52505000D01*
X121625000Y-52835000D01*
G37*
X112580000Y-81330000D02*
X112580000Y-85170000D01*
X114420000Y-81330000D02*
X114420000Y-85170000D01*
X108720000Y-53080000D02*
X104880000Y-53080000D01*
X108720000Y-54920000D02*
X104880000Y-54920000D01*
X142260000Y-83680000D02*
X142260000Y-82150000D01*
X142570000Y-81570000D02*
X155990000Y-81570000D01*
X142570000Y-90700000D02*
X142570000Y-81570000D01*
X142570000Y-93360000D02*
X142570000Y-92900000D01*
X155990000Y-81570000D02*
X155990000Y-90700000D01*
X155990000Y-93360000D02*
X155990000Y-92900000D01*
X109380000Y-72880000D02*
X109380000Y-75620000D01*
X109380000Y-72880000D02*
X114620000Y-72880000D01*
X109380000Y-75620000D02*
X114620000Y-75620000D01*
X114620000Y-72880000D02*
X114620000Y-75620000D01*
X111630000Y-58880000D02*
X111630000Y-61620000D01*
X111630000Y-58880000D02*
X116870000Y-58880000D01*
X111630000Y-61620000D02*
X116870000Y-61620000D01*
X116870000Y-58880000D02*
X116870000Y-61620000D01*
D12*
G36*
X145692273Y-60457273D02*
G01*
X145692273Y-60553485D01*
X145596061Y-60553485D01*
X145499849Y-60553485D01*
X145499849Y-60457273D01*
X145499849Y-60361061D01*
X145596061Y-60361061D01*
X145692273Y-60361061D01*
X145692273Y-60457273D01*
G37*
G36*
X146077122Y-57955758D02*
G01*
X146077122Y-58051970D01*
X145980910Y-58051970D01*
X145884697Y-58051970D01*
X145884697Y-57955758D01*
X145884697Y-57859546D01*
X145980910Y-57859546D01*
X146077122Y-57859546D01*
X146077122Y-57955758D01*
G37*
G36*
X146461970Y-61996667D02*
G01*
X146461970Y-62285304D01*
X146173334Y-62285304D01*
X145884697Y-62285304D01*
X145884697Y-61996667D01*
X145884697Y-61708031D01*
X146173334Y-61708031D01*
X146461970Y-61708031D01*
X146461970Y-61996667D01*
G37*
G36*
X146846819Y-58340607D02*
G01*
X146846819Y-58436819D01*
X146750607Y-58436819D01*
X146654394Y-58436819D01*
X146654394Y-58340607D01*
X146654394Y-58244394D01*
X146750607Y-58244394D01*
X146846819Y-58244394D01*
X146846819Y-58340607D01*
G37*
G36*
X147808940Y-57186061D02*
G01*
X147808940Y-57282273D01*
X147712728Y-57282273D01*
X147616516Y-57282273D01*
X147616516Y-57186061D01*
X147616516Y-57089849D01*
X147712728Y-57089849D01*
X147808940Y-57089849D01*
X147808940Y-57186061D01*
G37*
G36*
X148193788Y-59687576D02*
G01*
X148193788Y-59783788D01*
X148097576Y-59783788D01*
X148001364Y-59783788D01*
X148001364Y-59687576D01*
X148001364Y-59591364D01*
X148097576Y-59591364D01*
X148193788Y-59591364D01*
X148193788Y-59687576D01*
G37*
G36*
X148578637Y-60072425D02*
G01*
X148578637Y-60168637D01*
X148482425Y-60168637D01*
X148386213Y-60168637D01*
X148386213Y-60072425D01*
X148386213Y-59976213D01*
X148482425Y-59976213D01*
X148578637Y-59976213D01*
X148578637Y-60072425D01*
G37*
G36*
X148771061Y-57186061D02*
G01*
X148771061Y-57282273D01*
X148674849Y-57282273D01*
X148578637Y-57282273D01*
X148578637Y-57186061D01*
X148578637Y-57089849D01*
X148674849Y-57089849D01*
X148771061Y-57089849D01*
X148771061Y-57186061D01*
G37*
G36*
X148963485Y-58917879D02*
G01*
X148963485Y-59014091D01*
X148867273Y-59014091D01*
X148771061Y-59014091D01*
X148771061Y-58917879D01*
X148771061Y-58821667D01*
X148867273Y-58821667D01*
X148963485Y-58821667D01*
X148963485Y-58917879D01*
G37*
G36*
X148963485Y-60264849D02*
G01*
X148963485Y-60361061D01*
X148867273Y-60361061D01*
X148771061Y-60361061D01*
X148771061Y-60264849D01*
X148771061Y-60168637D01*
X148867273Y-60168637D01*
X148963485Y-60168637D01*
X148963485Y-60264849D01*
G37*
G36*
X149155910Y-57186061D02*
G01*
X149155910Y-57282273D01*
X149059697Y-57282273D01*
X148963485Y-57282273D01*
X148963485Y-57186061D01*
X148963485Y-57089849D01*
X149059697Y-57089849D01*
X149155910Y-57089849D01*
X149155910Y-57186061D01*
G37*
G36*
X149925607Y-59110304D02*
G01*
X149925607Y-59206516D01*
X149733182Y-59206516D01*
X149540758Y-59206516D01*
X149540758Y-59110304D01*
X149540758Y-59014091D01*
X149733182Y-59014091D01*
X149925607Y-59014091D01*
X149925607Y-59110304D01*
G37*
G36*
X150118031Y-59495152D02*
G01*
X150118031Y-59591364D01*
X149925607Y-59591364D01*
X149733182Y-59591364D01*
X149733182Y-59495152D01*
X149733182Y-59398940D01*
X149925607Y-59398940D01*
X150118031Y-59398940D01*
X150118031Y-59495152D01*
G37*
G36*
X149925607Y-59880000D02*
G01*
X149925607Y-59976213D01*
X149829394Y-59976213D01*
X149733182Y-59976213D01*
X149733182Y-59880000D01*
X149733182Y-59783788D01*
X149829394Y-59783788D01*
X149925607Y-59783788D01*
X149925607Y-59880000D01*
G37*
G36*
X150695304Y-57763334D02*
G01*
X150695304Y-58051970D01*
X150406667Y-58051970D01*
X150118031Y-58051970D01*
X150118031Y-57763334D01*
X150118031Y-57474697D01*
X150406667Y-57474697D01*
X150695304Y-57474697D01*
X150695304Y-57763334D01*
G37*
G36*
X150695304Y-61996667D02*
G01*
X150695304Y-62285304D01*
X150406667Y-62285304D01*
X150118031Y-62285304D01*
X150118031Y-61996667D01*
X150118031Y-61708031D01*
X150406667Y-61708031D01*
X150695304Y-61708031D01*
X150695304Y-61996667D01*
G37*
G36*
X150502879Y-60649697D02*
G01*
X150502879Y-60745910D01*
X150406667Y-60745910D01*
X150310455Y-60745910D01*
X150310455Y-60649697D01*
X150310455Y-60553485D01*
X150406667Y-60553485D01*
X150502879Y-60553485D01*
X150502879Y-60649697D01*
G37*
G36*
X151080152Y-59110304D02*
G01*
X151080152Y-59206516D01*
X150983940Y-59206516D01*
X150887728Y-59206516D01*
X150887728Y-59110304D01*
X150887728Y-59014091D01*
X150983940Y-59014091D01*
X151080152Y-59014091D01*
X151080152Y-59110304D01*
G37*
G36*
X147808940Y-59976213D02*
G01*
X147808940Y-60168637D01*
X147905152Y-60168637D01*
X148001364Y-60168637D01*
X148001364Y-60264849D01*
X148001364Y-60361061D01*
X147808940Y-60361061D01*
X147616516Y-60361061D01*
X147616516Y-60072425D01*
X147616516Y-59783788D01*
X147712728Y-59783788D01*
X147808940Y-59783788D01*
X147808940Y-59976213D01*
G37*
G36*
X149540758Y-62477728D02*
G01*
X149540758Y-62670152D01*
X149059697Y-62670152D01*
X148578637Y-62670152D01*
X148578637Y-62573940D01*
X148578637Y-62477728D01*
X148963485Y-62477728D01*
X149348334Y-62477728D01*
X149348334Y-62381516D01*
X149348334Y-62285304D01*
X149444546Y-62285304D01*
X149540758Y-62285304D01*
X149540758Y-62477728D01*
G37*
G36*
X147231667Y-59206516D02*
G01*
X147231667Y-59398940D01*
X147135455Y-59398940D01*
X147039243Y-59398940D01*
X147039243Y-59495152D01*
X147039243Y-59591364D01*
X146943031Y-59591364D01*
X146846819Y-59591364D01*
X146846819Y-59495152D01*
X146846819Y-59398940D01*
X146943031Y-59398940D01*
X147039243Y-59398940D01*
X147039243Y-59206516D01*
X147039243Y-59014091D01*
X147135455Y-59014091D01*
X147231667Y-59014091D01*
X147231667Y-59206516D01*
G37*
G36*
X148578637Y-59687576D02*
G01*
X148578637Y-59783788D01*
X148482425Y-59783788D01*
X148386213Y-59783788D01*
X148386213Y-59880000D01*
X148386213Y-59976213D01*
X148290000Y-59976213D01*
X148193788Y-59976213D01*
X148193788Y-59880000D01*
X148193788Y-59783788D01*
X148290000Y-59783788D01*
X148386213Y-59783788D01*
X148386213Y-59687576D01*
X148386213Y-59591364D01*
X148482425Y-59591364D01*
X148578637Y-59591364D01*
X148578637Y-59687576D01*
G37*
G36*
X146846819Y-62670152D02*
G01*
X146173334Y-62670152D01*
X145499849Y-62670152D01*
X145499849Y-61996667D01*
X145499849Y-61526602D01*
X145703269Y-61526602D01*
X145703269Y-61996667D01*
X145703269Y-62466732D01*
X146173334Y-62466732D01*
X146643399Y-62466732D01*
X146643399Y-61996667D01*
X146643399Y-61526602D01*
X146173334Y-61526602D01*
X145703269Y-61526602D01*
X145499849Y-61526602D01*
X145499849Y-61323182D01*
X146173334Y-61323182D01*
X146846819Y-61323182D01*
X146846819Y-61996667D01*
X146846819Y-62670152D01*
G37*
G36*
X151080152Y-58436819D02*
G01*
X150406667Y-58436819D01*
X149733182Y-58436819D01*
X149733182Y-57763334D01*
X149733182Y-57293269D01*
X149936602Y-57293269D01*
X149936602Y-57763334D01*
X149936602Y-58233399D01*
X150406667Y-58233399D01*
X150876732Y-58233399D01*
X150876732Y-57763334D01*
X150876732Y-57293269D01*
X150406667Y-57293269D01*
X149936602Y-57293269D01*
X149733182Y-57293269D01*
X149733182Y-57089849D01*
X150406667Y-57089849D01*
X151080152Y-57089849D01*
X151080152Y-57763334D01*
X151080152Y-58436819D01*
G37*
G36*
X151080152Y-62670152D02*
G01*
X150406667Y-62670152D01*
X149733182Y-62670152D01*
X149733182Y-61996667D01*
X149733182Y-61526602D01*
X149936602Y-61526602D01*
X149936602Y-61996667D01*
X149936602Y-62466732D01*
X150406667Y-62466732D01*
X150876732Y-62466732D01*
X150876732Y-61996667D01*
X150876732Y-61526602D01*
X150406667Y-61526602D01*
X149936602Y-61526602D01*
X149733182Y-61526602D01*
X149733182Y-61323182D01*
X150406667Y-61323182D01*
X151080152Y-61323182D01*
X151080152Y-61996667D01*
X151080152Y-62670152D01*
G37*
G36*
X146077122Y-60649697D02*
G01*
X146077122Y-60745910D01*
X145884697Y-60745910D01*
X145692273Y-60745910D01*
X145692273Y-60842122D01*
X145692273Y-60938334D01*
X145788485Y-60938334D01*
X145884697Y-60938334D01*
X145884697Y-61034546D01*
X145884697Y-61130758D01*
X145692273Y-61130758D01*
X145499849Y-61130758D01*
X145499849Y-60938334D01*
X145499849Y-60745910D01*
X145596061Y-60745910D01*
X145692273Y-60745910D01*
X145692273Y-60649697D01*
X145692273Y-60553485D01*
X145884697Y-60553485D01*
X146077122Y-60553485D01*
X146077122Y-60649697D01*
G37*
G36*
X147616516Y-59495152D02*
G01*
X147616516Y-59591364D01*
X147520304Y-59591364D01*
X147424091Y-59591364D01*
X147424091Y-59880000D01*
X147424091Y-60168637D01*
X147327879Y-60168637D01*
X147231667Y-60168637D01*
X147231667Y-60264849D01*
X147231667Y-60361061D01*
X147135455Y-60361061D01*
X147039243Y-60361061D01*
X147039243Y-60264849D01*
X147039243Y-60168637D01*
X147135455Y-60168637D01*
X147231667Y-60168637D01*
X147231667Y-60072425D01*
X147231667Y-59976213D01*
X147135455Y-59976213D01*
X147039243Y-59976213D01*
X147039243Y-59783788D01*
X147039243Y-59591364D01*
X147231667Y-59591364D01*
X147424091Y-59591364D01*
X147424091Y-59495152D01*
X147424091Y-59398940D01*
X147520304Y-59398940D01*
X147616516Y-59398940D01*
X147616516Y-59495152D01*
G37*
G36*
X149155910Y-60938334D02*
G01*
X149155910Y-61130758D01*
X149059697Y-61130758D01*
X148963485Y-61130758D01*
X148963485Y-61226970D01*
X148963485Y-61323182D01*
X148867273Y-61323182D01*
X148771061Y-61323182D01*
X148771061Y-61419394D01*
X148771061Y-61515607D01*
X148674849Y-61515607D01*
X148578637Y-61515607D01*
X148578637Y-61419394D01*
X148578637Y-61323182D01*
X148674849Y-61323182D01*
X148771061Y-61323182D01*
X148771061Y-61226970D01*
X148771061Y-61130758D01*
X148867273Y-61130758D01*
X148963485Y-61130758D01*
X148963485Y-61034546D01*
X148963485Y-60938334D01*
X148771061Y-60938334D01*
X148578637Y-60938334D01*
X148578637Y-60842122D01*
X148578637Y-60745910D01*
X148867273Y-60745910D01*
X149155910Y-60745910D01*
X149155910Y-60938334D01*
G37*
G36*
X146654394Y-60553485D02*
G01*
X146654394Y-60745910D01*
X146750607Y-60745910D01*
X146846819Y-60745910D01*
X146846819Y-60649697D01*
X146846819Y-60553485D01*
X147039243Y-60553485D01*
X147231667Y-60553485D01*
X147231667Y-60649697D01*
X147231667Y-60745910D01*
X147327879Y-60745910D01*
X147424091Y-60745910D01*
X147424091Y-60649697D01*
X147424091Y-60553485D01*
X147520304Y-60553485D01*
X147616516Y-60553485D01*
X147616516Y-60649697D01*
X147616516Y-60745910D01*
X147808940Y-60745910D01*
X148001364Y-60745910D01*
X148001364Y-60553485D01*
X148001364Y-60361061D01*
X148386213Y-60361061D01*
X148771061Y-60361061D01*
X148771061Y-60457273D01*
X148771061Y-60553485D01*
X148578637Y-60553485D01*
X148386213Y-60553485D01*
X148386213Y-60649697D01*
X148386213Y-60745910D01*
X148290000Y-60745910D01*
X148193788Y-60745910D01*
X148193788Y-60842122D01*
X148193788Y-60938334D01*
X148097576Y-60938334D01*
X148001364Y-60938334D01*
X148001364Y-61034546D01*
X148001364Y-61130758D01*
X147905152Y-61130758D01*
X147808940Y-61130758D01*
X147808940Y-61226970D01*
X147808940Y-61323182D01*
X147712728Y-61323182D01*
X147616516Y-61323182D01*
X147616516Y-61419394D01*
X147616516Y-61515607D01*
X147520304Y-61515607D01*
X147424091Y-61515607D01*
X147424091Y-61804243D01*
X147424091Y-62092879D01*
X147520304Y-62092879D01*
X147616516Y-62092879D01*
X147616516Y-61996667D01*
X147616516Y-61900455D01*
X147808940Y-61900455D01*
X148001364Y-61900455D01*
X148001364Y-61996667D01*
X148001364Y-62092879D01*
X147808940Y-62092879D01*
X147616516Y-62092879D01*
X147616516Y-62189091D01*
X147616516Y-62285304D01*
X147520304Y-62285304D01*
X147424091Y-62285304D01*
X147424091Y-62189091D01*
X147424091Y-62092879D01*
X147327879Y-62092879D01*
X147231667Y-62092879D01*
X147231667Y-62285304D01*
X147231667Y-62477728D01*
X147424091Y-62477728D01*
X147616516Y-62477728D01*
X147616516Y-62573940D01*
X147616516Y-62670152D01*
X147327879Y-62670152D01*
X147039243Y-62670152D01*
X147039243Y-62381516D01*
X147039243Y-62092879D01*
X147135455Y-62092879D01*
X147231667Y-62092879D01*
X147231667Y-61900455D01*
X147231667Y-61708031D01*
X147135455Y-61708031D01*
X147039243Y-61708031D01*
X147039243Y-61515607D01*
X147039243Y-61323182D01*
X147135455Y-61323182D01*
X147231667Y-61323182D01*
X147231667Y-61419394D01*
X147231667Y-61515607D01*
X147327879Y-61515607D01*
X147424091Y-61515607D01*
X147424091Y-61419394D01*
X147424091Y-61323182D01*
X147520304Y-61323182D01*
X147616516Y-61323182D01*
X147616516Y-61130758D01*
X147616516Y-60938334D01*
X147520304Y-60938334D01*
X147424091Y-60938334D01*
X147424091Y-61034546D01*
X147424091Y-61130758D01*
X147327879Y-61130758D01*
X147231667Y-61130758D01*
X147231667Y-61034546D01*
X147231667Y-60938334D01*
X147135455Y-60938334D01*
X147039243Y-60938334D01*
X147039243Y-60842122D01*
X147039243Y-60745910D01*
X146943031Y-60745910D01*
X146846819Y-60745910D01*
X146846819Y-60938334D01*
X146846819Y-61130758D01*
X146750607Y-61130758D01*
X146654394Y-61130758D01*
X146654394Y-61034546D01*
X146654394Y-60938334D01*
X146461970Y-60938334D01*
X146269546Y-60938334D01*
X146269546Y-61034546D01*
X146269546Y-61130758D01*
X146173334Y-61130758D01*
X146077122Y-61130758D01*
X146077122Y-61034546D01*
X146077122Y-60938334D01*
X146173334Y-60938334D01*
X146269546Y-60938334D01*
X146269546Y-60649697D01*
X146269546Y-60361061D01*
X146461970Y-60361061D01*
X146654394Y-60361061D01*
X146654394Y-60553485D01*
G37*
G36*
X148290000Y-62092879D02*
G01*
X148578637Y-62092879D01*
X148578637Y-62189091D01*
X148578637Y-62285304D01*
X148482425Y-62285304D01*
X148386213Y-62285304D01*
X148386213Y-62381516D01*
X148386213Y-62477728D01*
X148290000Y-62477728D01*
X148193788Y-62477728D01*
X148193788Y-62573940D01*
X148193788Y-62670152D01*
X148001364Y-62670152D01*
X147808940Y-62670152D01*
X147808940Y-62573940D01*
X147808940Y-62477728D01*
X147905152Y-62477728D01*
X148001364Y-62477728D01*
X148001364Y-62285304D01*
X148001364Y-62092879D01*
X148290000Y-62092879D01*
G37*
G36*
X148386213Y-60938334D02*
G01*
X148578637Y-60938334D01*
X148578637Y-61130758D01*
X148578637Y-61323182D01*
X148482425Y-61323182D01*
X148386213Y-61323182D01*
X148386213Y-61515607D01*
X148386213Y-61708031D01*
X148290000Y-61708031D01*
X148193788Y-61708031D01*
X148193788Y-61323182D01*
X148193788Y-60938334D01*
X148386213Y-60938334D01*
G37*
G36*
X147905152Y-61323182D02*
G01*
X148001364Y-61323182D01*
X148001364Y-61419394D01*
X148001364Y-61515607D01*
X147905152Y-61515607D01*
X147808940Y-61515607D01*
X147808940Y-61419394D01*
X147808940Y-61323182D01*
X147905152Y-61323182D01*
G37*
G36*
X150310455Y-60938334D02*
G01*
X150502879Y-60938334D01*
X150695304Y-60938334D01*
X150695304Y-60649697D01*
X150695304Y-60361061D01*
X150791516Y-60361061D01*
X150887728Y-60361061D01*
X150887728Y-60457273D01*
X150887728Y-60553485D01*
X150983940Y-60553485D01*
X151080152Y-60553485D01*
X151080152Y-60649697D01*
X151080152Y-60745910D01*
X150983940Y-60745910D01*
X150887728Y-60745910D01*
X150887728Y-60842122D01*
X150887728Y-60938334D01*
X150791516Y-60938334D01*
X150695304Y-60938334D01*
X150695304Y-61034546D01*
X150695304Y-61130758D01*
X150502879Y-61130758D01*
X150310455Y-61130758D01*
X150310455Y-61034546D01*
X150310455Y-60938334D01*
X150214243Y-60938334D01*
X150118031Y-60938334D01*
X150118031Y-61034546D01*
X150118031Y-61130758D01*
X149829394Y-61130758D01*
X149540758Y-61130758D01*
X149540758Y-61323182D01*
X149540758Y-61515607D01*
X149444546Y-61515607D01*
X149348334Y-61515607D01*
X149348334Y-61708031D01*
X149348334Y-61900455D01*
X149252122Y-61900455D01*
X149155910Y-61900455D01*
X149155910Y-61996667D01*
X149155910Y-62092879D01*
X149252122Y-62092879D01*
X149348334Y-62092879D01*
X149348334Y-61996667D01*
X149348334Y-61900455D01*
X149444546Y-61900455D01*
X149540758Y-61900455D01*
X149540758Y-61996667D01*
X149540758Y-62092879D01*
X149444546Y-62092879D01*
X149348334Y-62092879D01*
X149348334Y-62189091D01*
X149348334Y-62285304D01*
X149059697Y-62285304D01*
X148771061Y-62285304D01*
X148771061Y-62189091D01*
X148771061Y-62092879D01*
X148867273Y-62092879D01*
X148963485Y-62092879D01*
X148963485Y-61996667D01*
X148963485Y-61900455D01*
X148674849Y-61900455D01*
X148386213Y-61900455D01*
X148386213Y-61804243D01*
X148386213Y-61708031D01*
X148674849Y-61708031D01*
X148963485Y-61708031D01*
X148963485Y-61515607D01*
X148963485Y-61323182D01*
X149059697Y-61323182D01*
X149155910Y-61323182D01*
X149155910Y-61419394D01*
X149155910Y-61515607D01*
X149252122Y-61515607D01*
X149348334Y-61515607D01*
X149348334Y-61323182D01*
X149348334Y-61130758D01*
X149444546Y-61130758D01*
X149540758Y-61130758D01*
X149540758Y-61034546D01*
X149540758Y-60938334D01*
X149444546Y-60938334D01*
X149348334Y-60938334D01*
X149348334Y-60649697D01*
X149348334Y-60361061D01*
X149444546Y-60361061D01*
X149540758Y-60361061D01*
X149540758Y-60553485D01*
X149540758Y-60745910D01*
X149636970Y-60745910D01*
X149733182Y-60745910D01*
X149733182Y-60842122D01*
X149733182Y-60938334D01*
X149829394Y-60938334D01*
X149925607Y-60938334D01*
X149925607Y-60842122D01*
X149925607Y-60745910D01*
X149829394Y-60745910D01*
X149733182Y-60745910D01*
X149733182Y-60649697D01*
X149733182Y-60553485D01*
X149829394Y-60553485D01*
X149925607Y-60553485D01*
X149925607Y-60457273D01*
X149925607Y-60361061D01*
X149733182Y-60361061D01*
X149540758Y-60361061D01*
X149540758Y-60168637D01*
X149540758Y-59976213D01*
X149636970Y-59976213D01*
X149733182Y-59976213D01*
X149733182Y-60072425D01*
X149733182Y-60168637D01*
X149829394Y-60168637D01*
X149925607Y-60168637D01*
X149925607Y-60072425D01*
X149925607Y-59976213D01*
X150021819Y-59976213D01*
X150118031Y-59976213D01*
X150118031Y-59880000D01*
X150118031Y-59783788D01*
X150214243Y-59783788D01*
X150310455Y-59783788D01*
X150310455Y-59495152D01*
X150310455Y-59206516D01*
X150406667Y-59206516D01*
X150502879Y-59206516D01*
X150502879Y-59110304D01*
X150502879Y-59014091D01*
X150599091Y-59014091D01*
X150695304Y-59014091D01*
X150695304Y-59206516D01*
X150695304Y-59398940D01*
X150599091Y-59398940D01*
X150502879Y-59398940D01*
X150502879Y-59591364D01*
X150502879Y-59783788D01*
X150599091Y-59783788D01*
X150695304Y-59783788D01*
X150695304Y-59591364D01*
X150695304Y-59398940D01*
X150887728Y-59398940D01*
X151080152Y-59398940D01*
X151080152Y-59591364D01*
X151080152Y-59783788D01*
X150983940Y-59783788D01*
X150887728Y-59783788D01*
X150887728Y-59880000D01*
X150887728Y-59976213D01*
X150695304Y-59976213D01*
X150502879Y-59976213D01*
X150502879Y-60072425D01*
X150502879Y-60168637D01*
X150310455Y-60168637D01*
X150118031Y-60168637D01*
X150118031Y-60264849D01*
X150118031Y-60361061D01*
X150214243Y-60361061D01*
X150310455Y-60361061D01*
X150310455Y-60457273D01*
X150310455Y-60553485D01*
X150214243Y-60553485D01*
X150118031Y-60553485D01*
X150118031Y-60649697D01*
X150118031Y-60745910D01*
X150214243Y-60745910D01*
X150310455Y-60745910D01*
X150310455Y-60842122D01*
X150310455Y-60938334D01*
G37*
G36*
X150983940Y-60938334D02*
G01*
X151080152Y-60938334D01*
X151080152Y-61034546D01*
X151080152Y-61130758D01*
X150983940Y-61130758D01*
X150887728Y-61130758D01*
X150887728Y-61034546D01*
X150887728Y-60938334D01*
X150983940Y-60938334D01*
G37*
G36*
X150599091Y-60168637D02*
G01*
X150695304Y-60168637D01*
X150695304Y-60264849D01*
X150695304Y-60361061D01*
X150599091Y-60361061D01*
X150502879Y-60361061D01*
X150502879Y-60264849D01*
X150502879Y-60168637D01*
X150599091Y-60168637D01*
G37*
G36*
X148386213Y-58051970D02*
G01*
X148193788Y-58051970D01*
X148001364Y-58051970D01*
X148001364Y-58244394D01*
X148001364Y-58340607D01*
X148001364Y-58436819D01*
X148193788Y-58436819D01*
X148386213Y-58436819D01*
X148386213Y-58340607D01*
X148386213Y-58244394D01*
X148482425Y-58244394D01*
X148578637Y-58244394D01*
X148578637Y-58148182D01*
X148578637Y-58051970D01*
X148674849Y-58051970D01*
X148771061Y-58051970D01*
X148771061Y-57859546D01*
X148771061Y-57667122D01*
X148867273Y-57667122D01*
X148963485Y-57667122D01*
X148963485Y-57763334D01*
X148963485Y-57859546D01*
X149059697Y-57859546D01*
X149155910Y-57859546D01*
X149155910Y-57570910D01*
X149155910Y-57282273D01*
X149252122Y-57282273D01*
X149348334Y-57282273D01*
X149348334Y-57186061D01*
X149348334Y-57089849D01*
X149444546Y-57089849D01*
X149540758Y-57089849D01*
X149540758Y-57186061D01*
X149540758Y-57282273D01*
X149444546Y-57282273D01*
X149348334Y-57282273D01*
X149348334Y-57378485D01*
X149348334Y-57474697D01*
X149444546Y-57474697D01*
X149540758Y-57474697D01*
X149540758Y-57667122D01*
X149540758Y-57859546D01*
X149444546Y-57859546D01*
X149348334Y-57859546D01*
X149348334Y-57955758D01*
X149348334Y-58051970D01*
X149155910Y-58051970D01*
X148963485Y-58051970D01*
X148963485Y-58148182D01*
X148963485Y-58244394D01*
X149059697Y-58244394D01*
X149155910Y-58244394D01*
X149155910Y-58340607D01*
X149155910Y-58436819D01*
X149252122Y-58436819D01*
X149348334Y-58436819D01*
X149348334Y-58244394D01*
X149348334Y-58051970D01*
X149444546Y-58051970D01*
X149540758Y-58051970D01*
X149540758Y-58244394D01*
X149540758Y-58340607D01*
X149540758Y-58629243D01*
X149829394Y-58629243D01*
X150118031Y-58629243D01*
X150118031Y-58725455D01*
X150118031Y-58821667D01*
X150310455Y-58821667D01*
X150502879Y-58821667D01*
X150502879Y-58725455D01*
X150502879Y-58629243D01*
X150695304Y-58629243D01*
X150887728Y-58629243D01*
X150887728Y-58725455D01*
X150887728Y-58821667D01*
X150695304Y-58821667D01*
X150502879Y-58821667D01*
X150502879Y-58917879D01*
X150502879Y-59014091D01*
X150310455Y-59014091D01*
X150118031Y-59014091D01*
X150118031Y-58917879D01*
X150118031Y-58821667D01*
X149733182Y-58821667D01*
X149348334Y-58821667D01*
X149348334Y-59014091D01*
X149348334Y-59206516D01*
X149444546Y-59206516D01*
X149540758Y-59206516D01*
X149540758Y-59591364D01*
X149540758Y-59976213D01*
X149348334Y-59976213D01*
X149155910Y-59976213D01*
X149155910Y-59880000D01*
X149155910Y-59783788D01*
X149252122Y-59783788D01*
X149348334Y-59783788D01*
X149348334Y-59591364D01*
X149348334Y-59398940D01*
X149252122Y-59398940D01*
X149155910Y-59398940D01*
X149155910Y-59495152D01*
X149155910Y-59591364D01*
X149059697Y-59591364D01*
X148963485Y-59591364D01*
X148963485Y-59495152D01*
X148963485Y-59398940D01*
X148674849Y-59398940D01*
X148386213Y-59398940D01*
X148386213Y-59302728D01*
X148386213Y-59206516D01*
X148674849Y-59206516D01*
X148963485Y-59206516D01*
X148963485Y-59110304D01*
X148963485Y-59014091D01*
X149059697Y-59014091D01*
X149155910Y-59014091D01*
X149155910Y-58821667D01*
X149155910Y-58629243D01*
X149059697Y-58629243D01*
X148963485Y-58629243D01*
X148963485Y-58533031D01*
X148963485Y-58436819D01*
X148867273Y-58436819D01*
X148771061Y-58436819D01*
X148771061Y-58340607D01*
X148771061Y-58244394D01*
X148674849Y-58244394D01*
X148578637Y-58244394D01*
X148578637Y-58436819D01*
X148578637Y-58629243D01*
X148674849Y-58629243D01*
X148771061Y-58629243D01*
X148771061Y-58725455D01*
X148771061Y-58821667D01*
X148578637Y-58821667D01*
X148386213Y-58821667D01*
X148386213Y-58725455D01*
X148386213Y-58629243D01*
X148290000Y-58629243D01*
X148193788Y-58629243D01*
X148193788Y-58821667D01*
X148193788Y-59014091D01*
X148001364Y-59014091D01*
X147808940Y-59014091D01*
X147808940Y-59206516D01*
X147808940Y-59398940D01*
X147712728Y-59398940D01*
X147616516Y-59398940D01*
X147616516Y-59206516D01*
X147616516Y-59014091D01*
X147520304Y-59014091D01*
X147424091Y-59014091D01*
X147424091Y-58917879D01*
X147424091Y-58821667D01*
X147135455Y-58821667D01*
X146846819Y-58821667D01*
X146846819Y-59014091D01*
X146846819Y-59206516D01*
X146750607Y-59206516D01*
X146654394Y-59206516D01*
X146654394Y-59302728D01*
X146654394Y-59398940D01*
X146558182Y-59398940D01*
X146461970Y-59398940D01*
X146461970Y-59495152D01*
X146461970Y-59591364D01*
X146558182Y-59591364D01*
X146654394Y-59591364D01*
X146654394Y-59783788D01*
X146654394Y-59976213D01*
X146750607Y-59976213D01*
X146846819Y-59976213D01*
X146846819Y-60072425D01*
X146846819Y-60168637D01*
X146654394Y-60168637D01*
X146461970Y-60168637D01*
X146461970Y-60072425D01*
X146461970Y-59976213D01*
X146365758Y-59976213D01*
X146269546Y-59976213D01*
X146269546Y-59783788D01*
X146269546Y-59591364D01*
X146173334Y-59591364D01*
X146077122Y-59591364D01*
X146077122Y-59495152D01*
X146077122Y-59398940D01*
X145980910Y-59398940D01*
X145884697Y-59398940D01*
X145884697Y-59591364D01*
X145884697Y-59783788D01*
X145980910Y-59783788D01*
X146077122Y-59783788D01*
X146077122Y-59976213D01*
X146077122Y-60168637D01*
X146173334Y-60168637D01*
X146269546Y-60168637D01*
X146269546Y-60264849D01*
X146269546Y-60361061D01*
X146077122Y-60361061D01*
X145884697Y-60361061D01*
X145884697Y-60264849D01*
X145884697Y-60168637D01*
X145692273Y-60168637D01*
X145499849Y-60168637D01*
X145499849Y-59976213D01*
X145499849Y-59783788D01*
X145596061Y-59783788D01*
X145692273Y-59783788D01*
X145692273Y-59495152D01*
X145692273Y-59206516D01*
X145788485Y-59206516D01*
X145884697Y-59206516D01*
X145884697Y-58917879D01*
X145884697Y-58821667D01*
X146077122Y-58821667D01*
X146077122Y-59014091D01*
X146077122Y-59206516D01*
X146173334Y-59206516D01*
X146269546Y-59206516D01*
X146269546Y-59302728D01*
X146269546Y-59398940D01*
X146365758Y-59398940D01*
X146461970Y-59398940D01*
X146461970Y-59206516D01*
X146461970Y-59014091D01*
X146558182Y-59014091D01*
X146654394Y-59014091D01*
X146654394Y-58917879D01*
X146654394Y-58821667D01*
X146365758Y-58821667D01*
X146077122Y-58821667D01*
X145884697Y-58821667D01*
X145884697Y-58629243D01*
X145692273Y-58629243D01*
X145499849Y-58629243D01*
X145499849Y-58533031D01*
X145499849Y-58436819D01*
X145596061Y-58436819D01*
X145692273Y-58436819D01*
X145692273Y-58340607D01*
X145692273Y-58244394D01*
X145596061Y-58244394D01*
X145499849Y-58244394D01*
X145499849Y-58051970D01*
X145499849Y-57859546D01*
X145596061Y-57859546D01*
X145692273Y-57859546D01*
X145692273Y-57955758D01*
X145692273Y-58051970D01*
X145788485Y-58051970D01*
X145884697Y-58051970D01*
X145884697Y-58244394D01*
X145884697Y-58436819D01*
X145980910Y-58436819D01*
X146077122Y-58436819D01*
X146077122Y-58244394D01*
X146077122Y-58051970D01*
X146173334Y-58051970D01*
X146269546Y-58051970D01*
X146461970Y-58051970D01*
X146461970Y-58340607D01*
X146461970Y-58629243D01*
X146750607Y-58629243D01*
X147039243Y-58629243D01*
X147039243Y-58533031D01*
X147231667Y-58533031D01*
X147231667Y-58629243D01*
X147327879Y-58629243D01*
X147424091Y-58629243D01*
X147808940Y-58629243D01*
X147808940Y-58821667D01*
X147905152Y-58821667D01*
X148001364Y-58821667D01*
X148001364Y-58629243D01*
X148001364Y-58436819D01*
X147905152Y-58436819D01*
X147808940Y-58436819D01*
X147808940Y-58533031D01*
X147808940Y-58629243D01*
X147424091Y-58629243D01*
X147424091Y-58533031D01*
X147424091Y-58436819D01*
X147327879Y-58436819D01*
X147231667Y-58436819D01*
X147231667Y-58533031D01*
X147039243Y-58533031D01*
X147039243Y-58340607D01*
X147039243Y-58051970D01*
X146750607Y-58051970D01*
X146461970Y-58051970D01*
X146269546Y-58051970D01*
X146269546Y-57955758D01*
X146269546Y-57859546D01*
X146173334Y-57859546D01*
X146077122Y-57859546D01*
X146077122Y-57763334D01*
X146077122Y-57667122D01*
X145980910Y-57667122D01*
X145884697Y-57667122D01*
X145884697Y-57763334D01*
X145884697Y-57859546D01*
X145788485Y-57859546D01*
X145692273Y-57859546D01*
X145692273Y-57763334D01*
X145692273Y-57667122D01*
X145788485Y-57667122D01*
X145884697Y-57667122D01*
X145884697Y-57570910D01*
X145884697Y-57474697D01*
X145788485Y-57474697D01*
X145692273Y-57474697D01*
X145692273Y-57570910D01*
X145692273Y-57667122D01*
X145596061Y-57667122D01*
X145499849Y-57667122D01*
X145499849Y-57570910D01*
X145499849Y-57474697D01*
X145596061Y-57474697D01*
X145692273Y-57474697D01*
X145692273Y-57282273D01*
X145692273Y-57089849D01*
X145788485Y-57089849D01*
X145884697Y-57089849D01*
X145884697Y-57282273D01*
X145884697Y-57474697D01*
X145980910Y-57474697D01*
X146077122Y-57474697D01*
X146077122Y-57282273D01*
X146077122Y-57089849D01*
X146173334Y-57089849D01*
X146269546Y-57089849D01*
X146269546Y-57282273D01*
X146269546Y-57474697D01*
X146173334Y-57474697D01*
X146077122Y-57474697D01*
X146077122Y-57570910D01*
X146077122Y-57667122D01*
X146269546Y-57667122D01*
X146461970Y-57667122D01*
X146461970Y-57474697D01*
X146461970Y-57282273D01*
X146558182Y-57282273D01*
X146654394Y-57282273D01*
X146654394Y-57474697D01*
X146654394Y-57667122D01*
X146558182Y-57667122D01*
X146461970Y-57667122D01*
X146461970Y-57763334D01*
X146461970Y-57859546D01*
X146654394Y-57859546D01*
X146846819Y-57859546D01*
X146846819Y-57667122D01*
X147231667Y-57667122D01*
X147231667Y-57955758D01*
X147231667Y-58244394D01*
X147327879Y-58244394D01*
X147424091Y-58244394D01*
X147424091Y-58051970D01*
X147424091Y-57859546D01*
X147616516Y-57859546D01*
X147808940Y-57859546D01*
X147808940Y-57955758D01*
X147808940Y-58051970D01*
X147712728Y-58051970D01*
X147616516Y-58051970D01*
X147616516Y-58148182D01*
X147616516Y-58244394D01*
X147712728Y-58244394D01*
X147808940Y-58244394D01*
X147808940Y-58148182D01*
X147808940Y-58051970D01*
X147905152Y-58051970D01*
X148001364Y-58051970D01*
X148001364Y-57955758D01*
X148001364Y-57859546D01*
X148097576Y-57859546D01*
X148193788Y-57859546D01*
X148193788Y-57763334D01*
X148193788Y-57667122D01*
X148097576Y-57667122D01*
X148001364Y-57667122D01*
X148001364Y-57763334D01*
X148001364Y-57859546D01*
X147905152Y-57859546D01*
X147808940Y-57859546D01*
X147808940Y-57763334D01*
X147808940Y-57667122D01*
X147520304Y-57667122D01*
X147231667Y-57667122D01*
X146846819Y-57667122D01*
X146846819Y-57474697D01*
X146943031Y-57474697D01*
X147039243Y-57474697D01*
X147039243Y-57282273D01*
X147039243Y-57089849D01*
X147231667Y-57089849D01*
X147424091Y-57089849D01*
X147424091Y-57186061D01*
X147424091Y-57282273D01*
X147327879Y-57282273D01*
X147231667Y-57282273D01*
X147231667Y-57378485D01*
X147231667Y-57474697D01*
X147520304Y-57474697D01*
X147808940Y-57474697D01*
X147808940Y-57378485D01*
X147808940Y-57282273D01*
X147905152Y-57282273D01*
X148001364Y-57282273D01*
X148001364Y-57186061D01*
X148001364Y-57089849D01*
X148097576Y-57089849D01*
X148193788Y-57089849D01*
X148193788Y-57186061D01*
X148193788Y-57282273D01*
X148097576Y-57282273D01*
X148001364Y-57282273D01*
X148001364Y-57378485D01*
X148001364Y-57474697D01*
X148193788Y-57474697D01*
X148386213Y-57474697D01*
X148386213Y-57763334D01*
X148386213Y-57859546D01*
X148386213Y-58051970D01*
G37*
D11*
X109480000Y-90990000D02*
X109480000Y-93750000D01*
X109480000Y-93750000D02*
X119860000Y-93750000D01*
X110430000Y-90677358D02*
X110430000Y-90990000D01*
X110430000Y-99750000D02*
X110430000Y-93750000D01*
X111290000Y-90677358D02*
X111290000Y-90990000D01*
X111290000Y-93750000D02*
X111290000Y-99750000D01*
X111290000Y-99750000D02*
X110430000Y-99750000D01*
X112130000Y-90990000D02*
X112130000Y-93750000D01*
X112970000Y-90677358D02*
X112970000Y-90990000D01*
X112970000Y-99750000D02*
X112970000Y-93750000D01*
X113830000Y-90677358D02*
X113830000Y-90990000D01*
X113830000Y-93750000D02*
X113830000Y-99750000D01*
X113830000Y-99750000D02*
X112970000Y-99750000D01*
X114670000Y-90990000D02*
X114670000Y-93750000D01*
X115510000Y-90677358D02*
X115510000Y-90990000D01*
X115510000Y-99750000D02*
X115510000Y-93750000D01*
X116370000Y-90677358D02*
X116370000Y-90990000D01*
X116370000Y-93750000D02*
X116370000Y-99750000D01*
X116370000Y-99750000D02*
X115510000Y-99750000D01*
X117210000Y-90990000D02*
X117210000Y-93750000D01*
X118050000Y-90760000D02*
X118050000Y-90990000D01*
X118480000Y-88330000D02*
X119750000Y-88330000D01*
X118910000Y-90760000D02*
X118910000Y-90990000D01*
X119750000Y-88330000D02*
X119750000Y-89600000D01*
X119860000Y-90990000D02*
X109480000Y-90990000D01*
X119860000Y-93750000D02*
X119860000Y-90990000D01*
X118910000Y-93750000D02*
X118050000Y-93750000D01*
X118050000Y-99750000D01*
X118910000Y-99750000D01*
X118910000Y-93750000D01*
G36*
X118910000Y-93750000D02*
G01*
X118050000Y-93750000D01*
X118050000Y-99750000D01*
X118910000Y-99750000D01*
X118910000Y-93750000D01*
G37*
X136980000Y-70710000D02*
X140820000Y-70710000D01*
X136980000Y-72550000D02*
X140820000Y-72550000D01*
X140820000Y-73090000D02*
X136980000Y-73090000D01*
X140820000Y-74930000D02*
X136980000Y-74930000D01*
X140850000Y-65580000D02*
X137010000Y-65580000D01*
X140850000Y-67420000D02*
X137010000Y-67420000D01*
X111780000Y-52630000D02*
X111780000Y-55370000D01*
X111780000Y-52630000D02*
X117020000Y-52630000D01*
X111780000Y-55370000D02*
X117020000Y-55370000D01*
X117020000Y-52630000D02*
X117020000Y-55370000D01*
X107545000Y-75630000D02*
X103705000Y-75630000D01*
X107545000Y-77470000D02*
X103705000Y-77470000D01*
X104055000Y-62725000D02*
X104055000Y-60775000D01*
X104055000Y-62725000D02*
X104055000Y-64675000D01*
X109175000Y-62725000D02*
X109175000Y-60775000D01*
X109175000Y-62725000D02*
X109175000Y-64675000D01*
X109410000Y-60265000D02*
X109080000Y-60025000D01*
X109410000Y-59785000D01*
X109410000Y-60265000D01*
G36*
X109410000Y-60265000D02*
G01*
X109080000Y-60025000D01*
X109410000Y-59785000D01*
X109410000Y-60265000D01*
G37*
X137090000Y-75630000D02*
X140930000Y-75630000D01*
X137090000Y-77470000D02*
X140930000Y-77470000D01*
X137040000Y-67860000D02*
X140880000Y-67860000D01*
X137040000Y-69700000D02*
X140880000Y-69700000D01*
X109830000Y-81370000D02*
X109830000Y-85210000D01*
X111670000Y-81370000D02*
X111670000Y-85210000D01*
X102210000Y-82050000D02*
X103610000Y-82050000D01*
X102210000Y-83450000D02*
X102210000Y-82050000D01*
X103610000Y-82050000D02*
X103610000Y-83450000D01*
X103610000Y-83450000D02*
X102210000Y-83450000D01*
X130155000Y-66530000D02*
X132895000Y-66530000D01*
X130155000Y-71770000D02*
X130155000Y-66530000D01*
X130155000Y-71770000D02*
X132895000Y-71770000D01*
X132895000Y-71770000D02*
X132895000Y-66530000D01*
D10*
X128275000Y-74625000D02*
X128275000Y-77875000D01*
X128275000Y-74625000D02*
X128500000Y-74625000D01*
X128275000Y-77875000D02*
X128500000Y-77875000D01*
X131525000Y-74625000D02*
X131300000Y-74625000D01*
X131525000Y-74625000D02*
X131525000Y-77875000D01*
X131525000Y-77875000D02*
X131300000Y-77875000D01*
D11*
X131630000Y-74390000D02*
X131300000Y-74150000D01*
X131630000Y-73910000D01*
X131630000Y-74390000D01*
G36*
X131630000Y-74390000D02*
G01*
X131300000Y-74150000D01*
X131630000Y-73910000D01*
X131630000Y-74390000D01*
G37*
X108860000Y-55880000D02*
X105020000Y-55880000D01*
X108860000Y-57720000D02*
X105020000Y-57720000D01*
X154450000Y-74025000D02*
X154450000Y-78005000D01*
X154735000Y-74025000D02*
X154450000Y-74025000D01*
X154735000Y-78005000D02*
X154450000Y-78005000D01*
X158325000Y-74025000D02*
X158610000Y-74025000D01*
X158610000Y-78005000D02*
X158325000Y-78005000D01*
X158610000Y-78005000D02*
X158610000Y-74025000D01*
X158610000Y-73765000D02*
X158330000Y-73765000D01*
X158330000Y-73485000D01*
X158610000Y-73765000D01*
G36*
X158610000Y-73765000D02*
G01*
X158330000Y-73765000D01*
X158330000Y-73485000D01*
X158610000Y-73765000D01*
G37*
X118870000Y-66500000D02*
G75*
G02*
X110630000Y-66500000I-4120000J0D01*
G01*
X110630000Y-66500000D02*
G75*
G02*
X118870000Y-66500000I4120000J0D01*
G01*
X155525000Y-62575000D02*
X153575000Y-62575000D01*
X155525000Y-62575000D02*
X157475000Y-62575000D01*
X155525000Y-67695000D02*
X153575000Y-67695000D01*
X155525000Y-67695000D02*
X157475000Y-67695000D01*
X152825000Y-62670000D02*
X152585000Y-62340000D01*
X153065000Y-62340000D01*
X152825000Y-62670000D01*
G36*
X152825000Y-62670000D02*
G01*
X152585000Y-62340000D01*
X153065000Y-62340000D01*
X152825000Y-62670000D01*
G37*
D12*
G36*
X143018904Y-51005030D02*
G01*
X143012345Y-51011590D01*
X143005785Y-51005030D01*
X143012345Y-50998470D01*
X143018904Y-51005030D01*
G37*
G36*
X140687953Y-50832117D02*
G01*
X140724270Y-50846153D01*
X140765826Y-50872151D01*
X140815625Y-50912243D01*
X140876669Y-50968560D01*
X140939411Y-51030545D01*
X141033914Y-51128745D01*
X141120767Y-51225801D01*
X141204044Y-51326823D01*
X141287824Y-51436922D01*
X141376181Y-51561208D01*
X141452807Y-51674142D01*
X141487434Y-51725592D01*
X141516986Y-51768713D01*
X141538329Y-51798988D01*
X141548332Y-51811898D01*
X141548335Y-51811900D01*
X141562692Y-51830142D01*
X141587378Y-51868635D01*
X141620630Y-51924345D01*
X141660683Y-51994236D01*
X141705773Y-52075271D01*
X141754138Y-52164417D01*
X141765575Y-52185815D01*
X141799986Y-52249759D01*
X141824810Y-52292677D01*
X141842663Y-52316778D01*
X141856157Y-52324266D01*
X141867908Y-52317348D01*
X141877374Y-52303010D01*
X142220760Y-52303010D01*
X142227228Y-52306727D01*
X142244533Y-52303294D01*
X142275361Y-52291747D01*
X142322397Y-52271121D01*
X142388328Y-52240449D01*
X142448127Y-52212024D01*
X142596783Y-52141860D01*
X142723539Y-52083886D01*
X142829485Y-52037644D01*
X142915713Y-52002675D01*
X142983311Y-51978522D01*
X143033371Y-51964725D01*
X143039232Y-51963558D01*
X143075579Y-51954981D01*
X143100904Y-51945824D01*
X143104183Y-51943819D01*
X143111700Y-51938781D01*
X143122910Y-51933712D01*
X143142288Y-51927223D01*
X143174308Y-51917925D01*
X143223444Y-51904426D01*
X143281301Y-51888802D01*
X143356242Y-51868949D01*
X143419015Y-51853259D01*
X143482649Y-51838565D01*
X143537138Y-51826649D01*
X143580805Y-51816875D01*
X143617252Y-51808097D01*
X143629043Y-51804956D01*
X143660908Y-51807970D01*
X143681522Y-51821050D01*
X143705110Y-51841596D01*
X143740876Y-51871908D01*
X143777513Y-51902467D01*
X143821707Y-51944011D01*
X143874911Y-52001755D01*
X143932104Y-52069725D01*
X143988265Y-52141948D01*
X144038373Y-52212450D01*
X144039566Y-52214229D01*
X144061917Y-52242522D01*
X144099342Y-52284454D01*
X144147677Y-52335818D01*
X144202760Y-52392406D01*
X144260426Y-52450012D01*
X144316514Y-52504430D01*
X144366859Y-52551451D01*
X144407297Y-52586871D01*
X144412815Y-52591377D01*
X144472095Y-52633413D01*
X144529223Y-52659405D01*
X144593101Y-52672128D01*
X144672631Y-52674358D01*
X144678564Y-52674205D01*
X144783522Y-52671249D01*
X144795354Y-52592530D01*
X144799231Y-52494555D01*
X144784146Y-52378605D01*
X144750128Y-52244808D01*
X144697207Y-52093296D01*
X144662715Y-52008698D01*
X144644077Y-51966676D01*
X144621481Y-51918281D01*
X144597984Y-51869734D01*
X144576642Y-51827253D01*
X144560511Y-51797061D01*
X144553129Y-51785660D01*
X144542225Y-51772027D01*
X144521662Y-51743434D01*
X144501734Y-51714607D01*
X144467483Y-51670160D01*
X144418345Y-51614066D01*
X144359088Y-51551059D01*
X144294480Y-51485869D01*
X144229290Y-51423230D01*
X144168285Y-51367872D01*
X144116235Y-51324529D01*
X144088171Y-51304190D01*
X143990948Y-51247473D01*
X143899675Y-51207544D01*
X143818247Y-51185922D01*
X143775710Y-51182369D01*
X143709656Y-51191057D01*
X143630081Y-51215189D01*
X143542760Y-51252427D01*
X143453467Y-51300434D01*
X143399380Y-51334761D01*
X143340204Y-51373262D01*
X143274771Y-51413482D01*
X143216009Y-51447506D01*
X143209142Y-51451275D01*
X143149301Y-51484708D01*
X143095741Y-51517029D01*
X143043064Y-51551958D01*
X142985876Y-51593217D01*
X142918780Y-51644526D01*
X142848347Y-51700079D01*
X142777475Y-51756060D01*
X142697363Y-51818710D01*
X142618048Y-51880211D01*
X142552124Y-51930799D01*
X142461451Y-52000661D01*
X142390065Y-52057721D01*
X142335692Y-52104130D01*
X142296056Y-52142041D01*
X142268883Y-52173606D01*
X142251898Y-52200978D01*
X142243771Y-52222562D01*
X142233008Y-52260407D01*
X142223757Y-52289518D01*
X142222443Y-52293109D01*
X142220760Y-52303010D01*
X141877374Y-52303010D01*
X141880530Y-52298229D01*
X141886364Y-52287740D01*
X141903578Y-52256915D01*
X141930432Y-52209447D01*
X141963451Y-52151422D01*
X141999163Y-52088926D01*
X142034094Y-52028044D01*
X142064770Y-51974861D01*
X142075233Y-51956829D01*
X142092711Y-51928731D01*
X142120517Y-51886140D01*
X142154751Y-51834806D01*
X142191514Y-51780478D01*
X142226906Y-51728906D01*
X142257028Y-51685840D01*
X142277980Y-51657029D01*
X142282295Y-51651535D01*
X142304291Y-51625361D01*
X142317403Y-51610359D01*
X142331380Y-51593333D01*
X142356384Y-51561497D01*
X142387619Y-51520973D01*
X142395884Y-51510144D01*
X142436121Y-51461046D01*
X142488504Y-51402516D01*
X142548444Y-51339156D01*
X142611350Y-51275566D01*
X142672635Y-51216348D01*
X142727709Y-51166105D01*
X142771983Y-51129437D01*
X142784830Y-51120149D01*
X142836852Y-51086697D01*
X142888187Y-51056871D01*
X142933740Y-51033283D01*
X142968417Y-51018540D01*
X142987121Y-51015252D01*
X142988290Y-51015962D01*
X142984592Y-51029953D01*
X142959927Y-51056731D01*
X142915525Y-51095092D01*
X142874586Y-51127253D01*
X142845138Y-51150098D01*
X142825436Y-51166041D01*
X142822107Y-51169028D01*
X142808400Y-51180025D01*
X142780878Y-51200484D01*
X142763068Y-51213370D01*
X142715315Y-51252835D01*
X142655869Y-51310134D01*
X142587914Y-51381490D01*
X142514636Y-51463126D01*
X142439221Y-51551262D01*
X142364855Y-51642122D01*
X142294725Y-51731928D01*
X142232015Y-51816901D01*
X142179911Y-51893264D01*
X142153215Y-51936539D01*
X142114980Y-52003655D01*
X142081152Y-52065851D01*
X142053719Y-52119193D01*
X142034669Y-52159746D01*
X142025990Y-52183577D01*
X142026136Y-52187967D01*
X142040734Y-52185157D01*
X142071085Y-52167716D01*
X142113269Y-52138381D01*
X142163365Y-52099884D01*
X142217453Y-52054960D01*
X142220051Y-52052717D01*
X142304808Y-51980363D01*
X142379595Y-51918994D01*
X142453374Y-51861431D01*
X142533083Y-51801978D01*
X142590777Y-51759480D01*
X142650962Y-51714853D01*
X142704037Y-51675226D01*
X142723708Y-51660423D01*
X142881860Y-51542878D01*
X143024386Y-51441271D01*
X143154650Y-51353428D01*
X143276012Y-51277177D01*
X143391837Y-51210344D01*
X143505486Y-51150756D01*
X143534374Y-51136531D01*
X143637619Y-51092914D01*
X143731428Y-51068929D01*
X143821147Y-51064797D01*
X143912123Y-51080740D01*
X144009702Y-51116978D01*
X144094235Y-51159695D01*
X144189434Y-51218747D01*
X144279898Y-51289299D01*
X144368272Y-51374104D01*
X144457203Y-51475917D01*
X144549334Y-51597492D01*
X144634950Y-51722695D01*
X144668413Y-51776414D01*
X144704126Y-51838490D01*
X144739591Y-51903991D01*
X144772307Y-51967988D01*
X144799775Y-52025550D01*
X144819494Y-52071748D01*
X144828966Y-52101651D01*
X144829442Y-52106272D01*
X144836444Y-52127991D01*
X144841049Y-52132401D01*
X144851829Y-52149433D01*
X144859567Y-52175815D01*
X144866032Y-52206977D01*
X144876265Y-52253477D01*
X144887742Y-52303894D01*
X144897623Y-52360669D01*
X144904745Y-52429734D01*
X144908982Y-52504565D01*
X144910210Y-52578641D01*
X144908303Y-52645437D01*
X144903136Y-52698431D01*
X144895882Y-52728258D01*
X144866827Y-52766608D01*
X144818463Y-52796312D01*
X144756980Y-52814916D01*
X144688565Y-52819964D01*
X144668252Y-52818536D01*
X144600262Y-52807628D01*
X144537446Y-52788129D01*
X144471700Y-52756850D01*
X144396487Y-52711613D01*
X144350421Y-52678064D01*
X144292972Y-52630419D01*
X144229286Y-52573564D01*
X144164507Y-52512386D01*
X144103779Y-52451772D01*
X144052248Y-52396607D01*
X144015058Y-52351779D01*
X144009452Y-52343993D01*
X143987704Y-52314069D01*
X143970486Y-52292772D01*
X143969661Y-52291888D01*
X143953899Y-52272562D01*
X143931215Y-52241825D01*
X143924098Y-52231735D01*
X143897777Y-52195898D01*
X143873127Y-52165289D01*
X143868770Y-52160382D01*
X143851240Y-52137862D01*
X143845454Y-52125029D01*
X143837153Y-52111265D01*
X143815210Y-52083961D01*
X143784069Y-52048589D01*
X143778317Y-52042315D01*
X143733681Y-51997942D01*
X143692763Y-51969180D01*
X143648964Y-51954179D01*
X143595684Y-51951089D01*
X143526325Y-51958058D01*
X143494998Y-51962860D01*
X143430209Y-51974336D01*
X143364593Y-51987597D01*
X143309980Y-52000214D01*
X143298828Y-52003148D01*
X143249782Y-52016506D01*
X143204904Y-52028634D01*
X143182902Y-52034517D01*
X143115082Y-52054741D01*
X143033953Y-52082512D01*
X142944534Y-52115757D01*
X142851839Y-52152403D01*
X142760887Y-52190377D01*
X142676694Y-52227606D01*
X142604277Y-52262017D01*
X142548651Y-52291537D01*
X142524851Y-52306436D01*
X142533737Y-52308848D01*
X142565939Y-52310834D01*
X142618535Y-52312346D01*
X142688605Y-52313339D01*
X142773226Y-52313766D01*
X142869478Y-52313579D01*
X142940857Y-52313072D01*
X143060154Y-52312098D01*
X143156032Y-52311661D01*
X143231305Y-52311869D01*
X143288792Y-52312832D01*
X143331307Y-52314657D01*
X143361668Y-52317454D01*
X143382691Y-52321330D01*
X143397191Y-52326395D01*
X143405391Y-52330980D01*
X143429027Y-52349907D01*
X143438739Y-52364442D01*
X143426208Y-52367685D01*
X143390968Y-52370690D01*
X143336549Y-52373316D01*
X143266484Y-52375422D01*
X143184301Y-52376866D01*
X143114023Y-52377442D01*
X143016292Y-52378193D01*
X142920039Y-52379538D01*
X142830714Y-52381356D01*
X142753766Y-52383525D01*
X142694647Y-52385925D01*
X142671937Y-52387282D01*
X142554567Y-52395733D01*
X142658979Y-52457279D01*
X142718861Y-52494908D01*
X142786818Y-52541173D01*
X142850850Y-52587813D01*
X142868714Y-52601597D01*
X142928552Y-52646919D01*
X142998941Y-52697680D01*
X143068134Y-52745485D01*
X143094664Y-52763088D01*
X143143427Y-52795918D01*
X143182780Y-52824330D01*
X143208205Y-52844937D01*
X143215496Y-52853689D01*
X143208375Y-52871037D01*
X143190483Y-52899014D01*
X143185253Y-52906168D01*
X143158749Y-52942985D01*
X143147254Y-52967384D01*
X143149723Y-52987706D01*
X143165114Y-53012291D01*
X143170982Y-53020247D01*
X143192335Y-53051116D01*
X143211065Y-53084291D01*
X143231164Y-53127539D01*
X143253218Y-53180260D01*
X143265352Y-53232802D01*
X143266995Y-53297171D01*
X143258043Y-53361099D01*
X143254829Y-53373247D01*
X143246949Y-53412516D01*
X143241072Y-53464057D01*
X143239152Y-53497799D01*
X143239291Y-53534647D01*
X143243458Y-53567358D01*
X143253632Y-53602548D01*
X143271793Y-53646832D01*
X143299921Y-53706826D01*
X143304612Y-53716536D01*
X143342504Y-53797547D01*
X143379158Y-53882007D01*
X143415651Y-53972932D01*
X143453057Y-54073337D01*
X143492452Y-54186234D01*
X143534911Y-54314640D01*
X143581512Y-54461568D01*
X143633328Y-54630033D01*
X143648958Y-54681608D01*
X143668941Y-54742054D01*
X143693234Y-54807006D01*
X143719521Y-54871164D01*
X143745480Y-54929232D01*
X143768795Y-54975909D01*
X143787144Y-55005898D01*
X143794109Y-55013245D01*
X143805165Y-55027268D01*
X143824768Y-55057676D01*
X143848705Y-55097928D01*
X143849047Y-55098524D01*
X143910114Y-55202609D01*
X143968114Y-55297003D01*
X144021154Y-55378852D01*
X144067340Y-55445307D01*
X144104781Y-55493515D01*
X144126406Y-55516360D01*
X144154450Y-55537258D01*
X144189094Y-55553763D01*
X144236455Y-55568079D01*
X144302651Y-55582409D01*
X144317768Y-55585297D01*
X144395189Y-55600053D01*
X144451775Y-55611446D01*
X144492522Y-55620725D01*
X144522427Y-55629140D01*
X144546485Y-55637939D01*
X144569330Y-55648200D01*
X144627279Y-55684795D01*
X144687464Y-55737616D01*
X144741953Y-55798700D01*
X144782809Y-55860084D01*
X144785378Y-55865019D01*
X144811046Y-55928599D01*
X144825706Y-55992958D01*
X144828768Y-56051565D01*
X144819644Y-56097889D01*
X144808124Y-56117016D01*
X144755467Y-56157848D01*
X144688873Y-56178071D01*
X144646604Y-56180805D01*
X144558499Y-56187960D01*
X144486679Y-56210901D01*
X144428524Y-56251844D01*
X144381410Y-56313005D01*
X144342714Y-56396599D01*
X144323921Y-56453445D01*
X144308630Y-56499648D01*
X144294632Y-56526175D01*
X144278002Y-56539065D01*
X144265965Y-56542601D01*
X144229795Y-56550714D01*
X144187590Y-56561209D01*
X144185048Y-56561877D01*
X144081740Y-56576511D01*
X143971547Y-56569829D01*
X143860178Y-56543536D01*
X143753345Y-56499333D01*
X143656759Y-56438925D01*
X143596929Y-56386514D01*
X143558613Y-56343657D01*
X143522661Y-56297087D01*
X143505090Y-56270425D01*
X143493504Y-56249948D01*
X143484949Y-56230577D01*
X143478964Y-56208065D01*
X143475091Y-56178167D01*
X143472871Y-56136637D01*
X143471844Y-56079231D01*
X143471552Y-56001701D01*
X143471539Y-55960046D01*
X143471539Y-55706488D01*
X143402105Y-55641890D01*
X143366674Y-55610236D01*
X143338213Y-55587205D01*
X143322412Y-55577374D01*
X143321778Y-55577293D01*
X143308704Y-55568672D01*
X143280878Y-55545134D01*
X143242247Y-55510168D01*
X143196761Y-55467263D01*
X143191805Y-55462494D01*
X143096135Y-55361236D01*
X143020765Y-55262105D01*
X143006456Y-55239687D01*
X142978078Y-55192867D01*
X142955772Y-55154981D01*
X142942532Y-55131175D01*
X142940185Y-55125804D01*
X142935124Y-55111825D01*
X142921825Y-55080670D01*
X142903116Y-55038954D01*
X142902229Y-55037015D01*
X142877267Y-54982047D01*
X142851718Y-54925103D01*
X142835512Y-54888501D01*
X142797492Y-54804582D01*
X142761697Y-54733274D01*
X142724726Y-54669722D01*
X142683178Y-54609075D01*
X142633652Y-54546480D01*
X142572745Y-54477083D01*
X142497056Y-54396031D01*
X142471824Y-54369620D01*
X142416329Y-54311555D01*
X142363602Y-54256055D01*
X142317862Y-54207586D01*
X142283329Y-54170613D01*
X142268754Y-54154709D01*
X142222294Y-54103148D01*
X142198489Y-54141589D01*
X142168126Y-54187243D01*
X142122367Y-54251255D01*
X142062584Y-54331799D01*
X141990147Y-54427050D01*
X141906427Y-54535179D01*
X141831559Y-54630602D01*
X141774626Y-54702867D01*
X141719657Y-54772800D01*
X141669952Y-54836190D01*
X141628813Y-54888826D01*
X141599540Y-54926495D01*
X141592973Y-54935020D01*
X141561084Y-54975846D01*
X141532153Y-55011638D01*
X141514056Y-55032820D01*
X141493897Y-55057107D01*
X141465258Y-55094283D01*
X141438036Y-55131218D01*
X141408711Y-55171007D01*
X141383256Y-55203984D01*
X141368201Y-55221867D01*
X141351529Y-55241507D01*
X141325179Y-55274977D01*
X141295848Y-55313706D01*
X141267599Y-55351211D01*
X141245370Y-55379819D01*
X141233852Y-55393498D01*
X141233721Y-55393615D01*
X141223129Y-55406355D01*
X141200736Y-55435369D01*
X141170271Y-55475781D01*
X141148437Y-55505134D01*
X141114818Y-55550244D01*
X141086955Y-55587057D01*
X141068561Y-55610698D01*
X141063486Y-55616652D01*
X141052082Y-55630704D01*
X141032263Y-55657997D01*
X141024489Y-55669132D01*
X141000222Y-55702557D01*
X140979287Y-55728652D01*
X140975271Y-55733039D01*
X140967005Y-55744118D01*
X140968527Y-55754784D01*
X140983265Y-55768273D01*
X141014649Y-55787820D01*
X141060769Y-55813712D01*
X141093231Y-55833663D01*
X141113334Y-55849897D01*
X141116528Y-55855225D01*
X141126611Y-55865601D01*
X141129888Y-55865929D01*
X141144812Y-55872725D01*
X141176308Y-55890905D01*
X141219205Y-55917159D01*
X141268336Y-55948177D01*
X141318534Y-55980646D01*
X141364628Y-56011258D01*
X141401452Y-56036701D01*
X141423838Y-56053665D01*
X141425959Y-56055585D01*
X141446132Y-56072609D01*
X141475199Y-56094802D01*
X141476190Y-56095526D01*
X141521742Y-56131155D01*
X141576235Y-56177548D01*
X141635728Y-56230927D01*
X141696283Y-56287515D01*
X141753961Y-56343536D01*
X141804822Y-56395211D01*
X141844927Y-56438764D01*
X141870338Y-56470418D01*
X141874998Y-56477925D01*
X141881965Y-56508230D01*
X141872036Y-56536094D01*
X141844785Y-56587030D01*
X141817337Y-56638922D01*
X141792443Y-56686498D01*
X141772853Y-56724482D01*
X141761317Y-56747600D01*
X141759400Y-56752102D01*
X141769755Y-56760066D01*
X141797906Y-56779166D01*
X141839488Y-56806492D01*
X141887319Y-56837334D01*
X141938420Y-56870384D01*
X141981009Y-56898617D01*
X142010409Y-56918885D01*
X142021797Y-56927806D01*
X142035885Y-56940103D01*
X142063242Y-56960453D01*
X142074276Y-56968195D01*
X142107489Y-56992265D01*
X142133200Y-57012810D01*
X142137533Y-57016763D01*
X142156583Y-57031261D01*
X142163772Y-57033899D01*
X142178497Y-57042687D01*
X142207299Y-57065877D01*
X142245674Y-57099339D01*
X142289122Y-57138942D01*
X142333142Y-57180559D01*
X142373230Y-57220058D01*
X142404886Y-57253311D01*
X142412904Y-57262431D01*
X142455359Y-57317068D01*
X142481661Y-57366090D01*
X142495244Y-57419151D01*
X142499546Y-57485903D01*
X142499573Y-57505908D01*
X142497096Y-57564887D01*
X142489689Y-57626053D01*
X142476187Y-57696348D01*
X142455426Y-57782714D01*
X142448956Y-57807665D01*
X142414199Y-57943234D01*
X142387058Y-58055910D01*
X142367055Y-58147759D01*
X142354465Y-58216139D01*
X142351290Y-58248248D01*
X142359758Y-58264791D01*
X142385849Y-58275823D01*
X142390909Y-58277396D01*
X142431536Y-58287440D01*
X142481637Y-58296687D01*
X142500671Y-58299423D01*
X142562023Y-58311241D01*
X142629308Y-58330340D01*
X142693118Y-58353536D01*
X142744047Y-58377644D01*
X142758533Y-58386710D01*
X142785459Y-58403672D01*
X142802849Y-58411159D01*
X142803260Y-58411177D01*
X142821177Y-58419402D01*
X142853010Y-58441246D01*
X142893460Y-58472456D01*
X142937226Y-58508783D01*
X142979009Y-58545976D01*
X143013509Y-58579786D01*
X143013537Y-58579815D01*
X143062639Y-58637789D01*
X143093951Y-58692856D01*
X143111858Y-58755005D01*
X143119911Y-58822165D01*
X143121375Y-58909304D01*
X143109287Y-58978558D01*
X143080800Y-59035996D01*
X143033067Y-59087691D01*
X142974557Y-59132114D01*
X142915695Y-59166362D01*
X142838169Y-59202889D01*
X142749040Y-59238799D01*
X142655366Y-59271195D01*
X142585950Y-59291556D01*
X142493174Y-59311181D01*
X142381949Y-59326401D01*
X142259755Y-59336836D01*
X142134073Y-59342103D01*
X142012384Y-59341822D01*
X141902168Y-59335612D01*
X141846923Y-59329212D01*
X141803907Y-59324603D01*
X141741041Y-59319975D01*
X141664711Y-59315695D01*
X141581304Y-59312134D01*
X141515889Y-59310103D01*
X141426131Y-59307659D01*
X141357413Y-59305195D01*
X141304537Y-59302208D01*
X141262307Y-59298195D01*
X141225526Y-59292652D01*
X141188999Y-59285077D01*
X141147528Y-59274967D01*
X141144240Y-59274135D01*
X141086673Y-59259544D01*
X141093460Y-59163928D01*
X141195247Y-59163928D01*
X141198204Y-59182345D01*
X141211346Y-59193141D01*
X141241080Y-59199948D01*
X141264127Y-59202985D01*
X141357366Y-59211021D01*
X141437577Y-59211610D01*
X141501010Y-59204973D01*
X141543917Y-59191331D01*
X141551986Y-59186094D01*
X141582852Y-59164850D01*
X141624700Y-59139640D01*
X141646309Y-59127714D01*
X141708350Y-59094726D01*
X141769955Y-59128810D01*
X141813929Y-59153260D01*
X141868466Y-59183750D01*
X141918285Y-59211725D01*
X141992129Y-59250941D01*
X142052062Y-59275780D01*
X142105219Y-59287535D01*
X142158738Y-59287500D01*
X142219753Y-59276965D01*
X142244834Y-59270876D01*
X142294051Y-59258156D01*
X142355854Y-59241945D01*
X142417493Y-59225589D01*
X142421952Y-59224396D01*
X142479083Y-59209163D01*
X142533583Y-59194721D01*
X142574903Y-59183865D01*
X142579390Y-59182698D01*
X142724443Y-59134945D01*
X142853455Y-59071664D01*
X142962986Y-58994591D01*
X142977588Y-58981890D01*
X143002777Y-58957299D01*
X143015136Y-58935391D01*
X143018198Y-58905924D01*
X143016291Y-58869582D01*
X142996765Y-58775441D01*
X142953056Y-58688929D01*
X142886337Y-58610928D01*
X142797785Y-58542324D01*
X142688572Y-58484000D01*
X142559875Y-58436841D01*
X142412867Y-58401731D01*
X142389152Y-58397531D01*
X142333830Y-58386560D01*
X142291430Y-58372690D01*
X142261078Y-58352941D01*
X142241900Y-58324328D01*
X142233023Y-58283870D01*
X142233572Y-58228583D01*
X142242673Y-58155485D01*
X142259453Y-58061593D01*
X142272062Y-57997902D01*
X142287812Y-57925679D01*
X142307211Y-57845326D01*
X142327603Y-57767310D01*
X142346334Y-57702099D01*
X142350265Y-57689586D01*
X142372660Y-57619134D01*
X142387550Y-57568418D01*
X142395654Y-57532259D01*
X142397691Y-57505476D01*
X142394380Y-57482887D01*
X142386439Y-57459313D01*
X142383314Y-57451407D01*
X142351795Y-57390239D01*
X142303980Y-57325392D01*
X142237880Y-57254658D01*
X142151509Y-57175829D01*
X142086582Y-57121656D01*
X142042486Y-57087874D01*
X141988600Y-57049632D01*
X141929528Y-57009844D01*
X141869873Y-56971425D01*
X141814241Y-56937287D01*
X141767234Y-56910346D01*
X141733457Y-56893514D01*
X141719421Y-56889276D01*
X141701061Y-56898881D01*
X141670939Y-56924654D01*
X141633380Y-56962036D01*
X141592711Y-57006465D01*
X141553257Y-57053382D01*
X141519343Y-57098224D01*
X141514245Y-57105601D01*
X141494723Y-57135400D01*
X141489385Y-57150388D01*
X141497582Y-57157402D01*
X141509013Y-57160701D01*
X141530858Y-57170696D01*
X141536363Y-57178559D01*
X141547194Y-57190528D01*
X141563592Y-57197906D01*
X141586339Y-57208425D01*
X141624693Y-57229446D01*
X141672154Y-57257330D01*
X141698070Y-57273205D01*
X141754186Y-57307688D01*
X141810713Y-57341772D01*
X141858060Y-57369692D01*
X141870919Y-57377073D01*
X141940484Y-57420754D01*
X141989059Y-57461891D01*
X142021091Y-57504386D01*
X142025681Y-57512950D01*
X142036095Y-57537883D01*
X142039257Y-57562975D01*
X142035247Y-57597172D01*
X142026820Y-57637589D01*
X142006035Y-57720973D01*
X141983762Y-57789421D01*
X141968527Y-57827344D01*
X141956955Y-57857785D01*
X141942472Y-57900519D01*
X141927507Y-57947708D01*
X141914492Y-57991515D01*
X141905858Y-58024099D01*
X141903719Y-58036308D01*
X141899655Y-58056788D01*
X141888998Y-58094804D01*
X141874046Y-58143205D01*
X141857098Y-58194840D01*
X141840456Y-58242558D01*
X141826416Y-58279209D01*
X141823254Y-58286539D01*
X141800684Y-58325978D01*
X141775909Y-58358564D01*
X141755776Y-58382708D01*
X141746373Y-58397822D01*
X141746280Y-58398497D01*
X141733837Y-58405814D01*
X141699024Y-58414705D01*
X141645618Y-58424530D01*
X141577395Y-58434646D01*
X141498133Y-58444415D01*
X141439553Y-58450560D01*
X141363265Y-58458366D01*
X141309860Y-58464972D01*
X141276059Y-58471179D01*
X141258583Y-58477790D01*
X141254152Y-58485604D01*
X141258906Y-58494708D01*
X141271745Y-58518296D01*
X141280718Y-58542375D01*
X141293946Y-58572315D01*
X141316433Y-58611723D01*
X141330113Y-58632736D01*
X141369545Y-58690296D01*
X141403755Y-58649732D01*
X141434004Y-58613288D01*
X141462310Y-58578316D01*
X141464812Y-58575158D01*
X141487586Y-58553196D01*
X141509369Y-58550315D01*
X141533759Y-58568029D01*
X141564355Y-58607853D01*
X141572850Y-58620608D01*
X141606620Y-58690786D01*
X141614499Y-58759170D01*
X141596385Y-58826451D01*
X141552177Y-58893323D01*
X141529029Y-58918257D01*
X141496323Y-58950964D01*
X141434344Y-58899466D01*
X141376479Y-58854577D01*
X141333682Y-58828439D01*
X141306837Y-58821562D01*
X141302270Y-58823176D01*
X141289445Y-58841267D01*
X141272676Y-58878859D01*
X141253873Y-58929874D01*
X141234943Y-58988235D01*
X141217797Y-59047863D01*
X141204342Y-59102682D01*
X141196488Y-59146614D01*
X141195247Y-59163928D01*
X141093460Y-59163928D01*
X141094782Y-59145311D01*
X141113586Y-58999041D01*
X141148013Y-58872366D01*
X141160888Y-58839249D01*
X141180086Y-58760192D01*
X141174543Y-58673577D01*
X141155888Y-58607974D01*
X141136885Y-58547883D01*
X141130882Y-58502621D01*
X141137528Y-58464431D01*
X141148295Y-58440045D01*
X141176166Y-58397639D01*
X141211890Y-58365102D01*
X141259078Y-58341104D01*
X141321344Y-58324313D01*
X141402301Y-58313398D01*
X141505560Y-58307029D01*
X141509801Y-58306866D01*
X141699716Y-58299658D01*
X141734727Y-58197256D01*
X141752043Y-58145595D01*
X141766536Y-58100518D01*
X141775604Y-58070166D01*
X141776664Y-58066058D01*
X141797342Y-57985377D01*
X141825597Y-57883378D01*
X141860447Y-57763548D01*
X141882590Y-57689586D01*
X141897801Y-57637218D01*
X141909511Y-57593052D01*
X141915902Y-57564105D01*
X141916563Y-57558365D01*
X141905991Y-57541382D01*
X141878686Y-57519716D01*
X141857799Y-57507343D01*
X141824127Y-57487449D01*
X141802750Y-57470915D01*
X141798760Y-57464726D01*
X141788757Y-57453713D01*
X141785895Y-57453429D01*
X141768896Y-57446801D01*
X141737205Y-57429500D01*
X141701246Y-57407510D01*
X141662189Y-57383797D01*
X141631073Y-57367212D01*
X141615712Y-57361590D01*
X141602455Y-57353070D01*
X141601962Y-57350001D01*
X141591275Y-57336722D01*
X141579003Y-57330901D01*
X141555536Y-57320126D01*
X141519213Y-57300254D01*
X141490444Y-57283204D01*
X141436449Y-57250489D01*
X141398396Y-57231026D01*
X141369567Y-57224837D01*
X141343246Y-57231943D01*
X141312713Y-57252364D01*
X141273966Y-57283889D01*
X141228786Y-57317610D01*
X141179969Y-57348937D01*
X141157415Y-57361332D01*
X141099902Y-57390152D01*
X141039336Y-57359547D01*
X141001577Y-57339405D01*
X140972718Y-57322119D01*
X140963981Y-57315746D01*
X140946209Y-57301872D01*
X140913873Y-57278214D01*
X140874221Y-57250072D01*
X140826203Y-57216099D01*
X140768492Y-57174748D01*
X140712513Y-57134214D01*
X140705333Y-57128975D01*
X140661597Y-57098187D01*
X140624891Y-57074485D01*
X140600957Y-57061489D01*
X140596108Y-57060095D01*
X140578318Y-57052816D01*
X140576429Y-57049994D01*
X140562800Y-57037760D01*
X140535513Y-57021219D01*
X140532696Y-57019739D01*
X140510862Y-57009574D01*
X140493836Y-57008412D01*
X140474624Y-57018911D01*
X140446232Y-57043727D01*
X140430358Y-57058616D01*
X140389146Y-57098385D01*
X140358566Y-57132375D01*
X140337008Y-57165539D01*
X140322867Y-57202829D01*
X140314533Y-57249198D01*
X140310399Y-57309597D01*
X140308858Y-57388980D01*
X140308575Y-57433749D01*
X140306789Y-57560681D01*
X140302327Y-57666888D01*
X140294501Y-57757809D01*
X140282626Y-57838884D01*
X140266014Y-57915551D01*
X140243979Y-57993249D01*
X140234053Y-58024142D01*
X140217821Y-58068203D01*
X140196088Y-58120382D01*
X140171699Y-58174635D01*
X140147501Y-58224919D01*
X140126336Y-58265191D01*
X140111051Y-58289407D01*
X140107439Y-58293098D01*
X140095549Y-58306781D01*
X140074340Y-58335569D01*
X140053822Y-58365258D01*
X140028451Y-58401524D01*
X140007899Y-58428410D01*
X139998464Y-58438478D01*
X139985230Y-58462218D01*
X139979633Y-58508414D01*
X139981716Y-58574404D01*
X139991517Y-58657529D01*
X139994777Y-58678237D01*
X140009090Y-58811590D01*
X140012081Y-58960440D01*
X140004341Y-59116902D01*
X139986459Y-59273094D01*
X139959027Y-59421131D01*
X139931229Y-59526363D01*
X139908645Y-59617473D01*
X139897937Y-59702311D01*
X139899494Y-59775120D01*
X139911137Y-59824222D01*
X139925862Y-59860615D01*
X139936716Y-59887158D01*
X139964634Y-59965859D01*
X139984611Y-60044869D01*
X139995841Y-60118495D01*
X139997522Y-60181042D01*
X139988850Y-60226813D01*
X139985628Y-60233779D01*
X139962524Y-60261413D01*
X139922391Y-60288179D01*
X139863228Y-60314911D01*
X139783035Y-60342443D01*
X139679813Y-60371606D01*
X139615815Y-60387830D01*
X139525485Y-60410037D01*
X139533685Y-60581552D01*
X139538035Y-60659232D01*
X139543617Y-60739908D01*
X139549676Y-60813461D01*
X139554838Y-60864586D01*
X139569422Y-60991194D01*
X139581164Y-61095571D01*
X139590478Y-61181522D01*
X139597776Y-61252854D01*
X139602994Y-61308038D01*
X139608669Y-61358551D01*
X139615179Y-61386936D01*
X139623791Y-61397299D01*
X139630305Y-61396651D01*
X139650026Y-61392219D01*
X139690001Y-61385421D01*
X139744453Y-61377177D01*
X139807601Y-61368406D01*
X139808759Y-61368252D01*
X139878928Y-61358804D01*
X139947277Y-61349387D01*
X140005352Y-61341178D01*
X140040702Y-61335970D01*
X140104373Y-61327651D01*
X140187572Y-61318859D01*
X140283607Y-61310104D01*
X140385785Y-61301900D01*
X140487413Y-61294757D01*
X140581798Y-61289190D01*
X140662249Y-61285708D01*
X140709814Y-61284774D01*
X140867981Y-61288301D01*
X141003234Y-61300173D01*
X141117693Y-61320873D01*
X141213479Y-61350886D01*
X141292711Y-61390694D01*
X141345569Y-61429889D01*
X141377774Y-61463917D01*
X141417539Y-61514435D01*
X141460228Y-61574706D01*
X141501201Y-61637988D01*
X141535819Y-61697542D01*
X141552455Y-61730495D01*
X141591296Y-61828819D01*
X141611800Y-61915383D01*
X141613752Y-61988261D01*
X141596934Y-62045528D01*
X141589213Y-62057971D01*
X141558463Y-62086515D01*
X141508840Y-62116379D01*
X141447251Y-62144006D01*
X141380607Y-62165837D01*
X141378925Y-62166281D01*
X141325126Y-62180051D01*
X141274515Y-62192024D01*
X141224876Y-62202327D01*
X141173991Y-62211085D01*
X141119643Y-62218424D01*
X141059615Y-62224470D01*
X140991691Y-62229347D01*
X140913653Y-62233182D01*
X140823284Y-62236101D01*
X140718367Y-62238228D01*
X140596686Y-62239690D01*
X140456022Y-62240612D01*
X140294160Y-62241120D01*
X140108882Y-62241339D01*
X140053822Y-62241366D01*
X139861049Y-62241322D01*
X139692576Y-62240968D01*
X139546465Y-62240202D01*
X139420778Y-62238921D01*
X139313575Y-62237023D01*
X139222919Y-62234407D01*
X139146872Y-62230969D01*
X139083493Y-62226608D01*
X139030846Y-62221221D01*
X138986992Y-62214706D01*
X138949991Y-62206961D01*
X138917907Y-62197884D01*
X138888799Y-62187373D01*
X138868623Y-62178871D01*
X138839598Y-62164771D01*
X138816885Y-62148996D01*
X138799499Y-62128189D01*
X138786455Y-62098996D01*
X138776769Y-62058062D01*
X138769456Y-62002030D01*
X138763533Y-61927545D01*
X138758013Y-61831253D01*
X138756193Y-61795727D01*
X138708249Y-60968990D01*
X138819383Y-60968990D01*
X138822140Y-61094378D01*
X138828678Y-61233978D01*
X138838889Y-61384867D01*
X138852666Y-61544123D01*
X138869903Y-61708825D01*
X138872393Y-61730495D01*
X138879914Y-61801198D01*
X138887399Y-61881280D01*
X138893281Y-61953923D01*
X138893488Y-61956812D01*
X138898079Y-62012429D01*
X138903147Y-62046742D01*
X138910088Y-62064669D01*
X138920300Y-62071132D01*
X138926076Y-62071611D01*
X138957443Y-62076912D01*
X138980658Y-62085010D01*
X139006091Y-62091726D01*
X139050610Y-62099139D01*
X139107118Y-62106184D01*
X139148553Y-62110202D01*
X139191664Y-62112548D01*
X139257879Y-62114377D01*
X139344068Y-62115713D01*
X139447100Y-62116580D01*
X139563846Y-62117002D01*
X139691175Y-62117002D01*
X139825957Y-62116605D01*
X139965062Y-62115833D01*
X140105359Y-62114712D01*
X140243719Y-62113265D01*
X140377012Y-62111516D01*
X140502107Y-62109488D01*
X140615873Y-62107205D01*
X140715182Y-62104692D01*
X140796902Y-62101973D01*
X140857903Y-62099070D01*
X140886416Y-62096960D01*
X140942803Y-62090627D01*
X140989318Y-62083657D01*
X141019789Y-62077070D01*
X141028012Y-62073536D01*
X141027462Y-62057690D01*
X141016721Y-62024598D01*
X140997877Y-61980202D01*
X140987687Y-61958879D01*
X140953804Y-61889732D01*
X140930631Y-61839565D01*
X140917149Y-61803884D01*
X140912343Y-61778196D01*
X140915195Y-61758008D01*
X140924687Y-61738824D01*
X140934502Y-61723934D01*
X140955155Y-61695698D01*
X140969717Y-61679559D01*
X140972354Y-61678105D01*
X140991163Y-61687679D01*
X141020079Y-61713026D01*
X141053903Y-61748606D01*
X141087439Y-61788876D01*
X141115490Y-61828294D01*
X141119904Y-61835454D01*
X141142880Y-61874679D01*
X141162489Y-61910560D01*
X141182338Y-61950260D01*
X141206034Y-62000940D01*
X141231140Y-62056326D01*
X141247768Y-62089764D01*
X141259945Y-62102393D01*
X141272073Y-62098103D01*
X141275195Y-62095253D01*
X141297659Y-62076486D01*
X141330486Y-62052214D01*
X141339566Y-62045908D01*
X141368867Y-62025833D01*
X141387404Y-62013057D01*
X141389925Y-62011287D01*
X141386879Y-61998841D01*
X141374742Y-61968960D01*
X141356019Y-61927750D01*
X141353077Y-61921554D01*
X141314001Y-61832458D01*
X141289853Y-61758455D01*
X141279267Y-61694070D01*
X141280880Y-61633828D01*
X141281046Y-61632482D01*
X141284558Y-61587839D01*
X141283922Y-61550694D01*
X141281609Y-61537107D01*
X141260478Y-61510645D01*
X141215883Y-61485338D01*
X141150595Y-61462221D01*
X141067389Y-61442328D01*
X140994634Y-61430109D01*
X140941191Y-61424810D01*
X140868041Y-61420748D01*
X140780772Y-61417932D01*
X140684972Y-61416372D01*
X140586229Y-61416076D01*
X140490129Y-61417054D01*
X140402260Y-61419314D01*
X140328210Y-61422865D01*
X140273567Y-61427716D01*
X140264814Y-61428942D01*
X140201929Y-61438518D01*
X140132039Y-61448976D01*
X140089901Y-61455181D01*
X139966218Y-61473204D01*
X139865837Y-61487689D01*
X139786089Y-61498869D01*
X139724310Y-61506974D01*
X139677832Y-61512237D01*
X139643988Y-61514890D01*
X139620114Y-61515165D01*
X139603541Y-61513293D01*
X139591603Y-61509507D01*
X139581635Y-61504039D01*
X139575320Y-61499936D01*
X139545812Y-61471880D01*
X139519107Y-61426350D01*
X139496238Y-61369700D01*
X139487683Y-61334133D01*
X139478524Y-61274817D01*
X139469054Y-61194226D01*
X139459565Y-61094835D01*
X139450608Y-60982665D01*
X139442159Y-60871033D01*
X139434670Y-60782232D01*
X139427591Y-60712899D01*
X139420374Y-60659668D01*
X139412471Y-60619175D01*
X139403334Y-60588055D01*
X139392413Y-60562943D01*
X139379160Y-60540475D01*
X139378319Y-60539199D01*
X139349629Y-60501826D01*
X139324629Y-60486218D01*
X139297370Y-60489737D01*
X139282854Y-60496817D01*
X139247859Y-60512180D01*
X139196609Y-60529853D01*
X139138559Y-60546899D01*
X139083162Y-60560377D01*
X139069834Y-60563033D01*
X138988802Y-60579684D01*
X138929842Y-60596353D01*
X138888902Y-60615527D01*
X138861931Y-60639694D01*
X138844878Y-60671343D01*
X138834867Y-60707317D01*
X138825639Y-60772538D01*
X138820513Y-60860736D01*
X138819383Y-60968990D01*
X138708249Y-60968990D01*
X138704938Y-60911901D01*
X138702257Y-60871146D01*
X138697598Y-60796907D01*
X138693686Y-60727353D01*
X138690848Y-60668878D01*
X138689412Y-60627873D01*
X138689302Y-60618589D01*
X138689359Y-60562830D01*
X138540439Y-60562830D01*
X138444434Y-60560236D01*
X138371657Y-60552158D01*
X138319583Y-60538149D01*
X138285702Y-60517776D01*
X138272102Y-60493609D01*
X138256719Y-60445931D01*
X138240227Y-60377356D01*
X138223298Y-60290498D01*
X138215800Y-60246640D01*
X138199402Y-60146928D01*
X137995026Y-60138687D01*
X137912277Y-60135084D01*
X137827359Y-60130932D01*
X137748927Y-60126680D01*
X137685635Y-60122781D01*
X137671780Y-60121813D01*
X137552909Y-60113179D01*
X137535869Y-60189324D01*
X137518663Y-60257801D01*
X137496278Y-60335445D01*
X137472431Y-60409913D01*
X137454302Y-60460184D01*
X137446665Y-60476374D01*
X137435380Y-60487126D01*
X137415086Y-60494105D01*
X137380419Y-60498978D01*
X137326018Y-60503412D01*
X137311976Y-60504415D01*
X137183359Y-60513534D01*
X137176076Y-60607061D01*
X137173141Y-60649435D01*
X137169271Y-60712219D01*
X137164798Y-60789612D01*
X137160057Y-60875814D01*
X137155382Y-60965027D01*
X137154914Y-60974225D01*
X137150427Y-61056633D01*
X137145833Y-61130239D01*
X137141434Y-61190976D01*
X137137532Y-61234781D01*
X137134429Y-61257590D01*
X137133736Y-61259673D01*
X137131735Y-61275561D01*
X137129969Y-61313984D01*
X137128513Y-61371237D01*
X137127446Y-61443616D01*
X137126844Y-61527417D01*
X137126745Y-61596109D01*
X137126384Y-61711804D01*
X137124835Y-61804198D01*
X137121760Y-61876218D01*
X137116821Y-61930789D01*
X137109683Y-61970835D01*
X137100007Y-61999284D01*
X137087457Y-62019059D01*
X137076833Y-62029267D01*
X137021538Y-62064357D01*
X136940283Y-62102040D01*
X136833217Y-62142252D01*
X136721384Y-62178573D01*
X136536976Y-62230933D01*
X136359887Y-62271760D01*
X136180553Y-62302859D01*
X135989412Y-62326037D01*
X135896408Y-62334412D01*
X135833137Y-62340128D01*
X135779147Y-62346024D01*
X135739966Y-62351427D01*
X135721119Y-62355661D01*
X135720776Y-62355851D01*
X135704473Y-62358200D01*
X135666061Y-62360301D01*
X135609307Y-62362136D01*
X135537978Y-62363687D01*
X135455840Y-62364936D01*
X135366661Y-62365865D01*
X135274208Y-62366455D01*
X135182247Y-62366689D01*
X135094545Y-62366548D01*
X135014871Y-62366015D01*
X134946989Y-62365072D01*
X134894669Y-62363701D01*
X134861675Y-62361882D01*
X134851662Y-62360012D01*
X134841181Y-62354042D01*
X134814244Y-62345303D01*
X134768780Y-62333262D01*
X134702717Y-62317386D01*
X134613984Y-62297143D01*
X134563171Y-62285816D01*
X134453006Y-62257650D01*
X134353816Y-62224936D01*
X134269540Y-62189308D01*
X134204120Y-62152402D01*
X134165983Y-62120930D01*
X134131261Y-62065201D01*
X134119012Y-61997975D01*
X134127997Y-61930795D01*
X134257946Y-61930795D01*
X134263758Y-61933553D01*
X134286170Y-61925575D01*
X134319344Y-61909727D01*
X134357441Y-61888873D01*
X134394622Y-61865879D01*
X134405733Y-61858283D01*
X134507821Y-61787452D01*
X134592272Y-61731713D01*
X134661871Y-61689684D01*
X134719405Y-61659985D01*
X134767662Y-61641234D01*
X134809428Y-61632051D01*
X134847490Y-61631055D01*
X134861351Y-61632507D01*
X134899934Y-61640349D01*
X134926768Y-61650475D01*
X134932801Y-61655456D01*
X134928375Y-61671708D01*
X134905660Y-61699045D01*
X134868357Y-61734238D01*
X134820168Y-61774057D01*
X134764793Y-61815273D01*
X134705934Y-61854655D01*
X134700929Y-61857789D01*
X134616672Y-61912721D01*
X134552763Y-61960516D01*
X134505457Y-62004426D01*
X134471006Y-62047704D01*
X134458461Y-62068266D01*
X134440767Y-62102972D01*
X134431444Y-62127475D01*
X134431312Y-62134363D01*
X134446627Y-62133195D01*
X134479153Y-62121667D01*
X134523143Y-62102130D01*
X134572852Y-62076933D01*
X134576291Y-62075076D01*
X134599667Y-62060324D01*
X134636708Y-62034737D01*
X134681784Y-62002457D01*
X134729265Y-61967625D01*
X134773522Y-61934383D01*
X134808924Y-61906872D01*
X134829842Y-61889234D01*
X134832128Y-61886876D01*
X134845248Y-61876678D01*
X134875055Y-61855588D01*
X134916377Y-61827227D01*
X134941935Y-61809978D01*
X135045183Y-61740698D01*
X135086253Y-61781969D01*
X135127324Y-61823241D01*
X135034910Y-61911346D01*
X134980888Y-61962058D01*
X134918184Y-62019732D01*
X134857945Y-62074144D01*
X134841143Y-62089078D01*
X134739791Y-62178705D01*
X134789239Y-62223930D01*
X134821531Y-62250961D01*
X134847634Y-62262917D01*
X134879263Y-62263905D01*
X134897727Y-62261950D01*
X134926021Y-62259674D01*
X134976576Y-62256829D01*
X135045421Y-62253586D01*
X135128588Y-62250122D01*
X135222108Y-62246607D01*
X135322011Y-62243218D01*
X135337241Y-62242733D01*
X135532336Y-62235809D01*
X135703621Y-62228059D01*
X135853516Y-62219330D01*
X135984443Y-62209469D01*
X136098823Y-62198323D01*
X136163791Y-62190531D01*
X136223329Y-62182179D01*
X136273495Y-62173223D01*
X136324384Y-62161490D01*
X136386092Y-62144808D01*
X136416348Y-62136182D01*
X136457207Y-62125249D01*
X136509621Y-62112276D01*
X136544266Y-62104180D01*
X136655140Y-62077162D01*
X136748286Y-62049845D01*
X136832099Y-62019446D01*
X136914973Y-61983185D01*
X136927497Y-61977234D01*
X137008971Y-61938176D01*
X137008770Y-61621138D01*
X137010214Y-61451515D01*
X137014659Y-61295398D01*
X137021940Y-61155655D01*
X137031892Y-61035157D01*
X137044350Y-60936772D01*
X137050056Y-60903946D01*
X137056575Y-60859808D01*
X137063025Y-60798825D01*
X137068498Y-60730377D01*
X137071115Y-60686085D01*
X137078331Y-60540384D01*
X136962177Y-60532087D01*
X136894075Y-60527010D01*
X136821589Y-60521271D01*
X136759035Y-60516008D01*
X136752137Y-60515396D01*
X136694658Y-60512333D01*
X136638103Y-60512687D01*
X136599136Y-60515866D01*
X136563251Y-60522631D01*
X136543954Y-60534072D01*
X136533216Y-60557981D01*
X136526470Y-60586420D01*
X136518557Y-60632520D01*
X136509978Y-60700027D01*
X136501198Y-60784131D01*
X136492681Y-60880024D01*
X136484895Y-60982895D01*
X136478848Y-61078299D01*
X136473597Y-61143248D01*
X136465840Y-61207037D01*
X136456931Y-61259282D01*
X136453222Y-61275097D01*
X136436145Y-61333588D01*
X136417863Y-61387526D01*
X136400488Y-61431478D01*
X136386136Y-61460013D01*
X136378078Y-61468098D01*
X136372472Y-61467555D01*
X136361605Y-61465308D01*
X136341937Y-61460432D01*
X136309931Y-61451999D01*
X136262050Y-61439085D01*
X136194756Y-61420763D01*
X136137551Y-61405138D01*
X136056896Y-61383625D01*
X135993107Y-61368339D01*
X135937949Y-61357864D01*
X135883185Y-61350787D01*
X135820579Y-61345691D01*
X135775809Y-61342996D01*
X135624007Y-61341764D01*
X135459496Y-61353227D01*
X135291895Y-61376295D01*
X135130820Y-61409875D01*
X135087964Y-61421077D01*
X135019736Y-61441186D01*
X134937495Y-61467560D01*
X134847981Y-61497828D01*
X134757934Y-61529622D01*
X134674093Y-61560570D01*
X134603196Y-61588303D01*
X134559887Y-61606783D01*
X134469251Y-61659275D01*
X134388209Y-61727826D01*
X134323183Y-61806416D01*
X134294894Y-61855134D01*
X134276344Y-61893122D01*
X134262584Y-61921300D01*
X134257946Y-61930795D01*
X134127997Y-61930795D01*
X134129261Y-61921341D01*
X134162033Y-61837386D01*
X134162707Y-61836060D01*
X134193334Y-61788257D01*
X134238790Y-61732115D01*
X134292635Y-61674661D01*
X134348428Y-61622923D01*
X134383670Y-61594972D01*
X134472234Y-61538126D01*
X134578484Y-61481874D01*
X134694065Y-61430037D01*
X134810624Y-61386441D01*
X134894447Y-61361242D01*
X134939895Y-61348956D01*
X134979726Y-61337806D01*
X135083878Y-61308477D01*
X135169345Y-61285896D01*
X135242435Y-61268836D01*
X135309462Y-61256067D01*
X135376737Y-61246363D01*
X135450570Y-61238496D01*
X135520919Y-61232515D01*
X135691979Y-61225322D01*
X135853209Y-61231060D01*
X135980113Y-61246426D01*
X136048541Y-61259329D01*
X136117332Y-61274567D01*
X136180842Y-61290646D01*
X136233428Y-61306074D01*
X136269445Y-61319358D01*
X136281213Y-61326062D01*
X136304439Y-61335685D01*
X136316140Y-61336900D01*
X136326809Y-61334197D01*
X136335437Y-61324064D01*
X136342536Y-61303467D01*
X136348620Y-61269374D01*
X136354203Y-61218748D01*
X136359797Y-61148557D01*
X136365916Y-61055767D01*
X136367192Y-61035144D01*
X136373071Y-60941348D01*
X136379952Y-60834561D01*
X136386994Y-60727664D01*
X136393359Y-60633535D01*
X136393601Y-60630028D01*
X136398109Y-60560265D01*
X136401402Y-60500342D01*
X136403275Y-60454855D01*
X136403519Y-60428404D01*
X136402884Y-60423634D01*
X136389246Y-60419031D01*
X136354476Y-60409256D01*
X136302906Y-60395473D01*
X136238868Y-60378846D01*
X136189181Y-60366198D01*
X136065215Y-60333898D01*
X135964222Y-60305206D01*
X135883346Y-60279090D01*
X135819733Y-60254518D01*
X135770530Y-60230458D01*
X135732882Y-60205878D01*
X135722447Y-60197425D01*
X135669120Y-60151779D01*
X135677363Y-60052268D01*
X135686387Y-59963917D01*
X135698462Y-59874883D01*
X135712193Y-59794438D01*
X135724837Y-59736947D01*
X135731338Y-59705788D01*
X135732158Y-59687797D01*
X135731614Y-59686765D01*
X135719530Y-59690813D01*
X135693459Y-59704821D01*
X135661181Y-59724099D01*
X135630476Y-59743953D01*
X135609125Y-59759693D01*
X135606198Y-59762397D01*
X135592649Y-59772887D01*
X135564134Y-59793337D01*
X135534039Y-59814324D01*
X135498204Y-59839455D01*
X135471801Y-59858747D01*
X135461880Y-59866803D01*
X135439458Y-59883467D01*
X135397013Y-59907858D01*
X135338851Y-59937881D01*
X135269282Y-59971442D01*
X135192613Y-60006449D01*
X135113153Y-60040807D01*
X135054108Y-60064975D01*
X135001859Y-60084508D01*
X134933078Y-60108478D01*
X134856436Y-60134016D01*
X134780603Y-60158254D01*
X134714250Y-60178323D01*
X134694369Y-60183971D01*
X134651813Y-60196129D01*
X134614350Y-60207406D01*
X134609090Y-60209075D01*
X134519149Y-60234675D01*
X134411681Y-60259922D01*
X134295365Y-60283078D01*
X134178877Y-60302406D01*
X134077737Y-60315451D01*
X134014940Y-60320089D01*
X133930016Y-60323296D01*
X133827033Y-60325153D01*
X133710059Y-60325741D01*
X133583164Y-60325139D01*
X133450416Y-60323428D01*
X133315884Y-60320690D01*
X133183635Y-60317003D01*
X133057740Y-60312449D01*
X132942267Y-60307109D01*
X132841283Y-60301062D01*
X132758859Y-60294390D01*
X132706714Y-60288328D01*
X132608088Y-60273612D01*
X132530308Y-60260737D01*
X132468138Y-60248662D01*
X132416343Y-60236349D01*
X132369688Y-60222758D01*
X132359039Y-60219311D01*
X132325111Y-60205596D01*
X132309022Y-60188364D01*
X132302958Y-60158592D01*
X132302564Y-60154123D01*
X132298570Y-60106212D01*
X132354373Y-60125438D01*
X132445926Y-60151096D01*
X132561701Y-60173641D01*
X132699844Y-60192905D01*
X132858502Y-60208720D01*
X133035823Y-60220918D01*
X133229954Y-60229328D01*
X133439042Y-60233784D01*
X133552944Y-60234482D01*
X133707772Y-60233885D01*
X133841882Y-60231336D01*
X133960759Y-60226277D01*
X134069887Y-60218149D01*
X134174752Y-60206395D01*
X134280838Y-60190455D01*
X134393630Y-60169772D01*
X134518612Y-60143787D01*
X134582851Y-60129645D01*
X134622967Y-60120952D01*
X134673815Y-60110259D01*
X134700762Y-60104708D01*
X134775191Y-60085164D01*
X134866259Y-60054398D01*
X134968234Y-60014896D01*
X135075380Y-59969146D01*
X135181965Y-59919637D01*
X135282256Y-59868855D01*
X135370518Y-59819289D01*
X135398922Y-59801791D01*
X135444599Y-59773246D01*
X135481566Y-59750997D01*
X135504541Y-59738178D01*
X135509230Y-59736280D01*
X135520952Y-59729982D01*
X135549016Y-59710469D01*
X135594698Y-59676813D01*
X135659276Y-59628086D01*
X135683506Y-59609642D01*
X135681412Y-59597676D01*
X135675778Y-59588999D01*
X135659169Y-59559604D01*
X135637807Y-59510371D01*
X135613644Y-59446834D01*
X135588628Y-59374524D01*
X135564710Y-59298975D01*
X135543839Y-59225719D01*
X135533857Y-59186289D01*
X135513355Y-59060844D01*
X135506506Y-58916246D01*
X135507314Y-58896533D01*
X135647607Y-58896533D01*
X135647726Y-58972357D01*
X135658481Y-59059864D01*
X135680293Y-59164461D01*
X135685867Y-59187296D01*
X135702895Y-59255532D01*
X135715940Y-59305631D01*
X135727480Y-59344888D01*
X135739996Y-59380599D01*
X135755965Y-59420058D01*
X135777868Y-59470560D01*
X135796544Y-59512951D01*
X135821235Y-59572137D01*
X135835847Y-59617620D01*
X135842638Y-59658852D01*
X135843872Y-59705288D01*
X135843779Y-59710444D01*
X135840809Y-59763638D01*
X135834926Y-59813210D01*
X135829061Y-59841847D01*
X135822686Y-59877393D01*
X135818063Y-59928564D01*
X135816126Y-59984756D01*
X135816115Y-59989021D01*
X135816115Y-60091057D01*
X135876129Y-60133358D01*
X135957032Y-60180173D01*
X136054449Y-60217432D01*
X136171292Y-60246023D01*
X136310469Y-60266837D01*
X136314669Y-60267311D01*
X136369337Y-60274383D01*
X136424754Y-60282991D01*
X136445867Y-60286796D01*
X136492063Y-60295198D01*
X136552073Y-60305152D01*
X136629070Y-60317155D01*
X136726227Y-60331703D01*
X136826342Y-60346341D01*
X136892032Y-60356356D01*
X136955772Y-60366910D01*
X137008228Y-60376419D01*
X137029700Y-60380809D01*
X137084029Y-60390109D01*
X137147836Y-60396966D01*
X137213903Y-60401073D01*
X137275012Y-60402121D01*
X137323944Y-60399805D01*
X137351740Y-60394536D01*
X137368959Y-60385230D01*
X137380867Y-60369086D01*
X137390016Y-60340124D01*
X137398962Y-60292366D01*
X137401133Y-60278886D01*
X137419670Y-60168297D01*
X137436774Y-60080852D01*
X137453323Y-60013557D01*
X137470199Y-59963419D01*
X137488280Y-59927443D01*
X137508447Y-59902636D01*
X137512860Y-59898707D01*
X137545828Y-59877618D01*
X137577063Y-59867608D01*
X137579944Y-59867479D01*
X137598975Y-59871877D01*
X137613476Y-59888915D01*
X137627715Y-59924355D01*
X137632088Y-59937890D01*
X137654235Y-60008301D01*
X137722442Y-60016495D01*
X137779517Y-60020894D01*
X137853992Y-60023184D01*
X137937805Y-60023465D01*
X138022888Y-60021837D01*
X138101178Y-60018403D01*
X138164609Y-60013262D01*
X138184245Y-60010716D01*
X138250908Y-60002117D01*
X138321222Y-59995643D01*
X138389598Y-59991510D01*
X138450451Y-59989934D01*
X138498194Y-59991131D01*
X138527238Y-59995318D01*
X138531605Y-59997279D01*
X138540388Y-60017231D01*
X138529933Y-60048720D01*
X138502558Y-60088328D01*
X138460584Y-60132635D01*
X138411601Y-60174196D01*
X138372183Y-60205441D01*
X138341766Y-60231177D01*
X138325675Y-60246853D01*
X138324512Y-60248671D01*
X138327373Y-60265740D01*
X138339247Y-60297085D01*
X138347471Y-60315053D01*
X138363631Y-60351944D01*
X138373282Y-60380625D01*
X138374483Y-60388176D01*
X138386707Y-60400986D01*
X138421002Y-60406843D01*
X138423682Y-60406944D01*
X138469038Y-60410859D01*
X138510935Y-60418185D01*
X138512241Y-60418512D01*
X138545594Y-60423515D01*
X138596299Y-60427082D01*
X138657706Y-60429190D01*
X138723162Y-60429816D01*
X138786017Y-60428939D01*
X138839620Y-60426536D01*
X138877319Y-60422585D01*
X138888819Y-60419763D01*
X138931444Y-60407060D01*
X138996247Y-60393248D01*
X139079235Y-60379083D01*
X139174793Y-60365533D01*
X139275371Y-60351518D01*
X139358471Y-60337311D01*
X139432798Y-60321027D01*
X139507060Y-60300779D01*
X139581508Y-60277455D01*
X139673537Y-60245056D01*
X139750911Y-60213114D01*
X139811063Y-60182951D01*
X139851426Y-60155891D01*
X139869434Y-60133256D01*
X139870144Y-60128688D01*
X139869552Y-60117564D01*
X139867148Y-60102360D01*
X139861989Y-60079342D01*
X139853133Y-60044778D01*
X139839638Y-59994934D01*
X139820560Y-59926078D01*
X139804194Y-59867479D01*
X139788540Y-59787651D01*
X139783334Y-59703705D01*
X139788574Y-59625035D01*
X139804258Y-59561037D01*
X139804270Y-59561005D01*
X139811636Y-59536542D01*
X139822588Y-59493414D01*
X139835390Y-59438651D01*
X139843544Y-59401724D01*
X139859066Y-59331931D01*
X139878219Y-59248975D01*
X139898145Y-59165117D01*
X139910354Y-59115137D01*
X139932959Y-59014800D01*
X139945465Y-58933321D01*
X139947844Y-58865328D01*
X139940070Y-58805451D01*
X139922116Y-58748319D01*
X139908371Y-58717120D01*
X139887995Y-58675418D01*
X139871417Y-58650922D01*
X139853143Y-58643011D01*
X139827679Y-58651063D01*
X139789530Y-58674458D01*
X139752524Y-58699502D01*
X139712312Y-58725575D01*
X139679748Y-58744441D01*
X139661497Y-58752258D01*
X139660947Y-58752293D01*
X139647611Y-58760081D01*
X139647107Y-58762920D01*
X139634996Y-58775481D01*
X139602244Y-58790061D01*
X139554227Y-58805243D01*
X139496316Y-58819608D01*
X139433886Y-58831739D01*
X139372310Y-58840219D01*
X139345351Y-58842529D01*
X139288190Y-58844891D01*
X139213734Y-58845904D01*
X139126410Y-58845703D01*
X139030649Y-58844418D01*
X138930879Y-58842184D01*
X138831530Y-58839133D01*
X138737030Y-58835397D01*
X138651807Y-58831111D01*
X138580293Y-58826407D01*
X138526914Y-58821417D01*
X138499565Y-58817156D01*
X138399465Y-58790367D01*
X138304903Y-58757962D01*
X138269524Y-58743445D01*
X138219735Y-58721875D01*
X138184252Y-58707245D01*
X138153416Y-58695802D01*
X138117572Y-58683791D01*
X138108348Y-58680794D01*
X138067139Y-58668806D01*
X138033588Y-58661399D01*
X138023069Y-58660263D01*
X137996868Y-58655307D01*
X137954223Y-58642385D01*
X137901662Y-58624016D01*
X137845714Y-58602719D01*
X137792909Y-58581010D01*
X137749776Y-58561409D01*
X137722844Y-58546434D01*
X137718491Y-58542793D01*
X137704229Y-58533308D01*
X137673709Y-58515839D01*
X137639772Y-58497489D01*
X137587971Y-58468486D01*
X137533901Y-58435568D01*
X137484743Y-58403356D01*
X137447676Y-58376473D01*
X137435301Y-58365881D01*
X137415128Y-58348790D01*
X137386121Y-58326544D01*
X137385239Y-58325898D01*
X137312545Y-58269321D01*
X137234966Y-58203170D01*
X137156389Y-58131305D01*
X137080703Y-58057587D01*
X137011795Y-57985878D01*
X136953553Y-57920039D01*
X136909865Y-57863931D01*
X136891942Y-57835988D01*
X136875944Y-57809186D01*
X136865632Y-57794545D01*
X136854738Y-57777213D01*
X136835863Y-57740623D01*
X136811300Y-57689660D01*
X136783342Y-57629210D01*
X136754283Y-57564159D01*
X136726417Y-57499393D01*
X136720907Y-57486229D01*
X136707243Y-57449934D01*
X136689375Y-57397963D01*
X136670423Y-57339836D01*
X136653506Y-57285075D01*
X136643531Y-57250072D01*
X136629463Y-57202758D01*
X136615655Y-57178322D01*
X136597001Y-57173956D01*
X136568396Y-57186850D01*
X136549567Y-57198387D01*
X136513534Y-57222018D01*
X136485651Y-57241874D01*
X136477143Y-57248842D01*
X136457445Y-57266283D01*
X136428661Y-57289602D01*
X136386344Y-57322329D01*
X136344964Y-57353725D01*
X136294266Y-57395902D01*
X136233407Y-57452498D01*
X136167788Y-57517883D01*
X136102811Y-57586425D01*
X136043878Y-57652493D01*
X135996389Y-57710456D01*
X135976201Y-57738166D01*
X135935207Y-57802938D01*
X135892406Y-57877995D01*
X135851641Y-57955896D01*
X135816756Y-58029200D01*
X135791593Y-58090467D01*
X135786496Y-58105446D01*
X135761915Y-58195881D01*
X135737560Y-58310926D01*
X135713734Y-58448951D01*
X135690739Y-58608325D01*
X135684827Y-58653894D01*
X135676537Y-58714604D01*
X135667645Y-58772387D01*
X135659722Y-58817233D01*
X135657699Y-58826982D01*
X135647607Y-58896533D01*
X135507314Y-58896533D01*
X135513091Y-58755616D01*
X135532890Y-58582073D01*
X135565684Y-58398737D01*
X135599428Y-58253739D01*
X135607671Y-58220313D01*
X135618136Y-58176414D01*
X135621528Y-58161900D01*
X135631257Y-58120705D01*
X135639397Y-58087384D01*
X135641447Y-58079388D01*
X135641905Y-58063611D01*
X135626880Y-58061174D01*
X135610525Y-58064298D01*
X135545577Y-58082464D01*
X135468551Y-58109216D01*
X135390301Y-58140387D01*
X135321682Y-58171811D01*
X135297882Y-58184339D01*
X135247261Y-58211984D01*
X135185265Y-58245025D01*
X135123947Y-58277048D01*
X135114204Y-58282059D01*
X135056942Y-58312754D01*
X134999792Y-58345648D01*
X134948417Y-58377245D01*
X134908481Y-58404052D01*
X134885646Y-58422574D01*
X134884607Y-58423734D01*
X134869988Y-58435451D01*
X134843016Y-58453782D01*
X134839531Y-58456018D01*
X134802930Y-58481964D01*
X134764671Y-58512731D01*
X134760812Y-58516102D01*
X134735717Y-58538345D01*
X134696238Y-58573415D01*
X134647583Y-58616682D01*
X134594959Y-58663518D01*
X134589520Y-58668361D01*
X134532203Y-58719391D01*
X134489388Y-58757477D01*
X134455988Y-58787129D01*
X134426913Y-58812859D01*
X134397076Y-58839179D01*
X134365055Y-58867371D01*
X134334266Y-58894670D01*
X134293058Y-58931467D01*
X134251491Y-58968770D01*
X134211767Y-59004008D01*
X134176292Y-59034581D01*
X134152436Y-59054145D01*
X134151638Y-59054752D01*
X134125886Y-59075761D01*
X134091507Y-59105660D01*
X134074964Y-59120577D01*
X134034955Y-59153773D01*
X133985770Y-59190064D01*
X133955177Y-59210571D01*
X133915841Y-59236345D01*
X133884440Y-59258300D01*
X133869898Y-59269831D01*
X133848287Y-59287206D01*
X133813190Y-59311916D01*
X133770792Y-59340016D01*
X133727278Y-59367560D01*
X133688833Y-59390601D01*
X133661642Y-59405196D01*
X133652858Y-59408284D01*
X133638922Y-59417406D01*
X133638223Y-59421404D01*
X133628078Y-59433941D01*
X133623848Y-59434524D01*
X133603889Y-59441569D01*
X133575561Y-59458584D01*
X133574649Y-59459228D01*
X133537483Y-59483092D01*
X133485369Y-59513188D01*
X133422810Y-59547261D01*
X133354311Y-59583057D01*
X133284375Y-59618321D01*
X133217505Y-59650800D01*
X133158205Y-59678239D01*
X133110979Y-59698383D01*
X133080330Y-59708980D01*
X133073563Y-59710041D01*
X133051952Y-59715775D01*
X133037812Y-59722309D01*
X133015716Y-59731164D01*
X132974170Y-59745309D01*
X132918997Y-59762971D01*
X132856016Y-59782373D01*
X132791051Y-59801740D01*
X132729921Y-59819297D01*
X132678448Y-59833269D01*
X132654235Y-59839283D01*
X132605259Y-59850440D01*
X132548418Y-59862997D01*
X132523037Y-59868472D01*
X132474783Y-59879379D01*
X132431028Y-59890278D01*
X132412840Y-59895353D01*
X132370710Y-59904090D01*
X132337401Y-59906838D01*
X132310954Y-59903402D01*
X132301140Y-59887583D01*
X132300000Y-59867067D01*
X132300501Y-59847090D01*
X132305198Y-59833657D01*
X132318881Y-59824263D01*
X132346339Y-59816402D01*
X132392361Y-59807567D01*
X132424638Y-59801860D01*
X132484826Y-59790222D01*
X132547188Y-59776586D01*
X132588636Y-59766382D01*
X132640470Y-59752845D01*
X132691586Y-59739968D01*
X132713274Y-59734715D01*
X132757516Y-59723127D01*
X132813001Y-59707045D01*
X132870924Y-59689196D01*
X132922478Y-59672303D01*
X132958858Y-59659094D01*
X132962551Y-59657560D01*
X132983913Y-59648963D01*
X133024583Y-59633052D01*
X133079346Y-59611853D01*
X133142989Y-59587389D01*
X133165909Y-59578617D01*
X133248242Y-59546506D01*
X133315344Y-59518393D01*
X133375229Y-59490379D01*
X133435909Y-59458566D01*
X133505397Y-59419055D01*
X133559772Y-59386989D01*
X133649965Y-59330294D01*
X133748620Y-59263060D01*
X133849474Y-59189959D01*
X133946264Y-59115661D01*
X134032727Y-59044840D01*
X134102601Y-58982165D01*
X134102887Y-58981890D01*
X134153628Y-58934532D01*
X134223900Y-58871070D01*
X134313012Y-58792117D01*
X134420272Y-58698289D01*
X134471375Y-58653894D01*
X134519789Y-58611706D01*
X134567873Y-58569468D01*
X134607041Y-58534730D01*
X134615140Y-58527466D01*
X134699025Y-58454963D01*
X134783048Y-58389139D01*
X134871339Y-58327419D01*
X134968028Y-58267225D01*
X135077246Y-58205982D01*
X135203122Y-58141112D01*
X135343801Y-58072875D01*
X135440043Y-58027284D01*
X135515185Y-57991846D01*
X135571794Y-57965385D01*
X135612439Y-57946726D01*
X135639686Y-57934692D01*
X135656104Y-57928107D01*
X135664261Y-57925796D01*
X135665087Y-57925743D01*
X135692636Y-57914175D01*
X135730151Y-57880501D01*
X135776236Y-57826266D01*
X135829495Y-57753017D01*
X135853613Y-57717039D01*
X135915556Y-57629827D01*
X135987668Y-57540057D01*
X136065086Y-57452988D01*
X136142944Y-57373876D01*
X136216380Y-57307980D01*
X136268750Y-57268262D01*
X136304323Y-57243107D01*
X136329867Y-57223053D01*
X136338722Y-57213992D01*
X136353781Y-57204371D01*
X136356740Y-57204152D01*
X136373511Y-57197719D01*
X136406498Y-57180557D01*
X136449685Y-57155870D01*
X136467631Y-57145113D01*
X136512825Y-57118437D01*
X136549783Y-57098033D01*
X136572630Y-57087090D01*
X136576438Y-57086074D01*
X136582039Y-57082672D01*
X136813145Y-57082672D01*
X136813696Y-57165971D01*
X136822372Y-57254642D01*
X136838707Y-57342327D01*
X136862238Y-57422666D01*
X136874480Y-57453429D01*
X136929593Y-57574730D01*
X136980746Y-57675922D01*
X137031600Y-57762002D01*
X137085820Y-57837969D01*
X137147068Y-57908821D01*
X137219006Y-57979557D01*
X137305298Y-58055174D01*
X137331456Y-58077012D01*
X137369595Y-58108817D01*
X137399448Y-58134107D01*
X137415596Y-58148282D01*
X137416735Y-58149412D01*
X137430809Y-58160747D01*
X137458140Y-58180457D01*
X137469214Y-58188140D01*
X137499211Y-58209650D01*
X137518866Y-58225425D01*
X137521694Y-58228345D01*
X137541284Y-58245191D01*
X137579131Y-58270587D01*
X137630356Y-58301857D01*
X137690079Y-58336325D01*
X137753422Y-58371314D01*
X137815506Y-58404147D01*
X137871452Y-58432148D01*
X137916382Y-58452640D01*
X137945417Y-58462946D01*
X137950617Y-58463656D01*
X137971624Y-58467974D01*
X138012226Y-58479855D01*
X138067431Y-58497690D01*
X138132250Y-58519870D01*
X138197365Y-58543201D01*
X138246070Y-58560381D01*
X138290838Y-58575075D01*
X138315444Y-58582307D01*
X138350899Y-58591601D01*
X138398367Y-58604092D01*
X138426962Y-58611635D01*
X138493320Y-58628616D01*
X138552201Y-58642021D01*
X138607974Y-58652219D01*
X138665005Y-58659581D01*
X138727661Y-58664476D01*
X138800311Y-58667276D01*
X138887320Y-58668349D01*
X138993057Y-58668066D01*
X139082954Y-58667234D01*
X139185248Y-58665953D01*
X139265282Y-58664372D01*
X139327038Y-58662174D01*
X139374495Y-58659039D01*
X139411634Y-58654650D01*
X139442436Y-58648687D01*
X139470880Y-58640832D01*
X139489669Y-58634670D01*
X139580631Y-58600089D01*
X139657713Y-58561630D01*
X139728504Y-58514426D01*
X139800590Y-58453610D01*
X139857460Y-58398756D01*
X139919673Y-58334049D01*
X139966515Y-58279037D01*
X140003145Y-58227076D01*
X140034724Y-58171520D01*
X140036298Y-58168460D01*
X140068539Y-58103261D01*
X140094635Y-58044027D01*
X140116213Y-57985301D01*
X140134902Y-57921625D01*
X140152329Y-57847540D01*
X140170122Y-57757590D01*
X140186964Y-57663346D01*
X140200896Y-57575937D01*
X140207681Y-57507953D01*
X140206424Y-57453336D01*
X140196229Y-57406029D01*
X140176200Y-57359973D01*
X140145442Y-57309108D01*
X140131518Y-57288378D01*
X140094984Y-57234845D01*
X140267921Y-57064497D01*
X140341831Y-56991375D01*
X140399467Y-56933471D01*
X140443519Y-56887870D01*
X140476678Y-56851655D01*
X140501633Y-56821910D01*
X140521077Y-56795721D01*
X140533955Y-56776190D01*
X140560145Y-56738611D01*
X140602267Y-56683925D01*
X140661054Y-56611194D01*
X140690134Y-56575953D01*
X140721720Y-56540529D01*
X140758406Y-56503297D01*
X140794805Y-56469245D01*
X140825531Y-56443359D01*
X140845198Y-56430626D01*
X140847672Y-56430082D01*
X140851342Y-56441896D01*
X140853683Y-56472131D01*
X140854132Y-56496333D01*
X140851819Y-56537995D01*
X140843080Y-56575740D01*
X140825212Y-56615958D01*
X140795515Y-56665044D01*
X140762157Y-56713945D01*
X140735872Y-56753851D01*
X140717081Y-56786926D01*
X140709814Y-56806071D01*
X140709814Y-56806172D01*
X140703897Y-56822278D01*
X140699974Y-56823779D01*
X140687013Y-56835078D01*
X140672761Y-56862191D01*
X140661465Y-56895284D01*
X140657334Y-56922508D01*
X140665989Y-56947476D01*
X140688168Y-56981088D01*
X140706534Y-57002549D01*
X140746088Y-57039954D01*
X140797430Y-57082171D01*
X140855792Y-57125972D01*
X140916405Y-57168125D01*
X140974498Y-57205401D01*
X141025302Y-57234570D01*
X141064050Y-57252402D01*
X141081365Y-57256408D01*
X141113273Y-57246368D01*
X141159052Y-57216866D01*
X141216941Y-57169515D01*
X141285178Y-57105926D01*
X141362000Y-57027712D01*
X141445645Y-56936484D01*
X141503564Y-56870126D01*
X141536838Y-56831401D01*
X141564430Y-56799478D01*
X141581056Y-56780470D01*
X141582283Y-56779105D01*
X141597482Y-56760443D01*
X141621155Y-56729513D01*
X141634068Y-56712158D01*
X141657935Y-56680466D01*
X141675501Y-56658408D01*
X141680327Y-56653119D01*
X141695465Y-56636521D01*
X141717805Y-56608457D01*
X141741752Y-56576454D01*
X141761708Y-56548040D01*
X141772079Y-56530743D01*
X141772520Y-56529108D01*
X141763490Y-56514481D01*
X141739206Y-56486431D01*
X141703877Y-56449132D01*
X141661714Y-56406757D01*
X141616926Y-56363481D01*
X141573722Y-56323478D01*
X141536313Y-56290922D01*
X141516683Y-56275426D01*
X141475199Y-56243930D01*
X141437366Y-56213591D01*
X141418285Y-56197166D01*
X141395440Y-56178831D01*
X141355869Y-56149640D01*
X141304690Y-56113274D01*
X141247021Y-56073416D01*
X141233013Y-56063895D01*
X141130549Y-55999170D01*
X141042558Y-55953943D01*
X140966999Y-55927322D01*
X140901829Y-55918412D01*
X140900562Y-55918408D01*
X140882401Y-55917727D01*
X140860165Y-55915095D01*
X140829101Y-55909627D01*
X140784453Y-55900439D01*
X140721467Y-55886648D01*
X140680030Y-55877395D01*
X140631176Y-55861752D01*
X140566962Y-55834451D01*
X140493683Y-55798653D01*
X140417630Y-55757524D01*
X140345096Y-55714227D01*
X140310114Y-55691402D01*
X140192326Y-55604269D01*
X140069585Y-55500196D01*
X139947906Y-55385103D01*
X139833304Y-55264906D01*
X139731795Y-55145523D01*
X139666787Y-55058519D01*
X139590753Y-54962355D01*
X139513814Y-54891549D01*
X139434992Y-54845218D01*
X139426037Y-54841527D01*
X139384435Y-54824136D01*
X139352491Y-54809029D01*
X139339447Y-54801177D01*
X139315298Y-54790525D01*
X139310256Y-54790103D01*
X139290661Y-54784917D01*
X139254904Y-54771279D01*
X139210489Y-54752066D01*
X139207592Y-54750743D01*
X139162556Y-54731241D01*
X139125357Y-54717162D01*
X139103682Y-54711402D01*
X139103080Y-54711384D01*
X139081317Y-54703918D01*
X139077018Y-54699273D01*
X139060056Y-54688301D01*
X139029232Y-54678320D01*
X139027475Y-54677925D01*
X138991571Y-54668153D01*
X138965306Y-54657950D01*
X138928293Y-54640997D01*
X138877888Y-54621503D01*
X138821519Y-54601916D01*
X138766618Y-54584686D01*
X138720614Y-54572262D01*
X138690935Y-54567092D01*
X138689589Y-54567065D01*
X138657142Y-54573332D01*
X138632339Y-54596445D01*
X138623616Y-54609705D01*
X138614867Y-54626023D01*
X138608318Y-54644893D01*
X138603650Y-54670169D01*
X138600548Y-54705700D01*
X138598695Y-54755338D01*
X138597773Y-54822934D01*
X138597468Y-54912340D01*
X138597455Y-54927861D01*
X138594452Y-55111375D01*
X138585383Y-55273591D01*
X138569810Y-55418841D01*
X138547294Y-55551456D01*
X138524489Y-55649452D01*
X138509217Y-55709322D01*
X138495995Y-55763851D01*
X138486650Y-55805374D01*
X138483637Y-55821019D01*
X138477101Y-55861388D01*
X138612750Y-55877199D01*
X138716658Y-55890357D01*
X138796709Y-55902990D01*
X138855261Y-55915616D01*
X138894676Y-55928755D01*
X138917315Y-55942923D01*
X138918764Y-55944435D01*
X138933526Y-55973875D01*
X138922716Y-56000693D01*
X138886899Y-56024588D01*
X138826639Y-56045256D01*
X138742500Y-56062395D01*
X138683558Y-56070531D01*
X138614672Y-56077946D01*
X138546060Y-56083977D01*
X138487473Y-56087828D01*
X138459762Y-56088782D01*
X138409640Y-56092061D01*
X138341156Y-56100214D01*
X138261495Y-56112115D01*
X138177837Y-56126635D01*
X138097368Y-56142647D01*
X138053047Y-56152633D01*
X138031642Y-56158271D01*
X138003677Y-56166770D01*
X137966148Y-56179170D01*
X137916049Y-56196511D01*
X137850377Y-56219833D01*
X137766128Y-56250176D01*
X137660297Y-56288580D01*
X137659452Y-56288887D01*
X137621679Y-56307129D01*
X137567752Y-56339419D01*
X137501703Y-56383040D01*
X137427563Y-56435275D01*
X137349365Y-56493407D01*
X137305216Y-56527593D01*
X137251695Y-56569419D01*
X137199963Y-56609410D01*
X137156880Y-56642284D01*
X137134659Y-56658881D01*
X137090076Y-56694558D01*
X137038350Y-56740627D01*
X136984161Y-56792372D01*
X136932189Y-56845075D01*
X136887114Y-56894020D01*
X136853615Y-56934488D01*
X136838273Y-56957633D01*
X136821182Y-57011106D01*
X136813145Y-57082672D01*
X136582039Y-57082672D01*
X136591951Y-57076651D01*
X136592372Y-57075760D01*
X136605104Y-57062136D01*
X136631092Y-57041444D01*
X136638165Y-57036376D01*
X136669499Y-57008096D01*
X136703404Y-56968267D01*
X136719819Y-56945011D01*
X136743835Y-56908324D01*
X136762942Y-56880019D01*
X136770434Y-56869596D01*
X136783175Y-56852684D01*
X136806085Y-56821613D01*
X136831005Y-56787504D01*
X136869644Y-56740425D01*
X136914935Y-56693645D01*
X136942327Y-56669425D01*
X136976083Y-56641799D01*
X137000928Y-56620516D01*
X137010020Y-56611780D01*
X137023852Y-56599477D01*
X137054978Y-56574682D01*
X137099506Y-56540383D01*
X137153546Y-56499569D01*
X137213205Y-56455228D01*
X137229550Y-56443202D01*
X137266624Y-56415380D01*
X137296685Y-56391756D01*
X137309434Y-56380883D01*
X137329868Y-56366779D01*
X137338016Y-56364483D01*
X137355443Y-56356156D01*
X137369362Y-56344383D01*
X137403227Y-56317623D01*
X137456162Y-56284208D01*
X137522735Y-56246874D01*
X137597512Y-56208356D01*
X137675063Y-56171391D01*
X137749954Y-56138714D01*
X137816754Y-56113061D01*
X137849690Y-56102468D01*
X137920635Y-56082293D01*
X137997640Y-56060980D01*
X138072799Y-56040666D01*
X138138206Y-56023490D01*
X138184245Y-56011993D01*
X138198501Y-56007843D01*
X138209590Y-56000842D01*
X138218182Y-55987724D01*
X138224946Y-55965223D01*
X138230553Y-55930072D01*
X138235672Y-55879006D01*
X138240973Y-55808760D01*
X138247126Y-55716066D01*
X138248135Y-55700459D01*
X138255862Y-55580908D01*
X138187254Y-55572605D01*
X138138047Y-55566432D01*
X138076664Y-55558433D01*
X138020247Y-55550863D01*
X137954638Y-55542820D01*
X137879779Y-55534992D01*
X137816471Y-55529448D01*
X137761160Y-55526170D01*
X137722558Y-55527380D01*
X137691316Y-55534481D01*
X137658085Y-55548876D01*
X137645913Y-55555042D01*
X137612409Y-55574688D01*
X137563464Y-55606483D01*
X137504553Y-55646728D01*
X137441147Y-55691724D01*
X137410175Y-55714328D01*
X137349774Y-55758815D01*
X137294617Y-55799374D01*
X137249146Y-55832745D01*
X137217804Y-55855665D01*
X137207932Y-55862827D01*
X137179775Y-55884351D01*
X137161720Y-55899958D01*
X137142556Y-55915086D01*
X137110214Y-55937367D01*
X137091137Y-55949694D01*
X137041683Y-55982681D01*
X136982584Y-56024654D01*
X136924470Y-56067943D01*
X136891942Y-56093410D01*
X136872492Y-56108068D01*
X136837998Y-56133171D01*
X136794875Y-56164064D01*
X136780423Y-56174325D01*
X136733536Y-56208318D01*
X136691120Y-56240427D01*
X136660772Y-56264865D01*
X136655919Y-56269136D01*
X136631242Y-56289388D01*
X136614969Y-56298800D01*
X136614195Y-56298884D01*
X136611583Y-56309742D01*
X136616983Y-56336391D01*
X136618530Y-56341523D01*
X136650421Y-56457108D01*
X136669639Y-56564008D01*
X136678219Y-56667370D01*
X136680135Y-56728726D01*
X136678927Y-56770997D01*
X136673692Y-56801243D01*
X136663529Y-56826523D01*
X136656198Y-56839709D01*
X136626482Y-56877743D01*
X136588017Y-56912473D01*
X136579934Y-56918108D01*
X136508643Y-56964702D01*
X136454877Y-57000623D01*
X136414248Y-57029636D01*
X136382370Y-57055503D01*
X136354854Y-57081988D01*
X136327313Y-57112853D01*
X136295360Y-57151862D01*
X136269020Y-57184776D01*
X136235709Y-57226037D01*
X136211895Y-57253513D01*
X136190807Y-57274011D01*
X136165677Y-57294335D01*
X136143277Y-57311193D01*
X136062282Y-57359585D01*
X135976346Y-57385326D01*
X135907055Y-57391421D01*
X135859393Y-57390530D01*
X135819646Y-57384149D01*
X135785078Y-57369617D01*
X135752954Y-57344272D01*
X135720538Y-57305452D01*
X135685094Y-57250496D01*
X135643888Y-57176742D01*
X135599810Y-57092472D01*
X135568183Y-57031713D01*
X135540398Y-56979597D01*
X135518809Y-56940448D01*
X135505773Y-56918589D01*
X135503440Y-56915623D01*
X135487683Y-56898249D01*
X135467164Y-56869649D01*
X135448092Y-56839300D01*
X135436679Y-56816675D01*
X135435640Y-56812182D01*
X135425982Y-56796070D01*
X135424232Y-56795251D01*
X135414104Y-56782133D01*
X135396419Y-56750890D01*
X135374035Y-56707481D01*
X135349808Y-56657867D01*
X135326596Y-56608007D01*
X135307257Y-56563860D01*
X135294648Y-56531385D01*
X135291322Y-56518035D01*
X135283670Y-56492794D01*
X135280565Y-56488465D01*
X135270726Y-56468535D01*
X135256759Y-56429583D01*
X135240620Y-56378110D01*
X135224267Y-56320617D01*
X135209657Y-56263607D01*
X135200484Y-56222444D01*
X135198498Y-56204417D01*
X135307456Y-56204417D01*
X135314502Y-56252257D01*
X135329018Y-56300777D01*
X135343685Y-56338243D01*
X135361826Y-56382154D01*
X135376985Y-56419527D01*
X135383715Y-56436642D01*
X135394788Y-56463849D01*
X135411710Y-56503403D01*
X135421213Y-56525058D01*
X135436928Y-56562617D01*
X135446902Y-56590469D01*
X135448760Y-56598844D01*
X135454725Y-56617729D01*
X135469573Y-56647652D01*
X135488728Y-56680900D01*
X135507617Y-56709761D01*
X135521665Y-56726521D01*
X135525354Y-56728000D01*
X135542710Y-56720032D01*
X135566838Y-56708921D01*
X135599919Y-56695413D01*
X135642521Y-56680208D01*
X135685813Y-56666187D01*
X135720962Y-56656231D01*
X135737855Y-56653119D01*
X135742805Y-56665680D01*
X135746856Y-56701148D01*
X135749776Y-56756195D01*
X135751330Y-56827497D01*
X135751474Y-56846637D01*
X135752411Y-56946522D01*
X135754690Y-57024223D01*
X135759184Y-57083790D01*
X135766764Y-57129277D01*
X135778301Y-57164732D01*
X135794667Y-57194209D01*
X135816734Y-57221758D01*
X135836681Y-57242714D01*
X135870788Y-57275367D01*
X135898922Y-57298977D01*
X135915189Y-57308615D01*
X135915507Y-57308640D01*
X135933517Y-57300204D01*
X135957769Y-57279135D01*
X135958958Y-57277882D01*
X135983772Y-57239964D01*
X136005702Y-57186709D01*
X136021009Y-57129007D01*
X136026033Y-57082584D01*
X136034581Y-57036763D01*
X136057793Y-56979010D01*
X136092020Y-56916186D01*
X136133612Y-56855153D01*
X136169961Y-56811987D01*
X136202453Y-56778661D01*
X136227342Y-56755288D01*
X136239958Y-56746208D01*
X136240539Y-56746388D01*
X136247679Y-56760535D01*
X136261000Y-56790039D01*
X136267078Y-56803997D01*
X136284201Y-56842321D01*
X136299071Y-56873328D01*
X136302185Y-56879258D01*
X136312907Y-56908544D01*
X136314669Y-56921898D01*
X136325619Y-56938123D01*
X136340909Y-56941755D01*
X136362234Y-56936628D01*
X136367148Y-56929520D01*
X136377912Y-56915947D01*
X136391386Y-56909591D01*
X136416747Y-56894911D01*
X136451983Y-56866721D01*
X136490067Y-56831585D01*
X136523971Y-56796062D01*
X136546668Y-56766716D01*
X136549216Y-56762220D01*
X136560153Y-56722151D01*
X136563413Y-56665381D01*
X136559322Y-56600200D01*
X136548207Y-56534897D01*
X136538959Y-56501128D01*
X136516500Y-56425246D01*
X136504847Y-56367977D01*
X136503645Y-56324187D01*
X136512539Y-56288741D01*
X136522908Y-56268799D01*
X136562822Y-56217123D01*
X136622589Y-56160036D01*
X136704131Y-56095781D01*
X136741064Y-56069234D01*
X136783530Y-56038972D01*
X136817277Y-56014236D01*
X136836888Y-55999026D01*
X136839462Y-55996628D01*
X136852803Y-55986378D01*
X136882831Y-55965796D01*
X136924070Y-55938598D01*
X136943046Y-55926335D01*
X136989309Y-55895870D01*
X137028471Y-55868738D01*
X137054114Y-55849432D01*
X137058781Y-55845282D01*
X137079302Y-55829752D01*
X137088739Y-55826570D01*
X137106631Y-55818310D01*
X137117322Y-55809326D01*
X137136754Y-55793838D01*
X137171106Y-55769746D01*
X137212976Y-55742238D01*
X137213378Y-55741982D01*
X137253191Y-55716078D01*
X137283613Y-55695230D01*
X137298398Y-55683725D01*
X137298657Y-55683420D01*
X137312461Y-55671386D01*
X137342641Y-55647918D01*
X137384148Y-55616733D01*
X137431936Y-55581549D01*
X137480957Y-55546083D01*
X137526164Y-55514053D01*
X137561053Y-55490145D01*
X137623415Y-55453648D01*
X137686179Y-55428689D01*
X137753807Y-55414890D01*
X137830759Y-55411872D01*
X137921496Y-55419256D01*
X138030480Y-55436665D01*
X138079287Y-55446169D01*
X138131478Y-55455217D01*
X138192036Y-55463620D01*
X138223605Y-55467142D01*
X138268520Y-55470534D01*
X138298119Y-55467584D01*
X138323138Y-55455103D01*
X138354311Y-55429901D01*
X138357135Y-55427462D01*
X138398397Y-55382712D01*
X138426239Y-55334125D01*
X138437329Y-55288648D01*
X138434606Y-55265903D01*
X138417575Y-55245477D01*
X138381288Y-55220782D01*
X138331578Y-55195237D01*
X138276084Y-55172896D01*
X138206218Y-55154855D01*
X138111976Y-55141268D01*
X137992902Y-55132092D01*
X137848539Y-55127280D01*
X137799987Y-55126680D01*
X137709331Y-55126307D01*
X137640356Y-55127079D01*
X137588517Y-55129314D01*
X137549270Y-55133332D01*
X137518070Y-55139451D01*
X137490370Y-55147992D01*
X137488894Y-55148525D01*
X137433995Y-55169995D01*
X137374628Y-55195648D01*
X137317011Y-55222512D01*
X137267361Y-55247617D01*
X137231896Y-55267994D01*
X137219450Y-55277243D01*
X137200152Y-55293134D01*
X137165692Y-55319108D01*
X137122507Y-55350349D01*
X137108419Y-55360306D01*
X137065945Y-55390492D01*
X137032194Y-55415121D01*
X137012588Y-55430213D01*
X137010020Y-55432565D01*
X136996362Y-55443795D01*
X136966352Y-55466159D01*
X136925232Y-55495881D01*
X136878242Y-55529188D01*
X136830623Y-55562301D01*
X136816629Y-55571885D01*
X136771335Y-55604946D01*
X136714226Y-55649864D01*
X136652780Y-55700716D01*
X136638204Y-55713159D01*
X136610802Y-55734796D01*
X136572579Y-55762782D01*
X136550826Y-55777994D01*
X136517203Y-55802349D01*
X136493852Y-55821696D01*
X136487413Y-55829086D01*
X136478150Y-55838465D01*
X136461447Y-55834877D01*
X136434990Y-55816668D01*
X136396465Y-55782184D01*
X136343558Y-55729771D01*
X136332127Y-55718098D01*
X136261892Y-55649010D01*
X136201996Y-55598224D01*
X136146988Y-55563083D01*
X136091419Y-55540930D01*
X136029840Y-55529109D01*
X135956801Y-55524962D01*
X135935660Y-55524813D01*
X135803873Y-55532198D01*
X135691217Y-55554948D01*
X135594938Y-55593952D01*
X135512279Y-55650104D01*
X135491937Y-55668321D01*
X135439030Y-55728461D01*
X135398044Y-55799659D01*
X135365452Y-55888443D01*
X135357290Y-55917571D01*
X135332798Y-56013835D01*
X135316439Y-56090321D01*
X135308047Y-56152144D01*
X135307456Y-56204417D01*
X135198498Y-56204417D01*
X135188342Y-56112217D01*
X135194028Y-55998555D01*
X135216022Y-55886885D01*
X135252805Y-55782631D01*
X135302861Y-55691220D01*
X135364671Y-55618078D01*
X135371264Y-55612132D01*
X135417613Y-55572162D01*
X135454048Y-55543404D01*
X135489897Y-55519229D01*
X135534485Y-55493007D01*
X135555269Y-55481345D01*
X135636590Y-55439406D01*
X135707529Y-55411897D01*
X135777667Y-55396216D01*
X135856584Y-55389764D01*
X135894834Y-55389180D01*
X135969648Y-55391127D01*
X136029125Y-55398226D01*
X136083914Y-55411987D01*
X136104752Y-55418937D01*
X136169366Y-55443395D01*
X136223232Y-55468932D01*
X136272585Y-55499691D01*
X136323658Y-55539819D01*
X136382687Y-55593461D01*
X136417061Y-55626575D01*
X136450970Y-55655944D01*
X136477639Y-55672140D01*
X136489625Y-55673327D01*
X136515913Y-55657004D01*
X136554256Y-55632381D01*
X136599139Y-55603102D01*
X136645044Y-55572811D01*
X136686454Y-55545152D01*
X136717851Y-55523769D01*
X136733719Y-55512308D01*
X136734504Y-55511575D01*
X136748559Y-55499876D01*
X136775856Y-55479858D01*
X136786983Y-55472058D01*
X136822861Y-55445836D01*
X136853482Y-55421238D01*
X136858336Y-55416931D01*
X136880773Y-55399407D01*
X136893478Y-55393615D01*
X136910240Y-55385633D01*
X136920524Y-55377215D01*
X136933818Y-55365746D01*
X136957720Y-55346777D01*
X136994959Y-55318211D01*
X137048264Y-55277952D01*
X137108367Y-55232879D01*
X137191961Y-55171006D01*
X137259938Y-55123234D01*
X137317260Y-55087384D01*
X137368889Y-55061277D01*
X137419789Y-55042737D01*
X137474922Y-55029585D01*
X137539250Y-55019644D01*
X137613533Y-55011175D01*
X137666290Y-55007589D01*
X137737853Y-55005467D01*
X137822314Y-55004712D01*
X137913767Y-55005231D01*
X138006306Y-55006930D01*
X138094024Y-55009713D01*
X138171014Y-55013486D01*
X138231370Y-55018155D01*
X138258005Y-55021483D01*
X138305525Y-55029076D01*
X138314223Y-54939109D01*
X138346618Y-54734184D01*
X138363445Y-54665464D01*
X138374850Y-54631210D01*
X138392854Y-54585948D01*
X138414512Y-54536107D01*
X138436879Y-54488116D01*
X138457010Y-54448401D01*
X138471962Y-54423391D01*
X138476643Y-54418370D01*
X138494282Y-54418674D01*
X138535132Y-54425365D01*
X138597065Y-54438008D01*
X138677955Y-54456170D01*
X138774638Y-54479164D01*
X138853452Y-54501324D01*
X138941675Y-54530847D01*
X139025440Y-54562983D01*
X139050154Y-54573534D01*
X139078127Y-54585152D01*
X139123947Y-54603405D01*
X139180917Y-54625652D01*
X139233832Y-54646005D01*
X139305956Y-54673787D01*
X139365446Y-54697454D01*
X139420711Y-54720548D01*
X139480161Y-54746614D01*
X139552206Y-54779196D01*
X139579610Y-54791722D01*
X139662991Y-54829894D01*
X139704836Y-54804032D01*
X139741618Y-54779343D01*
X139773500Y-54754901D01*
X139774782Y-54753799D01*
X139806704Y-54727809D01*
X139838295Y-54704005D01*
X139870112Y-54680364D01*
X139915734Y-54645473D01*
X139968503Y-54604510D01*
X140021762Y-54562649D01*
X140068853Y-54525067D01*
X140078153Y-54517539D01*
X140169219Y-54441528D01*
X140248513Y-54370250D01*
X140323521Y-54296471D01*
X140401729Y-54212957D01*
X140453977Y-54154402D01*
X140495617Y-54108749D01*
X140552583Y-54048657D01*
X140621212Y-53977798D01*
X140697841Y-53899842D01*
X140778810Y-53818463D01*
X140860455Y-53737330D01*
X140939115Y-53660116D01*
X141011127Y-53590493D01*
X141072828Y-53532132D01*
X141095820Y-53510919D01*
X141144844Y-53466103D01*
X141183325Y-53429194D01*
X141213082Y-53396112D01*
X141235932Y-53362778D01*
X141253694Y-53325115D01*
X141268186Y-53279044D01*
X141281227Y-53220486D01*
X141294635Y-53145364D01*
X141310228Y-53049597D01*
X141315169Y-53018925D01*
X141323724Y-52969000D01*
X141332586Y-52926818D01*
X141343963Y-52883904D01*
X141360064Y-52831781D01*
X141378637Y-52775334D01*
X141394599Y-52726589D01*
X141402357Y-52697593D01*
X141402044Y-52683218D01*
X141393793Y-52678332D01*
X141381155Y-52677809D01*
X141361386Y-52683743D01*
X141321799Y-52700437D01*
X141265688Y-52726229D01*
X141196347Y-52759455D01*
X141117073Y-52798453D01*
X141031158Y-52841561D01*
X140941897Y-52887115D01*
X140852586Y-52933455D01*
X140766518Y-52978916D01*
X140686988Y-53021837D01*
X140617291Y-53060555D01*
X140578615Y-53082801D01*
X140517229Y-53117883D01*
X140463474Y-53146938D01*
X140421492Y-53167857D01*
X140395425Y-53178530D01*
X140389235Y-53179198D01*
X140391165Y-53167399D01*
X140410882Y-53144232D01*
X140444515Y-53113139D01*
X140488191Y-53077566D01*
X140538039Y-53040957D01*
X140565495Y-53022404D01*
X140606657Y-52997440D01*
X140667621Y-52963108D01*
X140744539Y-52921407D01*
X140833562Y-52874336D01*
X140930842Y-52823892D01*
X141032532Y-52772075D01*
X141134783Y-52720884D01*
X141233746Y-52672315D01*
X141310732Y-52635381D01*
X141348450Y-52616198D01*
X141364556Y-52603752D01*
X141361929Y-52595365D01*
X141356651Y-52592700D01*
X141338656Y-52590392D01*
X141297390Y-52587945D01*
X141235819Y-52585448D01*
X141156912Y-52582991D01*
X141063634Y-52580663D01*
X140958953Y-52578555D01*
X140845836Y-52576755D01*
X140814772Y-52576340D01*
X140665775Y-52574138D01*
X140541931Y-52571631D01*
X140442157Y-52568754D01*
X140365369Y-52565438D01*
X140310482Y-52561615D01*
X140276411Y-52557219D01*
X140262072Y-52552180D01*
X140266381Y-52546432D01*
X140276859Y-52542786D01*
X140302128Y-52535178D01*
X140338174Y-52523887D01*
X140343390Y-52522224D01*
X140369258Y-52518254D01*
X140417424Y-52514925D01*
X140483954Y-52512254D01*
X140564912Y-52510259D01*
X140656364Y-52508957D01*
X140754376Y-52508365D01*
X140855012Y-52508501D01*
X140954340Y-52509382D01*
X141048423Y-52511025D01*
X141133327Y-52513447D01*
X141205119Y-52516665D01*
X141231330Y-52518324D01*
X141284048Y-52521768D01*
X141325201Y-52523895D01*
X141349039Y-52524438D01*
X141352688Y-52523979D01*
X141341936Y-52517344D01*
X141314645Y-52503850D01*
X141296926Y-52495623D01*
X141259535Y-52478483D01*
X141207402Y-52454450D01*
X141149578Y-52427701D01*
X141126493Y-52416995D01*
X141066715Y-52389668D01*
X141006691Y-52362925D01*
X140956566Y-52341264D01*
X140942815Y-52335543D01*
X140896154Y-52316351D01*
X140852941Y-52298407D01*
X140834452Y-52290639D01*
X140780110Y-52267505D01*
X140719132Y-52241374D01*
X140658613Y-52215305D01*
X140605647Y-52192358D01*
X140567330Y-52175592D01*
X140558935Y-52171858D01*
X140523381Y-52156697D01*
X140476950Y-52137867D01*
X140452126Y-52128128D01*
X140384676Y-52102046D01*
X140248768Y-52190333D01*
X140185079Y-52230943D01*
X140118598Y-52272064D01*
X140058188Y-52308277D01*
X140021022Y-52329608D01*
X139946112Y-52371272D01*
X139884292Y-52405849D01*
X139825659Y-52438889D01*
X139799783Y-52453538D01*
X139763776Y-52473910D01*
X139733742Y-52490846D01*
X139730903Y-52492441D01*
X139707509Y-52504562D01*
X139667735Y-52524148D01*
X139616444Y-52548904D01*
X139558500Y-52576535D01*
X139498765Y-52604747D01*
X139442102Y-52631246D01*
X139393376Y-52653737D01*
X139357448Y-52669927D01*
X139339182Y-52677520D01*
X139337998Y-52677809D01*
X139322859Y-52682737D01*
X139291552Y-52695459D01*
X139262511Y-52708073D01*
X139217229Y-52726194D01*
X139154078Y-52748806D01*
X139080501Y-52773472D01*
X139003937Y-52797756D01*
X138931829Y-52819222D01*
X138879597Y-52833433D01*
X138776112Y-52856396D01*
X138675713Y-52870804D01*
X138566951Y-52878060D01*
X138503384Y-52879471D01*
X138424050Y-52879153D01*
X138365731Y-52875042D01*
X138323272Y-52865281D01*
X138291519Y-52848014D01*
X138265320Y-52821384D01*
X138240236Y-52784690D01*
X138197230Y-52697393D01*
X138179004Y-52614275D01*
X138180383Y-52598389D01*
X138308884Y-52598389D01*
X138311841Y-52644667D01*
X138323028Y-52675882D01*
X138341087Y-52698085D01*
X138367527Y-52720040D01*
X138388847Y-52730432D01*
X138390286Y-52730552D01*
X138411435Y-52732505D01*
X138449829Y-52737341D01*
X138492561Y-52743349D01*
X138587257Y-52748716D01*
X138699932Y-52740701D01*
X138826636Y-52720332D01*
X138963422Y-52688642D01*
X139106342Y-52646662D01*
X139251448Y-52595421D01*
X139394792Y-52535950D01*
X139522469Y-52474467D01*
X139600087Y-52433671D01*
X139665047Y-52398304D01*
X139713879Y-52370305D01*
X139743112Y-52351615D01*
X139745506Y-52349802D01*
X139762758Y-52339033D01*
X139796615Y-52319838D01*
X139840438Y-52295961D01*
X139850464Y-52290607D01*
X139897988Y-52264396D01*
X139939189Y-52240026D01*
X139966162Y-52222201D01*
X139968543Y-52220341D01*
X140013456Y-52188800D01*
X140075937Y-52153924D01*
X140107324Y-52138195D01*
X140142292Y-52118087D01*
X140168275Y-52097987D01*
X140171249Y-52094761D01*
X140190799Y-52077813D01*
X140200663Y-52074297D01*
X140217655Y-52067363D01*
X140248080Y-52049535D01*
X140272331Y-52033539D01*
X140320439Y-52004085D01*
X140363144Y-51988584D01*
X140406509Y-51987287D01*
X140456594Y-52000445D01*
X140519461Y-52028308D01*
X140552376Y-52045103D01*
X140613934Y-52075503D01*
X140690540Y-52110716D01*
X140772626Y-52146468D01*
X140850624Y-52178487D01*
X140853864Y-52179763D01*
X140920747Y-52206570D01*
X140981972Y-52232046D01*
X141031836Y-52253750D01*
X141064633Y-52269242D01*
X141070341Y-52272342D01*
X141102645Y-52288734D01*
X141149522Y-52309708D01*
X141200924Y-52330773D01*
X141201807Y-52331117D01*
X141247967Y-52349872D01*
X141284775Y-52366300D01*
X141305072Y-52377182D01*
X141306110Y-52378008D01*
X141329861Y-52388397D01*
X141337726Y-52389173D01*
X141364224Y-52395817D01*
X141406524Y-52413537D01*
X141458490Y-52439014D01*
X141513986Y-52468931D01*
X141566874Y-52499968D01*
X141611018Y-52528808D01*
X141640281Y-52552131D01*
X141641668Y-52553528D01*
X141686140Y-52599411D01*
X141600712Y-52681250D01*
X141557098Y-52724855D01*
X141528089Y-52760237D01*
X141508097Y-52795929D01*
X141491533Y-52840465D01*
X141486981Y-52854927D01*
X141470903Y-52913694D01*
X141457344Y-52974870D01*
X141450114Y-53018925D01*
X141436615Y-53101818D01*
X141416467Y-53186284D01*
X141391688Y-53266224D01*
X141364294Y-53335539D01*
X141336303Y-53388128D01*
X141321645Y-53407430D01*
X141307640Y-53422856D01*
X141279832Y-53453596D01*
X141241991Y-53495477D01*
X141197889Y-53544328D01*
X141188688Y-53554524D01*
X141154404Y-53591455D01*
X141104034Y-53644233D01*
X141040139Y-53710245D01*
X140965279Y-53786876D01*
X140882014Y-53871512D01*
X140792904Y-53961539D01*
X140700511Y-54054342D01*
X140637654Y-54117161D01*
X140514284Y-54239570D01*
X140406894Y-54344702D01*
X140313498Y-54434409D01*
X140232113Y-54510539D01*
X140160753Y-54574944D01*
X140097433Y-54629472D01*
X140040170Y-54675973D01*
X140027582Y-54685778D01*
X139968359Y-54731536D01*
X139915969Y-54772020D01*
X139874118Y-54804365D01*
X139846513Y-54825707D01*
X139837345Y-54832803D01*
X139819403Y-54847774D01*
X139792031Y-54871590D01*
X139786439Y-54876540D01*
X139762601Y-54900155D01*
X139756428Y-54917982D01*
X139764821Y-54940273D01*
X139766314Y-54943090D01*
X139784638Y-54969613D01*
X139817796Y-55010422D01*
X139861955Y-55061364D01*
X139913283Y-55118282D01*
X139967949Y-55177021D01*
X140022120Y-55233425D01*
X140071965Y-55283340D01*
X140113652Y-55322610D01*
X140127125Y-55334357D01*
X140169832Y-55371130D01*
X140208942Y-55406145D01*
X140236378Y-55432158D01*
X140237500Y-55433298D01*
X140266929Y-55459707D01*
X140307564Y-55491763D01*
X140335898Y-55512236D01*
X140371719Y-55537443D01*
X140398120Y-55556817D01*
X140408057Y-55564941D01*
X140426118Y-55577308D01*
X140462254Y-55596878D01*
X140510333Y-55620732D01*
X140564219Y-55645955D01*
X140617779Y-55669627D01*
X140664879Y-55688833D01*
X140681252Y-55694863D01*
X140725591Y-55708375D01*
X140763718Y-55713502D01*
X140799019Y-55708315D01*
X140834879Y-55690884D01*
X140874685Y-55659278D01*
X140921821Y-55611568D01*
X140979674Y-55545823D01*
X141014056Y-55505134D01*
X141050283Y-55461965D01*
X141081535Y-55424784D01*
X141102917Y-55399413D01*
X141107831Y-55393615D01*
X141123901Y-55373068D01*
X141149343Y-55338811D01*
X141176124Y-55301776D01*
X141203777Y-55263129D01*
X141225934Y-55232300D01*
X141237409Y-55216497D01*
X141308073Y-55121483D01*
X141365204Y-55044797D01*
X141410903Y-54983699D01*
X141447273Y-54935446D01*
X141476417Y-54897295D01*
X141500438Y-54866506D01*
X141521439Y-54840335D01*
X141541522Y-54816041D01*
X141562791Y-54790881D01*
X141572784Y-54779160D01*
X141594179Y-54752962D01*
X141625848Y-54712826D01*
X141662276Y-54665774D01*
X141677557Y-54645784D01*
X141710868Y-54602352D01*
X141738278Y-54567210D01*
X141755876Y-54545345D01*
X141759908Y-54540826D01*
X141771484Y-54527219D01*
X141792628Y-54499921D01*
X141806013Y-54482047D01*
X141832207Y-54446998D01*
X141854059Y-54418314D01*
X141860666Y-54409888D01*
X141875998Y-54390466D01*
X141902369Y-54356785D01*
X141934721Y-54315306D01*
X141943001Y-54304669D01*
X141977802Y-54259970D01*
X142009555Y-54219245D01*
X142032292Y-54190144D01*
X142035077Y-54186590D01*
X142053302Y-54158603D01*
X142060981Y-54137391D01*
X142067407Y-54122097D01*
X142070996Y-54120956D01*
X142080515Y-54109869D01*
X142097926Y-54080143D01*
X142120274Y-54037032D01*
X142133316Y-54010120D01*
X142157179Y-53961879D01*
X142177794Y-53924106D01*
X142192169Y-53902099D01*
X142196263Y-53898635D01*
X142212373Y-53907832D01*
X142240195Y-53933612D01*
X142275766Y-53971514D01*
X142315122Y-54017080D01*
X142354300Y-54065849D01*
X142389338Y-54113360D01*
X142396997Y-54124537D01*
X142428284Y-54166772D01*
X142472876Y-54221354D01*
X142525506Y-54282094D01*
X142580911Y-54342800D01*
X142597873Y-54360694D01*
X142696115Y-54468262D01*
X142776401Y-54568456D01*
X142843003Y-54667843D01*
X142900197Y-54772989D01*
X142952256Y-54890459D01*
X142967039Y-54927861D01*
X142990392Y-54980400D01*
X143023488Y-55045003D01*
X143061408Y-55112900D01*
X143099230Y-55175320D01*
X143132034Y-55223491D01*
X143135305Y-55227776D01*
X143150488Y-55244824D01*
X143181240Y-55277403D01*
X143224607Y-55322453D01*
X143277636Y-55376919D01*
X143337376Y-55437741D01*
X143368434Y-55469172D01*
X143430328Y-55532685D01*
X143486581Y-55592310D01*
X143534281Y-55644806D01*
X143570514Y-55686931D01*
X143592369Y-55715446D01*
X143596905Y-55723367D01*
X143604173Y-55747554D01*
X143607007Y-55778255D01*
X143605408Y-55821383D01*
X143599380Y-55882854D01*
X143596977Y-55903497D01*
X143589477Y-55976302D01*
X143587053Y-56030139D01*
X143589664Y-56071778D01*
X143595701Y-56102218D01*
X143624917Y-56200729D01*
X143656693Y-56277043D01*
X143693962Y-56335202D01*
X143739654Y-56379247D01*
X143796699Y-56413217D01*
X143832334Y-56428439D01*
X143902274Y-56446360D01*
X143982070Y-56452693D01*
X144060954Y-56447446D01*
X144128157Y-56430624D01*
X144133963Y-56428244D01*
X144179755Y-56408583D01*
X144102585Y-56350454D01*
X144013428Y-56278686D01*
X144000870Y-56266764D01*
X144197324Y-56266764D01*
X144234586Y-56308459D01*
X144271849Y-56350155D01*
X144331575Y-56288440D01*
X144369661Y-56247402D01*
X144405760Y-56205751D01*
X144425692Y-56180805D01*
X144446412Y-56150172D01*
X144451673Y-56130287D01*
X144443576Y-56112406D01*
X144442495Y-56110909D01*
X144429023Y-56095626D01*
X144415020Y-56095069D01*
X144390263Y-56109229D01*
X144387737Y-56110852D01*
X144351835Y-56136448D01*
X144314270Y-56166692D01*
X144311208Y-56169358D01*
X144273839Y-56201827D01*
X144236658Y-56233606D01*
X144234586Y-56235354D01*
X144197324Y-56266764D01*
X144000870Y-56266764D01*
X143944397Y-56213153D01*
X143904637Y-56164954D01*
X144016012Y-56164954D01*
X144026457Y-56178352D01*
X144051624Y-56194725D01*
X144052091Y-56194967D01*
X144079573Y-56210077D01*
X144094731Y-56220144D01*
X144108527Y-56230097D01*
X144132114Y-56245226D01*
X144152683Y-56257375D01*
X144155356Y-56258753D01*
X144164695Y-56250423D01*
X144188895Y-56227200D01*
X144224221Y-56192705D01*
X144264343Y-56153128D01*
X144306240Y-56111063D01*
X144339770Y-56076327D01*
X144361400Y-56052653D01*
X144367716Y-56043816D01*
X144354367Y-56037824D01*
X144323652Y-56025146D01*
X144288262Y-56010936D01*
X144245735Y-55994896D01*
X144219036Y-55988585D01*
X144199907Y-55991324D01*
X144180666Y-56002051D01*
X144153917Y-56022584D01*
X144119744Y-56052801D01*
X144083509Y-56087396D01*
X144050576Y-56121062D01*
X144026307Y-56148494D01*
X144016065Y-56164386D01*
X144016012Y-56164954D01*
X143904637Y-56164954D01*
X143896417Y-56154989D01*
X143870411Y-56105326D01*
X143869664Y-56095714D01*
X143977272Y-56095714D01*
X143984579Y-56099894D01*
X144004945Y-56085564D01*
X144040244Y-56052483D01*
X144069799Y-56023106D01*
X144148534Y-55944126D01*
X144092113Y-55952625D01*
X144048901Y-55961220D01*
X144023136Y-55975258D01*
X144006078Y-56001901D01*
X143994327Y-56032785D01*
X143981147Y-56073264D01*
X143977272Y-56095714D01*
X143869664Y-56095714D01*
X143867302Y-56065297D01*
X143868014Y-56062727D01*
X143902032Y-55986780D01*
X143956941Y-55918211D01*
X143963372Y-55911848D01*
X143995155Y-55882716D01*
X144021024Y-55867040D01*
X144051624Y-55860713D01*
X144097598Y-55859626D01*
X144098676Y-55859630D01*
X144151133Y-55862719D01*
X144200379Y-55870404D01*
X144225929Y-55877578D01*
X144276483Y-55898637D01*
X144331242Y-55923956D01*
X144383758Y-55950255D01*
X144427584Y-55974251D01*
X144456270Y-55992663D01*
X144462086Y-55997757D01*
X144480602Y-56011690D01*
X144514829Y-56032667D01*
X144557909Y-56056993D01*
X144602985Y-56080974D01*
X144643202Y-56100916D01*
X144671700Y-56113124D01*
X144680070Y-56115206D01*
X144682412Y-56103119D01*
X144684178Y-56070991D01*
X144685070Y-56025016D01*
X144685123Y-56009786D01*
X144682529Y-55942162D01*
X144672485Y-55893200D01*
X144651603Y-55855637D01*
X144616495Y-55822214D01*
X144588009Y-55801679D01*
X144564704Y-55786630D01*
X144541333Y-55774154D01*
X144513147Y-55762599D01*
X144475399Y-55750315D01*
X144423337Y-55735649D01*
X144352214Y-55716951D01*
X144321783Y-55709108D01*
X144216822Y-55677529D01*
X144133050Y-55641023D01*
X144065487Y-55596550D01*
X144009151Y-55541069D01*
X143976822Y-55498574D01*
X143955536Y-55468640D01*
X143940415Y-55448978D01*
X143937748Y-55446094D01*
X143921766Y-55426379D01*
X143895526Y-55387817D01*
X143861502Y-55334507D01*
X143822167Y-55270544D01*
X143779996Y-55200027D01*
X143737463Y-55127053D01*
X143697041Y-55055718D01*
X143661205Y-54990120D01*
X143652632Y-54973916D01*
X143614874Y-54907176D01*
X143583089Y-54863366D01*
X143555327Y-54840404D01*
X143529639Y-54836206D01*
X143524897Y-54837338D01*
X143502348Y-54845968D01*
X143464108Y-54862258D01*
X143418189Y-54882612D01*
X143372603Y-54903439D01*
X143335362Y-54921144D01*
X143317381Y-54930408D01*
X143311889Y-54921885D01*
X143308317Y-54894032D01*
X143307541Y-54868126D01*
X143308213Y-54837063D01*
X143312491Y-54813278D01*
X143323766Y-54791101D01*
X143345429Y-54764865D01*
X143380872Y-54728899D01*
X143404840Y-54705477D01*
X143502139Y-54610671D01*
X143482357Y-54546229D01*
X143468644Y-54503288D01*
X143456247Y-54467301D01*
X143451757Y-54455547D01*
X143439052Y-54424585D01*
X143424146Y-54388090D01*
X143416991Y-54371727D01*
X143408220Y-54359630D01*
X143393796Y-54350655D01*
X143369684Y-54343658D01*
X143331849Y-54337493D01*
X143276256Y-54331017D01*
X143198868Y-54323086D01*
X143192742Y-54322468D01*
X143110743Y-54314196D01*
X143110743Y-54245222D01*
X143110743Y-54176248D01*
X143028744Y-54143526D01*
X142984875Y-54125093D01*
X142959865Y-54110276D01*
X142947928Y-54093683D01*
X142943277Y-54069922D01*
X142942667Y-54063313D01*
X142944241Y-54026036D01*
X142955787Y-54010851D01*
X142982659Y-54003798D01*
X143026898Y-53992877D01*
X143080288Y-53980046D01*
X143134612Y-53967265D01*
X143181652Y-53956494D01*
X143206382Y-53951087D01*
X143240324Y-53942502D01*
X143261762Y-53934392D01*
X143263857Y-53932891D01*
X143263948Y-53916510D01*
X143254156Y-53883456D01*
X143237147Y-53840104D01*
X143215588Y-53792824D01*
X143192144Y-53747989D01*
X143174292Y-53718853D01*
X143132484Y-53669950D01*
X143081032Y-53635923D01*
X143015543Y-53615011D01*
X142931621Y-53605449D01*
X142888972Y-53604390D01*
X142826557Y-53604934D01*
X142780585Y-53608557D01*
X142741286Y-53617123D01*
X142698892Y-53632496D01*
X142664669Y-53647189D01*
X142563225Y-53680846D01*
X142469259Y-53689510D01*
X142383703Y-53673599D01*
X142307488Y-53633529D01*
X142241548Y-53569718D01*
X142186813Y-53482582D01*
X142160587Y-53421568D01*
X142147984Y-53373980D01*
X142137018Y-53305454D01*
X142131143Y-53247560D01*
X142243930Y-53247560D01*
X142248790Y-53319535D01*
X142262614Y-53390293D01*
X142285251Y-53454716D01*
X142316555Y-53507684D01*
X142330766Y-53523817D01*
X142365392Y-53552132D01*
X142400271Y-53571131D01*
X142411632Y-53574421D01*
X142471479Y-53578534D01*
X142541227Y-53574209D01*
X142609242Y-53562819D01*
X142663893Y-53545740D01*
X142667240Y-53544216D01*
X142724554Y-53517275D01*
X142719690Y-53428818D01*
X142722446Y-53336113D01*
X142736405Y-53255082D01*
X142748632Y-53206759D01*
X142759100Y-53165385D01*
X142764975Y-53142168D01*
X142765789Y-53123482D01*
X142751857Y-53112969D01*
X142721597Y-53106362D01*
X142675327Y-53097867D01*
X142626029Y-53087526D01*
X142828175Y-53087526D01*
X142837651Y-53220503D01*
X142844652Y-53311697D01*
X142852141Y-53380434D01*
X142862009Y-53430461D01*
X142876148Y-53465522D01*
X142896447Y-53489365D01*
X142924799Y-53505734D01*
X142963094Y-53518375D01*
X142991754Y-53525760D01*
X143047151Y-53538620D01*
X143081998Y-53542648D01*
X143101044Y-53535968D01*
X143109040Y-53516704D01*
X143110737Y-53482980D01*
X143110743Y-53478759D01*
X143116602Y-53410210D01*
X143132122Y-53333229D01*
X143154218Y-53261137D01*
X143169330Y-53225807D01*
X143183361Y-53190602D01*
X143189455Y-53161286D01*
X143189462Y-53160576D01*
X143178456Y-53115536D01*
X143150122Y-53071453D01*
X143111492Y-53039043D01*
X143108805Y-53037602D01*
X143083251Y-53027659D01*
X143054287Y-53024712D01*
X143016818Y-53029455D01*
X142965745Y-53042577D01*
X142895971Y-53064771D01*
X142887460Y-53067619D01*
X142828175Y-53087526D01*
X142626029Y-53087526D01*
X142623698Y-53087037D01*
X142612190Y-53084410D01*
X142560350Y-53073887D01*
X142500857Y-53064223D01*
X142440294Y-53056188D01*
X142385245Y-53050553D01*
X142342293Y-53048088D01*
X142318023Y-53049562D01*
X142317070Y-53049880D01*
X142284601Y-53075528D01*
X142261687Y-53120437D01*
X142248179Y-53179487D01*
X142243930Y-53247560D01*
X142131143Y-53247560D01*
X142128476Y-53221281D01*
X142126387Y-53191971D01*
X142120210Y-53112350D01*
X142112593Y-53051753D01*
X142102231Y-53002965D01*
X142087819Y-52958770D01*
X142081256Y-52942272D01*
X142065754Y-52905257D01*
X142057107Y-52878957D01*
X142057051Y-52857390D01*
X142067321Y-52834570D01*
X142089653Y-52804516D01*
X142125781Y-52761242D01*
X142137983Y-52746688D01*
X142170353Y-52711827D01*
X142199538Y-52687054D01*
X142218932Y-52677809D01*
X142236147Y-52680207D01*
X142265575Y-52687980D01*
X142309890Y-52702000D01*
X142371765Y-52723138D01*
X142453872Y-52752264D01*
X142513791Y-52773875D01*
X142573056Y-52793493D01*
X142635760Y-52811387D01*
X142682036Y-52822326D01*
X142728993Y-52830063D01*
X142764117Y-52829624D01*
X142800889Y-52819732D01*
X142830476Y-52808273D01*
X142902509Y-52779037D01*
X142855527Y-52730924D01*
X142803752Y-52684040D01*
X142743204Y-52641702D01*
X142670382Y-52602203D01*
X142581783Y-52563837D01*
X142473905Y-52524896D01*
X142356353Y-52487618D01*
X142300431Y-52470656D01*
X142250734Y-52455484D01*
X142214973Y-52444460D01*
X142205475Y-52441479D01*
X142141738Y-52421881D01*
X142095942Y-52410822D01*
X142061218Y-52408305D01*
X142030696Y-52414332D01*
X141997504Y-52428905D01*
X141973828Y-52441543D01*
X141932092Y-52465000D01*
X141898600Y-52484925D01*
X141881701Y-52496208D01*
X141862516Y-52495554D01*
X141825233Y-52478410D01*
X141771341Y-52445744D01*
X141702329Y-52398527D01*
X141619686Y-52337727D01*
X141524900Y-52264315D01*
X141521889Y-52261932D01*
X141370629Y-52142560D01*
X141234183Y-52035908D01*
X141107196Y-51937912D01*
X140984314Y-51844506D01*
X140860184Y-51751623D01*
X140729450Y-51655199D01*
X140586759Y-51551168D01*
X140566376Y-51536384D01*
X140525077Y-51506134D01*
X140491046Y-51480647D01*
X140470837Y-51464841D01*
X140469458Y-51463657D01*
X140449497Y-51449523D01*
X140415904Y-51428775D01*
X140394938Y-51416646D01*
X140348408Y-51390291D01*
X140301629Y-51363656D01*
X140287083Y-51355334D01*
X140178264Y-51306462D01*
X140064523Y-51280438D01*
X139950697Y-51277992D01*
X139867504Y-51292245D01*
X139811665Y-51309360D01*
X139744995Y-51333642D01*
X139671794Y-51363094D01*
X139596363Y-51395721D01*
X139523004Y-51429526D01*
X139456017Y-51462513D01*
X139399703Y-51492685D01*
X139358363Y-51518048D01*
X139336298Y-51536604D01*
X139334418Y-51539664D01*
X139319403Y-51549385D01*
X139317396Y-51549503D01*
X139302216Y-51556377D01*
X139270195Y-51574912D01*
X139226167Y-51601980D01*
X139174965Y-51634452D01*
X139121423Y-51669199D01*
X139070374Y-51703093D01*
X139026651Y-51733005D01*
X138995088Y-51755806D01*
X138982156Y-51766506D01*
X138962175Y-51782232D01*
X138953127Y-51785660D01*
X138937321Y-51794953D01*
X138907184Y-51820710D01*
X138865778Y-51859750D01*
X138816168Y-51908892D01*
X138761417Y-51964953D01*
X138704587Y-52024754D01*
X138648741Y-52085112D01*
X138596944Y-52142846D01*
X138552258Y-52194775D01*
X138517746Y-52237717D01*
X138517308Y-52238295D01*
X138489153Y-52274051D01*
X138456003Y-52314335D01*
X138447377Y-52324504D01*
X138405552Y-52373788D01*
X138377030Y-52408888D01*
X138357780Y-52435321D01*
X138343773Y-52458601D01*
X138331569Y-52482994D01*
X138317840Y-52525841D01*
X138309776Y-52577796D01*
X138308884Y-52598389D01*
X138180383Y-52598389D01*
X138185751Y-52536560D01*
X138196183Y-52505574D01*
X138211599Y-52476591D01*
X138239745Y-52431075D01*
X138277588Y-52373470D01*
X138322099Y-52308224D01*
X138370246Y-52239781D01*
X138418999Y-52172588D01*
X138463351Y-52113656D01*
X138522784Y-52042462D01*
X138597456Y-51962246D01*
X138681183Y-51879140D01*
X138767781Y-51799277D01*
X138851068Y-51728788D01*
X138853208Y-51727076D01*
X138971042Y-51638214D01*
X139097200Y-51552528D01*
X139228741Y-51471381D01*
X139362721Y-51396133D01*
X139496199Y-51328146D01*
X139626232Y-51268781D01*
X139749877Y-51219401D01*
X139864193Y-51181367D01*
X139966237Y-51156041D01*
X140053066Y-51144784D01*
X140107656Y-51146554D01*
X140143805Y-51153823D01*
X140184440Y-51167066D01*
X140231151Y-51187298D01*
X140285529Y-51215534D01*
X140349165Y-51252788D01*
X140423651Y-51300074D01*
X140510578Y-51358407D01*
X140611536Y-51428802D01*
X140728118Y-51512272D01*
X140861913Y-51609832D01*
X141014514Y-51722497D01*
X141035713Y-51738229D01*
X141101095Y-51787084D01*
X141162526Y-51833554D01*
X141215507Y-51874192D01*
X141255536Y-51905551D01*
X141275520Y-51921907D01*
X141333179Y-51970402D01*
X141396460Y-52021698D01*
X141462039Y-52073316D01*
X141526595Y-52122774D01*
X141586806Y-52167593D01*
X141639348Y-52205293D01*
X141680902Y-52233393D01*
X141708143Y-52249414D01*
X141717450Y-52251819D01*
X141717037Y-52234622D01*
X141703044Y-52198453D01*
X141676972Y-52145813D01*
X141640322Y-52079204D01*
X141594595Y-52001126D01*
X141541292Y-51914079D01*
X141481914Y-51820566D01*
X141417961Y-51723087D01*
X141350936Y-51624144D01*
X141282338Y-51526236D01*
X141280216Y-51523264D01*
X141202726Y-51419545D01*
X141118030Y-51314545D01*
X141029519Y-51211904D01*
X140940588Y-51115264D01*
X140854628Y-51028266D01*
X140775034Y-50954551D01*
X140705197Y-50897760D01*
X140682320Y-50881639D01*
X140601865Y-50827913D01*
X140653871Y-50827913D01*
X140687953Y-50832117D01*
G37*
D13*
X107320000Y-88560000D02*
G75*
G02*
X101420000Y-88560000I-2950000J0D01*
G01*
X101420000Y-88560000D02*
G75*
G02*
X107320000Y-88560000I2950000J0D01*
G01*
X106870000Y-88560000D02*
G75*
G02*
X101870000Y-88560000I-2500000J0D01*
G01*
X101870000Y-88560000D02*
G75*
G02*
X106870000Y-88560000I2500000J0D01*
G01*
X107333500Y-90160000D02*
G75*
G02*
X107206500Y-90160000I-63500J0D01*
G01*
X107206500Y-90160000D02*
G75*
G02*
X107333500Y-90160000I63500J0D01*
G01*
D11*
X137010000Y-63390000D02*
X140850000Y-63390000D01*
X137010000Y-65230000D02*
X140850000Y-65230000D01*
X124917500Y-84950000D02*
X124917500Y-85950000D01*
X124917500Y-85950000D02*
X125417500Y-85450000D01*
X125417500Y-85450000D02*
X124917500Y-84950000D01*
X125602500Y-81570000D02*
X125602500Y-99530000D01*
X125602500Y-99530000D02*
X141122500Y-99530000D01*
X141122500Y-81570000D02*
X125602500Y-81570000D01*
X141122500Y-81570000D02*
X141122500Y-99530000D01*
M02*
