G04 #@! TF.GenerationSoftware,KiCad,Pcbnew,9.0.1*
G04 #@! TF.CreationDate,2025-06-21T16:03:48-05:00*
G04 #@! TF.ProjectId,rpi 1,72706920-312e-46b6-9963-61645f706362,rev?*
G04 #@! TF.SameCoordinates,Original*
G04 #@! TF.FileFunction,Copper,L2,Bot*
G04 #@! TF.FilePolarity,Positive*
%FSLAX46Y46*%
G04 Gerber Fmt 4.6, Leading zero omitted, Abs format (unit mm)*
G04 Created by KiCad (PCBNEW 9.0.1) date 2025-06-21 16:03:48*
%MOMM*%
%LPD*%
G01*
G04 APERTURE LIST*
G04 Aperture macros list*
%AMRoundRect*
0 Rectangle with rounded corners*
0 $1 Rounding radius*
0 $2 $3 $4 $5 $6 $7 $8 $9 X,Y pos of 4 corners*
0 Add a 4 corners polygon primitive as box body*
4,1,4,$2,$3,$4,$5,$6,$7,$8,$9,$2,$3,0*
0 Add four circle primitives for the rounded corners*
1,1,$1+$1,$2,$3*
1,1,$1+$1,$4,$5*
1,1,$1+$1,$6,$7*
1,1,$1+$1,$8,$9*
0 Add four rect primitives between the rounded corners*
20,1,$1+$1,$2,$3,$4,$5,0*
20,1,$1+$1,$4,$5,$6,$7,0*
20,1,$1+$1,$6,$7,$8,$9,0*
20,1,$1+$1,$8,$9,$2,$3,0*%
G04 Aperture macros list end*
G04 #@! TA.AperFunction,ComponentPad*
%ADD10C,1.400000*%
G04 #@! TD*
G04 #@! TA.AperFunction,ComponentPad*
%ADD11O,1.400000X1.400000*%
G04 #@! TD*
G04 #@! TA.AperFunction,ComponentPad*
%ADD12C,1.600000*%
G04 #@! TD*
G04 #@! TA.AperFunction,ComponentPad*
%ADD13RoundRect,0.250000X-0.510000X-0.510000X0.510000X-0.510000X0.510000X0.510000X-0.510000X0.510000X0*%
G04 #@! TD*
G04 #@! TA.AperFunction,ComponentPad*
%ADD14C,1.520000*%
G04 #@! TD*
G04 #@! TA.AperFunction,ComponentPad*
%ADD15R,1.700000X1.700000*%
G04 #@! TD*
G04 #@! TA.AperFunction,ComponentPad*
%ADD16C,1.700000*%
G04 #@! TD*
G04 #@! TA.AperFunction,ComponentPad*
%ADD17C,1.508000*%
G04 #@! TD*
G04 #@! TA.AperFunction,ComponentPad*
%ADD18R,1.508000X1.508000*%
G04 #@! TD*
G04 #@! TA.AperFunction,ComponentPad*
%ADD19R,1.500000X1.500000*%
G04 #@! TD*
G04 #@! TA.AperFunction,ComponentPad*
%ADD20C,1.500000*%
G04 #@! TD*
G04 #@! TA.AperFunction,ComponentPad*
%ADD21O,1.700000X1.700000*%
G04 #@! TD*
G04 #@! TA.AperFunction,ViaPad*
%ADD22C,0.900000*%
G04 #@! TD*
G04 #@! TA.AperFunction,Conductor*
%ADD23C,2.000000*%
G04 #@! TD*
G04 #@! TA.AperFunction,Conductor*
%ADD24C,0.200000*%
G04 #@! TD*
G04 #@! TA.AperFunction,Conductor*
%ADD25C,1.500000*%
G04 #@! TD*
G04 #@! TA.AperFunction,Conductor*
%ADD26C,5.000000*%
G04 #@! TD*
G04 #@! TA.AperFunction,Conductor*
%ADD27C,1.000000*%
G04 #@! TD*
G04 #@! TA.AperFunction,Conductor*
%ADD28C,0.500000*%
G04 #@! TD*
G04 #@! TA.AperFunction,Conductor*
%ADD29C,0.800000*%
G04 #@! TD*
G04 #@! TA.AperFunction,Conductor*
%ADD30C,0.600000*%
G04 #@! TD*
G04 APERTURE END LIST*
D10*
X149500000Y-69620000D03*
D11*
X149500000Y-64540000D03*
D12*
X121850000Y-80725000D03*
X121850000Y-83225000D03*
X154240000Y-59120000D03*
X156740000Y-59120000D03*
D10*
X113500000Y-80710000D03*
D11*
X113500000Y-85790000D03*
D10*
X109340000Y-54000000D03*
D11*
X104260000Y-54000000D03*
D13*
X146100000Y-82910000D03*
D14*
X147370000Y-85450000D03*
X148640000Y-82910000D03*
X149910000Y-85450000D03*
X151180000Y-82910000D03*
X152450000Y-85450000D03*
D12*
X110750000Y-74250000D03*
X113250000Y-74250000D03*
X113000000Y-60250000D03*
X115500000Y-60250000D03*
D15*
X118480000Y-89600000D03*
D16*
X115940000Y-89600000D03*
X113400000Y-89600000D03*
X110860000Y-89600000D03*
D10*
X136360000Y-71630000D03*
D11*
X141440000Y-71630000D03*
D10*
X141440000Y-74010000D03*
D11*
X136360000Y-74010000D03*
D10*
X141470000Y-66500000D03*
D11*
X136390000Y-66500000D03*
D12*
X113150000Y-54000000D03*
X115650000Y-54000000D03*
D10*
X108165000Y-76550000D03*
D11*
X103085000Y-76550000D03*
D10*
X136470000Y-76550000D03*
D11*
X141550000Y-76550000D03*
D10*
X136420000Y-68780000D03*
D11*
X141500000Y-68780000D03*
D10*
X110750000Y-80750000D03*
D11*
X110750000Y-85830000D03*
D12*
X131525000Y-70400000D03*
X131525000Y-67900000D03*
D10*
X109480000Y-56800000D03*
D11*
X104400000Y-56800000D03*
D12*
X113000000Y-66500000D03*
X116500000Y-66500000D03*
D17*
X103100000Y-88560000D03*
D18*
X105640000Y-88560000D03*
D10*
X136390000Y-64310000D03*
D11*
X141470000Y-64310000D03*
D19*
X128917500Y-85450000D03*
D20*
X130187500Y-82910000D03*
X131457500Y-85450000D03*
X132727500Y-82910000D03*
X133997500Y-85450000D03*
X135267500Y-82910000D03*
X136537500Y-85450000D03*
X137807500Y-82910000D03*
D15*
X108370000Y-48770000D03*
D21*
X108370000Y-46230000D03*
X110910000Y-48770000D03*
X110910000Y-46230000D03*
X113450000Y-48770000D03*
X113450000Y-46230000D03*
X115990000Y-48770000D03*
X115990000Y-46230000D03*
X118530000Y-48770000D03*
X118530000Y-46230000D03*
X121070000Y-48770000D03*
X121070000Y-46230000D03*
X123610000Y-48770000D03*
X123610000Y-46230000D03*
X126150000Y-48770000D03*
X126150000Y-46230000D03*
X128690000Y-48770000D03*
X128690000Y-46230000D03*
X131230000Y-48770000D03*
X131230000Y-46230000D03*
X133770000Y-48770000D03*
X133770000Y-46230000D03*
X136310000Y-48770000D03*
X136310000Y-46230000D03*
X138850000Y-48770000D03*
X138850000Y-46230000D03*
X141390000Y-48770000D03*
X141390000Y-46230000D03*
X143930000Y-48770000D03*
X143930000Y-46230000D03*
X146470000Y-48770000D03*
X146470000Y-46230000D03*
X149010000Y-48770000D03*
X149010000Y-46230000D03*
X151550000Y-48770000D03*
X151550000Y-46230000D03*
X154090000Y-48770000D03*
X154090000Y-46230000D03*
X156630000Y-48770000D03*
X156630000Y-46230000D03*
D22*
X110825000Y-69600000D03*
X132750000Y-79050000D03*
X108814969Y-68486574D03*
X108130000Y-70610000D03*
D23*
X118750000Y-51250000D02*
X151300000Y-51250000D01*
X118750000Y-51250000D02*
X118530000Y-51030000D01*
X115650000Y-56425000D02*
X115650000Y-65550000D01*
X151300000Y-51250000D02*
X156010000Y-51250000D01*
D24*
X152900000Y-51250000D02*
X151300000Y-51250000D01*
D23*
X156630000Y-50630000D02*
X156630000Y-48770000D01*
X118400000Y-51250000D02*
X115650000Y-54000000D01*
X156630000Y-51780000D02*
X154735000Y-53675000D01*
X115650000Y-65550000D02*
X116400000Y-66300000D01*
X156630000Y-50630000D02*
X156630000Y-51780000D01*
X156010000Y-51250000D02*
X156630000Y-50630000D01*
X118530000Y-51030000D02*
X118530000Y-48770000D01*
X115650000Y-56425000D02*
X116800000Y-55275000D01*
X118750000Y-51250000D02*
X118400000Y-51250000D01*
D25*
X138850000Y-48770000D02*
X138850000Y-51100000D01*
D23*
X116800000Y-55275000D02*
X117550000Y-54525000D01*
X115650000Y-54000000D02*
X115650000Y-56425000D01*
D26*
X154735000Y-53675000D02*
X118400000Y-53675000D01*
D27*
X113000000Y-60250000D02*
X113000000Y-66500000D01*
X106675000Y-46325000D02*
X106675000Y-59075000D01*
X108370000Y-46230000D02*
X106830000Y-46230000D01*
X106800000Y-46200000D02*
X106675000Y-46325000D01*
D23*
X108370000Y-46230000D02*
X110910000Y-46230000D01*
D27*
X106675000Y-59075000D02*
X107850000Y-60250000D01*
X107850000Y-60250000D02*
X113000000Y-60250000D01*
D28*
X109480000Y-56800000D02*
X109480000Y-54140000D01*
X108370000Y-50970000D02*
X108370000Y-48770000D01*
X109480000Y-54140000D02*
X109340000Y-54000000D01*
X109340000Y-54000000D02*
X109340000Y-51940000D01*
X109340000Y-54000000D02*
X113150000Y-54000000D01*
X109340000Y-51940000D02*
X108370000Y-50970000D01*
D29*
X151180000Y-82910000D02*
X151180000Y-82780000D01*
X155120000Y-82780000D02*
X156740000Y-81160000D01*
X151180000Y-82780000D02*
X155120000Y-82780000D01*
D28*
X125175000Y-74250000D02*
X131525000Y-67900000D01*
X113250000Y-74250000D02*
X125175000Y-74250000D01*
D29*
X156740000Y-81160000D02*
X156740000Y-59120000D01*
X115940000Y-89600000D02*
X115940000Y-88397919D01*
X144275000Y-79025000D02*
X144275000Y-59440499D01*
X113500000Y-80710000D02*
X118543960Y-80710000D01*
X135015000Y-64310000D02*
X136390000Y-64310000D01*
X118543960Y-80710000D02*
X118543960Y-85753960D01*
X132750000Y-80677500D02*
X132750000Y-76690000D01*
X118543960Y-80710000D02*
X118558960Y-80725000D01*
X132727500Y-80700000D02*
X132750000Y-80677500D01*
X134380000Y-64945000D02*
X135015000Y-64310000D01*
X152450000Y-85450000D02*
X152450000Y-87550000D01*
X132890000Y-76550000D02*
X136470000Y-76550000D01*
X132750000Y-76690000D02*
X132890000Y-76550000D01*
D28*
X110750000Y-69675000D02*
X110825000Y-69600000D01*
D30*
X118543960Y-85753960D02*
X118543960Y-85793960D01*
D29*
X115940000Y-88397919D02*
X118543960Y-85793960D01*
X144595499Y-59120000D02*
X154240000Y-59120000D01*
X144275000Y-59440499D02*
X144595499Y-59120000D01*
X132702500Y-80725000D02*
X132727500Y-80700000D01*
X152300000Y-87700000D02*
X145400000Y-87700000D01*
X132750000Y-71625000D02*
X134380000Y-69995000D01*
D24*
X108800000Y-76200000D02*
X108070000Y-76200000D01*
D29*
X121850000Y-80725000D02*
X132702500Y-80725000D01*
D24*
X152450000Y-87550000D02*
X152300000Y-87700000D01*
D28*
X110750000Y-74250000D02*
X110750000Y-69675000D01*
D29*
X132727500Y-82960000D02*
X132727500Y-80700000D01*
X132750000Y-76690000D02*
X132750000Y-71625000D01*
X132750000Y-71625000D02*
X131525000Y-70400000D01*
D24*
X110750000Y-74250000D02*
X108800000Y-76200000D01*
D29*
X118543960Y-85793960D02*
X118543960Y-80931040D01*
X134380000Y-69995000D02*
X134380000Y-64945000D01*
X145400000Y-87700000D02*
X144275000Y-86575000D01*
X118558960Y-80725000D02*
X121850000Y-80725000D01*
X132775000Y-79025000D02*
X132750000Y-79050000D01*
X144275000Y-86575000D02*
X144275000Y-79025000D01*
X144275000Y-79025000D02*
X132775000Y-79025000D01*
D24*
X113400000Y-89600000D02*
X111500000Y-87700000D01*
X110225000Y-87700000D02*
X105375000Y-82850000D01*
X111500000Y-87700000D02*
X110225000Y-87700000D01*
X105375000Y-71995000D02*
X108814969Y-68555031D01*
X105375000Y-82850000D02*
X105375000Y-71995000D01*
X108814969Y-68555031D02*
X108814969Y-68486574D01*
X106350000Y-72390000D02*
X108130000Y-70610000D01*
X106350000Y-81430000D02*
X106350000Y-72390000D01*
X110750000Y-85830000D02*
X106350000Y-81430000D01*
M02*
