%TF.GenerationSoftware,KiCad,Pcbnew,9.0.1*%
%TF.CreationDate,2025-06-21T16:03:46-05:00*%
%TF.ProjectId,rpi 1,72706920-312e-46b6-9963-61645f706362,rev?*%
%TF.SameCoordinates,Original*%
%TF.FileFunction,Drillmap*%
%TF.FilePolarity,Positive*%
%FSLAX45Y45*%
G04 Gerber Fmt 4.5, Leading zero omitted, Abs format (unit mm)*
G04 Created by KiCad (PCBNEW 9.0.1) date 2025-06-21 16:03:46*
%MOMM*%
%LPD*%
G01*
G04 APERTURE LIST*
%ADD10C,0.100000*%
%ADD11C,0.200000*%
G04 APERTURE END LIST*
D10*
X16200000Y-4400000D02*
G75*
G02*
X16500000Y-4700000I0J-300000D01*
G01*
X16500000Y-9700000D02*
X16500000Y-4700000D01*
X10300000Y-10000000D02*
G75*
G02*
X10000000Y-9700000I0J300000D01*
G01*
X10300000Y-10000000D02*
X16200000Y-10000000D01*
X16500000Y-9700000D02*
G75*
G02*
X16200000Y-10000000I-300000J0D01*
G01*
X10000000Y-4700000D02*
G75*
G02*
X10300000Y-4400000I300000J0D01*
G01*
X10000000Y-4700000D02*
X10000000Y-9700000D01*
X16200000Y-4400000D02*
X10300000Y-4400000D01*
D11*
D10*
X10783000Y-7031000D02*
X10843000Y-7091000D01*
X10843000Y-7031000D02*
X10783000Y-7091000D01*
X10851497Y-6818657D02*
X10911497Y-6878657D01*
X10911497Y-6818657D02*
X10851497Y-6878657D01*
X11052500Y-6930000D02*
X11112500Y-6990000D01*
X11112500Y-6930000D02*
X11052500Y-6990000D01*
X13245000Y-7875000D02*
X13305000Y-7935000D01*
X13305000Y-7875000D02*
X13245000Y-7935000D01*
X10343500Y-7655000D02*
G75*
G02*
X10273500Y-7655000I-35000J0D01*
G01*
X10273500Y-7655000D02*
G75*
G02*
X10343500Y-7655000I35000J0D01*
G01*
X10461000Y-5400000D02*
G75*
G02*
X10391000Y-5400000I-35000J0D01*
G01*
X10391000Y-5400000D02*
G75*
G02*
X10461000Y-5400000I35000J0D01*
G01*
X10475000Y-5680000D02*
G75*
G02*
X10405000Y-5680000I-35000J0D01*
G01*
X10405000Y-5680000D02*
G75*
G02*
X10475000Y-5680000I35000J0D01*
G01*
X10851500Y-7655000D02*
G75*
G02*
X10781500Y-7655000I-35000J0D01*
G01*
X10781500Y-7655000D02*
G75*
G02*
X10851500Y-7655000I35000J0D01*
G01*
X10969000Y-5400000D02*
G75*
G02*
X10899000Y-5400000I-35000J0D01*
G01*
X10899000Y-5400000D02*
G75*
G02*
X10969000Y-5400000I35000J0D01*
G01*
X10983000Y-5680000D02*
G75*
G02*
X10913000Y-5680000I-35000J0D01*
G01*
X10913000Y-5680000D02*
G75*
G02*
X10983000Y-5680000I35000J0D01*
G01*
X11110000Y-8075000D02*
G75*
G02*
X11040000Y-8075000I-35000J0D01*
G01*
X11040000Y-8075000D02*
G75*
G02*
X11110000Y-8075000I35000J0D01*
G01*
X11110000Y-8583000D02*
G75*
G02*
X11040000Y-8583000I-35000J0D01*
G01*
X11040000Y-8583000D02*
G75*
G02*
X11110000Y-8583000I35000J0D01*
G01*
X11385000Y-8071000D02*
G75*
G02*
X11315000Y-8071000I-35000J0D01*
G01*
X11315000Y-8071000D02*
G75*
G02*
X11385000Y-8071000I35000J0D01*
G01*
X11385000Y-8579000D02*
G75*
G02*
X11315000Y-8579000I-35000J0D01*
G01*
X11315000Y-8579000D02*
G75*
G02*
X11385000Y-8579000I35000J0D01*
G01*
X13671000Y-7163000D02*
G75*
G02*
X13601000Y-7163000I-35000J0D01*
G01*
X13601000Y-7163000D02*
G75*
G02*
X13671000Y-7163000I35000J0D01*
G01*
X13671000Y-7401000D02*
G75*
G02*
X13601000Y-7401000I-35000J0D01*
G01*
X13601000Y-7401000D02*
G75*
G02*
X13671000Y-7401000I35000J0D01*
G01*
X13674000Y-6431000D02*
G75*
G02*
X13604000Y-6431000I-35000J0D01*
G01*
X13604000Y-6431000D02*
G75*
G02*
X13674000Y-6431000I35000J0D01*
G01*
X13674000Y-6650000D02*
G75*
G02*
X13604000Y-6650000I-35000J0D01*
G01*
X13604000Y-6650000D02*
G75*
G02*
X13674000Y-6650000I35000J0D01*
G01*
X13677000Y-6878000D02*
G75*
G02*
X13607000Y-6878000I-35000J0D01*
G01*
X13607000Y-6878000D02*
G75*
G02*
X13677000Y-6878000I35000J0D01*
G01*
X13682000Y-7655000D02*
G75*
G02*
X13612000Y-7655000I-35000J0D01*
G01*
X13612000Y-7655000D02*
G75*
G02*
X13682000Y-7655000I35000J0D01*
G01*
X14179000Y-7163000D02*
G75*
G02*
X14109000Y-7163000I-35000J0D01*
G01*
X14109000Y-7163000D02*
G75*
G02*
X14179000Y-7163000I35000J0D01*
G01*
X14179000Y-7401000D02*
G75*
G02*
X14109000Y-7401000I-35000J0D01*
G01*
X14109000Y-7401000D02*
G75*
G02*
X14179000Y-7401000I35000J0D01*
G01*
X14182000Y-6431000D02*
G75*
G02*
X14112000Y-6431000I-35000J0D01*
G01*
X14112000Y-6431000D02*
G75*
G02*
X14182000Y-6431000I35000J0D01*
G01*
X14182000Y-6650000D02*
G75*
G02*
X14112000Y-6650000I-35000J0D01*
G01*
X14112000Y-6650000D02*
G75*
G02*
X14182000Y-6650000I35000J0D01*
G01*
X14185000Y-6878000D02*
G75*
G02*
X14115000Y-6878000I-35000J0D01*
G01*
X14115000Y-6878000D02*
G75*
G02*
X14185000Y-6878000I35000J0D01*
G01*
X14190000Y-7655000D02*
G75*
G02*
X14120000Y-7655000I-35000J0D01*
G01*
X14120000Y-7655000D02*
G75*
G02*
X14190000Y-7655000I35000J0D01*
G01*
X14985000Y-6454000D02*
G75*
G02*
X14915000Y-6454000I-35000J0D01*
G01*
X14915000Y-6454000D02*
G75*
G02*
X14985000Y-6454000I35000J0D01*
G01*
X14985000Y-6962000D02*
G75*
G02*
X14915000Y-6962000I-35000J0D01*
G01*
X14915000Y-6962000D02*
G75*
G02*
X14985000Y-6962000I35000J0D01*
G01*
X12891750Y-8507000D02*
X12891750Y-8583000D01*
X12853750Y-8545000D02*
X12929750Y-8545000D01*
X13018750Y-8253000D02*
X13018750Y-8329000D01*
X12980750Y-8291000D02*
X13056750Y-8291000D01*
X13145750Y-8507000D02*
X13145750Y-8583000D01*
X13107750Y-8545000D02*
X13183750Y-8545000D01*
X13272750Y-8253000D02*
X13272750Y-8329000D01*
X13234750Y-8291000D02*
X13310750Y-8291000D01*
X13399750Y-8507000D02*
X13399750Y-8583000D01*
X13361750Y-8545000D02*
X13437750Y-8545000D01*
X13526750Y-8253000D02*
X13526750Y-8329000D01*
X13488750Y-8291000D02*
X13564750Y-8291000D01*
X13653750Y-8507000D02*
X13653750Y-8583000D01*
X13615750Y-8545000D02*
X13691750Y-8545000D01*
X13780750Y-8253000D02*
X13780750Y-8329000D01*
X13742750Y-8291000D02*
X13818750Y-8291000D01*
X14610000Y-8253000D02*
X14610000Y-8329000D01*
X14572000Y-8291000D02*
X14648000Y-8291000D01*
X14737000Y-8507000D02*
X14737000Y-8583000D01*
X14699000Y-8545000D02*
X14775000Y-8545000D01*
X14864000Y-8253000D02*
X14864000Y-8329000D01*
X14826000Y-8291000D02*
X14902000Y-8291000D01*
X14991000Y-8507000D02*
X14991000Y-8583000D01*
X14953000Y-8545000D02*
X15029000Y-8545000D01*
X15118000Y-8253000D02*
X15118000Y-8329000D01*
X15080000Y-8291000D02*
X15156000Y-8291000D01*
X15245000Y-8507000D02*
X15245000Y-8583000D01*
X15207000Y-8545000D02*
X15283000Y-8545000D01*
X11103285Y-7453284D02*
X11103285Y-7396715D01*
X11046716Y-7396715D01*
X11046716Y-7453284D01*
X11103285Y-7453284D01*
X11328284Y-6053284D02*
X11328284Y-5996715D01*
X11271715Y-5996715D01*
X11271715Y-6053284D01*
X11328284Y-6053284D01*
X11328284Y-6678284D02*
X11328284Y-6621715D01*
X11271715Y-6621715D01*
X11271715Y-6678284D01*
X11328284Y-6678284D01*
X11343284Y-5428285D02*
X11343284Y-5371716D01*
X11286715Y-5371716D01*
X11286715Y-5428285D01*
X11343284Y-5428285D01*
X11353284Y-7453284D02*
X11353284Y-7396715D01*
X11296715Y-7396715D01*
X11296715Y-7453284D01*
X11353284Y-7453284D01*
X11578284Y-6053284D02*
X11578284Y-5996715D01*
X11521715Y-5996715D01*
X11521715Y-6053284D01*
X11578284Y-6053284D01*
X11593284Y-5428285D02*
X11593284Y-5371716D01*
X11536715Y-5371716D01*
X11536715Y-5428285D01*
X11593284Y-5428285D01*
X11678284Y-6678284D02*
X11678284Y-6621715D01*
X11621715Y-6621715D01*
X11621715Y-6678284D01*
X11678284Y-6678284D01*
X12213284Y-8100784D02*
X12213284Y-8044215D01*
X12156715Y-8044215D01*
X12156715Y-8100784D01*
X12213284Y-8100784D01*
X12213284Y-8350784D02*
X12213284Y-8294215D01*
X12156715Y-8294215D01*
X12156715Y-8350784D01*
X12213284Y-8350784D01*
X13180784Y-6818284D02*
X13180784Y-6761715D01*
X13124215Y-6761715D01*
X13124215Y-6818284D01*
X13180784Y-6818284D01*
X13180784Y-7068284D02*
X13180784Y-7011715D01*
X13124215Y-7011715D01*
X13124215Y-7068284D01*
X13180784Y-7068284D01*
X15452284Y-5940284D02*
X15452284Y-5883715D01*
X15395715Y-5883715D01*
X15395715Y-5940284D01*
X15452284Y-5940284D01*
X15702284Y-5940284D02*
X15702284Y-5883715D01*
X15645715Y-5883715D01*
X15645715Y-5940284D01*
X15702284Y-5940284D01*
X10310000Y-8906000D02*
X10360000Y-8856000D01*
X10310000Y-8806000D01*
X10260000Y-8856000D01*
X10310000Y-8906000D01*
X10564000Y-8906000D02*
X10614000Y-8856000D01*
X10564000Y-8806000D01*
X10514000Y-8856000D01*
X10564000Y-8906000D01*
X10837000Y-4673000D02*
X10887000Y-4623000D01*
X10837000Y-4573000D01*
X10787000Y-4623000D01*
X10837000Y-4673000D01*
X10837000Y-4927000D02*
X10887000Y-4877000D01*
X10837000Y-4827000D01*
X10787000Y-4877000D01*
X10837000Y-4927000D01*
X11086000Y-9010000D02*
X11136000Y-8960000D01*
X11086000Y-8910000D01*
X11036000Y-8960000D01*
X11086000Y-9010000D01*
X11091000Y-4673000D02*
X11141000Y-4623000D01*
X11091000Y-4573000D01*
X11041000Y-4623000D01*
X11091000Y-4673000D01*
X11091000Y-4927000D02*
X11141000Y-4877000D01*
X11091000Y-4827000D01*
X11041000Y-4877000D01*
X11091000Y-4927000D01*
X11340000Y-9010000D02*
X11390000Y-8960000D01*
X11340000Y-8910000D01*
X11290000Y-8960000D01*
X11340000Y-9010000D01*
X11345000Y-4673000D02*
X11395000Y-4623000D01*
X11345000Y-4573000D01*
X11295000Y-4623000D01*
X11345000Y-4673000D01*
X11345000Y-4927000D02*
X11395000Y-4877000D01*
X11345000Y-4827000D01*
X11295000Y-4877000D01*
X11345000Y-4927000D01*
X11594000Y-9010000D02*
X11644000Y-8960000D01*
X11594000Y-8910000D01*
X11544000Y-8960000D01*
X11594000Y-9010000D01*
X11599000Y-4673000D02*
X11649000Y-4623000D01*
X11599000Y-4573000D01*
X11549000Y-4623000D01*
X11599000Y-4673000D01*
X11599000Y-4927000D02*
X11649000Y-4877000D01*
X11599000Y-4827000D01*
X11549000Y-4877000D01*
X11599000Y-4927000D01*
X11848000Y-9010000D02*
X11898000Y-8960000D01*
X11848000Y-8910000D01*
X11798000Y-8960000D01*
X11848000Y-9010000D01*
X11853000Y-4673000D02*
X11903000Y-4623000D01*
X11853000Y-4573000D01*
X11803000Y-4623000D01*
X11853000Y-4673000D01*
X11853000Y-4927000D02*
X11903000Y-4877000D01*
X11853000Y-4827000D01*
X11803000Y-4877000D01*
X11853000Y-4927000D01*
X12107000Y-4673000D02*
X12157000Y-4623000D01*
X12107000Y-4573000D01*
X12057000Y-4623000D01*
X12107000Y-4673000D01*
X12107000Y-4927000D02*
X12157000Y-4877000D01*
X12107000Y-4827000D01*
X12057000Y-4877000D01*
X12107000Y-4927000D01*
X12361000Y-4673000D02*
X12411000Y-4623000D01*
X12361000Y-4573000D01*
X12311000Y-4623000D01*
X12361000Y-4673000D01*
X12361000Y-4927000D02*
X12411000Y-4877000D01*
X12361000Y-4827000D01*
X12311000Y-4877000D01*
X12361000Y-4927000D01*
X12615000Y-4673000D02*
X12665000Y-4623000D01*
X12615000Y-4573000D01*
X12565000Y-4623000D01*
X12615000Y-4673000D01*
X12615000Y-4927000D02*
X12665000Y-4877000D01*
X12615000Y-4827000D01*
X12565000Y-4877000D01*
X12615000Y-4927000D01*
X12869000Y-4673000D02*
X12919000Y-4623000D01*
X12869000Y-4573000D01*
X12819000Y-4623000D01*
X12869000Y-4673000D01*
X12869000Y-4927000D02*
X12919000Y-4877000D01*
X12869000Y-4827000D01*
X12819000Y-4877000D01*
X12869000Y-4927000D01*
X13123000Y-4673000D02*
X13173000Y-4623000D01*
X13123000Y-4573000D01*
X13073000Y-4623000D01*
X13123000Y-4673000D01*
X13123000Y-4927000D02*
X13173000Y-4877000D01*
X13123000Y-4827000D01*
X13073000Y-4877000D01*
X13123000Y-4927000D01*
X13377000Y-4673000D02*
X13427000Y-4623000D01*
X13377000Y-4573000D01*
X13327000Y-4623000D01*
X13377000Y-4673000D01*
X13377000Y-4927000D02*
X13427000Y-4877000D01*
X13377000Y-4827000D01*
X13327000Y-4877000D01*
X13377000Y-4927000D01*
X13631000Y-4673000D02*
X13681000Y-4623000D01*
X13631000Y-4573000D01*
X13581000Y-4623000D01*
X13631000Y-4673000D01*
X13631000Y-4927000D02*
X13681000Y-4877000D01*
X13631000Y-4827000D01*
X13581000Y-4877000D01*
X13631000Y-4927000D01*
X13885000Y-4673000D02*
X13935000Y-4623000D01*
X13885000Y-4573000D01*
X13835000Y-4623000D01*
X13885000Y-4673000D01*
X13885000Y-4927000D02*
X13935000Y-4877000D01*
X13885000Y-4827000D01*
X13835000Y-4877000D01*
X13885000Y-4927000D01*
X14139000Y-4673000D02*
X14189000Y-4623000D01*
X14139000Y-4573000D01*
X14089000Y-4623000D01*
X14139000Y-4673000D01*
X14139000Y-4927000D02*
X14189000Y-4877000D01*
X14139000Y-4827000D01*
X14089000Y-4877000D01*
X14139000Y-4927000D01*
X14393000Y-4673000D02*
X14443000Y-4623000D01*
X14393000Y-4573000D01*
X14343000Y-4623000D01*
X14393000Y-4673000D01*
X14393000Y-4927000D02*
X14443000Y-4877000D01*
X14393000Y-4827000D01*
X14343000Y-4877000D01*
X14393000Y-4927000D01*
X14647000Y-4673000D02*
X14697000Y-4623000D01*
X14647000Y-4573000D01*
X14597000Y-4623000D01*
X14647000Y-4673000D01*
X14647000Y-4927000D02*
X14697000Y-4877000D01*
X14647000Y-4827000D01*
X14597000Y-4877000D01*
X14647000Y-4927000D01*
X14901000Y-4673000D02*
X14951000Y-4623000D01*
X14901000Y-4573000D01*
X14851000Y-4623000D01*
X14901000Y-4673000D01*
X14901000Y-4927000D02*
X14951000Y-4877000D01*
X14901000Y-4827000D01*
X14851000Y-4877000D01*
X14901000Y-4927000D01*
X15155000Y-4673000D02*
X15205000Y-4623000D01*
X15155000Y-4573000D01*
X15105000Y-4623000D01*
X15155000Y-4673000D01*
X15155000Y-4927000D02*
X15205000Y-4877000D01*
X15155000Y-4827000D01*
X15105000Y-4877000D01*
X15155000Y-4927000D01*
X15409000Y-4673000D02*
X15459000Y-4623000D01*
X15409000Y-4573000D01*
X15359000Y-4623000D01*
X15409000Y-4673000D01*
X15409000Y-4927000D02*
X15459000Y-4877000D01*
X15409000Y-4827000D01*
X15359000Y-4877000D01*
X15409000Y-4927000D01*
X15663000Y-4673000D02*
X15713000Y-4623000D01*
X15663000Y-4573000D01*
X15613000Y-4623000D01*
X15663000Y-4673000D01*
X15663000Y-4927000D02*
X15713000Y-4877000D01*
X15663000Y-4827000D01*
X15613000Y-4877000D01*
X15663000Y-4927000D01*
D11*
X10255777Y-10316484D02*
X10255777Y-10116484D01*
X10255777Y-10116484D02*
X10303396Y-10116484D01*
X10303396Y-10116484D02*
X10331967Y-10126008D01*
X10331967Y-10126008D02*
X10351015Y-10145055D01*
X10351015Y-10145055D02*
X10360539Y-10164103D01*
X10360539Y-10164103D02*
X10370063Y-10202198D01*
X10370063Y-10202198D02*
X10370063Y-10230770D01*
X10370063Y-10230770D02*
X10360539Y-10268865D01*
X10360539Y-10268865D02*
X10351015Y-10287912D01*
X10351015Y-10287912D02*
X10331967Y-10306960D01*
X10331967Y-10306960D02*
X10303396Y-10316484D01*
X10303396Y-10316484D02*
X10255777Y-10316484D01*
X10455777Y-10316484D02*
X10455777Y-10183150D01*
X10455777Y-10221246D02*
X10465301Y-10202198D01*
X10465301Y-10202198D02*
X10474824Y-10192674D01*
X10474824Y-10192674D02*
X10493872Y-10183150D01*
X10493872Y-10183150D02*
X10512920Y-10183150D01*
X10579586Y-10316484D02*
X10579586Y-10183150D01*
X10579586Y-10116484D02*
X10570063Y-10126008D01*
X10570063Y-10126008D02*
X10579586Y-10135531D01*
X10579586Y-10135531D02*
X10589110Y-10126008D01*
X10589110Y-10126008D02*
X10579586Y-10116484D01*
X10579586Y-10116484D02*
X10579586Y-10135531D01*
X10703396Y-10316484D02*
X10684348Y-10306960D01*
X10684348Y-10306960D02*
X10674824Y-10287912D01*
X10674824Y-10287912D02*
X10674824Y-10116484D01*
X10808158Y-10316484D02*
X10789110Y-10306960D01*
X10789110Y-10306960D02*
X10779586Y-10287912D01*
X10779586Y-10287912D02*
X10779586Y-10116484D01*
X11036729Y-10316484D02*
X11036729Y-10116484D01*
X11036729Y-10116484D02*
X11103396Y-10259341D01*
X11103396Y-10259341D02*
X11170063Y-10116484D01*
X11170063Y-10116484D02*
X11170063Y-10316484D01*
X11351015Y-10316484D02*
X11351015Y-10211722D01*
X11351015Y-10211722D02*
X11341491Y-10192674D01*
X11341491Y-10192674D02*
X11322443Y-10183150D01*
X11322443Y-10183150D02*
X11284348Y-10183150D01*
X11284348Y-10183150D02*
X11265301Y-10192674D01*
X11351015Y-10306960D02*
X11331967Y-10316484D01*
X11331967Y-10316484D02*
X11284348Y-10316484D01*
X11284348Y-10316484D02*
X11265301Y-10306960D01*
X11265301Y-10306960D02*
X11255777Y-10287912D01*
X11255777Y-10287912D02*
X11255777Y-10268865D01*
X11255777Y-10268865D02*
X11265301Y-10249817D01*
X11265301Y-10249817D02*
X11284348Y-10240293D01*
X11284348Y-10240293D02*
X11331967Y-10240293D01*
X11331967Y-10240293D02*
X11351015Y-10230770D01*
X11446253Y-10183150D02*
X11446253Y-10383150D01*
X11446253Y-10192674D02*
X11465301Y-10183150D01*
X11465301Y-10183150D02*
X11503396Y-10183150D01*
X11503396Y-10183150D02*
X11522443Y-10192674D01*
X11522443Y-10192674D02*
X11531967Y-10202198D01*
X11531967Y-10202198D02*
X11541491Y-10221246D01*
X11541491Y-10221246D02*
X11541491Y-10278389D01*
X11541491Y-10278389D02*
X11531967Y-10297436D01*
X11531967Y-10297436D02*
X11522443Y-10306960D01*
X11522443Y-10306960D02*
X11503396Y-10316484D01*
X11503396Y-10316484D02*
X11465301Y-10316484D01*
X11465301Y-10316484D02*
X11446253Y-10306960D01*
X11627205Y-10297436D02*
X11636729Y-10306960D01*
X11636729Y-10306960D02*
X11627205Y-10316484D01*
X11627205Y-10316484D02*
X11617682Y-10306960D01*
X11617682Y-10306960D02*
X11627205Y-10297436D01*
X11627205Y-10297436D02*
X11627205Y-10316484D01*
X11627205Y-10192674D02*
X11636729Y-10202198D01*
X11636729Y-10202198D02*
X11627205Y-10211722D01*
X11627205Y-10211722D02*
X11617682Y-10202198D01*
X11617682Y-10202198D02*
X11627205Y-10192674D01*
X11627205Y-10192674D02*
X11627205Y-10211722D01*
D10*
X9935000Y-10615000D02*
X9995000Y-10675000D01*
X9995000Y-10615000D02*
X9935000Y-10675000D01*
D11*
X10293872Y-10536484D02*
X10312920Y-10536484D01*
X10312920Y-10536484D02*
X10331967Y-10546008D01*
X10331967Y-10546008D02*
X10341491Y-10555531D01*
X10341491Y-10555531D02*
X10351015Y-10574579D01*
X10351015Y-10574579D02*
X10360539Y-10612674D01*
X10360539Y-10612674D02*
X10360539Y-10660293D01*
X10360539Y-10660293D02*
X10351015Y-10698389D01*
X10351015Y-10698389D02*
X10341491Y-10717436D01*
X10341491Y-10717436D02*
X10331967Y-10726960D01*
X10331967Y-10726960D02*
X10312920Y-10736484D01*
X10312920Y-10736484D02*
X10293872Y-10736484D01*
X10293872Y-10736484D02*
X10274824Y-10726960D01*
X10274824Y-10726960D02*
X10265301Y-10717436D01*
X10265301Y-10717436D02*
X10255777Y-10698389D01*
X10255777Y-10698389D02*
X10246253Y-10660293D01*
X10246253Y-10660293D02*
X10246253Y-10612674D01*
X10246253Y-10612674D02*
X10255777Y-10574579D01*
X10255777Y-10574579D02*
X10265301Y-10555531D01*
X10265301Y-10555531D02*
X10274824Y-10546008D01*
X10274824Y-10546008D02*
X10293872Y-10536484D01*
X10446253Y-10717436D02*
X10455777Y-10726960D01*
X10455777Y-10726960D02*
X10446253Y-10736484D01*
X10446253Y-10736484D02*
X10436729Y-10726960D01*
X10436729Y-10726960D02*
X10446253Y-10717436D01*
X10446253Y-10717436D02*
X10446253Y-10736484D01*
X10627205Y-10536484D02*
X10589110Y-10536484D01*
X10589110Y-10536484D02*
X10570063Y-10546008D01*
X10570063Y-10546008D02*
X10560539Y-10555531D01*
X10560539Y-10555531D02*
X10541491Y-10584103D01*
X10541491Y-10584103D02*
X10531967Y-10622198D01*
X10531967Y-10622198D02*
X10531967Y-10698389D01*
X10531967Y-10698389D02*
X10541491Y-10717436D01*
X10541491Y-10717436D02*
X10551015Y-10726960D01*
X10551015Y-10726960D02*
X10570063Y-10736484D01*
X10570063Y-10736484D02*
X10608158Y-10736484D01*
X10608158Y-10736484D02*
X10627205Y-10726960D01*
X10627205Y-10726960D02*
X10636729Y-10717436D01*
X10636729Y-10717436D02*
X10646253Y-10698389D01*
X10646253Y-10698389D02*
X10646253Y-10650770D01*
X10646253Y-10650770D02*
X10636729Y-10631722D01*
X10636729Y-10631722D02*
X10627205Y-10622198D01*
X10627205Y-10622198D02*
X10608158Y-10612674D01*
X10608158Y-10612674D02*
X10570063Y-10612674D01*
X10570063Y-10612674D02*
X10551015Y-10622198D01*
X10551015Y-10622198D02*
X10541491Y-10631722D01*
X10541491Y-10631722D02*
X10531967Y-10650770D01*
X10770063Y-10536484D02*
X10789110Y-10536484D01*
X10789110Y-10536484D02*
X10808158Y-10546008D01*
X10808158Y-10546008D02*
X10817682Y-10555531D01*
X10817682Y-10555531D02*
X10827205Y-10574579D01*
X10827205Y-10574579D02*
X10836729Y-10612674D01*
X10836729Y-10612674D02*
X10836729Y-10660293D01*
X10836729Y-10660293D02*
X10827205Y-10698389D01*
X10827205Y-10698389D02*
X10817682Y-10717436D01*
X10817682Y-10717436D02*
X10808158Y-10726960D01*
X10808158Y-10726960D02*
X10789110Y-10736484D01*
X10789110Y-10736484D02*
X10770063Y-10736484D01*
X10770063Y-10736484D02*
X10751015Y-10726960D01*
X10751015Y-10726960D02*
X10741491Y-10717436D01*
X10741491Y-10717436D02*
X10731967Y-10698389D01*
X10731967Y-10698389D02*
X10722444Y-10660293D01*
X10722444Y-10660293D02*
X10722444Y-10612674D01*
X10722444Y-10612674D02*
X10731967Y-10574579D01*
X10731967Y-10574579D02*
X10741491Y-10555531D01*
X10741491Y-10555531D02*
X10751015Y-10546008D01*
X10751015Y-10546008D02*
X10770063Y-10536484D01*
X10960539Y-10536484D02*
X10979586Y-10536484D01*
X10979586Y-10536484D02*
X10998634Y-10546008D01*
X10998634Y-10546008D02*
X11008158Y-10555531D01*
X11008158Y-10555531D02*
X11017682Y-10574579D01*
X11017682Y-10574579D02*
X11027205Y-10612674D01*
X11027205Y-10612674D02*
X11027205Y-10660293D01*
X11027205Y-10660293D02*
X11017682Y-10698389D01*
X11017682Y-10698389D02*
X11008158Y-10717436D01*
X11008158Y-10717436D02*
X10998634Y-10726960D01*
X10998634Y-10726960D02*
X10979586Y-10736484D01*
X10979586Y-10736484D02*
X10960539Y-10736484D01*
X10960539Y-10736484D02*
X10941491Y-10726960D01*
X10941491Y-10726960D02*
X10931967Y-10717436D01*
X10931967Y-10717436D02*
X10922444Y-10698389D01*
X10922444Y-10698389D02*
X10912920Y-10660293D01*
X10912920Y-10660293D02*
X10912920Y-10612674D01*
X10912920Y-10612674D02*
X10922444Y-10574579D01*
X10922444Y-10574579D02*
X10931967Y-10555531D01*
X10931967Y-10555531D02*
X10941491Y-10546008D01*
X10941491Y-10546008D02*
X10960539Y-10536484D01*
X11112920Y-10736484D02*
X11112920Y-10603150D01*
X11112920Y-10622198D02*
X11122444Y-10612674D01*
X11122444Y-10612674D02*
X11141491Y-10603150D01*
X11141491Y-10603150D02*
X11170063Y-10603150D01*
X11170063Y-10603150D02*
X11189110Y-10612674D01*
X11189110Y-10612674D02*
X11198634Y-10631722D01*
X11198634Y-10631722D02*
X11198634Y-10736484D01*
X11198634Y-10631722D02*
X11208158Y-10612674D01*
X11208158Y-10612674D02*
X11227205Y-10603150D01*
X11227205Y-10603150D02*
X11255777Y-10603150D01*
X11255777Y-10603150D02*
X11274824Y-10612674D01*
X11274824Y-10612674D02*
X11284348Y-10631722D01*
X11284348Y-10631722D02*
X11284348Y-10736484D01*
X11379586Y-10736484D02*
X11379586Y-10603150D01*
X11379586Y-10622198D02*
X11389110Y-10612674D01*
X11389110Y-10612674D02*
X11408158Y-10603150D01*
X11408158Y-10603150D02*
X11436729Y-10603150D01*
X11436729Y-10603150D02*
X11455777Y-10612674D01*
X11455777Y-10612674D02*
X11465301Y-10631722D01*
X11465301Y-10631722D02*
X11465301Y-10736484D01*
X11465301Y-10631722D02*
X11474824Y-10612674D01*
X11474824Y-10612674D02*
X11493872Y-10603150D01*
X11493872Y-10603150D02*
X11522443Y-10603150D01*
X11522443Y-10603150D02*
X11541491Y-10612674D01*
X11541491Y-10612674D02*
X11551015Y-10631722D01*
X11551015Y-10631722D02*
X11551015Y-10736484D01*
X11941491Y-10526960D02*
X11770063Y-10784103D01*
X12198634Y-10536484D02*
X12217682Y-10536484D01*
X12217682Y-10536484D02*
X12236729Y-10546008D01*
X12236729Y-10546008D02*
X12246253Y-10555531D01*
X12246253Y-10555531D02*
X12255777Y-10574579D01*
X12255777Y-10574579D02*
X12265301Y-10612674D01*
X12265301Y-10612674D02*
X12265301Y-10660293D01*
X12265301Y-10660293D02*
X12255777Y-10698389D01*
X12255777Y-10698389D02*
X12246253Y-10717436D01*
X12246253Y-10717436D02*
X12236729Y-10726960D01*
X12236729Y-10726960D02*
X12217682Y-10736484D01*
X12217682Y-10736484D02*
X12198634Y-10736484D01*
X12198634Y-10736484D02*
X12179586Y-10726960D01*
X12179586Y-10726960D02*
X12170063Y-10717436D01*
X12170063Y-10717436D02*
X12160539Y-10698389D01*
X12160539Y-10698389D02*
X12151015Y-10660293D01*
X12151015Y-10660293D02*
X12151015Y-10612674D01*
X12151015Y-10612674D02*
X12160539Y-10574579D01*
X12160539Y-10574579D02*
X12170063Y-10555531D01*
X12170063Y-10555531D02*
X12179586Y-10546008D01*
X12179586Y-10546008D02*
X12198634Y-10536484D01*
X12351015Y-10717436D02*
X12360539Y-10726960D01*
X12360539Y-10726960D02*
X12351015Y-10736484D01*
X12351015Y-10736484D02*
X12341491Y-10726960D01*
X12341491Y-10726960D02*
X12351015Y-10717436D01*
X12351015Y-10717436D02*
X12351015Y-10736484D01*
X12484348Y-10536484D02*
X12503396Y-10536484D01*
X12503396Y-10536484D02*
X12522444Y-10546008D01*
X12522444Y-10546008D02*
X12531967Y-10555531D01*
X12531967Y-10555531D02*
X12541491Y-10574579D01*
X12541491Y-10574579D02*
X12551015Y-10612674D01*
X12551015Y-10612674D02*
X12551015Y-10660293D01*
X12551015Y-10660293D02*
X12541491Y-10698389D01*
X12541491Y-10698389D02*
X12531967Y-10717436D01*
X12531967Y-10717436D02*
X12522444Y-10726960D01*
X12522444Y-10726960D02*
X12503396Y-10736484D01*
X12503396Y-10736484D02*
X12484348Y-10736484D01*
X12484348Y-10736484D02*
X12465301Y-10726960D01*
X12465301Y-10726960D02*
X12455777Y-10717436D01*
X12455777Y-10717436D02*
X12446253Y-10698389D01*
X12446253Y-10698389D02*
X12436729Y-10660293D01*
X12436729Y-10660293D02*
X12436729Y-10612674D01*
X12436729Y-10612674D02*
X12446253Y-10574579D01*
X12446253Y-10574579D02*
X12455777Y-10555531D01*
X12455777Y-10555531D02*
X12465301Y-10546008D01*
X12465301Y-10546008D02*
X12484348Y-10536484D01*
X12627206Y-10555531D02*
X12636729Y-10546008D01*
X12636729Y-10546008D02*
X12655777Y-10536484D01*
X12655777Y-10536484D02*
X12703396Y-10536484D01*
X12703396Y-10536484D02*
X12722444Y-10546008D01*
X12722444Y-10546008D02*
X12731967Y-10555531D01*
X12731967Y-10555531D02*
X12741491Y-10574579D01*
X12741491Y-10574579D02*
X12741491Y-10593627D01*
X12741491Y-10593627D02*
X12731967Y-10622198D01*
X12731967Y-10622198D02*
X12617682Y-10736484D01*
X12617682Y-10736484D02*
X12741491Y-10736484D01*
X12808158Y-10536484D02*
X12931967Y-10536484D01*
X12931967Y-10536484D02*
X12865301Y-10612674D01*
X12865301Y-10612674D02*
X12893872Y-10612674D01*
X12893872Y-10612674D02*
X12912920Y-10622198D01*
X12912920Y-10622198D02*
X12922444Y-10631722D01*
X12922444Y-10631722D02*
X12931967Y-10650770D01*
X12931967Y-10650770D02*
X12931967Y-10698389D01*
X12931967Y-10698389D02*
X12922444Y-10717436D01*
X12922444Y-10717436D02*
X12912920Y-10726960D01*
X12912920Y-10726960D02*
X12893872Y-10736484D01*
X12893872Y-10736484D02*
X12836729Y-10736484D01*
X12836729Y-10736484D02*
X12817682Y-10726960D01*
X12817682Y-10726960D02*
X12808158Y-10717436D01*
X13103396Y-10536484D02*
X13065301Y-10536484D01*
X13065301Y-10536484D02*
X13046253Y-10546008D01*
X13046253Y-10546008D02*
X13036729Y-10555531D01*
X13036729Y-10555531D02*
X13017682Y-10584103D01*
X13017682Y-10584103D02*
X13008158Y-10622198D01*
X13008158Y-10622198D02*
X13008158Y-10698389D01*
X13008158Y-10698389D02*
X13017682Y-10717436D01*
X13017682Y-10717436D02*
X13027206Y-10726960D01*
X13027206Y-10726960D02*
X13046253Y-10736484D01*
X13046253Y-10736484D02*
X13084348Y-10736484D01*
X13084348Y-10736484D02*
X13103396Y-10726960D01*
X13103396Y-10726960D02*
X13112920Y-10717436D01*
X13112920Y-10717436D02*
X13122444Y-10698389D01*
X13122444Y-10698389D02*
X13122444Y-10650770D01*
X13122444Y-10650770D02*
X13112920Y-10631722D01*
X13112920Y-10631722D02*
X13103396Y-10622198D01*
X13103396Y-10622198D02*
X13084348Y-10612674D01*
X13084348Y-10612674D02*
X13046253Y-10612674D01*
X13046253Y-10612674D02*
X13027206Y-10622198D01*
X13027206Y-10622198D02*
X13017682Y-10631722D01*
X13017682Y-10631722D02*
X13008158Y-10650770D01*
X13198634Y-10536484D02*
X13198634Y-10574579D01*
X13274825Y-10536484D02*
X13274825Y-10574579D01*
X13570063Y-10812674D02*
X13560539Y-10803150D01*
X13560539Y-10803150D02*
X13541491Y-10774579D01*
X13541491Y-10774579D02*
X13531968Y-10755531D01*
X13531968Y-10755531D02*
X13522444Y-10726960D01*
X13522444Y-10726960D02*
X13512920Y-10679341D01*
X13512920Y-10679341D02*
X13512920Y-10641246D01*
X13512920Y-10641246D02*
X13522444Y-10593627D01*
X13522444Y-10593627D02*
X13531968Y-10565055D01*
X13531968Y-10565055D02*
X13541491Y-10546008D01*
X13541491Y-10546008D02*
X13560539Y-10517436D01*
X13560539Y-10517436D02*
X13570063Y-10507912D01*
X13731968Y-10603150D02*
X13731968Y-10736484D01*
X13684348Y-10526960D02*
X13636729Y-10669817D01*
X13636729Y-10669817D02*
X13760539Y-10669817D01*
X13989110Y-10736484D02*
X13989110Y-10536484D01*
X14074825Y-10736484D02*
X14074825Y-10631722D01*
X14074825Y-10631722D02*
X14065301Y-10612674D01*
X14065301Y-10612674D02*
X14046253Y-10603150D01*
X14046253Y-10603150D02*
X14017682Y-10603150D01*
X14017682Y-10603150D02*
X13998634Y-10612674D01*
X13998634Y-10612674D02*
X13989110Y-10622198D01*
X14198634Y-10736484D02*
X14179587Y-10726960D01*
X14179587Y-10726960D02*
X14170063Y-10717436D01*
X14170063Y-10717436D02*
X14160539Y-10698389D01*
X14160539Y-10698389D02*
X14160539Y-10641246D01*
X14160539Y-10641246D02*
X14170063Y-10622198D01*
X14170063Y-10622198D02*
X14179587Y-10612674D01*
X14179587Y-10612674D02*
X14198634Y-10603150D01*
X14198634Y-10603150D02*
X14227206Y-10603150D01*
X14227206Y-10603150D02*
X14246253Y-10612674D01*
X14246253Y-10612674D02*
X14255777Y-10622198D01*
X14255777Y-10622198D02*
X14265301Y-10641246D01*
X14265301Y-10641246D02*
X14265301Y-10698389D01*
X14265301Y-10698389D02*
X14255777Y-10717436D01*
X14255777Y-10717436D02*
X14246253Y-10726960D01*
X14246253Y-10726960D02*
X14227206Y-10736484D01*
X14227206Y-10736484D02*
X14198634Y-10736484D01*
X14379587Y-10736484D02*
X14360539Y-10726960D01*
X14360539Y-10726960D02*
X14351015Y-10707912D01*
X14351015Y-10707912D02*
X14351015Y-10536484D01*
X14531968Y-10726960D02*
X14512920Y-10736484D01*
X14512920Y-10736484D02*
X14474825Y-10736484D01*
X14474825Y-10736484D02*
X14455777Y-10726960D01*
X14455777Y-10726960D02*
X14446253Y-10707912D01*
X14446253Y-10707912D02*
X14446253Y-10631722D01*
X14446253Y-10631722D02*
X14455777Y-10612674D01*
X14455777Y-10612674D02*
X14474825Y-10603150D01*
X14474825Y-10603150D02*
X14512920Y-10603150D01*
X14512920Y-10603150D02*
X14531968Y-10612674D01*
X14531968Y-10612674D02*
X14541491Y-10631722D01*
X14541491Y-10631722D02*
X14541491Y-10650770D01*
X14541491Y-10650770D02*
X14446253Y-10669817D01*
X14617682Y-10726960D02*
X14636730Y-10736484D01*
X14636730Y-10736484D02*
X14674825Y-10736484D01*
X14674825Y-10736484D02*
X14693872Y-10726960D01*
X14693872Y-10726960D02*
X14703396Y-10707912D01*
X14703396Y-10707912D02*
X14703396Y-10698389D01*
X14703396Y-10698389D02*
X14693872Y-10679341D01*
X14693872Y-10679341D02*
X14674825Y-10669817D01*
X14674825Y-10669817D02*
X14646253Y-10669817D01*
X14646253Y-10669817D02*
X14627206Y-10660293D01*
X14627206Y-10660293D02*
X14617682Y-10641246D01*
X14617682Y-10641246D02*
X14617682Y-10631722D01*
X14617682Y-10631722D02*
X14627206Y-10612674D01*
X14627206Y-10612674D02*
X14646253Y-10603150D01*
X14646253Y-10603150D02*
X14674825Y-10603150D01*
X14674825Y-10603150D02*
X14693872Y-10612674D01*
X14770063Y-10812674D02*
X14779587Y-10803150D01*
X14779587Y-10803150D02*
X14798634Y-10774579D01*
X14798634Y-10774579D02*
X14808158Y-10755531D01*
X14808158Y-10755531D02*
X14817682Y-10726960D01*
X14817682Y-10726960D02*
X14827206Y-10679341D01*
X14827206Y-10679341D02*
X14827206Y-10641246D01*
X14827206Y-10641246D02*
X14817682Y-10593627D01*
X14817682Y-10593627D02*
X14808158Y-10565055D01*
X14808158Y-10565055D02*
X14798634Y-10546008D01*
X14798634Y-10546008D02*
X14779587Y-10517436D01*
X14779587Y-10517436D02*
X14770063Y-10507912D01*
D10*
X9995000Y-10909000D02*
G75*
G02*
X9925000Y-10909000I-35000J0D01*
G01*
X9925000Y-10909000D02*
G75*
G02*
X9995000Y-10909000I35000J0D01*
G01*
D11*
X10293872Y-10800484D02*
X10312920Y-10800484D01*
X10312920Y-10800484D02*
X10331967Y-10810008D01*
X10331967Y-10810008D02*
X10341491Y-10819531D01*
X10341491Y-10819531D02*
X10351015Y-10838579D01*
X10351015Y-10838579D02*
X10360539Y-10876674D01*
X10360539Y-10876674D02*
X10360539Y-10924293D01*
X10360539Y-10924293D02*
X10351015Y-10962389D01*
X10351015Y-10962389D02*
X10341491Y-10981436D01*
X10341491Y-10981436D02*
X10331967Y-10990960D01*
X10331967Y-10990960D02*
X10312920Y-11000484D01*
X10312920Y-11000484D02*
X10293872Y-11000484D01*
X10293872Y-11000484D02*
X10274824Y-10990960D01*
X10274824Y-10990960D02*
X10265301Y-10981436D01*
X10265301Y-10981436D02*
X10255777Y-10962389D01*
X10255777Y-10962389D02*
X10246253Y-10924293D01*
X10246253Y-10924293D02*
X10246253Y-10876674D01*
X10246253Y-10876674D02*
X10255777Y-10838579D01*
X10255777Y-10838579D02*
X10265301Y-10819531D01*
X10265301Y-10819531D02*
X10274824Y-10810008D01*
X10274824Y-10810008D02*
X10293872Y-10800484D01*
X10446253Y-10981436D02*
X10455777Y-10990960D01*
X10455777Y-10990960D02*
X10446253Y-11000484D01*
X10446253Y-11000484D02*
X10436729Y-10990960D01*
X10436729Y-10990960D02*
X10446253Y-10981436D01*
X10446253Y-10981436D02*
X10446253Y-11000484D01*
X10522444Y-10800484D02*
X10655777Y-10800484D01*
X10655777Y-10800484D02*
X10570063Y-11000484D01*
X10770063Y-10800484D02*
X10789110Y-10800484D01*
X10789110Y-10800484D02*
X10808158Y-10810008D01*
X10808158Y-10810008D02*
X10817682Y-10819531D01*
X10817682Y-10819531D02*
X10827205Y-10838579D01*
X10827205Y-10838579D02*
X10836729Y-10876674D01*
X10836729Y-10876674D02*
X10836729Y-10924293D01*
X10836729Y-10924293D02*
X10827205Y-10962389D01*
X10827205Y-10962389D02*
X10817682Y-10981436D01*
X10817682Y-10981436D02*
X10808158Y-10990960D01*
X10808158Y-10990960D02*
X10789110Y-11000484D01*
X10789110Y-11000484D02*
X10770063Y-11000484D01*
X10770063Y-11000484D02*
X10751015Y-10990960D01*
X10751015Y-10990960D02*
X10741491Y-10981436D01*
X10741491Y-10981436D02*
X10731967Y-10962389D01*
X10731967Y-10962389D02*
X10722444Y-10924293D01*
X10722444Y-10924293D02*
X10722444Y-10876674D01*
X10722444Y-10876674D02*
X10731967Y-10838579D01*
X10731967Y-10838579D02*
X10741491Y-10819531D01*
X10741491Y-10819531D02*
X10751015Y-10810008D01*
X10751015Y-10810008D02*
X10770063Y-10800484D01*
X10960539Y-10800484D02*
X10979586Y-10800484D01*
X10979586Y-10800484D02*
X10998634Y-10810008D01*
X10998634Y-10810008D02*
X11008158Y-10819531D01*
X11008158Y-10819531D02*
X11017682Y-10838579D01*
X11017682Y-10838579D02*
X11027205Y-10876674D01*
X11027205Y-10876674D02*
X11027205Y-10924293D01*
X11027205Y-10924293D02*
X11017682Y-10962389D01*
X11017682Y-10962389D02*
X11008158Y-10981436D01*
X11008158Y-10981436D02*
X10998634Y-10990960D01*
X10998634Y-10990960D02*
X10979586Y-11000484D01*
X10979586Y-11000484D02*
X10960539Y-11000484D01*
X10960539Y-11000484D02*
X10941491Y-10990960D01*
X10941491Y-10990960D02*
X10931967Y-10981436D01*
X10931967Y-10981436D02*
X10922444Y-10962389D01*
X10922444Y-10962389D02*
X10912920Y-10924293D01*
X10912920Y-10924293D02*
X10912920Y-10876674D01*
X10912920Y-10876674D02*
X10922444Y-10838579D01*
X10922444Y-10838579D02*
X10931967Y-10819531D01*
X10931967Y-10819531D02*
X10941491Y-10810008D01*
X10941491Y-10810008D02*
X10960539Y-10800484D01*
X11112920Y-11000484D02*
X11112920Y-10867150D01*
X11112920Y-10886198D02*
X11122444Y-10876674D01*
X11122444Y-10876674D02*
X11141491Y-10867150D01*
X11141491Y-10867150D02*
X11170063Y-10867150D01*
X11170063Y-10867150D02*
X11189110Y-10876674D01*
X11189110Y-10876674D02*
X11198634Y-10895722D01*
X11198634Y-10895722D02*
X11198634Y-11000484D01*
X11198634Y-10895722D02*
X11208158Y-10876674D01*
X11208158Y-10876674D02*
X11227205Y-10867150D01*
X11227205Y-10867150D02*
X11255777Y-10867150D01*
X11255777Y-10867150D02*
X11274824Y-10876674D01*
X11274824Y-10876674D02*
X11284348Y-10895722D01*
X11284348Y-10895722D02*
X11284348Y-11000484D01*
X11379586Y-11000484D02*
X11379586Y-10867150D01*
X11379586Y-10886198D02*
X11389110Y-10876674D01*
X11389110Y-10876674D02*
X11408158Y-10867150D01*
X11408158Y-10867150D02*
X11436729Y-10867150D01*
X11436729Y-10867150D02*
X11455777Y-10876674D01*
X11455777Y-10876674D02*
X11465301Y-10895722D01*
X11465301Y-10895722D02*
X11465301Y-11000484D01*
X11465301Y-10895722D02*
X11474824Y-10876674D01*
X11474824Y-10876674D02*
X11493872Y-10867150D01*
X11493872Y-10867150D02*
X11522443Y-10867150D01*
X11522443Y-10867150D02*
X11541491Y-10876674D01*
X11541491Y-10876674D02*
X11551015Y-10895722D01*
X11551015Y-10895722D02*
X11551015Y-11000484D01*
X11941491Y-10790960D02*
X11770063Y-11048103D01*
X12198634Y-10800484D02*
X12217682Y-10800484D01*
X12217682Y-10800484D02*
X12236729Y-10810008D01*
X12236729Y-10810008D02*
X12246253Y-10819531D01*
X12246253Y-10819531D02*
X12255777Y-10838579D01*
X12255777Y-10838579D02*
X12265301Y-10876674D01*
X12265301Y-10876674D02*
X12265301Y-10924293D01*
X12265301Y-10924293D02*
X12255777Y-10962389D01*
X12255777Y-10962389D02*
X12246253Y-10981436D01*
X12246253Y-10981436D02*
X12236729Y-10990960D01*
X12236729Y-10990960D02*
X12217682Y-11000484D01*
X12217682Y-11000484D02*
X12198634Y-11000484D01*
X12198634Y-11000484D02*
X12179586Y-10990960D01*
X12179586Y-10990960D02*
X12170063Y-10981436D01*
X12170063Y-10981436D02*
X12160539Y-10962389D01*
X12160539Y-10962389D02*
X12151015Y-10924293D01*
X12151015Y-10924293D02*
X12151015Y-10876674D01*
X12151015Y-10876674D02*
X12160539Y-10838579D01*
X12160539Y-10838579D02*
X12170063Y-10819531D01*
X12170063Y-10819531D02*
X12179586Y-10810008D01*
X12179586Y-10810008D02*
X12198634Y-10800484D01*
X12351015Y-10981436D02*
X12360539Y-10990960D01*
X12360539Y-10990960D02*
X12351015Y-11000484D01*
X12351015Y-11000484D02*
X12341491Y-10990960D01*
X12341491Y-10990960D02*
X12351015Y-10981436D01*
X12351015Y-10981436D02*
X12351015Y-11000484D01*
X12484348Y-10800484D02*
X12503396Y-10800484D01*
X12503396Y-10800484D02*
X12522444Y-10810008D01*
X12522444Y-10810008D02*
X12531967Y-10819531D01*
X12531967Y-10819531D02*
X12541491Y-10838579D01*
X12541491Y-10838579D02*
X12551015Y-10876674D01*
X12551015Y-10876674D02*
X12551015Y-10924293D01*
X12551015Y-10924293D02*
X12541491Y-10962389D01*
X12541491Y-10962389D02*
X12531967Y-10981436D01*
X12531967Y-10981436D02*
X12522444Y-10990960D01*
X12522444Y-10990960D02*
X12503396Y-11000484D01*
X12503396Y-11000484D02*
X12484348Y-11000484D01*
X12484348Y-11000484D02*
X12465301Y-10990960D01*
X12465301Y-10990960D02*
X12455777Y-10981436D01*
X12455777Y-10981436D02*
X12446253Y-10962389D01*
X12446253Y-10962389D02*
X12436729Y-10924293D01*
X12436729Y-10924293D02*
X12436729Y-10876674D01*
X12436729Y-10876674D02*
X12446253Y-10838579D01*
X12446253Y-10838579D02*
X12455777Y-10819531D01*
X12455777Y-10819531D02*
X12465301Y-10810008D01*
X12465301Y-10810008D02*
X12484348Y-10800484D01*
X12627206Y-10819531D02*
X12636729Y-10810008D01*
X12636729Y-10810008D02*
X12655777Y-10800484D01*
X12655777Y-10800484D02*
X12703396Y-10800484D01*
X12703396Y-10800484D02*
X12722444Y-10810008D01*
X12722444Y-10810008D02*
X12731967Y-10819531D01*
X12731967Y-10819531D02*
X12741491Y-10838579D01*
X12741491Y-10838579D02*
X12741491Y-10857627D01*
X12741491Y-10857627D02*
X12731967Y-10886198D01*
X12731967Y-10886198D02*
X12617682Y-11000484D01*
X12617682Y-11000484D02*
X12741491Y-11000484D01*
X12808158Y-10800484D02*
X12941491Y-10800484D01*
X12941491Y-10800484D02*
X12855777Y-11000484D01*
X13103396Y-10800484D02*
X13065301Y-10800484D01*
X13065301Y-10800484D02*
X13046253Y-10810008D01*
X13046253Y-10810008D02*
X13036729Y-10819531D01*
X13036729Y-10819531D02*
X13017682Y-10848103D01*
X13017682Y-10848103D02*
X13008158Y-10886198D01*
X13008158Y-10886198D02*
X13008158Y-10962389D01*
X13008158Y-10962389D02*
X13017682Y-10981436D01*
X13017682Y-10981436D02*
X13027206Y-10990960D01*
X13027206Y-10990960D02*
X13046253Y-11000484D01*
X13046253Y-11000484D02*
X13084348Y-11000484D01*
X13084348Y-11000484D02*
X13103396Y-10990960D01*
X13103396Y-10990960D02*
X13112920Y-10981436D01*
X13112920Y-10981436D02*
X13122444Y-10962389D01*
X13122444Y-10962389D02*
X13122444Y-10914770D01*
X13122444Y-10914770D02*
X13112920Y-10895722D01*
X13112920Y-10895722D02*
X13103396Y-10886198D01*
X13103396Y-10886198D02*
X13084348Y-10876674D01*
X13084348Y-10876674D02*
X13046253Y-10876674D01*
X13046253Y-10876674D02*
X13027206Y-10886198D01*
X13027206Y-10886198D02*
X13017682Y-10895722D01*
X13017682Y-10895722D02*
X13008158Y-10914770D01*
X13198634Y-10800484D02*
X13198634Y-10838579D01*
X13274825Y-10800484D02*
X13274825Y-10838579D01*
X13570063Y-11076674D02*
X13560539Y-11067150D01*
X13560539Y-11067150D02*
X13541491Y-11038579D01*
X13541491Y-11038579D02*
X13531968Y-11019531D01*
X13531968Y-11019531D02*
X13522444Y-10990960D01*
X13522444Y-10990960D02*
X13512920Y-10943341D01*
X13512920Y-10943341D02*
X13512920Y-10905246D01*
X13512920Y-10905246D02*
X13522444Y-10857627D01*
X13522444Y-10857627D02*
X13531968Y-10829055D01*
X13531968Y-10829055D02*
X13541491Y-10810008D01*
X13541491Y-10810008D02*
X13560539Y-10781436D01*
X13560539Y-10781436D02*
X13570063Y-10771912D01*
X13636729Y-10819531D02*
X13646253Y-10810008D01*
X13646253Y-10810008D02*
X13665301Y-10800484D01*
X13665301Y-10800484D02*
X13712920Y-10800484D01*
X13712920Y-10800484D02*
X13731968Y-10810008D01*
X13731968Y-10810008D02*
X13741491Y-10819531D01*
X13741491Y-10819531D02*
X13751015Y-10838579D01*
X13751015Y-10838579D02*
X13751015Y-10857627D01*
X13751015Y-10857627D02*
X13741491Y-10886198D01*
X13741491Y-10886198D02*
X13627206Y-11000484D01*
X13627206Y-11000484D02*
X13751015Y-11000484D01*
X13922444Y-10867150D02*
X13922444Y-11000484D01*
X13874825Y-10790960D02*
X13827206Y-10933817D01*
X13827206Y-10933817D02*
X13951015Y-10933817D01*
X14179587Y-11000484D02*
X14179587Y-10800484D01*
X14265301Y-11000484D02*
X14265301Y-10895722D01*
X14265301Y-10895722D02*
X14255777Y-10876674D01*
X14255777Y-10876674D02*
X14236730Y-10867150D01*
X14236730Y-10867150D02*
X14208158Y-10867150D01*
X14208158Y-10867150D02*
X14189110Y-10876674D01*
X14189110Y-10876674D02*
X14179587Y-10886198D01*
X14389110Y-11000484D02*
X14370063Y-10990960D01*
X14370063Y-10990960D02*
X14360539Y-10981436D01*
X14360539Y-10981436D02*
X14351015Y-10962389D01*
X14351015Y-10962389D02*
X14351015Y-10905246D01*
X14351015Y-10905246D02*
X14360539Y-10886198D01*
X14360539Y-10886198D02*
X14370063Y-10876674D01*
X14370063Y-10876674D02*
X14389110Y-10867150D01*
X14389110Y-10867150D02*
X14417682Y-10867150D01*
X14417682Y-10867150D02*
X14436730Y-10876674D01*
X14436730Y-10876674D02*
X14446253Y-10886198D01*
X14446253Y-10886198D02*
X14455777Y-10905246D01*
X14455777Y-10905246D02*
X14455777Y-10962389D01*
X14455777Y-10962389D02*
X14446253Y-10981436D01*
X14446253Y-10981436D02*
X14436730Y-10990960D01*
X14436730Y-10990960D02*
X14417682Y-11000484D01*
X14417682Y-11000484D02*
X14389110Y-11000484D01*
X14570063Y-11000484D02*
X14551015Y-10990960D01*
X14551015Y-10990960D02*
X14541491Y-10971912D01*
X14541491Y-10971912D02*
X14541491Y-10800484D01*
X14722444Y-10990960D02*
X14703396Y-11000484D01*
X14703396Y-11000484D02*
X14665301Y-11000484D01*
X14665301Y-11000484D02*
X14646253Y-10990960D01*
X14646253Y-10990960D02*
X14636730Y-10971912D01*
X14636730Y-10971912D02*
X14636730Y-10895722D01*
X14636730Y-10895722D02*
X14646253Y-10876674D01*
X14646253Y-10876674D02*
X14665301Y-10867150D01*
X14665301Y-10867150D02*
X14703396Y-10867150D01*
X14703396Y-10867150D02*
X14722444Y-10876674D01*
X14722444Y-10876674D02*
X14731968Y-10895722D01*
X14731968Y-10895722D02*
X14731968Y-10914770D01*
X14731968Y-10914770D02*
X14636730Y-10933817D01*
X14808158Y-10990960D02*
X14827206Y-11000484D01*
X14827206Y-11000484D02*
X14865301Y-11000484D01*
X14865301Y-11000484D02*
X14884349Y-10990960D01*
X14884349Y-10990960D02*
X14893872Y-10971912D01*
X14893872Y-10971912D02*
X14893872Y-10962389D01*
X14893872Y-10962389D02*
X14884349Y-10943341D01*
X14884349Y-10943341D02*
X14865301Y-10933817D01*
X14865301Y-10933817D02*
X14836730Y-10933817D01*
X14836730Y-10933817D02*
X14817682Y-10924293D01*
X14817682Y-10924293D02*
X14808158Y-10905246D01*
X14808158Y-10905246D02*
X14808158Y-10895722D01*
X14808158Y-10895722D02*
X14817682Y-10876674D01*
X14817682Y-10876674D02*
X14836730Y-10867150D01*
X14836730Y-10867150D02*
X14865301Y-10867150D01*
X14865301Y-10867150D02*
X14884349Y-10876674D01*
X14960539Y-11076674D02*
X14970063Y-11067150D01*
X14970063Y-11067150D02*
X14989111Y-11038579D01*
X14989111Y-11038579D02*
X14998634Y-11019531D01*
X14998634Y-11019531D02*
X15008158Y-10990960D01*
X15008158Y-10990960D02*
X15017682Y-10943341D01*
X15017682Y-10943341D02*
X15017682Y-10905246D01*
X15017682Y-10905246D02*
X15008158Y-10857627D01*
X15008158Y-10857627D02*
X14998634Y-10829055D01*
X14998634Y-10829055D02*
X14989111Y-10810008D01*
X14989111Y-10810008D02*
X14970063Y-10781436D01*
X14970063Y-10781436D02*
X14960539Y-10771912D01*
D10*
X9957000Y-11135000D02*
X9957000Y-11211000D01*
X9919000Y-11173000D02*
X9995000Y-11173000D01*
D11*
X10293872Y-11064484D02*
X10312920Y-11064484D01*
X10312920Y-11064484D02*
X10331967Y-11074008D01*
X10331967Y-11074008D02*
X10341491Y-11083531D01*
X10341491Y-11083531D02*
X10351015Y-11102579D01*
X10351015Y-11102579D02*
X10360539Y-11140674D01*
X10360539Y-11140674D02*
X10360539Y-11188293D01*
X10360539Y-11188293D02*
X10351015Y-11226388D01*
X10351015Y-11226388D02*
X10341491Y-11245436D01*
X10341491Y-11245436D02*
X10331967Y-11254960D01*
X10331967Y-11254960D02*
X10312920Y-11264484D01*
X10312920Y-11264484D02*
X10293872Y-11264484D01*
X10293872Y-11264484D02*
X10274824Y-11254960D01*
X10274824Y-11254960D02*
X10265301Y-11245436D01*
X10265301Y-11245436D02*
X10255777Y-11226388D01*
X10255777Y-11226388D02*
X10246253Y-11188293D01*
X10246253Y-11188293D02*
X10246253Y-11140674D01*
X10246253Y-11140674D02*
X10255777Y-11102579D01*
X10255777Y-11102579D02*
X10265301Y-11083531D01*
X10265301Y-11083531D02*
X10274824Y-11074008D01*
X10274824Y-11074008D02*
X10293872Y-11064484D01*
X10446253Y-11245436D02*
X10455777Y-11254960D01*
X10455777Y-11254960D02*
X10446253Y-11264484D01*
X10446253Y-11264484D02*
X10436729Y-11254960D01*
X10436729Y-11254960D02*
X10446253Y-11245436D01*
X10446253Y-11245436D02*
X10446253Y-11264484D01*
X10522444Y-11064484D02*
X10655777Y-11064484D01*
X10655777Y-11064484D02*
X10570063Y-11264484D01*
X10817682Y-11064484D02*
X10779586Y-11064484D01*
X10779586Y-11064484D02*
X10760539Y-11074008D01*
X10760539Y-11074008D02*
X10751015Y-11083531D01*
X10751015Y-11083531D02*
X10731967Y-11112103D01*
X10731967Y-11112103D02*
X10722444Y-11150198D01*
X10722444Y-11150198D02*
X10722444Y-11226388D01*
X10722444Y-11226388D02*
X10731967Y-11245436D01*
X10731967Y-11245436D02*
X10741491Y-11254960D01*
X10741491Y-11254960D02*
X10760539Y-11264484D01*
X10760539Y-11264484D02*
X10798634Y-11264484D01*
X10798634Y-11264484D02*
X10817682Y-11254960D01*
X10817682Y-11254960D02*
X10827205Y-11245436D01*
X10827205Y-11245436D02*
X10836729Y-11226388D01*
X10836729Y-11226388D02*
X10836729Y-11178770D01*
X10836729Y-11178770D02*
X10827205Y-11159722D01*
X10827205Y-11159722D02*
X10817682Y-11150198D01*
X10817682Y-11150198D02*
X10798634Y-11140674D01*
X10798634Y-11140674D02*
X10760539Y-11140674D01*
X10760539Y-11140674D02*
X10741491Y-11150198D01*
X10741491Y-11150198D02*
X10731967Y-11159722D01*
X10731967Y-11159722D02*
X10722444Y-11178770D01*
X10960539Y-11064484D02*
X10979586Y-11064484D01*
X10979586Y-11064484D02*
X10998634Y-11074008D01*
X10998634Y-11074008D02*
X11008158Y-11083531D01*
X11008158Y-11083531D02*
X11017682Y-11102579D01*
X11017682Y-11102579D02*
X11027205Y-11140674D01*
X11027205Y-11140674D02*
X11027205Y-11188293D01*
X11027205Y-11188293D02*
X11017682Y-11226388D01*
X11017682Y-11226388D02*
X11008158Y-11245436D01*
X11008158Y-11245436D02*
X10998634Y-11254960D01*
X10998634Y-11254960D02*
X10979586Y-11264484D01*
X10979586Y-11264484D02*
X10960539Y-11264484D01*
X10960539Y-11264484D02*
X10941491Y-11254960D01*
X10941491Y-11254960D02*
X10931967Y-11245436D01*
X10931967Y-11245436D02*
X10922444Y-11226388D01*
X10922444Y-11226388D02*
X10912920Y-11188293D01*
X10912920Y-11188293D02*
X10912920Y-11140674D01*
X10912920Y-11140674D02*
X10922444Y-11102579D01*
X10922444Y-11102579D02*
X10931967Y-11083531D01*
X10931967Y-11083531D02*
X10941491Y-11074008D01*
X10941491Y-11074008D02*
X10960539Y-11064484D01*
X11112920Y-11264484D02*
X11112920Y-11131150D01*
X11112920Y-11150198D02*
X11122444Y-11140674D01*
X11122444Y-11140674D02*
X11141491Y-11131150D01*
X11141491Y-11131150D02*
X11170063Y-11131150D01*
X11170063Y-11131150D02*
X11189110Y-11140674D01*
X11189110Y-11140674D02*
X11198634Y-11159722D01*
X11198634Y-11159722D02*
X11198634Y-11264484D01*
X11198634Y-11159722D02*
X11208158Y-11140674D01*
X11208158Y-11140674D02*
X11227205Y-11131150D01*
X11227205Y-11131150D02*
X11255777Y-11131150D01*
X11255777Y-11131150D02*
X11274824Y-11140674D01*
X11274824Y-11140674D02*
X11284348Y-11159722D01*
X11284348Y-11159722D02*
X11284348Y-11264484D01*
X11379586Y-11264484D02*
X11379586Y-11131150D01*
X11379586Y-11150198D02*
X11389110Y-11140674D01*
X11389110Y-11140674D02*
X11408158Y-11131150D01*
X11408158Y-11131150D02*
X11436729Y-11131150D01*
X11436729Y-11131150D02*
X11455777Y-11140674D01*
X11455777Y-11140674D02*
X11465301Y-11159722D01*
X11465301Y-11159722D02*
X11465301Y-11264484D01*
X11465301Y-11159722D02*
X11474824Y-11140674D01*
X11474824Y-11140674D02*
X11493872Y-11131150D01*
X11493872Y-11131150D02*
X11522443Y-11131150D01*
X11522443Y-11131150D02*
X11541491Y-11140674D01*
X11541491Y-11140674D02*
X11551015Y-11159722D01*
X11551015Y-11159722D02*
X11551015Y-11264484D01*
X11941491Y-11054960D02*
X11770063Y-11312103D01*
X12198634Y-11064484D02*
X12217682Y-11064484D01*
X12217682Y-11064484D02*
X12236729Y-11074008D01*
X12236729Y-11074008D02*
X12246253Y-11083531D01*
X12246253Y-11083531D02*
X12255777Y-11102579D01*
X12255777Y-11102579D02*
X12265301Y-11140674D01*
X12265301Y-11140674D02*
X12265301Y-11188293D01*
X12265301Y-11188293D02*
X12255777Y-11226388D01*
X12255777Y-11226388D02*
X12246253Y-11245436D01*
X12246253Y-11245436D02*
X12236729Y-11254960D01*
X12236729Y-11254960D02*
X12217682Y-11264484D01*
X12217682Y-11264484D02*
X12198634Y-11264484D01*
X12198634Y-11264484D02*
X12179586Y-11254960D01*
X12179586Y-11254960D02*
X12170063Y-11245436D01*
X12170063Y-11245436D02*
X12160539Y-11226388D01*
X12160539Y-11226388D02*
X12151015Y-11188293D01*
X12151015Y-11188293D02*
X12151015Y-11140674D01*
X12151015Y-11140674D02*
X12160539Y-11102579D01*
X12160539Y-11102579D02*
X12170063Y-11083531D01*
X12170063Y-11083531D02*
X12179586Y-11074008D01*
X12179586Y-11074008D02*
X12198634Y-11064484D01*
X12351015Y-11245436D02*
X12360539Y-11254960D01*
X12360539Y-11254960D02*
X12351015Y-11264484D01*
X12351015Y-11264484D02*
X12341491Y-11254960D01*
X12341491Y-11254960D02*
X12351015Y-11245436D01*
X12351015Y-11245436D02*
X12351015Y-11264484D01*
X12484348Y-11064484D02*
X12503396Y-11064484D01*
X12503396Y-11064484D02*
X12522444Y-11074008D01*
X12522444Y-11074008D02*
X12531967Y-11083531D01*
X12531967Y-11083531D02*
X12541491Y-11102579D01*
X12541491Y-11102579D02*
X12551015Y-11140674D01*
X12551015Y-11140674D02*
X12551015Y-11188293D01*
X12551015Y-11188293D02*
X12541491Y-11226388D01*
X12541491Y-11226388D02*
X12531967Y-11245436D01*
X12531967Y-11245436D02*
X12522444Y-11254960D01*
X12522444Y-11254960D02*
X12503396Y-11264484D01*
X12503396Y-11264484D02*
X12484348Y-11264484D01*
X12484348Y-11264484D02*
X12465301Y-11254960D01*
X12465301Y-11254960D02*
X12455777Y-11245436D01*
X12455777Y-11245436D02*
X12446253Y-11226388D01*
X12446253Y-11226388D02*
X12436729Y-11188293D01*
X12436729Y-11188293D02*
X12436729Y-11140674D01*
X12436729Y-11140674D02*
X12446253Y-11102579D01*
X12446253Y-11102579D02*
X12455777Y-11083531D01*
X12455777Y-11083531D02*
X12465301Y-11074008D01*
X12465301Y-11074008D02*
X12484348Y-11064484D01*
X12627206Y-11083531D02*
X12636729Y-11074008D01*
X12636729Y-11074008D02*
X12655777Y-11064484D01*
X12655777Y-11064484D02*
X12703396Y-11064484D01*
X12703396Y-11064484D02*
X12722444Y-11074008D01*
X12722444Y-11074008D02*
X12731967Y-11083531D01*
X12731967Y-11083531D02*
X12741491Y-11102579D01*
X12741491Y-11102579D02*
X12741491Y-11121627D01*
X12741491Y-11121627D02*
X12731967Y-11150198D01*
X12731967Y-11150198D02*
X12617682Y-11264484D01*
X12617682Y-11264484D02*
X12741491Y-11264484D01*
X12836729Y-11264484D02*
X12874825Y-11264484D01*
X12874825Y-11264484D02*
X12893872Y-11254960D01*
X12893872Y-11254960D02*
X12903396Y-11245436D01*
X12903396Y-11245436D02*
X12922444Y-11216865D01*
X12922444Y-11216865D02*
X12931967Y-11178770D01*
X12931967Y-11178770D02*
X12931967Y-11102579D01*
X12931967Y-11102579D02*
X12922444Y-11083531D01*
X12922444Y-11083531D02*
X12912920Y-11074008D01*
X12912920Y-11074008D02*
X12893872Y-11064484D01*
X12893872Y-11064484D02*
X12855777Y-11064484D01*
X12855777Y-11064484D02*
X12836729Y-11074008D01*
X12836729Y-11074008D02*
X12827206Y-11083531D01*
X12827206Y-11083531D02*
X12817682Y-11102579D01*
X12817682Y-11102579D02*
X12817682Y-11150198D01*
X12817682Y-11150198D02*
X12827206Y-11169246D01*
X12827206Y-11169246D02*
X12836729Y-11178770D01*
X12836729Y-11178770D02*
X12855777Y-11188293D01*
X12855777Y-11188293D02*
X12893872Y-11188293D01*
X12893872Y-11188293D02*
X12912920Y-11178770D01*
X12912920Y-11178770D02*
X12922444Y-11169246D01*
X12922444Y-11169246D02*
X12931967Y-11150198D01*
X13027206Y-11264484D02*
X13065301Y-11264484D01*
X13065301Y-11264484D02*
X13084348Y-11254960D01*
X13084348Y-11254960D02*
X13093872Y-11245436D01*
X13093872Y-11245436D02*
X13112920Y-11216865D01*
X13112920Y-11216865D02*
X13122444Y-11178770D01*
X13122444Y-11178770D02*
X13122444Y-11102579D01*
X13122444Y-11102579D02*
X13112920Y-11083531D01*
X13112920Y-11083531D02*
X13103396Y-11074008D01*
X13103396Y-11074008D02*
X13084348Y-11064484D01*
X13084348Y-11064484D02*
X13046253Y-11064484D01*
X13046253Y-11064484D02*
X13027206Y-11074008D01*
X13027206Y-11074008D02*
X13017682Y-11083531D01*
X13017682Y-11083531D02*
X13008158Y-11102579D01*
X13008158Y-11102579D02*
X13008158Y-11150198D01*
X13008158Y-11150198D02*
X13017682Y-11169246D01*
X13017682Y-11169246D02*
X13027206Y-11178770D01*
X13027206Y-11178770D02*
X13046253Y-11188293D01*
X13046253Y-11188293D02*
X13084348Y-11188293D01*
X13084348Y-11188293D02*
X13103396Y-11178770D01*
X13103396Y-11178770D02*
X13112920Y-11169246D01*
X13112920Y-11169246D02*
X13122444Y-11150198D01*
X13198634Y-11064484D02*
X13198634Y-11102579D01*
X13274825Y-11064484D02*
X13274825Y-11102579D01*
X13570063Y-11340674D02*
X13560539Y-11331150D01*
X13560539Y-11331150D02*
X13541491Y-11302579D01*
X13541491Y-11302579D02*
X13531968Y-11283531D01*
X13531968Y-11283531D02*
X13522444Y-11254960D01*
X13522444Y-11254960D02*
X13512920Y-11207341D01*
X13512920Y-11207341D02*
X13512920Y-11169246D01*
X13512920Y-11169246D02*
X13522444Y-11121627D01*
X13522444Y-11121627D02*
X13531968Y-11093055D01*
X13531968Y-11093055D02*
X13541491Y-11074008D01*
X13541491Y-11074008D02*
X13560539Y-11045436D01*
X13560539Y-11045436D02*
X13570063Y-11035912D01*
X13751015Y-11264484D02*
X13636729Y-11264484D01*
X13693872Y-11264484D02*
X13693872Y-11064484D01*
X13693872Y-11064484D02*
X13674825Y-11093055D01*
X13674825Y-11093055D02*
X13655777Y-11112103D01*
X13655777Y-11112103D02*
X13636729Y-11121627D01*
X13922444Y-11131150D02*
X13922444Y-11264484D01*
X13874825Y-11054960D02*
X13827206Y-11197817D01*
X13827206Y-11197817D02*
X13951015Y-11197817D01*
X14179587Y-11264484D02*
X14179587Y-11064484D01*
X14265301Y-11264484D02*
X14265301Y-11159722D01*
X14265301Y-11159722D02*
X14255777Y-11140674D01*
X14255777Y-11140674D02*
X14236730Y-11131150D01*
X14236730Y-11131150D02*
X14208158Y-11131150D01*
X14208158Y-11131150D02*
X14189110Y-11140674D01*
X14189110Y-11140674D02*
X14179587Y-11150198D01*
X14389110Y-11264484D02*
X14370063Y-11254960D01*
X14370063Y-11254960D02*
X14360539Y-11245436D01*
X14360539Y-11245436D02*
X14351015Y-11226388D01*
X14351015Y-11226388D02*
X14351015Y-11169246D01*
X14351015Y-11169246D02*
X14360539Y-11150198D01*
X14360539Y-11150198D02*
X14370063Y-11140674D01*
X14370063Y-11140674D02*
X14389110Y-11131150D01*
X14389110Y-11131150D02*
X14417682Y-11131150D01*
X14417682Y-11131150D02*
X14436730Y-11140674D01*
X14436730Y-11140674D02*
X14446253Y-11150198D01*
X14446253Y-11150198D02*
X14455777Y-11169246D01*
X14455777Y-11169246D02*
X14455777Y-11226388D01*
X14455777Y-11226388D02*
X14446253Y-11245436D01*
X14446253Y-11245436D02*
X14436730Y-11254960D01*
X14436730Y-11254960D02*
X14417682Y-11264484D01*
X14417682Y-11264484D02*
X14389110Y-11264484D01*
X14570063Y-11264484D02*
X14551015Y-11254960D01*
X14551015Y-11254960D02*
X14541491Y-11235912D01*
X14541491Y-11235912D02*
X14541491Y-11064484D01*
X14722444Y-11254960D02*
X14703396Y-11264484D01*
X14703396Y-11264484D02*
X14665301Y-11264484D01*
X14665301Y-11264484D02*
X14646253Y-11254960D01*
X14646253Y-11254960D02*
X14636730Y-11235912D01*
X14636730Y-11235912D02*
X14636730Y-11159722D01*
X14636730Y-11159722D02*
X14646253Y-11140674D01*
X14646253Y-11140674D02*
X14665301Y-11131150D01*
X14665301Y-11131150D02*
X14703396Y-11131150D01*
X14703396Y-11131150D02*
X14722444Y-11140674D01*
X14722444Y-11140674D02*
X14731968Y-11159722D01*
X14731968Y-11159722D02*
X14731968Y-11178770D01*
X14731968Y-11178770D02*
X14636730Y-11197817D01*
X14808158Y-11254960D02*
X14827206Y-11264484D01*
X14827206Y-11264484D02*
X14865301Y-11264484D01*
X14865301Y-11264484D02*
X14884349Y-11254960D01*
X14884349Y-11254960D02*
X14893872Y-11235912D01*
X14893872Y-11235912D02*
X14893872Y-11226388D01*
X14893872Y-11226388D02*
X14884349Y-11207341D01*
X14884349Y-11207341D02*
X14865301Y-11197817D01*
X14865301Y-11197817D02*
X14836730Y-11197817D01*
X14836730Y-11197817D02*
X14817682Y-11188293D01*
X14817682Y-11188293D02*
X14808158Y-11169246D01*
X14808158Y-11169246D02*
X14808158Y-11159722D01*
X14808158Y-11159722D02*
X14817682Y-11140674D01*
X14817682Y-11140674D02*
X14836730Y-11131150D01*
X14836730Y-11131150D02*
X14865301Y-11131150D01*
X14865301Y-11131150D02*
X14884349Y-11140674D01*
X14960539Y-11340674D02*
X14970063Y-11331150D01*
X14970063Y-11331150D02*
X14989111Y-11302579D01*
X14989111Y-11302579D02*
X14998634Y-11283531D01*
X14998634Y-11283531D02*
X15008158Y-11254960D01*
X15008158Y-11254960D02*
X15017682Y-11207341D01*
X15017682Y-11207341D02*
X15017682Y-11169246D01*
X15017682Y-11169246D02*
X15008158Y-11121627D01*
X15008158Y-11121627D02*
X14998634Y-11093055D01*
X14998634Y-11093055D02*
X14989111Y-11074008D01*
X14989111Y-11074008D02*
X14970063Y-11045436D01*
X14970063Y-11045436D02*
X14960539Y-11035912D01*
D10*
X9983285Y-11465284D02*
X9983285Y-11408715D01*
X9926716Y-11408715D01*
X9926716Y-11465284D01*
X9983285Y-11465284D01*
D11*
X10293872Y-11328484D02*
X10312920Y-11328484D01*
X10312920Y-11328484D02*
X10331967Y-11338008D01*
X10331967Y-11338008D02*
X10341491Y-11347531D01*
X10341491Y-11347531D02*
X10351015Y-11366579D01*
X10351015Y-11366579D02*
X10360539Y-11404674D01*
X10360539Y-11404674D02*
X10360539Y-11452293D01*
X10360539Y-11452293D02*
X10351015Y-11490388D01*
X10351015Y-11490388D02*
X10341491Y-11509436D01*
X10341491Y-11509436D02*
X10331967Y-11518960D01*
X10331967Y-11518960D02*
X10312920Y-11528484D01*
X10312920Y-11528484D02*
X10293872Y-11528484D01*
X10293872Y-11528484D02*
X10274824Y-11518960D01*
X10274824Y-11518960D02*
X10265301Y-11509436D01*
X10265301Y-11509436D02*
X10255777Y-11490388D01*
X10255777Y-11490388D02*
X10246253Y-11452293D01*
X10246253Y-11452293D02*
X10246253Y-11404674D01*
X10246253Y-11404674D02*
X10255777Y-11366579D01*
X10255777Y-11366579D02*
X10265301Y-11347531D01*
X10265301Y-11347531D02*
X10274824Y-11338008D01*
X10274824Y-11338008D02*
X10293872Y-11328484D01*
X10446253Y-11509436D02*
X10455777Y-11518960D01*
X10455777Y-11518960D02*
X10446253Y-11528484D01*
X10446253Y-11528484D02*
X10436729Y-11518960D01*
X10436729Y-11518960D02*
X10446253Y-11509436D01*
X10446253Y-11509436D02*
X10446253Y-11528484D01*
X10570063Y-11414198D02*
X10551015Y-11404674D01*
X10551015Y-11404674D02*
X10541491Y-11395150D01*
X10541491Y-11395150D02*
X10531967Y-11376103D01*
X10531967Y-11376103D02*
X10531967Y-11366579D01*
X10531967Y-11366579D02*
X10541491Y-11347531D01*
X10541491Y-11347531D02*
X10551015Y-11338008D01*
X10551015Y-11338008D02*
X10570063Y-11328484D01*
X10570063Y-11328484D02*
X10608158Y-11328484D01*
X10608158Y-11328484D02*
X10627205Y-11338008D01*
X10627205Y-11338008D02*
X10636729Y-11347531D01*
X10636729Y-11347531D02*
X10646253Y-11366579D01*
X10646253Y-11366579D02*
X10646253Y-11376103D01*
X10646253Y-11376103D02*
X10636729Y-11395150D01*
X10636729Y-11395150D02*
X10627205Y-11404674D01*
X10627205Y-11404674D02*
X10608158Y-11414198D01*
X10608158Y-11414198D02*
X10570063Y-11414198D01*
X10570063Y-11414198D02*
X10551015Y-11423722D01*
X10551015Y-11423722D02*
X10541491Y-11433246D01*
X10541491Y-11433246D02*
X10531967Y-11452293D01*
X10531967Y-11452293D02*
X10531967Y-11490388D01*
X10531967Y-11490388D02*
X10541491Y-11509436D01*
X10541491Y-11509436D02*
X10551015Y-11518960D01*
X10551015Y-11518960D02*
X10570063Y-11528484D01*
X10570063Y-11528484D02*
X10608158Y-11528484D01*
X10608158Y-11528484D02*
X10627205Y-11518960D01*
X10627205Y-11518960D02*
X10636729Y-11509436D01*
X10636729Y-11509436D02*
X10646253Y-11490388D01*
X10646253Y-11490388D02*
X10646253Y-11452293D01*
X10646253Y-11452293D02*
X10636729Y-11433246D01*
X10636729Y-11433246D02*
X10627205Y-11423722D01*
X10627205Y-11423722D02*
X10608158Y-11414198D01*
X10770063Y-11328484D02*
X10789110Y-11328484D01*
X10789110Y-11328484D02*
X10808158Y-11338008D01*
X10808158Y-11338008D02*
X10817682Y-11347531D01*
X10817682Y-11347531D02*
X10827205Y-11366579D01*
X10827205Y-11366579D02*
X10836729Y-11404674D01*
X10836729Y-11404674D02*
X10836729Y-11452293D01*
X10836729Y-11452293D02*
X10827205Y-11490388D01*
X10827205Y-11490388D02*
X10817682Y-11509436D01*
X10817682Y-11509436D02*
X10808158Y-11518960D01*
X10808158Y-11518960D02*
X10789110Y-11528484D01*
X10789110Y-11528484D02*
X10770063Y-11528484D01*
X10770063Y-11528484D02*
X10751015Y-11518960D01*
X10751015Y-11518960D02*
X10741491Y-11509436D01*
X10741491Y-11509436D02*
X10731967Y-11490388D01*
X10731967Y-11490388D02*
X10722444Y-11452293D01*
X10722444Y-11452293D02*
X10722444Y-11404674D01*
X10722444Y-11404674D02*
X10731967Y-11366579D01*
X10731967Y-11366579D02*
X10741491Y-11347531D01*
X10741491Y-11347531D02*
X10751015Y-11338008D01*
X10751015Y-11338008D02*
X10770063Y-11328484D01*
X10960539Y-11328484D02*
X10979586Y-11328484D01*
X10979586Y-11328484D02*
X10998634Y-11338008D01*
X10998634Y-11338008D02*
X11008158Y-11347531D01*
X11008158Y-11347531D02*
X11017682Y-11366579D01*
X11017682Y-11366579D02*
X11027205Y-11404674D01*
X11027205Y-11404674D02*
X11027205Y-11452293D01*
X11027205Y-11452293D02*
X11017682Y-11490388D01*
X11017682Y-11490388D02*
X11008158Y-11509436D01*
X11008158Y-11509436D02*
X10998634Y-11518960D01*
X10998634Y-11518960D02*
X10979586Y-11528484D01*
X10979586Y-11528484D02*
X10960539Y-11528484D01*
X10960539Y-11528484D02*
X10941491Y-11518960D01*
X10941491Y-11518960D02*
X10931967Y-11509436D01*
X10931967Y-11509436D02*
X10922444Y-11490388D01*
X10922444Y-11490388D02*
X10912920Y-11452293D01*
X10912920Y-11452293D02*
X10912920Y-11404674D01*
X10912920Y-11404674D02*
X10922444Y-11366579D01*
X10922444Y-11366579D02*
X10931967Y-11347531D01*
X10931967Y-11347531D02*
X10941491Y-11338008D01*
X10941491Y-11338008D02*
X10960539Y-11328484D01*
X11112920Y-11528484D02*
X11112920Y-11395150D01*
X11112920Y-11414198D02*
X11122444Y-11404674D01*
X11122444Y-11404674D02*
X11141491Y-11395150D01*
X11141491Y-11395150D02*
X11170063Y-11395150D01*
X11170063Y-11395150D02*
X11189110Y-11404674D01*
X11189110Y-11404674D02*
X11198634Y-11423722D01*
X11198634Y-11423722D02*
X11198634Y-11528484D01*
X11198634Y-11423722D02*
X11208158Y-11404674D01*
X11208158Y-11404674D02*
X11227205Y-11395150D01*
X11227205Y-11395150D02*
X11255777Y-11395150D01*
X11255777Y-11395150D02*
X11274824Y-11404674D01*
X11274824Y-11404674D02*
X11284348Y-11423722D01*
X11284348Y-11423722D02*
X11284348Y-11528484D01*
X11379586Y-11528484D02*
X11379586Y-11395150D01*
X11379586Y-11414198D02*
X11389110Y-11404674D01*
X11389110Y-11404674D02*
X11408158Y-11395150D01*
X11408158Y-11395150D02*
X11436729Y-11395150D01*
X11436729Y-11395150D02*
X11455777Y-11404674D01*
X11455777Y-11404674D02*
X11465301Y-11423722D01*
X11465301Y-11423722D02*
X11465301Y-11528484D01*
X11465301Y-11423722D02*
X11474824Y-11404674D01*
X11474824Y-11404674D02*
X11493872Y-11395150D01*
X11493872Y-11395150D02*
X11522443Y-11395150D01*
X11522443Y-11395150D02*
X11541491Y-11404674D01*
X11541491Y-11404674D02*
X11551015Y-11423722D01*
X11551015Y-11423722D02*
X11551015Y-11528484D01*
X11941491Y-11318960D02*
X11770063Y-11576103D01*
X12198634Y-11328484D02*
X12217682Y-11328484D01*
X12217682Y-11328484D02*
X12236729Y-11338008D01*
X12236729Y-11338008D02*
X12246253Y-11347531D01*
X12246253Y-11347531D02*
X12255777Y-11366579D01*
X12255777Y-11366579D02*
X12265301Y-11404674D01*
X12265301Y-11404674D02*
X12265301Y-11452293D01*
X12265301Y-11452293D02*
X12255777Y-11490388D01*
X12255777Y-11490388D02*
X12246253Y-11509436D01*
X12246253Y-11509436D02*
X12236729Y-11518960D01*
X12236729Y-11518960D02*
X12217682Y-11528484D01*
X12217682Y-11528484D02*
X12198634Y-11528484D01*
X12198634Y-11528484D02*
X12179586Y-11518960D01*
X12179586Y-11518960D02*
X12170063Y-11509436D01*
X12170063Y-11509436D02*
X12160539Y-11490388D01*
X12160539Y-11490388D02*
X12151015Y-11452293D01*
X12151015Y-11452293D02*
X12151015Y-11404674D01*
X12151015Y-11404674D02*
X12160539Y-11366579D01*
X12160539Y-11366579D02*
X12170063Y-11347531D01*
X12170063Y-11347531D02*
X12179586Y-11338008D01*
X12179586Y-11338008D02*
X12198634Y-11328484D01*
X12351015Y-11509436D02*
X12360539Y-11518960D01*
X12360539Y-11518960D02*
X12351015Y-11528484D01*
X12351015Y-11528484D02*
X12341491Y-11518960D01*
X12341491Y-11518960D02*
X12351015Y-11509436D01*
X12351015Y-11509436D02*
X12351015Y-11528484D01*
X12484348Y-11328484D02*
X12503396Y-11328484D01*
X12503396Y-11328484D02*
X12522444Y-11338008D01*
X12522444Y-11338008D02*
X12531967Y-11347531D01*
X12531967Y-11347531D02*
X12541491Y-11366579D01*
X12541491Y-11366579D02*
X12551015Y-11404674D01*
X12551015Y-11404674D02*
X12551015Y-11452293D01*
X12551015Y-11452293D02*
X12541491Y-11490388D01*
X12541491Y-11490388D02*
X12531967Y-11509436D01*
X12531967Y-11509436D02*
X12522444Y-11518960D01*
X12522444Y-11518960D02*
X12503396Y-11528484D01*
X12503396Y-11528484D02*
X12484348Y-11528484D01*
X12484348Y-11528484D02*
X12465301Y-11518960D01*
X12465301Y-11518960D02*
X12455777Y-11509436D01*
X12455777Y-11509436D02*
X12446253Y-11490388D01*
X12446253Y-11490388D02*
X12436729Y-11452293D01*
X12436729Y-11452293D02*
X12436729Y-11404674D01*
X12436729Y-11404674D02*
X12446253Y-11366579D01*
X12446253Y-11366579D02*
X12455777Y-11347531D01*
X12455777Y-11347531D02*
X12465301Y-11338008D01*
X12465301Y-11338008D02*
X12484348Y-11328484D01*
X12617682Y-11328484D02*
X12741491Y-11328484D01*
X12741491Y-11328484D02*
X12674825Y-11404674D01*
X12674825Y-11404674D02*
X12703396Y-11404674D01*
X12703396Y-11404674D02*
X12722444Y-11414198D01*
X12722444Y-11414198D02*
X12731967Y-11423722D01*
X12731967Y-11423722D02*
X12741491Y-11442769D01*
X12741491Y-11442769D02*
X12741491Y-11490388D01*
X12741491Y-11490388D02*
X12731967Y-11509436D01*
X12731967Y-11509436D02*
X12722444Y-11518960D01*
X12722444Y-11518960D02*
X12703396Y-11528484D01*
X12703396Y-11528484D02*
X12646253Y-11528484D01*
X12646253Y-11528484D02*
X12627206Y-11518960D01*
X12627206Y-11518960D02*
X12617682Y-11509436D01*
X12931967Y-11528484D02*
X12817682Y-11528484D01*
X12874825Y-11528484D02*
X12874825Y-11328484D01*
X12874825Y-11328484D02*
X12855777Y-11357055D01*
X12855777Y-11357055D02*
X12836729Y-11376103D01*
X12836729Y-11376103D02*
X12817682Y-11385627D01*
X13112920Y-11328484D02*
X13017682Y-11328484D01*
X13017682Y-11328484D02*
X13008158Y-11423722D01*
X13008158Y-11423722D02*
X13017682Y-11414198D01*
X13017682Y-11414198D02*
X13036729Y-11404674D01*
X13036729Y-11404674D02*
X13084348Y-11404674D01*
X13084348Y-11404674D02*
X13103396Y-11414198D01*
X13103396Y-11414198D02*
X13112920Y-11423722D01*
X13112920Y-11423722D02*
X13122444Y-11442769D01*
X13122444Y-11442769D02*
X13122444Y-11490388D01*
X13122444Y-11490388D02*
X13112920Y-11509436D01*
X13112920Y-11509436D02*
X13103396Y-11518960D01*
X13103396Y-11518960D02*
X13084348Y-11528484D01*
X13084348Y-11528484D02*
X13036729Y-11528484D01*
X13036729Y-11528484D02*
X13017682Y-11518960D01*
X13017682Y-11518960D02*
X13008158Y-11509436D01*
X13198634Y-11328484D02*
X13198634Y-11366579D01*
X13274825Y-11328484D02*
X13274825Y-11366579D01*
X13570063Y-11604674D02*
X13560539Y-11595150D01*
X13560539Y-11595150D02*
X13541491Y-11566579D01*
X13541491Y-11566579D02*
X13531968Y-11547531D01*
X13531968Y-11547531D02*
X13522444Y-11518960D01*
X13522444Y-11518960D02*
X13512920Y-11471341D01*
X13512920Y-11471341D02*
X13512920Y-11433246D01*
X13512920Y-11433246D02*
X13522444Y-11385627D01*
X13522444Y-11385627D02*
X13531968Y-11357055D01*
X13531968Y-11357055D02*
X13541491Y-11338008D01*
X13541491Y-11338008D02*
X13560539Y-11309436D01*
X13560539Y-11309436D02*
X13570063Y-11299912D01*
X13751015Y-11528484D02*
X13636729Y-11528484D01*
X13693872Y-11528484D02*
X13693872Y-11328484D01*
X13693872Y-11328484D02*
X13674825Y-11357055D01*
X13674825Y-11357055D02*
X13655777Y-11376103D01*
X13655777Y-11376103D02*
X13636729Y-11385627D01*
X13922444Y-11395150D02*
X13922444Y-11528484D01*
X13874825Y-11318960D02*
X13827206Y-11461817D01*
X13827206Y-11461817D02*
X13951015Y-11461817D01*
X14179587Y-11528484D02*
X14179587Y-11328484D01*
X14265301Y-11528484D02*
X14265301Y-11423722D01*
X14265301Y-11423722D02*
X14255777Y-11404674D01*
X14255777Y-11404674D02*
X14236730Y-11395150D01*
X14236730Y-11395150D02*
X14208158Y-11395150D01*
X14208158Y-11395150D02*
X14189110Y-11404674D01*
X14189110Y-11404674D02*
X14179587Y-11414198D01*
X14389110Y-11528484D02*
X14370063Y-11518960D01*
X14370063Y-11518960D02*
X14360539Y-11509436D01*
X14360539Y-11509436D02*
X14351015Y-11490388D01*
X14351015Y-11490388D02*
X14351015Y-11433246D01*
X14351015Y-11433246D02*
X14360539Y-11414198D01*
X14360539Y-11414198D02*
X14370063Y-11404674D01*
X14370063Y-11404674D02*
X14389110Y-11395150D01*
X14389110Y-11395150D02*
X14417682Y-11395150D01*
X14417682Y-11395150D02*
X14436730Y-11404674D01*
X14436730Y-11404674D02*
X14446253Y-11414198D01*
X14446253Y-11414198D02*
X14455777Y-11433246D01*
X14455777Y-11433246D02*
X14455777Y-11490388D01*
X14455777Y-11490388D02*
X14446253Y-11509436D01*
X14446253Y-11509436D02*
X14436730Y-11518960D01*
X14436730Y-11518960D02*
X14417682Y-11528484D01*
X14417682Y-11528484D02*
X14389110Y-11528484D01*
X14570063Y-11528484D02*
X14551015Y-11518960D01*
X14551015Y-11518960D02*
X14541491Y-11499912D01*
X14541491Y-11499912D02*
X14541491Y-11328484D01*
X14722444Y-11518960D02*
X14703396Y-11528484D01*
X14703396Y-11528484D02*
X14665301Y-11528484D01*
X14665301Y-11528484D02*
X14646253Y-11518960D01*
X14646253Y-11518960D02*
X14636730Y-11499912D01*
X14636730Y-11499912D02*
X14636730Y-11423722D01*
X14636730Y-11423722D02*
X14646253Y-11404674D01*
X14646253Y-11404674D02*
X14665301Y-11395150D01*
X14665301Y-11395150D02*
X14703396Y-11395150D01*
X14703396Y-11395150D02*
X14722444Y-11404674D01*
X14722444Y-11404674D02*
X14731968Y-11423722D01*
X14731968Y-11423722D02*
X14731968Y-11442769D01*
X14731968Y-11442769D02*
X14636730Y-11461817D01*
X14808158Y-11518960D02*
X14827206Y-11528484D01*
X14827206Y-11528484D02*
X14865301Y-11528484D01*
X14865301Y-11528484D02*
X14884349Y-11518960D01*
X14884349Y-11518960D02*
X14893872Y-11499912D01*
X14893872Y-11499912D02*
X14893872Y-11490388D01*
X14893872Y-11490388D02*
X14884349Y-11471341D01*
X14884349Y-11471341D02*
X14865301Y-11461817D01*
X14865301Y-11461817D02*
X14836730Y-11461817D01*
X14836730Y-11461817D02*
X14817682Y-11452293D01*
X14817682Y-11452293D02*
X14808158Y-11433246D01*
X14808158Y-11433246D02*
X14808158Y-11423722D01*
X14808158Y-11423722D02*
X14817682Y-11404674D01*
X14817682Y-11404674D02*
X14836730Y-11395150D01*
X14836730Y-11395150D02*
X14865301Y-11395150D01*
X14865301Y-11395150D02*
X14884349Y-11404674D01*
X14960539Y-11604674D02*
X14970063Y-11595150D01*
X14970063Y-11595150D02*
X14989111Y-11566579D01*
X14989111Y-11566579D02*
X14998634Y-11547531D01*
X14998634Y-11547531D02*
X15008158Y-11518960D01*
X15008158Y-11518960D02*
X15017682Y-11471341D01*
X15017682Y-11471341D02*
X15017682Y-11433246D01*
X15017682Y-11433246D02*
X15008158Y-11385627D01*
X15008158Y-11385627D02*
X14998634Y-11357055D01*
X14998634Y-11357055D02*
X14989111Y-11338008D01*
X14989111Y-11338008D02*
X14970063Y-11309436D01*
X14970063Y-11309436D02*
X14960539Y-11299912D01*
D10*
X9945000Y-11751000D02*
X9995000Y-11701000D01*
X9945000Y-11651000D01*
X9895000Y-11701000D01*
X9945000Y-11751000D01*
D11*
X10360539Y-11792484D02*
X10246253Y-11792484D01*
X10303396Y-11792484D02*
X10303396Y-11592484D01*
X10303396Y-11592484D02*
X10284348Y-11621055D01*
X10284348Y-11621055D02*
X10265301Y-11640103D01*
X10265301Y-11640103D02*
X10246253Y-11649627D01*
X10446253Y-11773436D02*
X10455777Y-11782960D01*
X10455777Y-11782960D02*
X10446253Y-11792484D01*
X10446253Y-11792484D02*
X10436729Y-11782960D01*
X10436729Y-11782960D02*
X10446253Y-11773436D01*
X10446253Y-11773436D02*
X10446253Y-11792484D01*
X10579586Y-11592484D02*
X10598634Y-11592484D01*
X10598634Y-11592484D02*
X10617682Y-11602008D01*
X10617682Y-11602008D02*
X10627205Y-11611531D01*
X10627205Y-11611531D02*
X10636729Y-11630579D01*
X10636729Y-11630579D02*
X10646253Y-11668674D01*
X10646253Y-11668674D02*
X10646253Y-11716293D01*
X10646253Y-11716293D02*
X10636729Y-11754388D01*
X10636729Y-11754388D02*
X10627205Y-11773436D01*
X10627205Y-11773436D02*
X10617682Y-11782960D01*
X10617682Y-11782960D02*
X10598634Y-11792484D01*
X10598634Y-11792484D02*
X10579586Y-11792484D01*
X10579586Y-11792484D02*
X10560539Y-11782960D01*
X10560539Y-11782960D02*
X10551015Y-11773436D01*
X10551015Y-11773436D02*
X10541491Y-11754388D01*
X10541491Y-11754388D02*
X10531967Y-11716293D01*
X10531967Y-11716293D02*
X10531967Y-11668674D01*
X10531967Y-11668674D02*
X10541491Y-11630579D01*
X10541491Y-11630579D02*
X10551015Y-11611531D01*
X10551015Y-11611531D02*
X10560539Y-11602008D01*
X10560539Y-11602008D02*
X10579586Y-11592484D01*
X10770063Y-11592484D02*
X10789110Y-11592484D01*
X10789110Y-11592484D02*
X10808158Y-11602008D01*
X10808158Y-11602008D02*
X10817682Y-11611531D01*
X10817682Y-11611531D02*
X10827205Y-11630579D01*
X10827205Y-11630579D02*
X10836729Y-11668674D01*
X10836729Y-11668674D02*
X10836729Y-11716293D01*
X10836729Y-11716293D02*
X10827205Y-11754388D01*
X10827205Y-11754388D02*
X10817682Y-11773436D01*
X10817682Y-11773436D02*
X10808158Y-11782960D01*
X10808158Y-11782960D02*
X10789110Y-11792484D01*
X10789110Y-11792484D02*
X10770063Y-11792484D01*
X10770063Y-11792484D02*
X10751015Y-11782960D01*
X10751015Y-11782960D02*
X10741491Y-11773436D01*
X10741491Y-11773436D02*
X10731967Y-11754388D01*
X10731967Y-11754388D02*
X10722444Y-11716293D01*
X10722444Y-11716293D02*
X10722444Y-11668674D01*
X10722444Y-11668674D02*
X10731967Y-11630579D01*
X10731967Y-11630579D02*
X10741491Y-11611531D01*
X10741491Y-11611531D02*
X10751015Y-11602008D01*
X10751015Y-11602008D02*
X10770063Y-11592484D01*
X10960539Y-11592484D02*
X10979586Y-11592484D01*
X10979586Y-11592484D02*
X10998634Y-11602008D01*
X10998634Y-11602008D02*
X11008158Y-11611531D01*
X11008158Y-11611531D02*
X11017682Y-11630579D01*
X11017682Y-11630579D02*
X11027205Y-11668674D01*
X11027205Y-11668674D02*
X11027205Y-11716293D01*
X11027205Y-11716293D02*
X11017682Y-11754388D01*
X11017682Y-11754388D02*
X11008158Y-11773436D01*
X11008158Y-11773436D02*
X10998634Y-11782960D01*
X10998634Y-11782960D02*
X10979586Y-11792484D01*
X10979586Y-11792484D02*
X10960539Y-11792484D01*
X10960539Y-11792484D02*
X10941491Y-11782960D01*
X10941491Y-11782960D02*
X10931967Y-11773436D01*
X10931967Y-11773436D02*
X10922444Y-11754388D01*
X10922444Y-11754388D02*
X10912920Y-11716293D01*
X10912920Y-11716293D02*
X10912920Y-11668674D01*
X10912920Y-11668674D02*
X10922444Y-11630579D01*
X10922444Y-11630579D02*
X10931967Y-11611531D01*
X10931967Y-11611531D02*
X10941491Y-11602008D01*
X10941491Y-11602008D02*
X10960539Y-11592484D01*
X11112920Y-11792484D02*
X11112920Y-11659150D01*
X11112920Y-11678198D02*
X11122444Y-11668674D01*
X11122444Y-11668674D02*
X11141491Y-11659150D01*
X11141491Y-11659150D02*
X11170063Y-11659150D01*
X11170063Y-11659150D02*
X11189110Y-11668674D01*
X11189110Y-11668674D02*
X11198634Y-11687722D01*
X11198634Y-11687722D02*
X11198634Y-11792484D01*
X11198634Y-11687722D02*
X11208158Y-11668674D01*
X11208158Y-11668674D02*
X11227205Y-11659150D01*
X11227205Y-11659150D02*
X11255777Y-11659150D01*
X11255777Y-11659150D02*
X11274824Y-11668674D01*
X11274824Y-11668674D02*
X11284348Y-11687722D01*
X11284348Y-11687722D02*
X11284348Y-11792484D01*
X11379586Y-11792484D02*
X11379586Y-11659150D01*
X11379586Y-11678198D02*
X11389110Y-11668674D01*
X11389110Y-11668674D02*
X11408158Y-11659150D01*
X11408158Y-11659150D02*
X11436729Y-11659150D01*
X11436729Y-11659150D02*
X11455777Y-11668674D01*
X11455777Y-11668674D02*
X11465301Y-11687722D01*
X11465301Y-11687722D02*
X11465301Y-11792484D01*
X11465301Y-11687722D02*
X11474824Y-11668674D01*
X11474824Y-11668674D02*
X11493872Y-11659150D01*
X11493872Y-11659150D02*
X11522443Y-11659150D01*
X11522443Y-11659150D02*
X11541491Y-11668674D01*
X11541491Y-11668674D02*
X11551015Y-11687722D01*
X11551015Y-11687722D02*
X11551015Y-11792484D01*
X11941491Y-11582960D02*
X11770063Y-11840103D01*
X12198634Y-11592484D02*
X12217682Y-11592484D01*
X12217682Y-11592484D02*
X12236729Y-11602008D01*
X12236729Y-11602008D02*
X12246253Y-11611531D01*
X12246253Y-11611531D02*
X12255777Y-11630579D01*
X12255777Y-11630579D02*
X12265301Y-11668674D01*
X12265301Y-11668674D02*
X12265301Y-11716293D01*
X12265301Y-11716293D02*
X12255777Y-11754388D01*
X12255777Y-11754388D02*
X12246253Y-11773436D01*
X12246253Y-11773436D02*
X12236729Y-11782960D01*
X12236729Y-11782960D02*
X12217682Y-11792484D01*
X12217682Y-11792484D02*
X12198634Y-11792484D01*
X12198634Y-11792484D02*
X12179586Y-11782960D01*
X12179586Y-11782960D02*
X12170063Y-11773436D01*
X12170063Y-11773436D02*
X12160539Y-11754388D01*
X12160539Y-11754388D02*
X12151015Y-11716293D01*
X12151015Y-11716293D02*
X12151015Y-11668674D01*
X12151015Y-11668674D02*
X12160539Y-11630579D01*
X12160539Y-11630579D02*
X12170063Y-11611531D01*
X12170063Y-11611531D02*
X12179586Y-11602008D01*
X12179586Y-11602008D02*
X12198634Y-11592484D01*
X12351015Y-11773436D02*
X12360539Y-11782960D01*
X12360539Y-11782960D02*
X12351015Y-11792484D01*
X12351015Y-11792484D02*
X12341491Y-11782960D01*
X12341491Y-11782960D02*
X12351015Y-11773436D01*
X12351015Y-11773436D02*
X12351015Y-11792484D01*
X12484348Y-11592484D02*
X12503396Y-11592484D01*
X12503396Y-11592484D02*
X12522444Y-11602008D01*
X12522444Y-11602008D02*
X12531967Y-11611531D01*
X12531967Y-11611531D02*
X12541491Y-11630579D01*
X12541491Y-11630579D02*
X12551015Y-11668674D01*
X12551015Y-11668674D02*
X12551015Y-11716293D01*
X12551015Y-11716293D02*
X12541491Y-11754388D01*
X12541491Y-11754388D02*
X12531967Y-11773436D01*
X12531967Y-11773436D02*
X12522444Y-11782960D01*
X12522444Y-11782960D02*
X12503396Y-11792484D01*
X12503396Y-11792484D02*
X12484348Y-11792484D01*
X12484348Y-11792484D02*
X12465301Y-11782960D01*
X12465301Y-11782960D02*
X12455777Y-11773436D01*
X12455777Y-11773436D02*
X12446253Y-11754388D01*
X12446253Y-11754388D02*
X12436729Y-11716293D01*
X12436729Y-11716293D02*
X12436729Y-11668674D01*
X12436729Y-11668674D02*
X12446253Y-11630579D01*
X12446253Y-11630579D02*
X12455777Y-11611531D01*
X12455777Y-11611531D02*
X12465301Y-11602008D01*
X12465301Y-11602008D02*
X12484348Y-11592484D01*
X12617682Y-11592484D02*
X12741491Y-11592484D01*
X12741491Y-11592484D02*
X12674825Y-11668674D01*
X12674825Y-11668674D02*
X12703396Y-11668674D01*
X12703396Y-11668674D02*
X12722444Y-11678198D01*
X12722444Y-11678198D02*
X12731967Y-11687722D01*
X12731967Y-11687722D02*
X12741491Y-11706769D01*
X12741491Y-11706769D02*
X12741491Y-11754388D01*
X12741491Y-11754388D02*
X12731967Y-11773436D01*
X12731967Y-11773436D02*
X12722444Y-11782960D01*
X12722444Y-11782960D02*
X12703396Y-11792484D01*
X12703396Y-11792484D02*
X12646253Y-11792484D01*
X12646253Y-11792484D02*
X12627206Y-11782960D01*
X12627206Y-11782960D02*
X12617682Y-11773436D01*
X12836729Y-11792484D02*
X12874825Y-11792484D01*
X12874825Y-11792484D02*
X12893872Y-11782960D01*
X12893872Y-11782960D02*
X12903396Y-11773436D01*
X12903396Y-11773436D02*
X12922444Y-11744865D01*
X12922444Y-11744865D02*
X12931967Y-11706769D01*
X12931967Y-11706769D02*
X12931967Y-11630579D01*
X12931967Y-11630579D02*
X12922444Y-11611531D01*
X12922444Y-11611531D02*
X12912920Y-11602008D01*
X12912920Y-11602008D02*
X12893872Y-11592484D01*
X12893872Y-11592484D02*
X12855777Y-11592484D01*
X12855777Y-11592484D02*
X12836729Y-11602008D01*
X12836729Y-11602008D02*
X12827206Y-11611531D01*
X12827206Y-11611531D02*
X12817682Y-11630579D01*
X12817682Y-11630579D02*
X12817682Y-11678198D01*
X12817682Y-11678198D02*
X12827206Y-11697246D01*
X12827206Y-11697246D02*
X12836729Y-11706769D01*
X12836729Y-11706769D02*
X12855777Y-11716293D01*
X12855777Y-11716293D02*
X12893872Y-11716293D01*
X12893872Y-11716293D02*
X12912920Y-11706769D01*
X12912920Y-11706769D02*
X12922444Y-11697246D01*
X12922444Y-11697246D02*
X12931967Y-11678198D01*
X13103396Y-11659150D02*
X13103396Y-11792484D01*
X13055777Y-11582960D02*
X13008158Y-11725817D01*
X13008158Y-11725817D02*
X13131967Y-11725817D01*
X13198634Y-11592484D02*
X13198634Y-11630579D01*
X13274825Y-11592484D02*
X13274825Y-11630579D01*
X13570063Y-11868674D02*
X13560539Y-11859150D01*
X13560539Y-11859150D02*
X13541491Y-11830579D01*
X13541491Y-11830579D02*
X13531968Y-11811531D01*
X13531968Y-11811531D02*
X13522444Y-11782960D01*
X13522444Y-11782960D02*
X13512920Y-11735341D01*
X13512920Y-11735341D02*
X13512920Y-11697246D01*
X13512920Y-11697246D02*
X13522444Y-11649627D01*
X13522444Y-11649627D02*
X13531968Y-11621055D01*
X13531968Y-11621055D02*
X13541491Y-11602008D01*
X13541491Y-11602008D02*
X13560539Y-11573436D01*
X13560539Y-11573436D02*
X13570063Y-11563912D01*
X13731968Y-11659150D02*
X13731968Y-11792484D01*
X13684348Y-11582960D02*
X13636729Y-11725817D01*
X13636729Y-11725817D02*
X13760539Y-11725817D01*
X13922444Y-11592484D02*
X13884348Y-11592484D01*
X13884348Y-11592484D02*
X13865301Y-11602008D01*
X13865301Y-11602008D02*
X13855777Y-11611531D01*
X13855777Y-11611531D02*
X13836729Y-11640103D01*
X13836729Y-11640103D02*
X13827206Y-11678198D01*
X13827206Y-11678198D02*
X13827206Y-11754388D01*
X13827206Y-11754388D02*
X13836729Y-11773436D01*
X13836729Y-11773436D02*
X13846253Y-11782960D01*
X13846253Y-11782960D02*
X13865301Y-11792484D01*
X13865301Y-11792484D02*
X13903396Y-11792484D01*
X13903396Y-11792484D02*
X13922444Y-11782960D01*
X13922444Y-11782960D02*
X13931968Y-11773436D01*
X13931968Y-11773436D02*
X13941491Y-11754388D01*
X13941491Y-11754388D02*
X13941491Y-11706769D01*
X13941491Y-11706769D02*
X13931968Y-11687722D01*
X13931968Y-11687722D02*
X13922444Y-11678198D01*
X13922444Y-11678198D02*
X13903396Y-11668674D01*
X13903396Y-11668674D02*
X13865301Y-11668674D01*
X13865301Y-11668674D02*
X13846253Y-11678198D01*
X13846253Y-11678198D02*
X13836729Y-11687722D01*
X13836729Y-11687722D02*
X13827206Y-11706769D01*
X14179587Y-11792484D02*
X14179587Y-11592484D01*
X14265301Y-11792484D02*
X14265301Y-11687722D01*
X14265301Y-11687722D02*
X14255777Y-11668674D01*
X14255777Y-11668674D02*
X14236730Y-11659150D01*
X14236730Y-11659150D02*
X14208158Y-11659150D01*
X14208158Y-11659150D02*
X14189110Y-11668674D01*
X14189110Y-11668674D02*
X14179587Y-11678198D01*
X14389110Y-11792484D02*
X14370063Y-11782960D01*
X14370063Y-11782960D02*
X14360539Y-11773436D01*
X14360539Y-11773436D02*
X14351015Y-11754388D01*
X14351015Y-11754388D02*
X14351015Y-11697246D01*
X14351015Y-11697246D02*
X14360539Y-11678198D01*
X14360539Y-11678198D02*
X14370063Y-11668674D01*
X14370063Y-11668674D02*
X14389110Y-11659150D01*
X14389110Y-11659150D02*
X14417682Y-11659150D01*
X14417682Y-11659150D02*
X14436730Y-11668674D01*
X14436730Y-11668674D02*
X14446253Y-11678198D01*
X14446253Y-11678198D02*
X14455777Y-11697246D01*
X14455777Y-11697246D02*
X14455777Y-11754388D01*
X14455777Y-11754388D02*
X14446253Y-11773436D01*
X14446253Y-11773436D02*
X14436730Y-11782960D01*
X14436730Y-11782960D02*
X14417682Y-11792484D01*
X14417682Y-11792484D02*
X14389110Y-11792484D01*
X14570063Y-11792484D02*
X14551015Y-11782960D01*
X14551015Y-11782960D02*
X14541491Y-11763912D01*
X14541491Y-11763912D02*
X14541491Y-11592484D01*
X14722444Y-11782960D02*
X14703396Y-11792484D01*
X14703396Y-11792484D02*
X14665301Y-11792484D01*
X14665301Y-11792484D02*
X14646253Y-11782960D01*
X14646253Y-11782960D02*
X14636730Y-11763912D01*
X14636730Y-11763912D02*
X14636730Y-11687722D01*
X14636730Y-11687722D02*
X14646253Y-11668674D01*
X14646253Y-11668674D02*
X14665301Y-11659150D01*
X14665301Y-11659150D02*
X14703396Y-11659150D01*
X14703396Y-11659150D02*
X14722444Y-11668674D01*
X14722444Y-11668674D02*
X14731968Y-11687722D01*
X14731968Y-11687722D02*
X14731968Y-11706769D01*
X14731968Y-11706769D02*
X14636730Y-11725817D01*
X14808158Y-11782960D02*
X14827206Y-11792484D01*
X14827206Y-11792484D02*
X14865301Y-11792484D01*
X14865301Y-11792484D02*
X14884349Y-11782960D01*
X14884349Y-11782960D02*
X14893872Y-11763912D01*
X14893872Y-11763912D02*
X14893872Y-11754388D01*
X14893872Y-11754388D02*
X14884349Y-11735341D01*
X14884349Y-11735341D02*
X14865301Y-11725817D01*
X14865301Y-11725817D02*
X14836730Y-11725817D01*
X14836730Y-11725817D02*
X14817682Y-11716293D01*
X14817682Y-11716293D02*
X14808158Y-11697246D01*
X14808158Y-11697246D02*
X14808158Y-11687722D01*
X14808158Y-11687722D02*
X14817682Y-11668674D01*
X14817682Y-11668674D02*
X14836730Y-11659150D01*
X14836730Y-11659150D02*
X14865301Y-11659150D01*
X14865301Y-11659150D02*
X14884349Y-11668674D01*
X14960539Y-11868674D02*
X14970063Y-11859150D01*
X14970063Y-11859150D02*
X14989111Y-11830579D01*
X14989111Y-11830579D02*
X14998634Y-11811531D01*
X14998634Y-11811531D02*
X15008158Y-11782960D01*
X15008158Y-11782960D02*
X15017682Y-11735341D01*
X15017682Y-11735341D02*
X15017682Y-11697246D01*
X15017682Y-11697246D02*
X15008158Y-11649627D01*
X15008158Y-11649627D02*
X14998634Y-11621055D01*
X14998634Y-11621055D02*
X14989111Y-11602008D01*
X14989111Y-11602008D02*
X14970063Y-11573436D01*
X14970063Y-11573436D02*
X14960539Y-11563912D01*
M02*
