G04 #@! TF.GenerationSoftware,KiCad,Pcbnew,9.0.1*
G04 #@! TF.CreationDate,2025-06-21T16:03:48-05:00*
G04 #@! TF.ProjectId,rpi 1,72706920-312e-46b6-9963-61645f706362,rev?*
G04 #@! TF.SameCoordinates,Original*
G04 #@! TF.FileFunction,Copper,L1,Top*
G04 #@! TF.FilePolarity,Positive*
%FSLAX46Y46*%
G04 Gerber Fmt 4.6, Leading zero omitted, Abs format (unit mm)*
G04 Created by KiCad (PCBNEW 9.0.1) date 2025-06-21 16:03:48*
%MOMM*%
%LPD*%
G01*
G04 APERTURE LIST*
G04 Aperture macros list*
%AMRoundRect*
0 Rectangle with rounded corners*
0 $1 Rounding radius*
0 $2 $3 $4 $5 $6 $7 $8 $9 X,Y pos of 4 corners*
0 Add a 4 corners polygon primitive as box body*
4,1,4,$2,$3,$4,$5,$6,$7,$8,$9,$2,$3,0*
0 Add four circle primitives for the rounded corners*
1,1,$1+$1,$2,$3*
1,1,$1+$1,$4,$5*
1,1,$1+$1,$6,$7*
1,1,$1+$1,$8,$9*
0 Add four rect primitives between the rounded corners*
20,1,$1+$1,$2,$3,$4,$5,0*
20,1,$1+$1,$4,$5,$6,$7,0*
20,1,$1+$1,$6,$7,$8,$9,0*
20,1,$1+$1,$8,$9,$2,$3,0*%
G04 Aperture macros list end*
G04 #@! TA.AperFunction,Conductor*
%ADD10C,0.200000*%
G04 #@! TD*
%ADD11C,0.300000*%
G04 #@! TA.AperFunction,NonConductor*
%ADD12C,0.300000*%
G04 #@! TD*
G04 #@! TA.AperFunction,ComponentPad*
%ADD13C,1.400000*%
G04 #@! TD*
G04 #@! TA.AperFunction,ComponentPad*
%ADD14O,1.400000X1.400000*%
G04 #@! TD*
G04 #@! TA.AperFunction,SMDPad,CuDef*
%ADD15R,1.000000X1.000000*%
G04 #@! TD*
G04 #@! TA.AperFunction,ComponentPad*
%ADD16C,1.600000*%
G04 #@! TD*
G04 #@! TA.AperFunction,SMDPad,CuDef*
%ADD17R,1.520000X1.780000*%
G04 #@! TD*
G04 #@! TA.AperFunction,SMDPad,CuDef*
%ADD18R,1.520000X1.750000*%
G04 #@! TD*
G04 #@! TA.AperFunction,ComponentPad*
%ADD19RoundRect,0.250000X-0.510000X-0.510000X0.510000X-0.510000X0.510000X0.510000X-0.510000X0.510000X0*%
G04 #@! TD*
G04 #@! TA.AperFunction,ComponentPad*
%ADD20C,1.520000*%
G04 #@! TD*
G04 #@! TA.AperFunction,ComponentPad*
%ADD21R,1.700000X1.700000*%
G04 #@! TD*
G04 #@! TA.AperFunction,ComponentPad*
%ADD22C,1.700000*%
G04 #@! TD*
G04 #@! TA.AperFunction,SMDPad,CuDef*
%ADD23RoundRect,0.150000X-0.150000X0.825000X-0.150000X-0.825000X0.150000X-0.825000X0.150000X0.825000X0*%
G04 #@! TD*
G04 #@! TA.AperFunction,SMDPad,CuDef*
%ADD24R,0.250000X1.100000*%
G04 #@! TD*
G04 #@! TA.AperFunction,SMDPad,CuDef*
%ADD25RoundRect,0.132500X-0.132500X0.532500X-0.132500X-0.532500X0.132500X-0.532500X0.132500X0.532500X0*%
G04 #@! TD*
G04 #@! TA.AperFunction,SMDPad,CuDef*
%ADD26RoundRect,0.150000X-0.825000X-0.150000X0.825000X-0.150000X0.825000X0.150000X-0.825000X0.150000X0*%
G04 #@! TD*
G04 #@! TA.AperFunction,ComponentPad*
%ADD27C,1.508000*%
G04 #@! TD*
G04 #@! TA.AperFunction,ComponentPad*
%ADD28R,1.508000X1.508000*%
G04 #@! TD*
G04 #@! TA.AperFunction,ComponentPad*
%ADD29R,1.500000X1.500000*%
G04 #@! TD*
G04 #@! TA.AperFunction,ComponentPad*
%ADD30C,1.500000*%
G04 #@! TD*
G04 #@! TA.AperFunction,ComponentPad*
%ADD31O,1.700000X1.700000*%
G04 #@! TD*
G04 #@! TA.AperFunction,ViaPad*
%ADD32C,0.900000*%
G04 #@! TD*
G04 #@! TA.AperFunction,Conductor*
%ADD33C,0.500000*%
G04 #@! TD*
G04 #@! TA.AperFunction,Conductor*
%ADD34C,0.800000*%
G04 #@! TD*
G04 #@! TA.AperFunction,Conductor*
%ADD35C,0.600000*%
G04 #@! TD*
G04 APERTURE END LIST*
D10*
X141620000Y-79770000D02*
X141580000Y-76540000D01*
X138210000Y-82840000D02*
X141620000Y-79770000D01*
D11*
D12*
X112554510Y-68409400D02*
X113697368Y-68409400D01*
X113125939Y-68980828D02*
X113125939Y-67837971D01*
D11*
D12*
X116084510Y-68429400D02*
X117227368Y-68429400D01*
D13*
X149500000Y-69620000D03*
D14*
X149500000Y-64540000D03*
D15*
X102860000Y-80240000D03*
D16*
X121850000Y-80725000D03*
X121850000Y-83225000D03*
X154240000Y-59120000D03*
X156740000Y-59120000D03*
D17*
X120990000Y-54000000D03*
D18*
X120990000Y-56540000D03*
D17*
X120990000Y-59080000D03*
X120990000Y-61620000D03*
X130510000Y-61620000D03*
X130510000Y-59080000D03*
X130510000Y-56540000D03*
X130510000Y-54000000D03*
D13*
X113500000Y-80710000D03*
D14*
X113500000Y-85790000D03*
D13*
X109340000Y-54000000D03*
D14*
X104260000Y-54000000D03*
D19*
X146100000Y-82910000D03*
D20*
X147370000Y-85450000D03*
X148640000Y-82910000D03*
X149910000Y-85450000D03*
X151180000Y-82910000D03*
X152450000Y-85450000D03*
D16*
X110750000Y-74250000D03*
X113250000Y-74250000D03*
X113000000Y-60250000D03*
X115500000Y-60250000D03*
D21*
X118480000Y-89600000D03*
D22*
X115940000Y-89600000D03*
X113400000Y-89600000D03*
X110860000Y-89600000D03*
D13*
X136360000Y-71630000D03*
D14*
X141440000Y-71630000D03*
D13*
X141440000Y-74010000D03*
D14*
X136360000Y-74010000D03*
D13*
X141470000Y-66500000D03*
D14*
X136390000Y-66500000D03*
D16*
X113150000Y-54000000D03*
X115650000Y-54000000D03*
D13*
X108165000Y-76550000D03*
D14*
X103085000Y-76550000D03*
D23*
X108520000Y-60250000D03*
X107250000Y-60250000D03*
X105980000Y-60250000D03*
X104710000Y-60250000D03*
X104710000Y-65200000D03*
X105980000Y-65200000D03*
X107250000Y-65200000D03*
X108520000Y-65200000D03*
D13*
X136470000Y-76550000D03*
D14*
X141550000Y-76550000D03*
D13*
X136420000Y-68780000D03*
D14*
X141500000Y-68780000D03*
D13*
X110750000Y-80750000D03*
D14*
X110750000Y-85830000D03*
D15*
X102910000Y-82750000D03*
D16*
X131525000Y-70400000D03*
X131525000Y-67900000D03*
D24*
X130900000Y-74100000D03*
X130400000Y-74100000D03*
X129900000Y-74100000D03*
X129400000Y-74100000D03*
X128900000Y-74100000D03*
X128900000Y-78400000D03*
X129400000Y-78400000D03*
X129900000Y-78400000D03*
X130400000Y-78400000D03*
X130900000Y-78400000D03*
D13*
X109480000Y-56800000D03*
D14*
X104400000Y-56800000D03*
D25*
X157800000Y-74490000D03*
X156530000Y-74490000D03*
X155260000Y-74490000D03*
X155260000Y-77540000D03*
X156530000Y-77540000D03*
X157800000Y-77540000D03*
D16*
X113000000Y-66500000D03*
X116500000Y-66500000D03*
D26*
X153050000Y-63230000D03*
X153050000Y-64500000D03*
X153050000Y-65770000D03*
X153050000Y-67040000D03*
X158000000Y-67040000D03*
X158000000Y-65770000D03*
X158000000Y-64500000D03*
X158000000Y-63230000D03*
D27*
X103100000Y-88560000D03*
D28*
X105640000Y-88560000D03*
D13*
X136390000Y-64310000D03*
D14*
X141470000Y-64310000D03*
D29*
X128917500Y-85450000D03*
D30*
X130187500Y-82910000D03*
X131457500Y-85450000D03*
X132727500Y-82910000D03*
X133997500Y-85450000D03*
X135267500Y-82910000D03*
X136537500Y-85450000D03*
X137807500Y-82910000D03*
D21*
X108370000Y-48770000D03*
D31*
X108370000Y-46230000D03*
X110910000Y-48770000D03*
X110910000Y-46230000D03*
X113450000Y-48770000D03*
X113450000Y-46230000D03*
X115990000Y-48770000D03*
X115990000Y-46230000D03*
X118530000Y-48770000D03*
X118530000Y-46230000D03*
X121070000Y-48770000D03*
X121070000Y-46230000D03*
X123610000Y-48770000D03*
X123610000Y-46230000D03*
X126150000Y-48770000D03*
X126150000Y-46230000D03*
X128690000Y-48770000D03*
X128690000Y-46230000D03*
X131230000Y-48770000D03*
X131230000Y-46230000D03*
X133770000Y-48770000D03*
X133770000Y-46230000D03*
X136310000Y-48770000D03*
X136310000Y-46230000D03*
X138850000Y-48770000D03*
X138850000Y-46230000D03*
X141390000Y-48770000D03*
X141390000Y-46230000D03*
X143930000Y-48770000D03*
X143930000Y-46230000D03*
X146470000Y-48770000D03*
X146470000Y-46230000D03*
X149010000Y-48770000D03*
X149010000Y-46230000D03*
X151550000Y-48770000D03*
X151550000Y-46230000D03*
X154090000Y-48770000D03*
X154090000Y-46230000D03*
X156630000Y-48770000D03*
X156630000Y-46230000D03*
D32*
X110825000Y-69600000D03*
X132750000Y-79050000D03*
X108814969Y-68486574D03*
X108130000Y-70610000D03*
D33*
X105400000Y-62800000D02*
X114700000Y-62800000D01*
D34*
X123500000Y-44500000D02*
X131250000Y-44500000D01*
X148500000Y-44500000D02*
X149010000Y-45010000D01*
X123610000Y-46230000D02*
X123610000Y-44610000D01*
X131250000Y-44500000D02*
X143750000Y-44500000D01*
X149010000Y-45010000D02*
X149010000Y-46230000D01*
X143930000Y-46230000D02*
X143930000Y-44680000D01*
D33*
X116500000Y-64600000D02*
X116500000Y-66500000D01*
D34*
X157726012Y-44500000D02*
X148500000Y-44500000D01*
X115650000Y-54000000D02*
X120990000Y-54000000D01*
X123610000Y-44610000D02*
X123500000Y-44500000D01*
D33*
X104710000Y-61224999D02*
X104710000Y-62110000D01*
D34*
X113450000Y-44550000D02*
X113500000Y-44500000D01*
X143930000Y-44680000D02*
X143750000Y-44500000D01*
X113450000Y-46230000D02*
X113450000Y-44550000D01*
X131230000Y-44520000D02*
X131250000Y-44500000D01*
X143750000Y-44500000D02*
X148500000Y-44500000D01*
X156630000Y-48770000D02*
X158081000Y-47319000D01*
D10*
X104710000Y-60250000D02*
X104710000Y-61224999D01*
D33*
X114700000Y-62800000D02*
X116500000Y-64600000D01*
D34*
X158081000Y-47319000D02*
X158081000Y-44854988D01*
X113500000Y-44500000D02*
X123500000Y-44500000D01*
X131230000Y-46230000D02*
X131230000Y-44520000D01*
X158081000Y-44854988D02*
X157726012Y-44500000D01*
D33*
X104710000Y-62110000D02*
X105400000Y-62800000D01*
D10*
X107235000Y-56500000D02*
X107235000Y-53355000D01*
X107235000Y-53355000D02*
X108220000Y-52370000D01*
X107235000Y-56800000D02*
X104400000Y-56800000D01*
X107250000Y-59750000D02*
X107250000Y-56515000D01*
X107235000Y-56500000D02*
X107235000Y-56800000D01*
X108220000Y-52370000D02*
X110060000Y-52370000D01*
X110060000Y-52370000D02*
X110910000Y-51520000D01*
X107250000Y-56515000D02*
X107235000Y-56500000D01*
X110910000Y-51520000D02*
X110910000Y-48770000D01*
X105980000Y-58966372D02*
X105263628Y-58250000D01*
X112299000Y-47619000D02*
X113450000Y-48770000D01*
X104260000Y-54000000D02*
X103000000Y-55260000D01*
X103000000Y-55260000D02*
X103000000Y-57750000D01*
X104260000Y-54000000D02*
X104300000Y-54000000D01*
X109851000Y-47619000D02*
X112299000Y-47619000D01*
X109759000Y-47711000D02*
X109851000Y-47619000D01*
X104300000Y-54000000D02*
X106830000Y-51470000D01*
X106830000Y-51470000D02*
X109759000Y-51470000D01*
X105980000Y-59750000D02*
X105980000Y-58966372D01*
X105263628Y-58250000D02*
X103500000Y-58250000D01*
X103500000Y-58250000D02*
X103000000Y-57750000D01*
X109759000Y-51470000D02*
X109759000Y-47711000D01*
D34*
X120990000Y-56540000D02*
X114960000Y-56540000D01*
X114960000Y-56540000D02*
X113000000Y-58500000D01*
X113000000Y-58500000D02*
X113000000Y-60250000D01*
D33*
X109480000Y-58520000D02*
X108505000Y-59495000D01*
X113200000Y-51275000D02*
X113200000Y-53950000D01*
X109480000Y-56800000D02*
X109480000Y-58520000D01*
D10*
X113200000Y-53950000D02*
X113150000Y-54000000D01*
D33*
X128690000Y-48770000D02*
X128690000Y-50035000D01*
X127450000Y-51275000D02*
X113200000Y-51275000D01*
X128690000Y-50035000D02*
X127450000Y-51275000D01*
D34*
X151180000Y-82910000D02*
X147995000Y-79725000D01*
D33*
X155342093Y-64540000D02*
X155342093Y-65770000D01*
D34*
X143932500Y-80142500D02*
X144350000Y-79725000D01*
X144200000Y-71630000D02*
X141440000Y-71630000D01*
X118175000Y-72575000D02*
X118100000Y-72500000D01*
X118480000Y-89600000D02*
X115630000Y-92450000D01*
D10*
X129815686Y-67900000D02*
X131525000Y-67900000D01*
D34*
X105725000Y-86724950D02*
X105755000Y-86694950D01*
X140025000Y-87800000D02*
X140850000Y-86975000D01*
X120990000Y-69760000D02*
X120990000Y-61620000D01*
D33*
X156740000Y-60180000D02*
X156740000Y-59120000D01*
D34*
X121850000Y-89525000D02*
X121850000Y-83225000D01*
X105755000Y-86694950D02*
X105755000Y-86115050D01*
D10*
X155382093Y-64500000D02*
X155342093Y-64540000D01*
D34*
X144200000Y-79875000D02*
X143932500Y-80142500D01*
X124800000Y-89600000D02*
X126600000Y-87800000D01*
D35*
X104625000Y-65285000D02*
X104625000Y-67200000D01*
D34*
X147995000Y-79725000D02*
X144350000Y-79725000D01*
X105725000Y-73204118D02*
X105974559Y-72954559D01*
D33*
X155342093Y-64540000D02*
X155342093Y-61577907D01*
D34*
X140850000Y-83225000D02*
X143932500Y-80142500D01*
X141440000Y-71630000D02*
X141440000Y-68840000D01*
D33*
X158000000Y-64500000D02*
X155382093Y-64500000D01*
X156530000Y-72630000D02*
X156530000Y-74490000D01*
D34*
X118480000Y-89600000D02*
X121775000Y-89600000D01*
X141440000Y-68840000D02*
X141500000Y-68780000D01*
D33*
X155342093Y-61577907D02*
X156740000Y-60180000D01*
X155342093Y-71442093D02*
X156530000Y-72630000D01*
X155342093Y-65770000D02*
X153050000Y-65770000D01*
D34*
X140850000Y-86975000D02*
X140850000Y-83225000D01*
X133400000Y-87800000D02*
X133997500Y-87202500D01*
X133997500Y-87202500D02*
X133997500Y-85500000D01*
D35*
X104710000Y-65200000D02*
X104625000Y-65285000D01*
X106775000Y-72154118D02*
X105974559Y-72954559D01*
D33*
X158000000Y-63230000D02*
X155325000Y-63230000D01*
D34*
X105755000Y-86115050D02*
X105725000Y-86085050D01*
D35*
X104625000Y-67200000D02*
X106775000Y-69350000D01*
D34*
X107425000Y-92450000D02*
X105725000Y-90750000D01*
X118100000Y-72500000D02*
X113325000Y-72500000D01*
X105725000Y-90750000D02*
X105725000Y-86724950D01*
X144200000Y-71630000D02*
X144200000Y-79875000D01*
D35*
X106775000Y-69350000D02*
X106775000Y-72154118D01*
D34*
X133400000Y-87800000D02*
X140025000Y-87800000D01*
X115630000Y-92450000D02*
X107425000Y-92450000D01*
D33*
X155342093Y-65770000D02*
X155342093Y-71442093D01*
D34*
X113250000Y-72575000D02*
X113250000Y-74250000D01*
D10*
X128900000Y-68815686D02*
X129815686Y-67900000D01*
D34*
X106429118Y-72500000D02*
X105974559Y-72954559D01*
X113325000Y-72500000D02*
X113250000Y-72575000D01*
X121775000Y-89600000D02*
X121850000Y-89525000D01*
X126600000Y-87800000D02*
X133400000Y-87800000D01*
X118175000Y-72575000D02*
X120990000Y-69760000D01*
X121775000Y-89600000D02*
X124800000Y-89600000D01*
X105725000Y-86085050D02*
X105725000Y-73204118D01*
X113325000Y-72500000D02*
X106429118Y-72500000D01*
D10*
X128900000Y-74100000D02*
X128900000Y-68815686D01*
D34*
X127620000Y-61620000D02*
X130510000Y-61620000D01*
X110750000Y-80750000D02*
X113460000Y-80750000D01*
D33*
X113460000Y-80750000D02*
X113500000Y-80710000D01*
D34*
X113500000Y-80710000D02*
X123350000Y-70860000D01*
D33*
X127600000Y-61600000D02*
X127620000Y-61620000D01*
D34*
X110750000Y-80750000D02*
X110750000Y-74250000D01*
D33*
X110825000Y-67505000D02*
X110825000Y-69600000D01*
D10*
X130900000Y-71100000D02*
X131650000Y-70350000D01*
X130900000Y-78400000D02*
X132100000Y-78400000D01*
X154240000Y-59120000D02*
X152940000Y-60420000D01*
X152940000Y-60420000D02*
X152940000Y-63120000D01*
D34*
X123350000Y-65850000D02*
X127600000Y-61600000D01*
D10*
X152940000Y-63120000D02*
X153050000Y-63230000D01*
X132100000Y-78400000D02*
X132750000Y-79050000D01*
D34*
X123350000Y-70860000D02*
X123350000Y-65850000D01*
D10*
X130900000Y-74100000D02*
X130900000Y-71100000D01*
D33*
X108520000Y-65200000D02*
X110825000Y-67505000D01*
D10*
X113375000Y-91200000D02*
X109450000Y-91200000D01*
X107250000Y-65200000D02*
X107250000Y-66921605D01*
X113400000Y-91175000D02*
X113375000Y-91200000D01*
X152750000Y-57560000D02*
X149400000Y-60910000D01*
X129075000Y-76250000D02*
X130400000Y-74925000D01*
X126320000Y-64850000D02*
X126300000Y-64870000D01*
X132930000Y-64250000D02*
X132330000Y-64850000D01*
X132330000Y-64850000D02*
X126320000Y-64850000D01*
X126290000Y-69710000D02*
X126290000Y-69758044D01*
X158000000Y-67040000D02*
X159485000Y-67040000D01*
X149400000Y-60910000D02*
X132930000Y-60910000D01*
X109450000Y-91200000D02*
X108875000Y-90625000D01*
X112778044Y-83270000D02*
X110396525Y-83270000D01*
X132930000Y-60910000D02*
X132930000Y-64250000D01*
X159485000Y-67040000D02*
X160030000Y-66495000D01*
X126290000Y-69758044D02*
X112778044Y-83270000D01*
X123040000Y-76250000D02*
X129075000Y-76250000D01*
X110396525Y-83270000D02*
X108930000Y-84736525D01*
X130400000Y-74925000D02*
X130400000Y-74100000D01*
X113500000Y-85790000D02*
X123040000Y-76250000D01*
X160030000Y-66495000D02*
X160030000Y-57560000D01*
X113400000Y-89600000D02*
X113400000Y-91175000D01*
X130400000Y-74877000D02*
X130400000Y-74100000D01*
X126300000Y-64870000D02*
X126300000Y-69700000D01*
X160030000Y-57560000D02*
X152750000Y-57560000D01*
X113500000Y-89500000D02*
X113400000Y-89600000D01*
X113500000Y-85790000D02*
X113500000Y-89500000D01*
X108930000Y-84736525D02*
X108930000Y-90530000D01*
X107250000Y-66921605D02*
X108814969Y-68486574D01*
X126300000Y-69700000D02*
X126290000Y-69710000D01*
X147860000Y-67040000D02*
X153050000Y-67040000D01*
X147860000Y-62130000D02*
X147860000Y-67040000D01*
X134040000Y-69060000D02*
X134040000Y-62130000D01*
X106000000Y-65220000D02*
X105999999Y-65220001D01*
X129400000Y-74100000D02*
X129400000Y-70790000D01*
X108130000Y-69390000D02*
X105980000Y-67240000D01*
X129400000Y-74850000D02*
X128950000Y-75300000D01*
X131130000Y-69060000D02*
X134040000Y-69060000D01*
X110750000Y-85830000D02*
X110750000Y-89490000D01*
X129400000Y-70790000D02*
X131130000Y-69060000D01*
D33*
X106000000Y-65220000D02*
X105980000Y-65200000D01*
D10*
X128950000Y-75300000D02*
X122415686Y-75300000D01*
X105980000Y-67240000D02*
X105980000Y-65200000D01*
X110750000Y-89490000D02*
X110860000Y-89600000D01*
X108130000Y-70610000D02*
X108130000Y-69390000D01*
X134040000Y-62130000D02*
X147860000Y-62130000D01*
X111885685Y-85830000D02*
X110750000Y-85830000D01*
X129400000Y-74100000D02*
X129400000Y-74850000D01*
X122415686Y-75300000D02*
X111885685Y-85830000D01*
X156379820Y-87375000D02*
X149950000Y-87375000D01*
X157800000Y-77540000D02*
X157800000Y-85954820D01*
X157800000Y-85954820D02*
X156379820Y-87375000D01*
X149910000Y-87335000D02*
X149910000Y-85450000D01*
X149950000Y-87375000D02*
X149910000Y-87335000D01*
X156530000Y-83370000D02*
X155650000Y-84250000D01*
X155650000Y-84250000D02*
X149980000Y-84250000D01*
X156530000Y-77540000D02*
X156530000Y-83370000D01*
X149980000Y-84250000D02*
X148640000Y-82910000D01*
X137950000Y-70020000D02*
X141470000Y-66500000D01*
X129400000Y-82172500D02*
X130187500Y-82960000D01*
X129400000Y-77555900D02*
X132452950Y-74502950D01*
X136331000Y-70020000D02*
X137950000Y-70020000D01*
X132452950Y-73898050D02*
X136331000Y-70020000D01*
X141470000Y-66500000D02*
X141470000Y-64310000D01*
X129400000Y-78400000D02*
X129400000Y-82172500D01*
X132452950Y-74502950D02*
X132452950Y-73898050D01*
X129400000Y-78400000D02*
X129400000Y-77555900D01*
X136390000Y-67165000D02*
X136390000Y-68950000D01*
X136360000Y-67135000D02*
X136390000Y-67165000D01*
X128900000Y-77400000D02*
X128900000Y-78400000D01*
X128900000Y-78400000D02*
X128900000Y-85482500D01*
X131930000Y-74370000D02*
X128900000Y-77400000D01*
X136390000Y-68950000D02*
X131930000Y-73410000D01*
X131930000Y-73410000D02*
X131930000Y-74370000D01*
X136200000Y-81000000D02*
X136537500Y-81337500D01*
X134490000Y-81000000D02*
X134490000Y-75880000D01*
X136537500Y-81337500D02*
X136537500Y-85500000D01*
X134490000Y-75880000D02*
X136360000Y-74010000D01*
X130400000Y-80400000D02*
X131000000Y-81000000D01*
X136360000Y-71630000D02*
X136360000Y-74010000D01*
X134490000Y-81000000D02*
X136200000Y-81000000D01*
X131000000Y-81000000D02*
X134490000Y-81000000D01*
X130400000Y-78400000D02*
X130400000Y-80400000D01*
X141550000Y-76550000D02*
X141550000Y-74120000D01*
X141550000Y-74120000D02*
X141440000Y-74010000D01*
X134000000Y-81400000D02*
X134000000Y-83600000D01*
X135800000Y-86800000D02*
X137400000Y-86800000D01*
X134000000Y-83600000D02*
X135200000Y-84800000D01*
X130600000Y-81400000D02*
X134000000Y-81400000D01*
X129900000Y-78400000D02*
X129900000Y-80700000D01*
X137807500Y-86392500D02*
X137807500Y-82960000D01*
X129900000Y-80700000D02*
X130600000Y-81400000D01*
X135200000Y-86200000D02*
X135800000Y-86800000D01*
X137400000Y-86800000D02*
X137807500Y-86392500D01*
X135200000Y-84800000D02*
X135200000Y-86200000D01*
X149640000Y-64500000D02*
X149500000Y-64640000D01*
X153050000Y-64500000D02*
X149640000Y-64500000D01*
X157800000Y-75775000D02*
X157800000Y-75175000D01*
X149500000Y-75775000D02*
X149900000Y-76175000D01*
X149500000Y-69620000D02*
X149500000Y-75775000D01*
X149900000Y-76175000D02*
X157400000Y-76175000D01*
X157400000Y-76175000D02*
X157800000Y-75775000D01*
X102910000Y-82750000D02*
X102910000Y-88370000D01*
X103100000Y-88560000D02*
X102860000Y-88320000D01*
X102910000Y-80290000D02*
X102860000Y-80240000D01*
X102860000Y-80240000D02*
X102860000Y-76775000D01*
X102910000Y-88370000D02*
X103100000Y-88560000D01*
X102910000Y-82750000D02*
X102910000Y-80290000D01*
X102860000Y-76775000D02*
X103085000Y-76550000D01*
M02*
